<svg width="260" height="100" viewBox="0 0 260 100" fill="none" xmlns="http://www.w3.org/2000/svg">
<path d="M188.246 47.4601H180.294V39.253C180.294 38.1587 179.674 37.2104 178.798 36.6997C178.397 36.4809 177.923 36.335 177.412 36.335H150.749C150.055 36.335 149.399 36.5903 148.888 36.9915C148.524 37.2469 148.195 37.5751 147.94 37.9764L138.894 54.7552L130.723 38.7424C130.577 38.1223 130.213 37.5387 129.702 37.1374C128.863 36.3714 127.586 36.1526 126.492 36.6632C125.58 37.101 124.997 37.9764 124.887 38.9247L116.352 54.7552L107.853 38.0493C107.561 37.3928 107.014 36.9186 106.43 36.6632C106.029 36.4809 105.592 36.335 105.117 36.335H83.5602C83.0495 36.335 82.5753 36.4444 82.1741 36.6997C81.2622 37.1739 80.6786 38.1587 80.6786 39.253V47.4601H72.6904C71.0855 47.4601 69.8088 48.7367 69.8088 50.3417C69.8088 51.9466 71.0855 53.2232 72.6904 53.2232H80.6421V61.1749C80.6421 62.7799 81.9188 64.0565 83.5237 64.0565C85.1287 64.0565 86.4053 62.7799 86.4053 61.1749V53.2232H100.157C101.762 53.2232 103.038 51.9466 103.038 50.3417C103.038 48.7367 101.762 47.4601 100.157 47.4601H86.4053V42.1346H103.403L113.58 62.0868C113.653 62.2692 113.726 62.4516 113.835 62.5975C114.601 63.8742 116.206 64.4213 117.592 63.7283C118.431 63.327 119.015 62.5245 119.161 61.6856L127.769 45.7457L136.085 62.0868C136.158 62.2692 136.231 62.4516 136.341 62.5975C137.107 63.8742 138.712 64.4213 140.098 63.7283C140.937 63.327 141.52 62.5245 141.666 61.6856L152.208 42.0981H174.421V47.4236H155.162C153.594 47.4236 152.353 48.6638 152.281 50.1957V60.9926C152.281 62.5975 153.557 63.8742 155.162 63.8742H176.427C176.719 63.9836 177.048 63.8742 177.376 63.8742C178.981 63.8742 180.257 62.5975 180.257 60.9926V53.1868H188.209C189.814 53.1868 191.091 51.9101 191.091 50.3052C191.127 48.7732 189.814 47.4601 188.246 47.4601ZM174.494 58.1475H158.007V53.2597H174.494V58.1475Z" fill="black"/>
<path d="M177.376 36.371C177.887 36.371 178.361 36.4804 178.762 36.7357C179.674 37.2099 180.258 38.1948 180.258 39.289V47.4961H188.209C189.814 47.4961 191.091 48.7727 191.091 50.3777C191.091 51.9826 189.814 53.2593 188.209 53.2593H180.258V61.0651C180.258 62.67 178.981 63.9467 177.376 63.9467C177.048 63.9467 155.235 63.9467 155.235 63.9467C153.63 63.9467 152.354 62.67 152.354 61.0651V50.2318C152.427 48.6998 153.703 47.4596 155.235 47.4596H174.494V42.1342H152.281L141.739 61.7216C141.557 62.597 141.01 63.363 140.171 63.7643C139.769 63.9467 139.332 64.0561 138.931 64.0561C137.946 64.0561 136.961 63.5454 136.45 62.6335C136.341 62.4876 136.268 62.3052 136.195 62.1229L127.878 45.7817L119.452 61.7581C119.088 62.597 118.541 63.363 117.702 63.8008C117.3 63.9831 116.863 64.0926 116.461 64.0926C115.477 64.0926 114.492 63.5819 113.981 62.67C113.872 62.5241 113.799 62.3417 113.726 62.1593L103.549 42.2071H86.5513V47.5326H100.303C101.908 47.5326 103.184 48.8092 103.184 50.4141C103.184 52.0191 101.908 53.2957 100.303 53.2957H86.5513V61.2475C86.5513 62.8524 85.2747 64.129 83.6698 64.129C82.0648 64.129 80.7882 62.8524 80.7882 61.2475V53.2957H72.6906C71.0856 53.2957 69.809 52.0191 69.809 50.4141C69.809 48.8092 71.0856 47.5326 72.6906 47.5326H80.6423V39.3255C80.6423 38.2313 81.2624 37.2829 82.1378 36.7722C82.539 36.5534 83.0132 36.4075 83.5239 36.4075H105.081C105.555 36.4075 105.993 36.5169 106.394 36.7357C107.014 36.9911 107.525 37.4653 107.817 38.1218L116.352 54.8642L124.887 38.8878C125.325 38.0124 125.544 37.2099 126.492 36.7722C126.894 36.5898 127.331 36.4804 127.732 36.4804C128.462 36.4804 129.155 36.7357 129.666 37.2464C130.176 37.6476 130.432 37.9394 130.796 38.6325L138.858 54.8642L147.904 38.0853C148.122 37.6841 148.451 37.3558 148.852 37.1005C149.363 36.6993 149.983 36.4439 150.712 36.4439H177.376V36.371ZM158.007 58.147H174.494V53.2593H158.007V58.147ZM177.376 30.4619H150.712C148.779 30.4619 146.882 31.1185 145.35 32.2857C144.292 33.0152 143.417 34.0001 142.797 35.0943L142.76 35.1673L142.724 35.2402L139.04 42.0977C139.04 42.0977 134.772 33.7083 133.496 32.6869C131.891 31.3009 129.848 30.5349 127.732 30.5349C126.419 30.5349 125.106 30.8267 123.903 31.4103C121.605 32.5046 120.328 34.5472 119.27 36.9181L116.498 42.0977L113.106 35.4591C112.23 33.6718 110.735 32.2128 108.911 31.3738C107.707 30.7902 106.394 30.4984 105.081 30.4984H83.5239C82.0648 30.4984 80.6058 30.8631 79.3291 31.5562C76.484 33.0882 74.7332 36.0792 74.7332 39.289V41.587H72.6906C67.8393 41.587 63.8999 45.5264 63.8999 50.3777C63.8999 55.2289 67.8393 59.1683 72.6906 59.1683H74.7332V61.211C74.7332 66.0622 78.6726 70.0016 83.5239 70.0016C88.3751 70.0016 92.3145 66.0622 92.3145 61.211V59.1683H100.12C101.798 59.1683 103.403 58.6941 104.753 57.8552L108.218 64.6397C108.4 65.0409 108.583 65.4057 108.802 65.7704C110.406 68.3967 113.252 70.0016 116.316 70.0016C117.629 70.0016 118.942 69.7098 120.146 69.1262C122.298 68.1049 124.158 66.3541 125.106 64.129L127.623 58.5482L130.76 64.6762C130.942 65.0774 131.125 65.4422 131.344 65.8069C132.948 68.4332 135.794 70.0381 138.858 70.0381C140.171 70.0381 141.484 69.7463 142.688 69.1627C144.694 68.1778 146.262 66.4635 147.065 64.4208C148.378 67.6307 151.551 69.8922 155.235 69.8922H177.376C182.227 69.8922 186.167 66.0987 186.167 61.2475V59.2048H188.209C193.061 59.2048 197 55.2654 197 50.4141C197 45.5629 193.061 41.6235 188.209 41.6235H186.167V39.3255C186.167 36.0792 184.416 33.1246 181.571 31.5927C180.294 30.8267 178.835 30.4619 177.376 30.4619Z" fill="white"/>
</svg>
