<svg width="260" height="100" viewBox="0 0 260 100" fill="none" xmlns="http://www.w3.org/2000/svg">
<g clip-path="url(#clip0_9629_13324)">
<path d="M69.5181 27.374H75.5214L79.1786 41.2974L83.1808 27.374H87.8731L91.5303 41.2974L95.4635 27.374H100.984L94.4285 48.0524H88.7702L85.251 35.0939L81.4557 48.0524H75.7284L69.5181 27.374Z" fill="white"/>
<path d="M103.468 18H109.195V30.6827C110.23 28.6149 112.508 26.8917 115.958 26.8917C120.029 26.8917 122.927 29.3731 122.927 34.8873V48.0525H117.2V35.7144C117.2 32.8884 116.096 31.5788 113.543 31.5788C111.058 31.5788 109.195 33.0952 109.195 36.128V48.0525H103.468C103.468 48.0525 103.468 18 103.468 18Z" fill="white"/>
<path d="M126.377 21.4465C126.377 19.6544 127.826 18.3447 129.62 18.3447C131.483 18.3447 132.864 19.6544 132.864 21.4465C132.864 23.2386 131.483 24.5482 129.62 24.5482C127.757 24.5482 126.377 23.2386 126.377 21.4465ZM126.791 27.3743H132.519V48.0526H126.791V27.3743Z" fill="white"/>
<path d="M137.487 41.9176V31.4406H134.865V27.3739H137.487V22.8936H143.214V27.3739H147.561V31.4406H143.214V41.4351C143.214 43.0894 144.042 43.9165 145.491 43.9165C146.388 43.9165 147.009 43.7787 147.699 43.503V47.9143C146.94 48.1901 145.767 48.4658 144.18 48.4658C139.833 48.4658 137.487 46.2601 137.487 41.9176Z" fill="white"/>
<path d="M149.425 37.989V37.6443C149.425 31.0962 154.048 26.8916 160.051 26.8916C165.433 26.8916 170.126 29.9934 170.126 37.4376V39.0229H155.221C155.359 42.4693 157.222 44.4682 160.396 44.4682C163.018 44.4682 164.329 43.2964 164.743 41.5732H170.195C169.505 46.0535 165.985 48.5349 160.258 48.5349C153.979 48.5349 149.425 44.606 149.425 37.989ZM164.605 35.5076C164.398 32.4058 162.811 30.8894 160.12 30.8894C157.567 30.8894 155.773 32.6126 155.359 35.5076H164.605Z" fill="white"/>
<path d="M68 67.4214H73.3823C73.5893 69.2825 74.4864 70.3853 76.9705 70.3853C79.1786 70.3853 80.2137 69.5582 80.2137 68.1107C80.2137 66.6632 78.9716 66.1118 76.0045 65.6293C70.4841 64.8022 68.345 63.2168 68.345 59.1501C68.345 54.8077 72.2782 52.6709 76.5565 52.6709C81.1797 52.6709 84.6299 54.3252 85.113 59.0812H79.8687C79.5237 57.358 78.6266 56.5998 76.6255 56.5998C74.7624 56.5998 73.7273 57.4958 73.7273 58.7365C73.7273 60.0462 74.6934 60.5287 77.7295 61.0112C82.9048 61.7694 85.803 63.079 85.803 67.4904C85.803 71.9707 82.5598 74.3142 77.1085 74.3142C71.4502 74.3831 68.207 71.9017 68 67.4214Z" fill="white"/>
<path d="M103.537 70.5916C102.433 72.5905 99.9488 74.3826 96.9126 74.3826C91.8754 74.3826 87.9421 70.7983 87.9421 63.9056V63.5609C87.9421 56.7371 91.8754 52.7393 97.0506 52.7393C100.363 52.7393 102.433 54.1867 103.606 56.3235V53.2218H109.333V80.9996H103.606V70.5916H103.537ZM103.675 63.6988V63.3541C103.675 59.2185 101.881 57.1506 98.7067 57.1506C95.4636 57.1506 93.7385 59.3563 93.7385 63.4231V63.7677C93.7385 67.9034 95.7396 69.9023 98.5687 69.9023C101.605 69.9023 103.675 67.9034 103.675 63.6988Z" fill="white"/>
<path d="M113.129 66.5937V53.2217H118.856V65.7665C118.856 68.5926 120.029 69.9022 122.444 69.9022C124.859 69.9022 126.791 68.3858 126.791 65.353V53.2217H132.519V73.9H126.791V70.6604C125.687 72.7282 123.617 74.3136 120.236 74.3136C116.165 74.3825 113.129 71.97 113.129 66.5937Z" fill="white"/>
<path d="M135.348 68.1791C135.348 63.3541 139.764 61.562 146.112 61.562H148.458V60.7349C148.458 58.2535 147.699 56.9439 145.077 56.9439C142.8 56.9439 141.765 58.1156 141.558 59.8388H136.107C136.452 54.9449 140.316 52.7393 145.422 52.7393C150.529 52.7393 154.117 54.8071 154.117 60.3902V73.9001H148.527V71.4187C147.354 73.073 145.491 74.3137 142.248 74.3137C138.522 74.3826 135.348 72.5905 135.348 68.1791ZM148.458 66.7316V65.0084H146.25C142.938 65.0084 141.006 65.6977 141.006 67.9034C141.006 69.4198 141.903 70.3848 144.042 70.3848C146.526 70.3848 148.458 69.0062 148.458 66.7316Z" fill="white"/>
<path d="M158.05 53.2226H163.777V57.1515C165.088 54.3943 167.09 52.9469 170.471 52.8779V58.2543C166.262 58.1854 163.777 59.6329 163.777 63.5617V73.9009H158.05V53.2226Z" fill="white"/>
<path d="M171.23 63.8366V63.492C171.23 56.9439 175.853 52.7393 181.856 52.7393C187.239 52.7393 191.931 55.841 191.931 63.2852V64.8705H177.026C177.164 68.3169 179.027 70.3158 182.201 70.3158C184.823 70.3158 186.135 69.1441 186.549 67.4209H192C191.31 71.9012 187.791 74.3826 182.063 74.3826C175.784 74.3826 171.23 70.4537 171.23 63.8366ZM186.411 61.3552C186.204 58.2535 184.616 56.7371 181.925 56.7371C179.372 56.7371 177.578 58.4603 177.164 61.3552H186.411Z" fill="white"/>
</g>
<defs>
<clipPath id="clip0_9629_13324">
<rect width="124" height="63" fill="white" transform="translate(68 18)"/>
</clipPath>
</defs>
</svg>
