<svg width="260" height="100" viewBox="0 0 260 100" fill="none" xmlns="http://www.w3.org/2000/svg">
<g clip-path="url(#clip0_9629_13315)">
<path d="M102.43 38.3838H109.326L116.819 61.0192H111.275L109.167 54.3906H101.644L99.2193 61.0153H93.8677L102.43 38.3838ZM107.91 50.4542L105.689 41.748L103.045 50.4542H107.894H107.91Z" fill="white"/>
<path d="M115.682 38.3838H120.875L124.338 57.559L129.501 43.8871L127.613 38.3838H132.934L138.762 57.3669L143.105 38.3838H148.207L142.097 61.0192H135.363L131.518 49.4288L127.364 61.0192H120.471L115.682 38.3838Z" fill="white"/>
<path d="M155.636 38.3838H162.528L170.021 61.0192H164.481L162.374 54.3906H154.847L152.422 61.0153H147.07L155.636 38.3838ZM161.112 50.4542L158.876 41.748L156.263 50.4542H161.112Z" fill="white"/>
<path d="M183.085 56.1534L180.566 53.177C180.189 53.2078 179.777 53.2078 179.369 53.2078H177.73V61.0192H172.352V38.3838H181.008C186.012 38.3838 189.6 40.7226 189.6 45.7804C189.616 47.037 189.288 48.2734 188.655 49.3526C188.022 50.4317 187.107 51.3115 186.012 51.8944L188.278 54.3906C189.506 55.7348 190.892 56.6296 193.316 57.2709L192.123 61.4262C187.776 61.2112 185.415 58.9069 183.085 56.1534ZM179.562 49.3981C182.738 49.3981 184.094 48.0539 184.094 45.9072C184.094 43.6336 183.18 42.6735 180.317 42.6735H177.734V49.3942H179.562V49.3981Z" fill="white"/>
<path d="M195.552 38.3838H203.506C211.218 38.3838 216.506 41.7441 216.506 49.6208C216.506 57.4975 211.72 61.0192 203.695 61.0192H195.552V38.3838ZM204.054 56.7601C209.186 56.7601 211.169 54.3906 211.169 49.9396C211.169 45.0738 208.775 42.6428 203.423 42.6428H200.862V56.7601H204.042H204.054Z" fill="white"/>
<path d="M218.28 59.7713L219.791 55.8656C221.671 56.5871 223.67 56.9351 225.679 56.891C228.357 56.891 229.584 56.0576 229.584 54.6828C229.584 51.0036 219.009 51.9945 219.009 44.3137C218.99 39.9548 223.065 38.0653 227.004 38.0653C229.411 37.9979 231.799 38.525 233.961 39.6015L232.417 43.3766C230.781 42.8965 229.425 42.4472 227.159 42.4472C224.893 42.4472 224.232 43.3113 224.232 44.2714C224.232 47.2823 235 47.2823 235 54.4831C235 59.4449 230.339 61.3651 225.743 61.3651C222.091 61.3728 219.95 60.7007 218.28 59.7713Z" fill="white"/>
<path d="M59.492 56.4916H69.5343V61.1654H53.7249V38H68.8054V42.6699H59.492V47.3437H68.1104V51.7256H59.492V56.4916ZM94.1509 49.502C94.1509 57.1329 89.6189 61.1654 81.0646 61.1654H72.6689V38H80.8758C89.4489 38 94.1509 42.0862 94.1509 49.502ZM78.4058 56.4916H81.4272C86.2463 56.4916 88.3952 54.437 88.3952 49.8246C88.3952 44.9435 85.9781 42.6738 80.7927 42.6738H78.4171V56.4993L78.4058 56.4916ZM48.6377 43.3766L41.341 45.8229V38H35.2114V45.8152L27.9224 43.1538L26 48.9528L33.4024 51.5566L28.723 57.7013L33.5837 61.4265L38.1157 55.2166L42.8026 61.7453L47.7728 58.0277L43.1425 51.5643L50.4354 49.1871L48.6377 43.3766Z" fill="white"/>
</g>
<defs>
<clipPath id="clip0_9629_13315">
<rect width="209" height="23" fill="white" transform="translate(26 38)"/>
</clipPath>
</defs>
</svg>
