<svg width="260" height="100" viewBox="0 0 260 100" fill="none" xmlns="http://www.w3.org/2000/svg">
<g clip-path="url(#clip0_9629_13295)">
<path d="M37.7957 48.6546C38.4589 45.2734 41.5092 42.9326 45.7532 42.9326C50.6603 42.9326 54.5064 45.0133 54.5064 51.5156V63.6097H50.2624L49.7319 61.0089C48.2731 62.8295 46.2837 63.9999 43.366 63.9999C39.7851 63.9999 37 61.7891 37 57.7577C37 53.7263 40.7135 51.1254 45.8858 51.1254H49.334V50.2151C49.334 47.8743 47.6099 47.2241 45.6206 47.2241C44.1617 47.2241 42.7028 47.7443 42.0397 49.5649L37.7957 48.6546ZM44.5596 59.7084C46.9468 59.7084 49.334 58.1479 49.334 55.547V55.1568H46.0184C43.7638 55.0268 42.4376 55.9371 42.4376 57.7577C42.4376 58.668 43.2333 59.7084 44.5596 59.7084Z" fill="white"/>
<path d="M137.794 48.6546C138.457 45.2734 141.508 42.9326 145.752 42.9326C150.659 42.9326 154.505 45.0133 154.505 51.5156V63.6097H150.261L149.73 61.0089C148.272 62.8295 146.282 63.9999 143.364 63.9999C139.784 63.9999 136.999 61.7891 136.999 57.7577C136.999 53.7263 140.712 51.1254 145.884 51.1254H149.333V50.2151C149.333 47.8743 147.608 47.2241 145.619 47.2241C144.16 47.2241 142.701 47.7443 142.038 49.5649L137.794 48.6546ZM144.558 59.7084C146.945 59.7084 149.333 58.1479 149.333 55.547V55.1568H145.884C143.63 55.1568 142.303 55.9371 142.303 57.7577C142.436 58.668 143.232 59.7084 144.558 59.7084Z" fill="white"/>
<path d="M159.147 63.7398V43.1927H164.319V46.5739C165.778 44.103 168.165 42.9326 170.42 42.9326C171.348 42.9326 172.144 43.0627 172.94 43.3228L172.011 48.0044C171.348 47.6142 170.685 47.3541 169.889 47.3541C166.839 47.3541 164.319 49.825 164.319 56.3272V63.6098L159.147 63.7398Z" fill="white"/>
<path d="M183.948 42.9327C186.07 42.9327 188.059 43.9731 188.987 45.1435V35H194.16V63.7399H188.987V61.6592C188.324 62.6996 186.467 64.13 183.948 64.13C177.714 64.13 174.531 59.8386 174.531 53.5964C174.531 47.3543 177.714 42.9327 183.948 42.9327ZM184.743 59.7085C187.396 59.7085 189.518 57.4978 189.518 53.4664C189.518 49.435 187.396 47.2242 184.743 47.2242C182.091 47.2242 179.969 49.435 179.969 53.4664C179.969 57.4978 182.091 59.7085 184.743 59.7085Z" fill="white"/>
<path d="M212.727 46.1841L209.677 48.915C208.748 47.6146 207.289 47.0944 206.229 47.0944C205.168 47.0944 204.239 47.7446 204.239 48.785C204.239 49.6953 205.035 50.3455 206.229 50.7356C209.146 51.776 213.788 52.6863 213.788 56.9778C213.788 60.7491 210.87 63.7401 206.361 63.7401C201.985 63.7401 199.067 60.7491 198.138 58.2782L202.25 56.0675C203.046 58.0181 204.372 59.4486 206.494 59.4486C208.085 59.4486 209.146 58.6684 209.146 57.2379C209.146 55.5473 206.494 55.1572 203.974 54.1168C201.719 53.2065 199.73 51.776 199.73 48.6549C199.73 45.5338 202.382 42.6729 206.361 42.6729C209.014 42.8029 211.533 44.2334 212.727 46.1841Z" fill="white"/>
<path d="M105.832 43.1924L102.118 57.3673L98.5375 43.1924H93.763L90.3148 57.3673L87.3971 49.1744L86.9992 50.0848L85.4077 55.4166L88.0602 63.7395H92.5694L96.1503 50.4749L99.7311 63.7395H104.373L111.004 43.1924H105.832Z" fill="white"/>
<path d="M130.633 43.1924L126.919 57.3673L123.338 43.1924H118.564L115.116 57.3673L112.198 49.1744L111.8 50.0848L110.076 55.4166L112.861 63.7395H117.37L120.951 50.4749L124.532 63.7395H129.041L135.805 43.1924H130.633Z" fill="white"/>
<path d="M86.2035 43.1924L79.5723 63.6094H75.0631L71.4823 50.4749L67.9014 63.7395H63.3922L56.761 43.3224H61.9333L65.6468 57.3673L69.2277 43.3224H74.0021L77.583 57.3673L81.2964 43.3224L86.2035 43.1924Z" fill="white"/>
<path d="M220.552 57.1074C222.541 57.1074 224 58.5379 224 60.4886C224 62.4393 222.541 63.8698 220.552 63.8698C218.562 63.8698 217.104 62.4393 217.104 60.4886C217.104 58.5379 218.562 57.1074 220.552 57.1074Z" fill="white"/>
</g>
<defs>
<clipPath id="clip0_9629_13295">
<rect width="187" height="29" fill="white" transform="translate(37 35)"/>
</clipPath>
</defs>
</svg>
