<svg width="260" height="100" viewBox="0 0 260 100" fill="none" xmlns="http://www.w3.org/2000/svg">
<g clip-path="url(#clip0_9629_13306)">
<path d="M171.475 30.1381C171.931 30.7642 171.514 32.7601 172.031 32.7014C172.527 32.6427 174.234 29.3749 173.679 28.24C173.103 27.1051 169.072 25.7941 168.378 25.755C165.638 25.5984 164.844 27.7508 164.526 29.4728C164.387 30.2555 161.786 35.8518 161.905 35.6757L167.286 29.6685C168.199 28.7684 170.8 29.2184 171.475 30.1381ZM145.228 74.791C145.029 75.2802 144.354 74.4975 144.553 73.9496C144.612 73.7931 145.426 72.0124 147.233 72.3842C147.749 72.5016 145.883 73.206 145.228 74.791ZM173.679 48.238C174.909 47.5335 178.483 41.996 178.622 42.2895C178.741 42.583 178.94 44.1092 178.563 45.1854C178.046 46.6139 173.679 48.238 173.679 48.238ZM180.766 36.1453C180.647 35.8713 183.923 41.9568 183.268 44.6376C182.236 48.9033 178.364 51.8384 178.364 51.8384C178.364 51.8384 180.21 48.3554 180.488 47.7292C180.766 47.1031 182.613 40.7632 180.766 36.1453ZM189.959 39.6674C191.904 42.9548 189.224 46.6921 188.648 47.2205C188.172 47.6705 187.199 48.1793 186.544 48.5119C187.715 47.4553 188.787 46.1247 189.105 44.5593C189.403 42.9743 188.906 41.3894 188.073 39.6283C187.914 39.2956 184.956 34.9908 184.697 34.756C185.174 34.8147 188.966 37.4759 189.959 39.6674ZM191.19 47.3966C193.632 44.9898 194.009 42.446 194.128 41.3894C194.585 43.6787 193.274 46.9465 192.202 48.4532C191.289 48.4923 190.415 48.6097 189.601 48.7467C190.217 48.4141 190.614 47.964 191.19 47.3966ZM180.33 63.1092C176.736 67.6489 170.681 67.4532 166.551 69.0969C161.726 70.9949 158.431 74.3605 157.577 75.2019C156.088 76.6499 154.222 76.2781 153.209 76.2194C152.197 76.1607 151.224 75.652 150.807 75.5737C150.39 75.4954 149.437 75.5933 149.437 75.5933C149.437 75.5933 149.477 75.1432 149.814 74.9084C150.172 74.6932 150.886 74.6149 152.157 74.3605C153.428 74.1061 154.4 73.4408 154.897 73.1082C155.413 72.7756 155.075 72.6777 154.738 72.756C154.42 72.8343 153.388 73.2256 151.621 73.48C149.854 73.7344 149.278 73.5974 148.603 74.067C147.908 74.5171 148.067 75.6715 147.908 75.9846C147.749 76.3173 147.63 76.3955 147.392 76.1803C147.174 75.9846 147.074 75.2019 147.233 74.5562C147.412 73.9105 148.444 73.3821 149.417 73.1669C150.39 72.9517 152.455 72.8147 154.698 71.6406C161.329 68.1772 164.248 65.5747 170.105 61.1133C176.339 56.378 181.898 53.756 186.286 51.6623C188.986 50.3708 196.987 49.412 196.987 49.412C196.987 49.412 195.835 48.6489 194.644 48.5119C193.93 48.4336 193.235 48.4141 192.56 48.4336C193.652 47.8466 196.431 45.7333 196.848 43.0135C197.384 39.3739 192.48 36.3605 192.421 33.0536C192.262 25.344 184.4 24.2483 184.757 24.4635C186.226 25.3636 187.755 27.1051 188.033 28.1031C188.549 29.9228 186.981 31.8991 184.697 32.6623C183.605 33.0145 177.57 34.3255 176.776 35.1278C175.962 35.93 177.629 40.137 176.557 41.8394C175.485 43.5418 169.489 46.4573 168.775 47.2792C168.06 48.101 167.305 47.8466 167.047 47.8271C166.789 47.8075 167.008 48.1206 167.742 48.2771C168.477 48.4336 169.747 48.0032 170.482 47.6118C171.217 47.2009 172.249 48.0619 172.209 48.6293C172.15 49.1772 171.455 49.3337 170.105 50.1751C169.033 50.8404 165.975 48.962 165.717 48.3358C165.459 47.7096 166.352 47.9249 166.908 47.24C167.464 46.5747 166.491 46.4573 166.154 46.5747C165.797 46.6726 165.598 46.4965 165.241 46.3986C164.883 46.3008 164.427 46.3986 164.208 46.653C163.99 46.9074 164.208 47.1031 163.374 47.2009C162.54 47.2987 162.918 46.3008 163.096 45.2246C163.275 44.1484 163.97 41.2915 163.831 40.9393C163.692 40.5675 163.672 40.7045 163.374 40.3523C163.077 40.0001 163.057 39.3739 163.017 38.3564C162.997 37.3389 163.077 35.4409 163.077 35.4409C163.077 35.4409 162.441 36.3605 162.163 37.9846C161.885 39.6087 163.037 40.5088 163.057 40.7632C163.077 41.0176 163.017 41.6046 162.521 44.481C162.004 47.3574 162.64 47.9053 163.275 48.4141C163.91 48.9228 166.75 50.3708 166.75 50.3708L166.69 51.6623C166.69 51.6623 165.28 52.1123 163.95 52.9733C162.62 53.8147 162.124 55.341 162.024 55.8497C161.925 56.3585 162.203 56.2802 162.203 56.2802C162.203 56.2802 162.501 55.9671 163.553 55.1648C164.585 54.3626 166.869 53.9321 167.147 53.9125C167.425 53.893 167.444 53.9908 167.087 54.2452C166.73 54.4995 165.797 55.1648 163.791 56.6324C161.786 58.1195 161.508 59.9589 161.508 60.3894C161.508 60.8003 161.786 60.4676 161.786 60.4676C161.786 60.4676 162.064 59.8415 162.759 59.2153C163.434 58.5891 164.983 58.2174 166.71 57.9434C168.437 57.6695 168.715 57.239 169.251 56.4563C169.787 55.6932 171.236 54.2452 171.534 54.0495C171.832 53.8734 171.912 53.9712 171.733 54.1082C171.554 54.2452 171.455 54.343 170.542 55.3018C169.628 56.2802 169.469 57.4347 169.469 57.4347C169.469 57.4347 169.966 56.7498 171.098 55.9867C172.209 55.204 174.929 54.343 175.644 54.1669C176.339 53.9908 176.299 54.0886 176.18 54.1865C176.061 54.2843 175.982 54.3039 175.187 54.7148C174.413 55.1061 171.634 56.7302 168 59.3914C164.288 62.1113 161.25 65.2421 158.252 67.4336C155.274 69.6056 153.03 70.584 151.859 70.7797C150.688 70.9753 149.318 70.3101 147.59 70.2318C145.863 70.1535 144.712 71.308 144.533 71.5624C144.354 71.8167 144.354 72.032 144.513 72.0124C144.672 71.9929 144.95 71.6798 145.208 71.6798C145.466 71.6798 145.446 71.8363 145.446 71.8363C145.446 71.8363 145.327 71.895 144.831 72.1298C144.354 72.3842 143.62 73.0886 143.262 74.1648C142.905 75.2215 143.739 76.826 143.739 76.826C143.739 76.826 144.275 76.826 145.009 77.1391C145.744 77.4326 146.221 77.6283 146.578 77.8435C146.935 78.0392 147.293 78.0979 148.027 77.9022C148.762 77.687 150.271 77.687 151.303 77.7457C152.336 77.7848 156.386 78.7632 158.987 77.1C167.107 70.0752 175.604 70.6818 178.662 69.6056C184.916 67.3554 183.883 59.0196 194.902 60.2915C194.366 59.0392 185.75 56.2998 180.33 63.1092ZM156.406 45.8703C156.823 46.1834 157.617 47.6314 157.517 47.3966C157.418 47.1618 157.835 45.8312 156.942 44.1875C156.028 42.5438 155.75 41.9372 155.353 40.2936C154.956 38.6303 154.242 37.2802 155.433 36.2627C156.644 35.2452 157.577 33.7776 157.954 32.2122C158.331 30.6468 159.622 29.4141 161.051 27.7117C162.481 26.0093 162.759 25.755 162.759 25.755C162.421 26.205 161.746 28.0248 161.449 28.9836C161.131 29.9424 159.582 32.0361 158.868 33.1515C158.173 34.2668 156.564 36.4192 156.425 38.4347C156.306 40.4501 157.974 42.8374 158.232 43.7179C158.47 44.5984 157.895 47.0835 158.51 48.8641C159.106 50.6448 160.813 52.2884 161.131 52.5037C161.429 52.7189 161.369 52.5037 161.27 52.3863C161.171 52.2689 160.972 52.0928 160.555 51.2318C160.138 50.3904 160.337 49.4316 160.615 48.1401C160.912 46.8487 161.051 45.8116 160.932 44.5202C160.813 43.2287 159.761 41.0371 159.443 39.7066C159.126 38.376 159.94 37.065 161.31 34.7951C162.66 32.5057 162.858 30.5881 163.037 29.1793C163.216 27.7704 164.01 25.755 166.154 24.8744C167.405 24.3657 170.879 25.0701 172.686 26.1854C173.956 27.0269 174.592 27.8095 174.77 28.7097C174.989 29.7663 174.334 30.4903 173.937 31.5078C173.54 32.5449 173.262 33.7385 173.718 33.6798C174.115 33.6406 178.781 29.7663 179.833 28.6509C180.349 28.0835 181.044 26.6551 180.052 25.3832C179.198 24.2678 173.123 23.7787 171.951 22.1741C170.919 20.7457 168.219 20.824 167.425 21.3523C166.69 21.8415 165.082 23.1721 163.513 23.7004C161.945 24.2287 160.337 24.4831 158.212 25.5397C156.088 26.6159 156.187 27.8487 155.949 28.7488C155.711 29.6489 155.552 32.0753 153.825 34.6777C152.077 37.2802 153.09 39.0608 153.944 41.7024C154.778 44.2853 155.989 45.5572 156.406 45.8703ZM167.901 44.5397C167.861 44.8332 168.159 44.5593 168.397 44.2266C168.636 43.8744 169.589 42.3286 171.137 39.7066C172.686 37.0845 173.599 34.8343 173.52 34.7756C173.42 34.7169 173.202 34.9321 172.964 35.1082C172.706 35.2843 172.209 35.7735 171.792 36.3018C171.375 36.8301 171.018 36.7714 170.482 36.8888C169.946 37.0062 168.973 38.0433 168.417 38.4934C167.861 38.9239 167.107 39.3739 166.412 39.4717C165.658 39.5892 165.538 39.2565 165.221 39.3152C164.903 39.3739 164.923 39.8827 165.022 40.2544C165.141 40.6067 165.042 40.7828 164.983 41.4089C164.923 42.0547 165.38 42.6612 165.757 43.033C166.134 43.3852 166.015 43.9527 166.273 44.1484C166.531 44.344 166.611 43.0526 166.611 42.2503C166.611 41.4676 166.432 40.6849 166.452 40.5675C166.491 40.4501 167.127 40.274 167.425 40.0783C167.742 39.8827 168.477 39.3543 168.834 39.1782C169.211 39.0021 169.211 39.1391 169.112 39.3348C169.013 39.55 168.814 39.8631 168.417 40.1957C168 40.548 167.027 40.8023 166.809 40.8219C166.591 40.8415 166.611 41.0176 166.829 41.1937C167.047 41.3502 167.583 41.3502 168.06 41.2328C168.536 41.0958 168.477 41.722 168.417 42.3873C168.358 43.0526 167.961 44.2462 167.901 44.5397ZM178.384 22.9568C182.017 24.1113 182.811 27.203 181.561 28.6118C180.866 29.3945 180.071 29.8641 178.245 30.9795C176.418 32.0948 175.704 32.6818 175.128 33.1123C174.552 33.5624 174.234 34.169 175.485 33.8363C175.604 33.7972 183.288 32.1731 184.281 31.6643C185.948 30.8034 186.425 30.2163 186.683 29.101C186.941 27.9857 185.214 26.1463 184.4 25.2462C182.772 23.3873 178.86 21.4697 178.682 21.4501C176.716 20.8044 174.314 21.3327 172.348 21.4306C172.13 21.4306 172.209 21.7632 172.328 21.8415C174.095 23.0351 176.24 22.4676 178.384 22.9568ZM65.4946 67.551V46.8682H70.2397V63.7941H77.8239V67.551H65.4946ZM80.9013 67.551V46.8682H85.6265V67.551H80.9013ZM101.589 64.1659C103.594 64.1659 105.262 63.5006 106.572 62.1896C107.883 60.8785 108.538 59.2349 108.538 57.2586C108.538 55.3018 107.883 53.6581 106.552 52.308C105.222 50.9774 103.574 50.3121 101.589 50.3121C99.5838 50.3121 97.916 50.9774 96.5858 52.308C95.2556 53.6386 94.6004 55.2822 94.6004 57.2586C94.6004 59.2544 95.2556 60.8981 96.5461 62.2091C97.8763 63.5201 99.5441 64.1659 101.589 64.1659ZM113.422 57.2586C113.422 58.7457 113.124 60.135 112.529 61.446C111.933 62.757 111.079 63.9311 109.967 64.929C108.816 65.9465 107.525 66.7488 106.076 67.2967C104.627 67.8446 103.138 68.1185 101.589 68.1185C100.239 68.1185 98.9087 67.9033 97.6182 67.4728C96.3277 67.0423 95.1365 66.4357 94.0445 65.6334C92.6548 64.5964 91.5827 63.3636 90.8481 61.9156C90.1135 60.4676 89.7362 58.9218 89.7362 57.2586C89.7362 55.7714 90.034 54.3821 90.6098 53.0711C91.2054 51.7601 92.0591 50.6056 93.1908 49.5881C94.3026 48.5902 95.5931 47.8075 97.0623 47.24C98.5315 46.6921 100.04 46.3986 101.609 46.3986C103.157 46.3986 104.666 46.6726 106.116 47.24C107.585 47.7879 108.875 48.5706 109.987 49.5881C111.099 50.6056 111.973 51.7601 112.548 53.0711C113.124 54.3821 113.422 55.7714 113.422 57.2586ZM117.413 67.551V46.8682H122.336L132.164 58.9022C132.442 59.2349 132.76 59.7241 133.097 60.3307C133.435 60.9568 133.792 61.6808 134.149 62.5222C134.03 61.9156 133.951 61.309 133.911 60.7024C133.852 60.0958 133.832 59.3523 133.832 58.4522V46.8878H138.358V67.5706H133.713L123.627 55.3018C123.349 54.9692 123.031 54.48 122.694 53.8734C122.356 53.2668 121.999 52.5232 121.641 51.6623C121.761 52.2493 121.84 52.8559 121.88 53.4625C121.939 54.0691 121.959 54.8322 121.959 55.7519V67.5706H117.413V67.551Z" fill="white"/>
<path d="M141.892 64.9285L144.533 62.1499C144.871 62.913 145.407 63.5196 146.141 63.9501C146.876 64.3806 147.71 64.6154 148.623 64.6154C149.735 64.6154 150.608 64.361 151.263 63.8718C151.919 63.3826 152.236 62.7174 152.236 61.8955C152.236 60.9171 151.164 59.9388 149 58.98C148.305 58.6669 147.749 58.4125 147.352 58.2168C145.407 57.2776 144.076 56.3579 143.322 55.4578C142.567 54.5577 142.19 53.4815 142.19 52.2488C142.19 50.5464 142.925 49.1375 144.374 48.0418C145.824 46.946 147.71 46.3981 150.013 46.3981C151.363 46.3981 152.514 46.6133 153.487 47.0634C154.46 47.4939 155.334 48.1787 156.068 49.118L153.269 51.6226C152.931 51.016 152.494 50.566 151.939 50.2725C151.383 49.9789 150.727 49.8224 149.953 49.8224C149.02 49.8224 148.266 50.0376 147.67 50.4877C147.094 50.9182 146.816 51.4856 146.816 52.1901C146.816 53.2858 147.968 54.2838 150.251 55.1839C150.708 55.36 151.045 55.497 151.303 55.6144C153.189 56.4166 154.579 57.3167 155.473 58.3342C156.386 59.3322 156.823 60.4867 156.823 61.7781C156.823 63.7153 156.108 65.2611 154.698 66.4156C153.289 67.5701 151.363 68.1375 148.98 68.1375C147.293 68.1375 145.824 67.8636 144.612 67.3157C143.382 66.7482 142.488 65.946 141.892 64.9285ZM75.8783 33.6988C75.2231 33.1509 74.5481 32.7596 73.8532 32.5052C73.1583 32.2508 72.4237 32.1334 71.6295 32.1334C70.0214 32.1334 68.7309 32.5835 67.758 33.4836C66.805 34.3837 66.3285 35.5969 66.3285 37.1036C66.3285 38.5907 66.7653 39.7647 67.6588 40.6453C68.5522 41.5258 69.7633 41.9563 71.3119 41.9563C72.1854 41.9563 72.9994 41.8193 73.7539 41.5454C74.5083 41.2714 75.2032 40.8605 75.8386 40.3126L75.8187 43.4043C75.1238 43.7761 74.4091 44.0696 73.6546 44.2457C72.9002 44.4218 72.106 44.5196 71.2722 44.5196C68.85 44.5196 66.8646 43.8152 65.316 42.4259C63.7872 41.0366 63.0129 39.256 63.0129 37.1036C63.0129 34.9511 63.7872 33.1901 65.3358 31.7812C66.8844 30.3919 68.8897 29.6875 71.3317 29.6875C72.1457 29.6875 72.9399 29.7658 73.7142 29.9223C74.4885 30.0788 75.2429 30.3332 75.9775 30.6659L75.8783 33.6988ZM86.7383 38.7668L85.0508 34.2076C85.0111 34.0706 84.9316 33.8358 84.8721 33.5032C84.7927 33.1705 84.7132 32.7792 84.6338 32.29C84.5544 32.74 84.4551 33.1509 84.3757 33.5227C84.2963 33.8945 84.2367 34.1293 84.197 34.2467L82.569 38.7472L86.7383 38.7668ZM77.0893 44.1478L82.847 30.0201H86.5597L92.4166 44.1478H88.7237L87.4928 41.154H81.6359L80.5836 44.1478H77.0893ZM94.0247 44.1478V30.0201H97.38L104.091 38.2385C104.289 38.4733 104.488 38.8059 104.726 39.2168C104.964 39.6473 105.202 40.1365 105.441 40.704C105.361 40.2931 105.302 39.8626 105.282 39.4517C105.242 39.0407 105.222 38.532 105.222 37.9058V30.0201H108.32V44.1478H105.143L98.2536 35.773C98.0551 35.5382 97.8565 35.2055 97.6183 34.7946C97.38 34.3641 97.1418 33.8749 96.8837 33.2879C96.9631 33.6988 97.0227 34.1097 97.0425 34.5207C97.0822 34.9316 97.1021 35.4599 97.1021 36.0861V44.1478H94.0247ZM111.715 44.1478V30.0201H115.09L121.8 38.2385C121.999 38.4733 122.197 38.8059 122.436 39.2168C122.674 39.6473 122.912 40.1365 123.15 40.704C123.071 40.2931 123.011 39.8626 122.992 39.4517C122.952 39.0407 122.932 38.532 122.932 37.9058V30.0201H126.029V44.1478H122.853L115.963 35.773C115.765 35.5382 115.566 35.2055 115.328 34.7946C115.11 34.3641 114.851 33.8749 114.613 33.2879C114.693 33.6988 114.752 34.1097 114.772 34.5207C114.812 34.9316 114.832 35.4599 114.832 36.0861V44.1478H111.715ZM129.384 44.1478V30.0201H138.319V32.5639H132.641V35.4795H138.319V38.0428H132.641V41.5845H138.319V44.1478H129.384ZM140.523 42.3476L142.329 40.4496C142.548 40.9779 142.925 41.3888 143.421 41.6823C143.918 41.9759 144.493 42.1324 145.129 42.1324C145.883 42.1324 146.479 41.9563 146.935 41.6236C147.372 41.291 147.591 40.8409 147.591 40.2735C147.591 39.6082 146.856 38.9429 145.387 38.2776C144.91 38.0624 144.533 37.8863 144.255 37.7493C142.925 37.1036 142.012 36.4774 141.495 35.8708C140.979 35.2642 140.721 34.5207 140.721 33.6793C140.721 32.5052 141.217 31.566 142.21 30.8028C143.203 30.0593 144.493 29.6875 146.062 29.6875C146.975 29.6875 147.769 29.844 148.444 30.1376C149.099 30.4311 149.695 30.9007 150.211 31.5464L148.285 33.2488C148.067 32.8379 147.749 32.5248 147.372 32.3291C146.995 32.1334 146.538 32.016 146.002 32.016C145.367 32.016 144.851 32.1726 144.454 32.4661C144.057 32.7596 143.858 33.1509 143.858 33.6206C143.858 34.3641 144.632 35.049 146.201 35.6751C146.518 35.7925 146.757 35.8904 146.915 35.9687C148.206 36.5165 149.159 37.1427 149.774 37.8276C150.39 38.5124 150.708 39.2951 150.708 40.1757C150.708 41.5062 150.231 42.5629 149.258 43.3456C148.285 44.1283 146.995 44.5196 145.347 44.5196C144.196 44.5196 143.183 44.324 142.369 43.9522C141.555 43.6 140.939 43.0521 140.523 42.3476Z" fill="white"/>
</g>
<defs>
<clipPath id="clip0_9629_13306">
<rect width="134" height="57" fill="white" transform="translate(63 21)"/>
</clipPath>
</defs>
</svg>
