<svg width="260" height="100" viewBox="0 0 260 100" fill="none" xmlns="http://www.w3.org/2000/svg">
<path d="M83.0765 40.3402C83.7205 40.6169 84.4139 40.7622 85.1156 40.7674C85.8172 40.7727 86.5128 40.6378 87.1609 40.3709C87.8091 40.1039 88.3966 39.7102 88.8887 39.2133C89.3807 38.7164 89.7672 38.1263 90.0252 37.478C90.5935 36.183 90.6213 34.7168 90.1022 33.4015C89.5832 32.0861 88.5599 31.0292 87.257 30.4629C86.613 30.1862 85.9196 30.041 85.2179 30.0357C84.5163 30.0304 83.8207 30.1653 83.1726 30.4323C82.5244 30.6993 81.9369 31.0929 81.4448 31.5898C80.9528 32.0868 80.5663 32.6769 80.3083 33.3251C79.7786 34.6242 79.7703 36.0756 80.2853 37.3806C80.8002 38.6856 81.7992 39.7448 83.0765 40.3402ZM50.9318 67.0539C50.7627 66.9749 50.5785 66.9327 50.3917 66.9301C50.2048 66.9276 50.0196 66.9647 49.8484 67.0392C49.6772 67.1136 49.5239 67.2235 49.399 67.3615C49.2741 67.4996 49.1803 67.6626 49.124 67.8396C49.0449 68.0117 49.0027 68.1983 49.0001 68.3875C48.9976 68.5767 49.0346 68.7644 49.109 68.9386C49.1834 69.1128 49.2935 69.2697 49.4322 69.3993C49.5709 69.529 49.7353 69.6285 49.9149 69.6916C50.0884 69.7685 50.276 69.809 50.4659 69.8107C50.6559 69.8124 50.8442 69.7753 51.0191 69.7016C51.1939 69.6279 51.3517 69.5192 51.4824 69.3823C51.6132 69.2454 51.7142 69.0833 51.7792 68.9059C51.8606 68.5477 51.8219 68.1728 51.6689 67.8384C51.5159 67.504 51.257 67.2285 50.9318 67.0539ZM70.8174 16.7693C70.9909 16.8462 71.1785 16.8867 71.3685 16.8884C71.5584 16.8901 71.7467 16.853 71.9216 16.7793C72.0965 16.7056 72.2542 16.5969 72.385 16.46C72.5158 16.3231 72.6168 16.161 72.6817 15.9836C72.7608 15.8115 72.803 15.6249 72.8056 15.4357C72.8081 15.2465 72.7711 15.0589 72.6967 14.8847C72.6223 14.7105 72.5122 14.5536 72.3735 14.4239C72.2347 14.2943 72.0704 14.1947 71.8908 14.1316C71.7181 14.0494 71.5297 14.0047 71.3382 14.0003C71.1467 13.996 70.9565 14.0322 70.7802 14.1065C70.6039 14.1808 70.4455 14.2916 70.3155 14.4314C70.1856 14.5712 70.0871 14.7368 70.0265 14.9173C69.885 15.2672 69.8888 15.6585 70.037 16.0056C70.1852 16.3527 70.4658 16.6273 70.8174 16.7693ZM85.5057 82.2628C85.2436 82.1581 84.9562 82.1329 84.6798 82.1904C84.4033 82.2478 84.1502 82.3854 83.9523 82.5857C83.7545 82.786 83.6209 83.04 83.5683 83.3157C83.5156 83.5914 83.5464 83.8764 83.6568 84.1347C83.7671 84.393 83.952 84.613 84.1881 84.767C84.4242 84.921 84.7009 85.0021 84.9834 85C85.2658 84.9978 85.5413 84.9126 85.775 84.7551C86.0088 84.5975 86.1903 84.3747 86.2966 84.1148C86.3928 83.7627 86.3671 83.3887 86.2237 83.0528C86.0803 82.717 85.8274 82.4387 85.5057 82.2628ZM109.346 30.5751C109.084 30.4705 108.796 30.4453 108.52 30.5028C108.243 30.5602 107.99 30.6978 107.793 30.8981C107.595 31.0984 107.461 31.3524 107.408 31.6281C107.356 31.9037 107.387 32.1887 107.497 32.447C107.607 32.7054 107.792 32.9254 108.028 33.0794C108.264 33.2334 108.541 33.3145 108.824 33.3123C109.106 33.3102 109.381 33.225 109.615 33.0674C109.849 32.9099 110.03 32.6871 110.137 32.4271C110.23 32.075 110.203 31.7021 110.06 31.367C109.917 31.0318 109.666 30.7533 109.346 30.5751ZM105.504 31.5292C105.214 31.391 104.897 31.315 104.575 31.3059C104.253 31.2969 103.932 31.3551 103.634 31.4767C103.336 31.5983 103.067 31.7807 102.844 32.0121C102.621 32.2435 102.45 32.5187 102.341 32.82C102.098 33.3908 102.078 34.0311 102.284 34.6159C101.904 33.8579 101.313 33.2245 100.581 32.7914C99.8482 32.3583 99.0059 32.1437 98.1541 32.1733C97.3022 32.2029 96.477 32.4754 95.7769 32.9583C95.0768 33.4412 94.5313 34.114 94.2057 34.8965C93.8621 35.7117 93.764 36.6085 93.9232 37.478C91.3245 40.5086 88.2739 42.4167 85.5622 42.7534C85.0176 42.8098 84.4685 42.8098 83.9239 42.7534C83.356 42.6975 82.802 42.5457 82.2856 42.3045C79.6869 41.1259 78.1051 38.0393 77.7661 33.9985C77.6626 33.1419 77.6437 32.2773 77.7096 31.417C77.7096 31.0241 77.7661 30.6313 77.7661 30.2945C78.533 29.802 79.141 29.1007 79.5174 28.2742C79.9916 27.1787 80.0146 25.9422 79.5816 24.8301C79.1486 23.7179 78.294 22.8187 77.2012 22.3253C76.2448 21.8781 75.1509 21.8177 74.1505 22.157C74.4384 22.0423 74.6982 21.8678 74.9125 21.6451C75.1269 21.4225 75.2908 21.1569 75.3934 20.8662C75.5322 20.5732 75.6086 20.2548 75.6178 19.9311C75.627 19.6073 75.5688 19.2852 75.4468 18.9849C75.3248 18.6846 75.1417 18.4125 74.9089 18.1858C74.6761 17.959 74.3987 17.7825 74.094 17.6673C73.8033 17.5291 73.4866 17.453 73.1645 17.444C72.8423 17.435 72.5218 17.4931 72.2237 17.6148C71.9256 17.7364 71.6564 17.9188 71.4337 18.1502C71.2109 18.3816 71.0395 18.6568 70.9304 18.9581C70.7916 19.2511 70.7152 19.5694 70.706 19.8932C70.6968 20.2169 70.755 20.539 70.877 20.8393C70.999 21.1397 71.1821 21.4117 71.4149 21.6385C71.6477 21.8652 71.9251 22.0417 72.2298 22.157C72.7257 22.3782 73.2797 22.4372 73.8116 22.3253C73.2659 22.5477 72.7702 22.8755 72.3532 23.2898C71.9362 23.704 71.6062 24.1965 71.3824 24.7385C70.9878 25.6748 70.9123 26.7135 71.1673 27.6963C71.4223 28.6791 71.9938 29.5522 72.7947 30.1823C72.7493 30.4982 72.7304 30.8173 72.7382 31.1364C72.6713 32.2212 72.6901 33.3095 72.7947 34.3914C73.1337 38.5444 74.6025 42.1361 77.0317 44.6054C74.433 44.7738 71.7213 46.0085 69.1226 48.085C66.072 50.4982 63.1343 54.2583 60.7616 58.8041C59.9913 58.9087 59.2623 59.2127 58.6475 59.6855C58.0328 60.1583 57.5539 60.7833 57.259 61.4979C56.7896 62.6072 56.7693 63.8537 57.2025 64.9774C56.9067 64.5259 56.4979 64.1585 56.0162 63.9111C55.7254 63.773 55.4088 63.6969 55.0866 63.6879C54.7644 63.6788 54.4439 63.737 54.1458 63.8586C53.8477 63.9803 53.5786 64.1627 53.3558 64.394C53.133 64.6254 52.9616 64.9006 52.8525 65.2019C52.7137 65.4949 52.6373 65.8133 52.6281 66.137C52.6189 66.4607 52.6772 66.7829 52.7992 67.0832C52.9211 67.3835 53.1043 67.6556 53.337 67.8823C53.5698 68.1091 53.8472 68.2856 54.1519 68.4008C54.4426 68.539 54.7593 68.615 55.0815 68.6241C55.4036 68.6331 55.7241 68.575 56.0222 68.4533C56.3204 68.3317 56.5895 68.1493 56.8123 67.9179C57.035 67.6865 57.2065 67.4113 57.3155 67.11C57.5585 66.5392 57.5787 65.8989 57.372 65.3142C57.7519 66.0721 58.3433 66.7055 59.0757 67.1386C59.808 67.5717 60.6504 67.7863 61.5022 67.7567C62.354 67.7271 63.1792 67.4546 63.8794 66.9717C64.5795 66.4889 65.1249 65.816 65.4506 65.0336C65.833 64.1086 65.9121 63.0874 65.6765 62.1153C67.5973 57.9623 70.083 54.7073 72.7382 52.5746C74.9979 50.7227 77.1447 49.8808 78.67 50.6104C79.5212 51.0591 80.1825 51.7957 80.5343 52.6869C80.7603 53.192 80.9297 53.8093 81.1557 54.4828C81.9466 58.0184 81.3252 62.9571 79.2914 68.0641C78.5639 68.4897 77.9672 69.1047 77.566 69.8428C77.1647 70.5808 76.9742 71.4137 77.0149 72.2515C77.0556 73.0894 77.326 73.9002 77.797 74.5964C78.2679 75.2926 78.9214 75.8477 79.6869 76.2017C80.6433 76.6489 81.7372 76.7093 82.7375 76.37C82.4497 76.4847 82.1899 76.6592 81.9756 76.8819C81.7612 77.1045 81.5972 77.3701 81.4947 77.6608C81.3559 77.9538 81.2794 78.2722 81.2703 78.5959C81.2611 78.9196 81.3193 79.2418 81.4413 79.5421C81.5633 79.8424 81.7464 80.1145 81.9792 80.3412C82.212 80.568 82.4894 80.7445 82.794 80.8597C83.0848 80.9979 83.4014 81.074 83.7236 81.083C84.0458 81.092 84.3662 81.0339 84.6644 80.9122C84.9625 80.7906 85.2316 80.6082 85.4544 80.3768C85.6772 80.1454 85.8486 79.8702 85.9577 79.5689C86.0965 79.2759 86.1729 78.9576 86.1821 78.6338C86.1913 78.3101 86.133 77.988 86.011 77.6877C85.8891 77.3873 85.7059 77.1153 85.4732 76.8885C85.2404 76.6618 84.963 76.4853 84.6583 76.37C84.1623 76.1488 83.6084 76.0898 83.0765 76.2017C83.6221 75.9793 84.1179 75.6515 84.5349 75.2372C84.9519 74.823 85.2819 74.3305 85.5057 73.7885C85.8122 73.0618 85.9314 72.2707 85.8525 71.4867C85.7735 70.7028 85.499 69.9507 85.0538 69.2988C87.144 63.4622 87.7654 57.5694 86.8615 53.1359C86.6543 52.1431 86.371 51.1675 86.0141 50.2176C85.5886 49.2644 85.0581 48.3609 84.4323 47.5237C85.0773 47.5539 85.7234 47.4972 86.3531 47.3554C90.3076 46.8503 94.3752 44.4371 97.7648 40.6208C98.761 40.7745 99.7804 40.5928 100.661 40.1047C101.541 39.6166 102.232 38.85 102.623 37.927C103.093 36.8177 103.113 35.5712 102.68 34.4475C102.961 34.9114 103.373 35.2824 103.866 35.5138C104.157 35.652 104.473 35.728 104.796 35.7371C105.118 35.7461 105.438 35.6879 105.736 35.5663C106.035 35.4447 106.304 35.2623 106.526 35.0309C106.749 34.7995 106.921 34.5243 107.03 34.223C107.256 33.6057 106.691 32.0904 105.51 31.5292H105.504ZM140.536 48.7977C144.49 48.7977 147.259 45.9355 147.259 41.8387C147.259 37.2367 143.982 34.8796 140.592 34.8796C137.203 34.8796 133.87 37.2367 133.87 41.8387C133.87 46.4406 137.084 48.7977 140.536 48.7977ZM140.592 38.2469C142.231 38.2469 143.756 39.4816 143.756 41.8948C143.756 44.308 142.118 45.5427 140.536 45.5427C138.785 45.5427 137.316 44.308 137.316 41.8948C137.316 39.4816 138.841 38.2637 140.587 38.2637L140.592 38.2469ZM207.029 34.4307C209.006 34.4307 210.079 33.3644 210.136 31.2879C209.458 31.2318 208.949 31.1195 208.271 31.1195C208.102 31.9052 207.65 32.0736 206.972 32.0736C206.294 32.0736 205.786 31.7369 205.786 31.1195L203.921 31.2879C203.972 33.4373 205.102 34.4475 207.023 34.4475L207.029 34.4307ZM154.094 40.7892L157.371 48.5339H160.591V48.0288L154.716 35.121H153.303L147.485 48.1972V48.7023H150.705L154.094 40.7892ZM156.58 56.0542C155.789 56.0542 155.394 55.7174 155.394 55.1001L153.529 55.3246C153.586 57.3449 154.716 58.4674 156.637 58.4674C158.557 58.4674 159.687 57.4011 159.744 55.3246C159.066 55.2685 158.557 55.1562 157.879 55.1562C157.817 55.8858 157.365 56.0542 156.574 56.0542H156.58ZM174.94 38.2637H178.104V48.6462H181.324V38.2637H184.488V35.1771H174.884L174.94 38.2637ZM192.171 34.8965C188.781 34.8965 185.448 37.2536 185.448 41.8555C185.448 46.4574 188.612 48.8145 192.114 48.8145C196.069 48.8145 198.837 45.9523 198.837 41.8555C198.775 37.3097 195.442 34.8965 192.165 34.8965H192.171ZM192.058 45.5595C190.307 45.5595 188.838 44.3248 188.838 41.9116C188.838 39.4984 190.476 38.2637 192.114 38.2637C193.753 38.2637 195.278 39.4984 195.278 41.9116C195.272 44.2126 193.64 45.5595 192.052 45.5595H192.058ZM163.416 62.1153H166.579V72.3686H169.799V62.1153H172.963V59.0286H163.359L163.416 62.1153ZM167.483 34.8965C164.094 34.8965 160.761 37.2536 160.761 41.8555C160.761 46.4574 163.924 48.8145 167.427 48.8145C171.381 48.8145 174.149 45.9523 174.149 41.8555C174.087 37.3097 170.754 34.8965 167.478 34.8965H167.483ZM167.483 45.5595C165.732 45.5595 164.263 44.3248 164.263 41.9116C164.263 39.4984 165.901 38.2637 167.54 38.2637C169.178 38.2637 170.703 39.4984 170.703 41.9116C170.698 44.2126 169.059 45.5595 167.478 45.5595H167.483ZM210.983 35.1771L204.26 41.7994V35.2332H200.871V48.7023H201.831L208.61 41.7433V48.59H212V35.1771H210.983ZM129.633 69.3549C127.655 69.3549 126.413 67.6151 126.413 65.707C126.413 63.4622 127.712 62.0591 129.633 62.0591C130.258 62.0145 130.88 62.1777 131.402 62.5232C131.924 62.8686 132.315 63.3767 132.514 63.9673H135.734C135.226 60.4316 132.288 58.8602 129.633 58.8602C126.356 58.8602 122.966 61.1051 122.966 65.707C122.966 70.1967 126.243 72.5538 129.633 72.5538C132.401 72.5538 135.282 71.0385 135.79 67.2784H132.57C132.389 67.9042 131.998 68.4503 131.464 68.8275C130.929 69.2047 130.282 69.3906 129.627 69.3549H129.633ZM127.486 45.9523C127.246 45.9602 127.008 45.919 126.785 45.8316C126.562 45.7441 126.36 45.6121 126.19 45.4437C126.021 45.2754 125.888 45.0743 125.8 44.8529C125.712 44.6314 125.67 44.3944 125.678 44.1565H122.74C122.74 47.187 124.605 48.7023 127.373 48.7023C130.763 48.7023 132.457 46.8503 132.457 44.4932C132.501 43.8221 132.341 43.1535 131.999 42.5733C131.657 41.9932 131.147 41.5282 130.537 41.2382C130.886 40.9384 131.168 40.5682 131.363 40.1522C131.557 39.7362 131.661 39.2838 131.666 38.825C131.666 36.8607 130.198 34.9526 127.316 34.9526C125 34.9526 122.966 36.075 123.079 38.6005H126.074C126.074 37.9831 126.752 37.7587 127.316 37.7587C127.482 37.7506 127.647 37.7771 127.801 37.8363C127.956 37.8955 128.096 37.9861 128.213 38.1024C128.33 38.2187 128.422 38.3581 128.481 38.5115C128.541 38.6649 128.567 38.8291 128.559 38.9933C128.563 39.1565 128.534 39.3188 128.473 39.4703C128.411 39.6218 128.32 39.7595 128.204 39.8749C128.088 39.9903 127.949 40.0811 127.797 40.1418C127.644 40.2025 127.481 40.2318 127.316 40.228H126.356V43.0902H127.316C127.532 43.0718 127.75 43.0968 127.956 43.1636C128.162 43.2304 128.352 43.3377 128.515 43.479C128.679 43.6204 128.812 43.793 128.907 43.9865C129.002 44.18 129.056 44.3905 129.068 44.6054C129.175 45.1105 128.672 45.9523 127.48 45.9523H127.486ZM141.83 58.8995L135.898 71.9757V72.4808H139.406L140.197 70.7411H144.999L145.79 72.4808H149.292V71.9757L143.468 58.8995H141.83ZM141.321 67.8228L142.677 64.6239L144.033 67.8228H141.321ZM153.919 65.6341V59.0847H150.53V72.4977H151.49L158.269 65.5386V72.4416H161.659V59.0286H160.585L153.919 65.6341Z" fill="white"/>
</svg>
