<svg width="109" height="30" viewBox="0 0 109 30" fill="none" xmlns="http://www.w3.org/2000/svg">
<path d="M41.4237 0.620768L32.0625 25.0625H37.0907L39.0151 19.9556H48.9474L50.8801 25.0625H55.8711L46.5678 0.620768H41.4237ZM40.7409 15.4695L44.0102 6.86983L47.2672 15.4695H40.7409ZM61.88 18.7596L57.8202 7.89206H53.0238L59.5625 25.0625H64.3176L70.7405 7.89206H65.9439L61.88 18.7596ZM76.7744 7.89206H72.2097V25.0625H76.7744V7.89206ZM74.49 6.65463C76.3276 6.65463 77.8173 5.16494 77.8173 3.32732C77.8173 1.48969 76.3276 0 74.49 0C72.6523 0 71.1626 1.48969 71.1626 3.32732C71.1626 5.16494 72.6523 6.65463 74.49 6.65463ZM85.8211 3.31076H81.2688V7.86306H78.5995V12.0015H81.2688V19.2976C81.2688 23.4361 83.5491 25.2156 86.7606 25.2156C87.8443 25.2299 88.9194 25.0199 89.9182 24.599V20.3446C89.3731 20.5443 88.7978 20.6492 88.2172 20.655C86.8226 20.655 85.817 20.1129 85.817 18.2547V12.0015H89.9182V7.90444H85.8211V3.31076ZM99.5152 7.58167C97.755 7.58086 96.0342 8.1021 94.5703 9.07948C93.1065 10.0569 91.9654 11.4464 91.2915 13.0724C90.6175 14.6985 90.4409 16.4878 90.7841 18.2142C91.1273 19.9405 91.9748 21.5263 93.2194 22.771C94.464 24.0156 96.0498 24.8631 97.7762 25.2063C99.5026 25.5494 101.292 25.3729 102.918 24.6989C104.544 24.025 105.934 22.8839 106.911 21.4201C107.888 19.9562 108.41 18.2354 108.409 16.4752C108.408 14.1168 107.47 11.8554 105.803 10.1877C104.135 8.52012 101.874 7.58277 99.5152 7.58167ZM99.5152 20.8247C98.658 20.8255 97.8198 20.5721 97.1067 20.0965C96.3937 19.6209 95.8377 18.9445 95.5091 18.1528C95.1804 17.3611 95.0941 16.4898 95.2608 15.649C95.4276 14.8082 95.8398 14.0358 96.4456 13.4294C97.0514 12.823 97.8236 12.4099 98.6642 12.2424C99.5048 12.0748 100.376 12.1604 101.168 12.4882C101.96 12.8161 102.637 13.3714 103.114 14.0841C103.59 14.7967 103.844 15.6346 103.844 16.4918C103.842 17.638 103.385 18.7365 102.573 19.5459C101.761 20.3553 100.662 20.8093 99.5152 20.8082V20.8247Z" fill="white"/>
<path d="M8.89768 27.4985C13.8117 27.4985 17.7954 23.5149 17.7954 18.6008C17.7954 13.6868 13.8117 9.70312 8.89768 9.70312C3.98363 9.70313 0 13.6868 0 18.6008C0 23.5149 3.98363 27.4985 8.89768 27.4985Z" fill="white"/>
<path d="M24.329 26.3767C27.298 26.3767 29.7048 23.9699 29.7048 21.0009C29.7048 18.0319 27.298 15.625 24.329 15.625C21.36 15.625 18.9531 18.0319 18.9531 21.0009C18.9531 23.9699 21.36 26.3767 24.329 26.3767Z" fill="white"/>
<path d="M10.6008 8.54917C12.4384 8.54917 13.9281 7.05948 13.9281 5.22185C13.9281 3.38422 12.4384 1.89453 10.6008 1.89453C8.76313 1.89453 7.27344 3.38422 7.27344 5.22185C7.27344 7.05948 8.76313 8.54917 10.6008 8.54917Z" fill="white"/>
<path d="M22.2419 14.468C26.2371 14.468 29.4759 11.2293 29.4759 7.23402C29.4759 3.23878 26.2371 0 22.2419 0C18.2466 0 15.0078 3.23878 15.0078 7.23402C15.0078 11.2293 18.2466 14.468 22.2419 14.468Z" fill="white"/>
</svg>
