<svg width="208" height="45" viewBox="0 0 208 45" fill="none" xmlns="http://www.w3.org/2000/svg">
    <path d="M74.9506 40.1353V39.2368C74.9547 38.866 74.9367 38.4953 74.8968 38.1265C74.8748 37.8999 74.7996 37.6811 74.6767 37.4866C74.5681 37.3334 74.4043 37.2244 74.2169 37.1808C73.963 37.1282 73.7036 37.1045 73.444 37.1103V36.7668H77.8123V37.1338C77.5527 37.1283 77.2933 37.1519 77.0394 37.2044C76.8534 37.2482 76.6912 37.3572 76.5845 37.5102C76.4616 37.7046 76.3863 37.9234 76.3643 38.15C76.3199 38.5185 76.3003 38.8893 76.3056 39.2603V42.196C76.3008 42.5638 76.3205 42.9315 76.3643 43.2968C76.3868 43.5307 76.4619 43.7571 76.5845 43.9602C76.6906 44.1146 76.8528 44.2253 77.0394 44.2707C77.2933 44.3231 77.5527 44.3468 77.8123 44.3413V44.7082H73.444V44.3413C73.7036 44.3471 73.963 44.3234 74.2169 44.2707C74.4048 44.2255 74.5687 44.1149 74.6767 43.9602C74.7993 43.7571 74.8744 43.5307 74.8968 43.2968C74.9362 42.9311 74.9542 42.5636 74.9506 42.196V40.841H70.6068V42.196C70.602 42.5638 70.6216 42.9315 70.6655 43.2968C70.6842 43.5308 70.7578 43.7576 70.8807 43.9602C70.9901 44.1136 71.1534 44.2239 71.3406 44.2707C71.5944 44.3234 71.8538 44.3471 72.1134 44.3413V44.7082H67.7452V44.3413C68.0048 44.3471 68.2642 44.3234 68.5181 44.2707C68.7046 44.2253 68.8668 44.1146 68.973 43.9602C69.0998 43.7589 69.1752 43.5316 69.1931 43.2968C69.237 42.9315 69.2566 42.5638 69.2518 42.196V39.2603C69.2571 38.8893 69.2375 38.5185 69.1931 38.15C69.1757 37.9225 69.1001 37.7027 68.973 37.5102C68.8663 37.3572 68.704 37.2482 68.5181 37.2044C68.2642 37.1517 68.0048 37.128 67.7452 37.1338V36.7668H72.1134V37.1338C71.8538 37.128 71.5944 37.1517 71.3406 37.2044C71.1538 37.2492 70.9903 37.3579 70.8807 37.5102C70.7577 37.7042 70.6839 37.9234 70.6655 38.15C70.6211 38.5185 70.6015 38.8893 70.6068 39.2603V40.1589L74.9506 40.1353Z" fill="white"/>
    <path d="M98.5678 40.7046C98.5711 41.2806 98.4443 41.8505 98.196 42.3747C97.9642 42.8872 97.6321 43.352 97.2177 43.7438C96.7903 44.1326 96.2931 44.4435 95.7501 44.6612C95.1796 44.8884 94.5675 45.0035 93.95 44.9999C93.3309 45.0032 92.7174 44.888 92.145 44.6612C91.6018 44.4439 91.1044 44.133 90.6775 43.7438C90.2546 43.3539 89.914 42.889 89.6747 42.3747C89.4264 41.8505 89.2995 41.2806 89.3029 40.7046C89.2981 40.1345 89.4251 39.5704 89.6747 39.0533C89.9192 38.546 90.2592 38.0867 90.6775 37.6984C91.0989 37.2966 91.5972 36.9771 92.145 36.7574C92.7164 36.5269 93.3304 36.4101 93.95 36.414C94.5681 36.4097 95.1806 36.5265 95.7501 36.7574C96.2976 36.9775 96.7959 37.2969 97.2177 37.6984C97.6274 38.0885 97.959 38.5477 98.196 39.0533C98.4456 39.5704 98.5726 40.1345 98.5678 40.7046ZM97.0073 40.7046C97.0052 40.2933 96.9494 39.8839 96.841 39.4861C96.7385 39.0722 96.5578 38.6799 96.3078 38.3288C96.052 37.9757 95.7178 37.6816 95.3295 37.4678C94.8945 37.2315 94.4004 37.1144 93.9011 37.1291C93.3969 37.1127 92.8977 37.2299 92.458 37.4678C92.0799 37.6861 91.7546 37.9796 91.5042 38.3288C91.2561 38.6809 91.0755 39.0728 90.971 39.4861C90.8665 39.8846 90.8123 40.2937 90.8095 40.7046C90.8113 41.1218 90.8655 41.5372 90.971 41.9419C91.0755 42.3552 91.2561 42.7471 91.5042 43.0992C91.7518 43.4482 92.0778 43.7392 92.458 43.9508C92.8991 44.1848 93.3976 44.3002 93.9011 44.2848C94.3997 44.2986 94.8931 44.1832 95.3295 43.9508C95.7195 43.7433 96.0543 43.4518 96.3078 43.0992C96.5578 42.7481 96.7385 42.3559 96.841 41.9419C96.9556 41.5385 97.0164 41.1227 97.022 40.7046H97.0073Z" fill="white"/>
    <path d="M112.186 42.1724C112.181 42.5402 112.201 42.9079 112.245 43.2733C112.264 43.5072 112.337 43.734 112.46 43.9367C112.568 44.0913 112.732 44.202 112.92 44.2472C113.174 44.2998 113.433 44.3235 113.693 44.3177V44.6847H109.975V44.3177C110.233 44.3233 110.491 44.2996 110.743 44.2472C110.932 44.2032 111.096 44.0923 111.203 43.9367C111.326 43.7335 111.401 43.5072 111.423 43.2733C111.467 42.9079 111.487 42.5402 111.482 42.1724V39.2368C111.487 38.8658 111.468 38.495 111.423 38.1265C111.401 37.8999 111.326 37.6811 111.203 37.4866C111.095 37.3324 110.931 37.2232 110.743 37.1808C110.491 37.1284 110.233 37.1047 109.975 37.1103V36.7668H112.837L115.679 42.8828L118.501 36.7668H121.172V37.1338C120.913 37.128 120.653 37.1517 120.399 37.2044C120.203 37.2461 120.03 37.3548 119.91 37.5102C119.782 37.7028 119.703 37.9222 119.68 38.15C119.64 38.5188 119.622 38.8895 119.627 39.2603V42.196C119.623 42.5636 119.641 42.9311 119.68 43.2968C119.703 43.5319 119.782 43.7588 119.91 43.9602C120.029 44.1171 120.203 44.2273 120.399 44.2707C120.653 44.3234 120.913 44.3471 121.172 44.3413V44.7082H116.804V44.3413C117.064 44.3468 117.323 44.3231 117.577 44.2707C117.763 44.2253 117.926 44.1146 118.032 43.9602C118.154 43.7571 118.23 43.5307 118.252 43.2968C118.296 42.9315 118.315 42.5638 118.311 42.196V38.7428L115.429 44.9999H115.16L112.186 38.5028V42.1724Z" fill="white"/>
    <path d="M138.112 43.9461C138.334 43.9156 138.547 43.8471 138.743 43.7438C138.888 43.6555 139.006 43.5322 139.086 43.3862C139.173 43.2096 139.237 43.0231 139.277 42.8311L139.369 42.4688H139.751L139.599 44.6847H132.467V44.3177C132.727 44.3233 132.986 44.2996 133.24 44.2472C133.427 44.2017 133.589 44.091 133.695 43.9367C133.818 43.7335 133.893 43.5072 133.915 43.2733C133.959 42.9079 133.979 42.5402 133.974 42.1724V39.2368C133.979 38.8658 133.96 38.495 133.915 38.1265C133.893 37.8999 133.818 37.6811 133.695 37.4866C133.588 37.3337 133.426 37.2247 133.24 37.1808C132.986 37.1284 132.727 37.1047 132.467 37.1103V36.7668H139.144L139.296 38.9686H138.895L138.797 38.6016C138.757 38.4157 138.696 38.2343 138.616 38.0606C138.549 37.9073 138.432 37.7788 138.283 37.6936C138.089 37.5863 137.875 37.5175 137.652 37.4913C137.306 37.4428 136.956 37.4207 136.606 37.4255H135.329V40.1589H135.441C135.82 40.1632 136.199 40.146 136.576 40.1071C136.796 40.0895 137.007 40.0165 137.188 39.8954C137.326 39.7821 137.418 39.6254 137.447 39.4532C137.486 39.2073 137.504 38.9586 137.501 38.7098H137.882V42.2901H137.501C137.504 42.0413 137.486 41.7926 137.447 41.5467C137.419 41.3741 137.327 41.217 137.188 41.1045C137.007 40.9834 136.796 40.9104 136.576 40.8928C136.2 40.8515 135.82 40.8342 135.441 40.841H135.329V41.9043C135.325 42.2719 135.343 42.6395 135.383 43.0052C135.403 43.235 135.479 43.4571 135.603 43.6544C135.71 43.8086 135.875 43.9179 136.063 43.9602C136.317 44.0129 136.576 44.0366 136.836 44.0308H137.065C137.416 44.0288 137.766 44.0004 138.112 43.9461Z" fill="white"/>
    <path d="M1.79139e-06 17.205C0.560778 17.2186 1.12113 17.1649 1.66807 17.0451C2.07292 16.9492 2.4235 16.7065 2.64641 16.3676C2.91734 15.9281 3.08435 15.4366 3.13558 14.928C3.22789 14.1298 3.26873 13.3269 3.25788 12.5239V6.12564C3.2699 5.31635 3.22906 4.50713 3.13558 3.70277C3.08816 3.20226 2.92071 2.71915 2.64641 2.29138C2.41824 1.96018 2.06909 1.72344 1.66807 1.62803C1.12073 1.51055 0.560684 1.45685 1.79139e-06 1.46807V0.668281H8.7219C10.2605 0.633553 11.793 0.864609 13.2467 1.35046C14.4153 1.74686 15.4814 2.38068 16.3725 3.20879C17.1883 3.98344 17.8076 4.9284 18.1824 5.9704C18.5714 7.04404 18.7666 8.17375 18.7597 9.31068C18.7691 10.4616 18.5738 11.6056 18.1824 12.6933C17.8074 13.7338 17.1881 14.6772 16.3725 15.4502C15.4836 16.2866 14.4173 16.9285 13.2467 17.3321C11.7921 17.8138 10.26 18.0432 8.7219 18.0095H1.79139e-06V17.205ZM15.3306 9.32479C15.3278 8.49891 15.2443 7.67511 15.0811 6.86427C14.9202 6.03581 14.5875 5.247 14.1028 4.5449C13.6066 3.82095 12.9351 3.22362 12.1461 2.80418C11.1205 2.30964 9.98066 2.07484 8.83441 2.12201H6.15865V13.4884C6.15283 14.0086 6.18061 14.5287 6.24182 15.0456C6.27459 15.38 6.38852 15.7022 6.57445 15.9865C6.74051 16.2143 6.99071 16.3725 7.27396 16.4288C7.68001 16.504 8.09327 16.5371 8.50666 16.5276H8.83441C9.98086 16.577 11.1213 16.3421 12.1461 15.8454C12.932 15.4301 13.603 14.8396 14.1028 14.1235C14.5916 13.4235 14.9247 12.6338 15.0811 11.8041C15.2439 10.9869 15.3275 10.1569 15.3306 9.32479Z" fill="white"/>
    <path d="M35.3376 14.1235C35.1315 14.6012 34.9535 15.0897 34.8044 15.5866C34.7462 15.7384 34.7201 15.8998 34.7277 16.0614C34.7353 16.2229 34.7763 16.3815 34.8485 16.5276C34.9431 16.6641 35.0672 16.7793 35.2125 16.8654C35.3577 16.9515 35.5205 17.0063 35.6898 17.0263C36.3058 17.1363 36.9322 17.1836 37.5585 17.1674V18.0048H29.7856V17.1674C30.3021 17.1763 30.8184 17.1353 31.3265 17.0451C31.7112 16.9722 32.0681 16.7997 32.3586 16.5464C32.6847 16.2383 32.9557 15.8807 33.1608 15.4878C33.4054 15.0174 33.694 14.434 34.0218 13.686L40.0679 0.000229718H40.6451L46.6913 13.686C47.0239 14.434 47.3174 15.0315 47.5767 15.4878C47.7922 15.8765 48.0695 16.2305 48.3985 16.537C48.6733 16.7831 49.0108 16.9552 49.3768 17.0357C49.8239 17.1252 50.2801 17.1662 50.7367 17.158V17.9954H41.5208V17.158C42.9883 17.158 43.8688 16.9416 44.1329 16.5181C44.3971 16.0947 44.2601 15.2902 43.7416 14.1141L42.9198 12.2746H36.1692L35.3376 14.1235ZM39.5347 4.68603L36.8198 10.802H42.2349L39.5347 4.68603Z" fill="white"/>
    <path d="M65.3727 3.70276C65.3237 3.20257 65.1564 2.71979 64.8835 2.29138C64.6546 1.96082 64.3058 1.72428 63.9052 1.62802C63.3578 1.51055 62.7978 1.45684 62.2371 1.46807V0.668278H67.3L78.2427 13.3096V6.11153C78.2523 5.30228 78.2115 4.49321 78.1205 3.68865C78.073 3.18815 77.9056 2.70504 77.6313 2.27726C77.4024 1.94671 77.0536 1.71017 76.6529 1.61391C76.1124 1.50756 75.5607 1.46334 75.0093 1.48218V0.682391H83.0317V1.48218C82.4727 1.47092 81.9142 1.52463 81.3685 1.64214C80.9675 1.73755 80.6184 1.97429 80.3902 2.30549C80.1159 2.73326 79.9485 3.21637 79.901 3.71688C79.8076 4.52124 79.7667 5.33046 79.7787 6.13975V18.6588H78.9961L67.0261 4.70014V12.538C67.0152 13.3411 67.0561 14.1439 67.1484 14.9421C67.1996 15.4507 67.3666 15.9422 67.6375 16.3817C67.8601 16.7209 68.2108 16.9638 68.6159 17.0592C69.1612 17.179 69.7199 17.2327 70.2791 17.2191V18.0189H62.2567V17.2191C62.8174 17.2327 63.3778 17.179 63.9247 17.0592C64.3292 16.9624 64.6794 16.7199 64.9031 16.3817C65.1719 15.9413 65.3387 15.4502 65.3923 14.9421C65.4821 14.1437 65.5229 13.341 65.5145 12.538V6.13975C65.5182 5.32542 65.4708 4.51162 65.3727 3.70276Z" fill="white"/>
    <path d="M99.8445 2.24433C99.0949 2.23173 98.3456 2.27895 97.6041 2.38548C97.1445 2.44062 96.7025 2.5898 96.3078 2.823C96.0115 3.01403 95.7815 3.28605 95.6474 3.60397C95.4857 3.99561 95.3484 4.39621 95.2365 4.80364L95.0311 5.60343H94.2093L94.4979 0.682391H112.803L113.091 5.60343H112.269L112.064 4.80364C111.976 4.39214 111.845 3.99022 111.673 3.60397C111.526 3.28769 111.291 3.01715 110.993 2.823C110.604 2.59256 110.169 2.44349 109.716 2.38548C108.968 2.27779 108.212 2.23057 107.456 2.24433H105.108V12.5239C105.098 13.327 105.141 14.1299 105.235 14.928C105.28 15.4379 105.447 15.9308 105.724 16.3676C105.96 16.7069 106.32 16.9487 106.732 17.0451C107.277 17.1649 107.836 17.2186 108.395 17.205V18.0048H98.8955V17.205C99.4547 17.2186 100.013 17.1649 100.559 17.0451C100.971 16.9487 101.331 16.7069 101.566 16.3676C101.844 15.9308 102.011 15.4379 102.056 14.928C102.148 14.1298 102.189 13.3269 102.178 12.5239V2.24433H99.8445Z" fill="white"/>
    <path d="M144.961 9.3248C144.965 10.5796 144.692 11.821 144.158 12.9662C143.646 14.0845 142.911 15.096 141.996 15.9442C141.074 16.7972 139.994 17.4769 138.812 17.9484C137.572 18.4441 136.241 18.6952 134.898 18.687C133.564 18.693 132.242 18.4418 131.01 17.9484C129.825 17.4782 128.743 16.7984 127.82 15.9442C126.907 15.0956 126.174 14.0841 125.663 12.9662C125.127 11.8217 124.854 10.5799 124.861 9.3248C124.85 8.08306 125.124 6.85435 125.663 5.72575C126.187 4.61882 126.918 3.61411 127.82 2.76185C128.74 1.90022 129.823 1.21522 131.01 0.74356C132.24 0.246252 133.563 -0.00658251 134.898 0.000236504C136.242 -0.00885056 137.573 0.244011 138.812 0.74356C139.997 1.21646 141.077 1.90135 141.996 2.76185C142.9 3.61399 143.633 4.61866 144.158 5.72575C144.695 6.85512 144.968 8.08331 144.961 9.3248ZM141.585 9.3248C141.579 8.42869 141.462 7.53644 141.238 6.66668C141.013 5.76657 140.622 4.91253 140.084 4.14501C139.544 3.37915 138.836 2.73671 138.01 2.26316C137.071 1.74843 136.003 1.49284 134.923 1.52453C133.836 1.48709 132.76 1.74296 131.817 2.26316C130.998 2.74099 130.295 3.38282 129.757 4.14501C129.225 4.90989 128.84 5.76097 128.622 6.65727C128.394 7.52643 128.276 8.41893 128.27 9.31538C128.274 10.2259 128.392 11.1326 128.622 12.0158C128.845 12.9161 129.234 13.7703 129.772 14.5375C130.305 15.3034 131.009 15.9461 131.831 16.4194C132.779 16.9266 133.853 17.1755 134.938 17.1392C136.015 17.1697 137.081 16.9211 138.024 16.4194C138.854 15.9504 139.563 15.3071 140.098 14.5375C140.636 13.7695 141.027 12.9157 141.253 12.0158C141.478 11.135 141.595 10.2318 141.6 9.3248H141.585Z" fill="white"/>
    <path d="M161.676 3.70276C161.626 3.20275 161.459 2.72014 161.186 2.29138C160.958 1.96082 160.609 1.72428 160.208 1.62802C159.662 1.51024 159.104 1.45653 158.545 1.46807V0.668278H163.608L174.546 13.3096V6.11153C174.558 5.30223 174.517 4.49302 174.423 3.68865C174.374 3.18863 174.206 2.70603 173.934 2.27726C173.705 1.94671 173.356 1.71017 172.956 1.61391C172.409 1.49643 171.848 1.44273 171.288 1.45396V0.654164H179.31V1.48218C178.749 1.47096 178.189 1.52466 177.642 1.64214C177.24 1.73626 176.891 1.9733 176.664 2.30549C176.389 2.73326 176.222 3.21637 176.175 3.71688C176.081 4.52124 176.04 5.33046 176.052 6.13975V18.6588H175.289L163.319 4.70014V12.538C163.308 13.3411 163.349 14.1439 163.441 14.9421C163.495 15.4502 163.662 15.9412 163.931 16.3817C164.154 16.7199 164.505 16.9624 164.909 17.0592C165.456 17.179 166.016 17.2327 166.577 17.2191V18.0189H158.555V17.2191C159.114 17.233 159.673 17.1793 160.218 17.0592C160.623 16.9629 160.973 16.7202 161.196 16.3817C161.465 15.9412 161.632 15.4502 161.685 14.9421C161.778 14.1439 161.819 13.3411 161.808 12.538V6.13975C161.817 5.32556 161.773 4.51161 161.676 3.70276Z" fill="white"/>
    <path d="M204.458 16.3864C204.938 16.3263 205.4 16.1761 205.818 15.9442C206.136 15.7582 206.392 15.489 206.557 15.1679C206.746 14.7845 206.884 14.3799 206.968 13.9635L207.178 13.1637H208L207.667 18.0048H192.283V17.205C192.844 17.2186 193.404 17.1649 193.951 17.0451C194.355 16.9483 194.706 16.7058 194.929 16.3676C195.198 15.9271 195.365 15.4361 195.419 14.928C195.511 14.1298 195.552 13.3269 195.541 12.5239V6.12564C195.553 5.31635 195.512 4.50713 195.419 3.70276C195.369 3.20275 195.201 2.72014 194.929 2.29138C194.701 1.96082 194.352 1.72428 193.951 1.62802C193.404 1.51055 192.844 1.45684 192.283 1.46807V0.668278H206.679L207.012 5.4717H206.146L205.941 4.67191C205.849 4.26734 205.718 3.87196 205.549 3.49105C205.401 3.15969 205.15 2.88043 204.83 2.69127C204.413 2.46009 203.953 2.30985 203.475 2.24904C202.725 2.14336 201.968 2.09616 201.21 2.10789H198.456V8.06865H198.701C199.518 8.08128 200.335 8.04199 201.147 7.95103C201.623 7.91024 202.079 7.74781 202.467 7.48057C202.762 7.23992 202.958 6.90642 203.02 6.53965C203.112 6.00491 203.153 5.46318 203.143 4.92126H203.969V12.7262H203.143C203.153 12.1827 203.112 11.6394 203.02 11.1031C202.955 10.7372 202.76 10.4044 202.467 10.1622C202.08 9.89311 201.623 9.73049 201.147 9.69175C200.335 9.5988 199.518 9.55793 198.701 9.56942H198.456V11.8888C198.445 12.6918 198.486 13.4947 198.579 14.2929C198.629 14.7927 198.797 15.2751 199.068 15.7043C199.297 16.0348 199.645 16.2714 200.046 16.3676C200.59 16.4875 201.147 16.5444 201.704 16.537H202.194C202.952 16.5459 203.709 16.4955 204.458 16.3864Z" fill="white"/>
    <path d="M207.971 26.5014H0V27.3482H207.971V26.5014Z" fill="white"/>
</svg>