<svg width="101" height="60" viewBox="0 0 101 60" fill="none" xmlns="http://www.w3.org/2000/svg">
<g clip-path="url(#clip0_1753_8026)">
<path d="M31.2031 31.3823H37.5484V33.4529H34.5297V48.0001H31.2031V31.3823Z" fill="white"/>
<path d="M41.3103 41.7609L41.8807 33.4529H42.0708L42.6413 41.7609H41.3103ZM37.625 48.0001H40.8829L41.1907 43.5868H42.7589L43.0686 48.0001H46.3246L44.5898 31.3823H39.3598L37.625 48.0001Z" fill="white"/>
<path d="M51.0941 42.1836V45.3169C51.0941 45.7397 51.4215 45.861 51.6116 45.861C51.9253 45.861 52.1429 45.6027 52.1429 45.3169V41.4477C52.1429 40.931 52.0468 40.3576 50.806 40.3576H49.4554V38.5316H50.8609C51.8018 38.5316 52.1429 38.3144 52.1429 37.2928V33.997C52.1429 33.7113 51.9253 33.4529 51.6116 33.4529C51.4215 33.4529 51.0941 33.5625 51.0941 33.997V36.7076H47.7656V34.3513C47.7656 33.1926 47.9028 31.3823 50.2355 31.3823H52.9916C55.3243 31.3823 55.4753 33.1946 55.4753 34.3513V37.007C55.4753 38.8193 54.207 39.3086 53.2112 39.2675V39.4319C55.4478 39.3771 55.4753 41.0935 55.4753 41.6787V45.0292C55.4753 46.2015 55.3243 47.9982 52.9916 47.9982H50.2355C47.9028 47.9982 47.7656 46.1996 47.7656 45.0292V42.1816H51.0941V42.1836Z" fill="white"/>
<path d="M57.6484 31.3823H65.3561V48.0001H62.0276V33.4529H60.9769V48.0001H57.6484V31.3823Z" fill="white"/>
<path d="M70.8754 40.522V33.4529H71.3125C71.6673 33.4529 71.9261 33.7524 71.9261 34.2847V39.6922C71.9261 40.2226 71.6673 40.524 71.3125 40.524H70.8754V40.522ZM67.5469 48.0001H70.8754V42.348H72.7847C75.1036 42.348 75.2546 40.5494 75.2546 39.3791V34.3532C75.2546 33.1946 75.1036 31.3843 72.7847 31.3843H67.5469V48.0021V48.0001Z" fill="white"/>
<path d="M81.8167 45.3169C81.8167 45.6027 81.5991 45.861 81.2855 45.861C81.0953 45.861 80.768 45.7377 80.768 45.3169V33.999C80.768 33.5625 81.0953 33.4549 81.2855 33.4549C81.5991 33.4549 81.8167 33.7132 81.8167 33.999V45.3169ZM77.4375 45.0292C77.4375 46.2015 77.5884 47.9982 79.9074 47.9982H82.6772C84.9962 47.9982 85.1472 46.1996 85.1472 45.0292V34.3513C85.1472 33.1926 84.9962 31.3823 82.6772 31.3823H79.9074C77.5884 31.3823 77.4375 33.1946 77.4375 34.3513V45.0292Z" fill="white"/>
<path d="M95.9709 31.3823H100.309V48.0001H96.9804V37.5805H96.8569L95.1378 48.0001H92.4777L90.7723 37.5805H90.6488V48.0001H87.3203V31.3823H91.6446L93.8146 43.0682L95.9709 31.3823Z" fill="white"/>
<path d="M26.885 8.66215C25.8656 4.20974 23.3114 0.585175 22.9606 0C22.4038 0.83177 20.3672 4.03164 19.3321 7.574C18.2011 11.5371 18.0345 15.0521 18.4245 18.4986C18.8127 21.9587 20.275 25.5128 20.275 25.5128C21.0532 27.3643 22.2176 29.3683 22.9762 30.3489C24.0877 28.9045 26.6439 24.6008 27.4397 18.9898C27.8827 15.8565 27.9023 13.1185 26.885 8.66607V8.66215ZM22.9606 29.2294C22.4607 28.29 21.6825 26.5051 21.608 23.726C21.5884 21.0565 22.6626 18.755 22.9762 18.2774C23.2566 18.755 24.1818 20.7571 24.2916 23.4951C24.3661 26.1646 23.4761 28.2763 22.9606 29.2294ZM26.589 16.2225C26.5517 17.9251 26.3479 19.7237 26.0891 20.7982C26.1812 18.9448 25.9597 16.3438 25.5344 14.3006C25.109 12.2711 23.9034 8.86569 22.9429 7.30001C22.0549 8.79915 20.9611 11.7407 20.3868 14.2869C19.8104 16.8331 19.7948 19.9253 19.7948 20.853C19.6419 20.076 19.2596 17.2852 19.3674 14.4924C19.4576 12.1908 19.9986 9.80706 20.2946 8.71695C21.4237 5.08065 22.7018 2.75169 22.9429 2.38376C23.1821 2.75169 24.7934 5.62472 25.6285 8.63475C26.4596 11.6448 26.6262 14.5315 26.5909 16.2205L26.589 16.2225Z" fill="white"/>
<path d="M24.6882 31.3824H16.9413V36.5726C16.9413 36.5726 16.953 36.5589 16.9609 36.5589C18.7859 34.733 21.7458 34.733 23.5728 36.5589C25.3978 38.3712 25.3978 41.3264 23.5728 43.1505C23.5649 43.1642 23.5571 43.1642 23.5473 43.1779C23.5473 43.1779 23.5277 43.1916 23.5199 43.2053C21.6988 45.0038 19.319 45.9022 16.9393 45.9022C14.5596 45.9022 12.1583 45.0038 10.3372 43.1779C7.1224 39.976 6.74211 35.005 9.19241 31.3824C9.52174 30.8912 9.90398 30.4293 10.3372 29.9928C12.1602 28.1669 14.5498 27.2685 16.9393 27.2685V14.792C7.75751 14.792 0.3125 22.2153 0.3125 31.3824C0.3125 40.5495 7.75752 47.9865 16.9413 47.9865C21.7302 47.9865 26.0427 45.957 29.0772 42.7297V31.3843H24.6882V31.3824Z" fill="white"/>
</g>
<defs>
<clipPath id="clip0_1753_8026">
<rect width="100" height="60" fill="white" transform="translate(0.3125)"/>
</clipPath>
</defs>
</svg>
