<svg width="47" height="46" viewBox="0 0 47 46" fill="none" xmlns="http://www.w3.org/2000/svg">
<path fill-rule="evenodd" clip-rule="evenodd" d="M24.7478 15.1016C24.7478 16.9577 24.2216 18.6896 23.3156 20.1432C22.412 18.6896 21.8859 16.9577 21.8859 15.1016V14.6807C21.8859 12.8269 22.412 11.0973 23.3156 9.6414C24.2239 11.0973 24.7478 12.8269 24.7478 14.6807V15.1016ZM24.7478 30.9923C24.7478 32.8461 24.2216 34.5757 23.3156 36.0339C22.412 34.5757 21.8859 32.8461 21.8859 30.9923V30.5714C21.8859 28.7199 22.412 26.9857 23.3156 25.5275C24.2239 26.9857 24.7478 28.7199 24.7478 30.5714V30.9923ZM42.8656 5.3358V2.2998H30.8693C28.0099 2.3136 25.3813 3.3693 23.3156 5.1104C21.2499 3.3693 18.6168 2.3136 15.7596 2.2998H3.76562V5.3358H15.7482C17.8254 5.3358 19.7401 6.0741 21.2683 7.3115C19.7493 9.3976 18.8479 11.9851 18.8479 14.775V15.3408C18.8479 16.523 19.0103 17.6753 19.3169 18.7701C18.1754 18.3952 16.9606 18.1928 15.707 18.1928H3.76562V21.2242H15.7482C17.6149 21.2242 19.3512 21.8199 20.7901 22.8342C19.3512 23.8554 17.6126 24.4488 15.7482 24.4488H3.76562V27.8068H15.707C16.9606 27.8068 18.1754 27.6067 19.3123 27.2364C19.0104 28.3266 18.8479 29.4812 18.8479 30.6634V31.2269C18.8479 33.9271 19.6898 36.4295 21.1172 38.4788C19.6166 39.6449 17.759 40.3372 15.7482 40.3372H3.76562V43.6998H15.707C18.5871 43.6998 21.2362 42.6464 23.3156 40.8938C25.3951 42.6464 28.0465 43.6998 30.9266 43.6998H42.8656V40.3372H30.8831C28.8745 40.3372 27.0124 39.6449 25.514 38.4788C26.9416 36.4295 27.7834 33.9271 27.7834 31.2269V30.6634C27.7834 29.4812 27.621 28.3266 27.3121 27.2364C28.4559 27.6067 29.6705 27.8068 30.9266 27.8068H42.8656V24.4488H30.8831C29.0164 24.4488 27.2847 23.8554 25.8436 22.8342C27.2847 21.8199 29.0164 21.2242 30.8831 21.2242H42.8656V18.1928H30.9266C29.6705 18.1928 28.4559 18.3952 27.3121 18.7701C27.621 17.6753 27.7834 16.523 27.7834 15.3408V14.775C27.7834 11.9851 26.882 9.3976 25.3654 7.3115C26.8912 6.0741 28.806 5.3358 30.8831 5.3358H42.8656Z" fill="white"/>
</svg>
