<svg width="123" height="32" viewBox="0 0 123 32" fill="none" xmlns="http://www.w3.org/2000/svg">
<g clip-path="url(#clip0_1753_7976)">
<mask id="mask0_1753_7976" style="mask-type:luminance" maskUnits="userSpaceOnUse" x="0" y="0" width="123" height="32">
<path d="M122.312 0H0.3125V32H122.312V0Z" fill="white"/>
</mask>
<g mask="url(#mask0_1753_7976)">
<path d="M47.5781 12.3279C47.5781 11.6792 47.3321 11.0804 46.8401 10.6312C46.2988 10.1322 45.7576 9.93262 45.0196 9.93262C43.5927 9.93262 42.6087 10.7809 42.4611 12.278C42.2151 14.3739 42.2151 15.372 42.2151 17.8172L42.2643 21.3104C42.2643 21.3104 42.3627 23.0071 42.3627 23.9054C41.1818 25.1529 39.6074 26.2009 37.9837 26.1011C36.9505 26.0512 35.4744 25.2028 35.4252 22.2087L35.5236 17.5677L35.7697 14.4737L36.0157 12.4277C36.0157 11.7291 35.7697 11.1303 35.2776 10.6312C34.7364 10.1821 34.0968 9.93262 33.408 9.93262C32.0303 9.93262 31.1447 10.731 30.8987 12.1782C30.5051 14.5237 30.5051 16.3201 30.5051 17.8671C30.5051 20.3124 30.3575 22.3584 30.8495 25.652C31.0955 27.3986 31.9319 28.5962 33.2112 29.7939C34.3428 30.5424 35.376 31.2411 37.7869 31.2411C39.6074 31.2411 41.5263 30.2929 42.7563 29.195C42.9531 30.4426 43.3467 31.1912 44.9212 31.2411C45.61 31.2411 46.2496 30.9916 46.7416 30.5424C47.2829 29.9935 47.5289 29.3947 47.5289 28.696L47.4797 27.7978L47.4305 26.9993L47.3813 26.2508L47.2829 22.3584L47.3321 18.5159L47.6273 12.6273C47.5781 12.4776 47.5781 12.3778 47.5781 12.3279Z" fill="white"/>
<path d="M121.479 10.1821C121.036 9.73297 120.347 9.48346 119.806 9.48346C119.314 9.43356 119.018 9.43356 118.526 9.53336C117.247 9.78288 115.574 10.3318 113.901 12.0784C113.459 10.1821 112.327 9.83278 111.491 9.83278C110.605 9.83278 109.031 10.0823 109.031 12.3279V28.5962C109.031 30.243 109.916 31.2411 111.441 31.2411C113.114 31.2411 114.049 30.2929 114.049 28.5962C114.049 28.5962 114 20.2625 114 19.2145C113.951 17.4679 115.673 15.6714 117.296 15.2223C118.034 15.0227 118.428 14.9229 119.117 14.873C119.166 14.873 119.658 14.8231 119.707 14.8231C120.396 14.7732 120.937 14.6734 121.528 14.1244C122.069 13.6254 122.315 12.8769 122.315 12.0784C122.217 11.28 122.069 10.731 121.479 10.1821Z" fill="white"/>
<path d="M51.8548 0.20166C50.2312 0.20166 49.2964 1.14981 49.3456 2.7966L49.444 8.1861V9.03444L49.5424 15.5717V21.9593L49.4932 28.5464C49.5424 30.1932 50.5264 31.1414 52.1501 31.1414C53.6261 31.1414 54.5117 30.2431 54.6593 28.6462C54.6593 28.5963 54.7085 24.4045 54.7085 24.4045V15.5218L54.6101 9.78298L54.5609 2.6968C54.5117 1.14981 53.5277 0.20166 51.8548 0.20166Z" fill="white"/>
<path d="M59.5346 0.20166C57.911 0.20166 56.9761 1.14981 57.0253 2.7966L57.1238 8.33581L57.173 15.5717V22.0092L57.1238 28.5464C57.173 30.1932 58.157 31.1414 59.7806 31.1414C61.2567 31.1414 62.1423 30.2431 62.2899 28.6462C62.2899 28.5963 62.3391 24.4045 62.3391 24.4045V15.5218L62.2407 10.0824V8.98454L62.1423 2.6968C62.1423 1.14981 61.1583 0.20166 59.5346 0.20166Z" fill="white"/>
<path d="M28.0419 14.0246C27.5007 13.5256 26.8118 13.2761 25.9754 13.2761C19.038 13.2761 12.8385 12.3778 10.034 14.0246C8.9024 14.7233 8.7548 15.6215 8.804 16.3202C8.8532 16.9689 9.14841 17.7673 9.64043 18.3163C10.3293 18.965 11.0181 19.3143 11.8053 19.3143L12.9861 19.0149C15.1018 18.0667 19.776 18.6656 22.6297 18.4161C22.7281 19.9131 23.2201 21.7096 19.9728 24.4044C18.4967 25.652 16.1843 26.0512 14.0686 25.9514C8.36118 25.652 6.58992 21.3104 6.0979 19.3143C5.21227 15.4219 5.35987 12.6773 7.86916 8.93455C9.19761 6.98834 12.1005 5.14194 15.6922 5.44136C19.284 5.69087 20.268 7.78679 22.2361 8.83474C22.9249 9.23397 23.4169 9.43358 23.8597 9.43358C24.5978 9.43358 25.2374 8.93455 25.7786 8.38562C26.2706 7.9365 26.5166 7.28776 26.4182 6.53922C26.4182 5.04214 24.893 3.04603 22.9249 2.04797C20.9076 1.00002 18.792 0.0518662 15.643 0.00196352C13.5766 -0.0479392 9.54202 0.85031 6.54072 3.04603C4.03142 4.94233 2.50617 6.83864 1.27612 10.3318C0.144484 13.4757 0.0952818 16.6695 0.685703 19.8632C1.47293 24.105 3.93302 26.8995 5.9995 28.5962C8.06597 30.243 11.1657 31.291 14.6098 31.291C18.2999 31.291 21.6949 30.1432 24.2534 27.7978C27.5007 24.8036 28.1895 21.8594 28.0911 18.0168C28.7799 17.5178 29.1735 16.8691 29.0751 15.9209C28.9767 15.2223 28.6323 14.5736 28.0419 14.0246Z" fill="white"/>
<path d="M97.8132 14.6732C98.4528 14.5734 99.1909 14.5235 99.8797 14.6233C100.568 14.7232 101.749 15.2721 102.339 15.7711C101.257 16.32 99.5353 16.9189 98.0592 17.5177C96.534 18.1165 95.4023 18.5158 93.7787 19.3142C94.1231 17.6674 94.6643 16.869 95.3531 16.1204C96.042 15.322 97.1736 14.7731 97.8132 14.6732ZM106.866 24.0051C106.423 23.5559 105.882 23.3064 105.193 23.3064C104.455 23.3064 103.815 23.9053 103.225 24.8035C103.028 25.1029 102.339 25.8515 100.814 26.2507C96.8784 27.2986 95.2055 25.552 95.2055 25.552C94.5659 25.2526 94.2215 24.554 93.8771 23.8054C95.2547 23.3064 97.7148 22.4082 100.273 21.3602C102.831 20.3622 105.094 19.4639 105.783 19.0148C107.062 18.2163 107.554 17.1684 107.505 16.0206C107.407 13.9247 105.685 12.0284 103.864 11.1302C102.487 10.3816 100.715 9.98242 98.5512 9.98242C95.7959 10.0323 92.7454 11.8288 91.171 13.775C89.5965 15.7212 88.7109 18.7653 88.7109 22.0589C88.7109 25.053 89.8917 27.7478 91.8106 29.0951C93.8771 30.5423 95.8944 31.191 98.2068 31.2909C100.42 31.3907 102.093 30.8417 103.963 29.9934C106.472 28.8955 107.751 27.3984 107.751 25.7517C107.653 25.0031 107.407 24.4542 106.866 24.0051Z" fill="white"/>
<path d="M88.8048 10.5811C88.2636 10.0821 87.6732 9.83252 86.9843 9.83252C86.0003 9.83252 85.1639 10.4314 84.6718 11.4295C84.6226 11.4794 83.0974 15.4217 83.0974 15.4217C82.0642 18.0665 80.7357 20.4619 79.9485 22.2085C78.9644 19.6135 75.9139 11.4295 75.9139 11.4295C75.4711 10.3815 74.6839 9.83252 73.6014 9.83252C72.9126 9.83252 72.273 10.0821 71.7318 10.5312C71.1906 11.0303 70.8461 11.6291 70.8953 12.3776C70.9445 13.1262 71.4366 14.2739 71.4366 14.2739L74.3887 21.6595L77.2424 28.9453C77.9312 30.642 79.112 31.0412 79.9485 31.0412C81.3261 31.0412 82.2118 30.2428 82.3594 28.8954C82.4086 28.7956 86.5907 20.2124 86.5907 20.2124C88.8048 15.4217 89.6904 12.5772 89.6904 12.3776C89.6412 11.679 89.346 11.0303 88.8048 10.5811Z" fill="white"/>
<path d="M69.3239 2.84629C68.7826 2.29736 68.0938 2.04785 67.2574 2.04785C66.421 2.04785 65.7321 2.34726 65.1909 2.89619C64.6497 3.39522 64.3545 4.09386 64.4037 4.8923C64.4037 5.69075 64.7481 6.43929 65.3877 6.98822C65.9781 7.53715 66.7162 7.78666 67.4542 7.78666C68.1922 7.78666 68.8811 7.53715 69.4715 6.98822C70.0127 6.43929 70.3571 5.74065 70.3079 4.8923C70.2587 4.09386 69.9143 3.34532 69.3239 2.84629Z" fill="white"/>
<path d="M69.7136 12.5275C69.6644 11.5295 69.2215 10.9307 68.8771 10.6312C68.4342 10.1821 67.7947 9.93262 67.0567 9.93262C66.3187 9.93262 65.679 10.1821 65.187 10.6811C64.7442 11.1303 64.4982 11.779 64.5474 12.5275C64.5474 12.5275 64.449 14.5736 64.4982 17.5677C64.5474 21.0609 64.695 28.5962 64.695 28.5962C64.695 29.3448 64.9902 29.9436 65.4822 30.4426C66.0235 30.9416 66.663 31.1413 67.3518 31.1413C68.0898 31.1413 68.6803 30.8917 69.1724 30.4426C69.6644 29.8438 69.8611 29.245 69.8611 28.5463C69.8611 28.5463 69.6152 20.8613 69.6152 17.2683C69.6152 14.1743 69.7136 12.5275 69.7136 12.5275Z" fill="white"/>
</g>
</g>
<defs>
<clipPath id="clip0_1753_7976">
<rect width="122" height="32" fill="white" transform="translate(0.3125)"/>
</clipPath>
</defs>
</svg>
