<svg width="188" height="18" viewBox="0 0 188 18" fill="none" xmlns="http://www.w3.org/2000/svg">
<path d="M17.9459 17.3406H25.055V0.657715H17.9459L7.10902 10.0784V0.657715H0V17.3406H7.10902L17.9459 7.92193V17.3406Z" fill="white"/>
<path d="M52.4688 17.3406V0.657715H45.1138V6.20119H34.9624V0.657715H27.6094V17.3406H34.9624V11.5006H45.1138V17.3406H52.4688Z" fill="white"/>
<path d="M79.8791 17.3406V0.657715H72.5221V6.20119H62.3706V0.657715H55.0156V17.3406H62.3706V11.5006H72.5221V17.3406H79.8791Z" fill="white"/>
<path d="M82.1875 9.1968C82.1875 15.18 86.6009 17.5867 95.2301 17.5867H96.0144C104.644 17.5867 109.059 15.18 109.059 9.1968V8.80343C109.059 2.82018 104.648 0.413574 96.0144 0.413574H95.2301C86.6009 0.413574 82.1875 2.82018 82.1875 8.80343V9.1968ZM89.7885 9.09795V8.89622C89.7885 6.32218 91.726 5.31556 95.1575 5.31556H96.089C99.5165 5.31556 101.46 6.3242 101.46 8.89622V9.09795C101.46 11.674 99.5226 12.6806 96.089 12.6806H95.1575C91.726 12.6806 89.7885 11.674 89.7885 9.09795Z" fill="white"/>
<path d="M110.508 0.657715V6.05595H119.246V17.3406H126.599V6.05595H135.327V0.657715H110.508Z" fill="white"/>
<path d="M178.51 17.3406H187.998L179.53 8.85391L187.742 0.66175H178.723L174.489 5.37007L170.256 0.657715H160.767L168.933 9.19685L160.523 17.3406H169.544L174.03 12.5839L178.51 17.3406Z" fill="white"/>
<path d="M137.492 17.3711H159.122V12.8584H144.867V10.7806H157.007V7.25038H144.867V5.15645H159.124V0.682129H137.492V17.3711Z" fill="white"/>
</svg>
