<svg width="152" height="30" viewBox="0 0 152 30" fill="none" xmlns="http://www.w3.org/2000/svg">
<g clip-path="url(#clip0_1753_7789)">
<mask id="mask0_1753_7789" style="mask-type:luminance" maskUnits="userSpaceOnUse" x="0" y="0" width="152" height="30">
<path d="M152 0H0V30H152V0Z" fill="white"/>
</mask>
<g mask="url(#mask0_1753_7789)">
<path d="M68.5069 15.1107C68.5069 21.0017 65.006 23.7867 60.6243 23.7867H57.9448V20.2517H60.4148C63.0583 20.2517 64.8199 18.7878 64.8199 15.1107C64.8199 11.4677 63.1538 9.64675 60.3369 9.64675C57.6233 9.64675 55.6843 11.3608 55.6843 15.0387V29.8217H52.0305V6.57575H55.6833V8.57575H56.2046C57.4226 6.89775 59.2222 6.14775 61.1008 6.14775C65.1356 6.14775 68.5069 9.14775 68.5069 15.1107ZM44.5045 13.5747L42.0686 13.3247C40.156 13.1458 39.1475 12.6107 39.1475 11.4677C39.1475 10.1107 40.4337 9.32575 42.2781 9.32575C44.1908 9.32575 45.4087 10.2537 45.513 11.5757H49.0256C48.8872 8.21875 46.348 6.14775 42.3122 6.14775C38.2433 6.14775 35.4946 8.36075 35.4946 11.6107C35.4946 14.3247 37.1647 16.0737 40.9559 16.4667L43.4259 16.7167C44.9216 16.8597 45.93 17.1807 45.93 18.6447C45.93 19.9667 44.9907 20.9307 42.5217 20.9307C40.2476 20.9307 39.127 19.8708 38.7334 18.4508H34.9334C35.3114 21.6968 37.9676 24.2157 42.5217 24.2157C46.7991 24.2157 49.5829 21.8947 49.5829 18.4657C49.5829 15.4317 47.6342 13.8958 44.5045 13.5747ZM82.6526 18.4508C82.0797 19.8018 80.7107 20.8237 78.7679 20.8237C76.0903 20.8237 74.1075 19.0378 74.1075 15.1817C74.1075 11.5037 75.951 9.46775 78.8029 9.46775C81.3421 9.46775 82.8037 11.0398 82.942 13.3958H76.368V16.1097H86.5247V14.3247C86.5247 9.36075 83.3249 6.14775 78.7688 6.14775C74.5245 6.14775 70.4546 9.11075 70.4546 15.1817C70.4546 21.2517 74.5245 24.2157 78.7679 24.2157C82.6497 24.2157 85.4179 21.7607 86.2772 18.4508H82.6526ZM25.0778 6.14775C21.077 6.14775 18.0858 8.28975 17.7379 11.5747H21.6685C21.9471 10.3608 23.0248 9.46875 25.0778 9.46875C27.7212 9.46875 28.5903 10.8967 28.5903 12.6467V18.5378C27.0947 20.2878 25.3554 21.1087 23.6162 21.1087C21.8078 21.1087 20.5558 20.2167 20.5558 18.6097C20.5558 17.0737 21.5301 16.1097 23.4077 16.1097H26.3298V13.3958H23.3034C19.1293 13.3958 16.7986 15.5387 16.7986 18.8237C16.7986 21.8937 19.0591 24.2157 22.7812 24.2157C24.8683 24.2157 26.7127 23.3587 28.069 22.3228H28.5903V23.7867H32.2432V12.2887C32.2432 8.03975 29.4253 6.14775 25.0778 6.14775ZM0.296875 23.7878H3.94877V0.21875H0.296875V23.7857V23.7878ZM15.6362 6.57475H11.1834L5.86241 13.7527V16.0028L11.3227 23.7857H15.8447L9.44513 14.8607L15.6362 6.57675V6.57475ZM147.668 6.57475L144.677 13.3947C143.946 15.0377 143.251 16.6448 143.042 17.7157H142.519C142.311 16.6448 141.581 15.0737 140.85 13.4307L137.859 6.57475H133.824L140.85 22.0367L137.372 29.8207H141.268L151.703 6.57475H147.668ZM133.017 6.57475H128.564L123.242 13.7527V16.0028L128.703 23.7857H133.225L126.825 14.8587L133.017 6.57475ZM110.149 13.5737L107.714 13.3237C105.801 13.1447 104.792 12.6097 104.792 11.4667C104.792 10.1097 106.079 9.32475 107.923 9.32475C109.836 9.32475 111.054 10.2528 111.158 11.5747H114.67C114.532 8.21775 111.993 6.14675 107.958 6.14675C103.888 6.14675 101.14 8.35975 101.14 11.6097C101.14 14.3237 102.809 16.0728 106.601 16.4657L109.071 16.7157C110.566 16.8587 111.575 17.1797 111.575 18.6437C111.575 19.9657 110.636 20.9298 108.167 20.9298C105.892 20.9298 104.772 19.8697 104.378 18.4497H100.577C100.956 21.6957 103.612 24.2148 108.167 24.2148C112.445 24.2148 115.228 21.8937 115.228 18.4648C115.228 15.4307 113.28 13.8947 110.149 13.5737ZM117.676 23.7857H121.329V0.22075H117.676V23.7878V23.7857ZM93.5918 8.57575H93.0705V6.57575H89.4166V23.7867H93.0695V14.7887C93.0695 11.7177 94.4511 9.93275 97.1735 9.93275H99.4859V6.14775H98.1481C95.6213 6.14775 94.5496 7.12575 93.5918 8.57575Z" fill="white"/>
</g>
</g>
<defs>
<clipPath id="clip0_1753_7789">
<rect width="152" height="30" fill="white"/>
</clipPath>
</defs>
</svg>
