<svg width="92" height="22" viewBox="0 0 92 22" fill="none" xmlns="http://www.w3.org/2000/svg">
<g clip-path="url(#clip0_1753_7795)">
<path d="M53.3794 19.1256C53.3794 19.2952 53.427 19.3877 53.5382 19.3877C53.6177 19.3877 53.6812 19.3568 53.7607 19.3106L82.4203 1.22467C82.9287 0.900881 83.3894 0.731278 84.0725 0.731278H90.3796C91.3486 0.731278 92 1.36344 92 2.30396V13.9758C92 15.3789 91.6823 16.196 90.3796 16.9515L82.738 21.4075C82.6427 21.4692 82.5474 21.5 82.4838 21.5C82.3885 21.5 82.3091 21.4383 82.3091 21.1762V7.54626C82.3091 7.39207 82.2614 7.28414 82.1502 7.28414C82.0708 7.28414 82.0072 7.31498 81.9278 7.36123L60.9732 20.5749C60.3854 20.9449 59.9088 21.0529 59.3687 21.0529H45.4678C44.4987 21.0529 43.8473 20.4207 43.8473 19.4802V2.67401C43.8473 2.55066 43.7838 2.44273 43.6885 2.44273C43.609 2.44273 43.5455 2.47357 43.4661 2.51982L29.6446 10.5837C29.5016 10.6608 29.4699 10.7379 29.4699 10.7996C29.4699 10.8612 29.4858 10.9075 29.597 11L39.4626 20.5749C39.5897 20.6982 39.685 20.8062 39.685 20.8987C39.685 21.0066 39.542 21.0683 39.3673 21.0683H30.439C29.7399 21.0683 29.1998 20.9604 28.8185 20.5903L22.8292 14.7775C22.7657 14.7159 22.718 14.685 22.6545 14.685C22.6068 14.685 22.5274 14.7159 22.4638 14.7467L12.4552 20.5903C11.8515 20.9449 11.4384 21.0529 10.8347 21.0529H1.62045C0.651356 21.0529 0 20.4207 0 19.4802V8.02423C0 6.60573 0.317735 5.80397 1.62045 5.04846L9.30962 0.561674C9.38905 0.515419 9.4526 0.5 9.51615 0.5C9.62735 0.5 9.6909 0.623348 9.6909 0.870044V16.196C9.6909 16.3502 9.73856 16.4273 9.84977 16.4273C9.91331 16.4273 9.99275 16.3811 10.0722 16.3348L36.047 1.17841C36.6665 0.823789 37.0478 0.715859 37.7627 0.715859H51.743C52.7121 0.715859 53.3635 1.34802 53.3635 2.28855L53.3794 19.1256Z" fill="white"/>
</g>
<defs>
<clipPath id="clip0_1753_7795">
<rect width="92" height="21" fill="white" transform="translate(0 0.5)"/>
</clipPath>
</defs>
</svg>
