<svg width="146" height="36" viewBox="0 0 348 86" fill="none" xmlns="http://www.w3.org/2000/svg">
    <g clip-path="url(#clip0_22425_6885)">
        <path d="M276.153 73.39C301.543 60.03 307.643 43.1 299.813 38.36C288.273 31.89 256.623 43.46 260.213 75.1C258.643 76.04 255.523 77.73 255.523 77.73L257.633 84.13C257.633 84.13 262.043 81.49 263.243 80.67C266.963 83.67 268.883 85.33 274.643 85.44C286.873 85.69 297.423 72.13 297.423 72.13L294.313 67.36C294.313 67.36 280.873 80.26 276.153 73.39ZM279.523 54C283.153 47.56 289.073 42.53 291.933 44.54C294.813 46.54 288.983 56.73 275.303 67.57C274.753 66.62 275.863 60.47 279.523 54.01V54ZM39.3633 82.62C33.2533 76.25 39.0233 54.72 40.2133 50.08C40.3233 49.65 39.9933 49.23 39.5533 49.23C39.2933 49.23 39.0533 49.37 38.9433 49.61C36.3733 54.8 22.4233 85.44 10.0733 85.44C9.8433 85.44 9.6033 85.44 9.3733 85.42C-2.5567 84.3 -0.996701 67.82 2.7133 57.83H21.9533C20.3833 62.15 19.8433 64.86 19.8933 66.28C19.9333 67.3 20.7833 67.83 21.6133 67.39C23.6033 66.35 26.8933 62.04 29.7433 57.08C34.9533 48.03 41.6433 34.4 53.1833 0H74.3033C68.0433 19.17 62.9533 36.5 60.1733 56.32C60.0333 57.31 61.1733 58.14 62.0733 57.29C68.1033 51.62 90.0633 4.12 91.4433 0H112.593C112.593 0 91.6233 58.08 93.3833 67.74C93.6233 69.05 94.9833 69.4 96.0833 68.14C97.3733 66.67 99.3733 64.07 100.543 62.7L103.813 65.96C97.8033 73.38 88.0333 86.82 78.2733 85.2C76.7633 84.95 75.2933 84.09 74.2033 82.97C64.0433 74.14 78.2133 44.67 80.7033 37.74C81.2533 36.21 81.7933 34.81 82.1333 33.93C82.3133 33.48 81.9833 33 81.5033 33C81.2333 33 80.9933 33.15 80.8733 33.39C80.3833 34.43 79.0633 37.24 78.6233 38.18C72.3333 51.14 57.9033 85.42 46.0533 85.42C44.1933 85.42 41.4133 84.72 39.3733 82.61L39.3633 82.62ZM243.763 14.56C234.383 14.68 229.593 19.57 229.593 19.57L229.843 25.32C229.843 25.32 235.823 19.36 242.613 21.88C247.233 23.59 251.823 29.47 248.683 42.49C245.863 35.25 234.923 33.65 226.123 43.11C219.103 50.66 209.613 75.86 223.623 83.61C241.033 93.25 256.313 65.01 259.833 45.75C262.053 33.61 263.373 14.3 243.763 14.55V14.56ZM236.463 72.94C234.583 74.28 231.273 74.96 230.633 69.06C229.723 60.57 235.593 50.34 237.413 47.96C240.523 43.9 244.873 43.59 244.953 49.75C245.053 56.83 241.143 69.61 236.453 72.95L236.463 72.94ZM183.913 9.79C173.763 6.25 137.823 17.65 126.053 57.38C124.613 57.78 117.693 59.56 117.693 59.56L114.683 67.7L125.373 64.43C125.373 64.43 124.203 84.85 142.153 85.44C156.263 84.92 163.823 64.3 159.423 51.05C158.533 51.49 147.013 56.37 147.013 56.37C147.013 56.37 149.313 69.77 144.293 72.87C143.513 73.35 142.493 73.29 141.843 72.38C140.383 70.35 139.453 65.09 141.083 58.09C166.923 44.66 184.563 21.01 185.633 12.88C185.913 10.79 184.253 9.91 183.893 9.79H183.913ZM151.783 44.97C146.993 48.64 143.273 50.46 143.273 50.46C143.273 50.46 144.603 47.34 145.663 45.55C148.423 40.9 161.793 22.96 172.943 19.63C173.373 19.5 173.693 19.81 173.683 20.26C173.583 24.17 159.423 39.13 151.773 44.98L151.783 44.97ZM205.763 74.95C207.463 73.89 209.783 72.05 209.783 72.05L211.213 76.43C210.363 77.33 203.453 82.81 199.163 84.81C194.533 86.97 190.263 84.12 189.683 80.64C189.013 76.65 191.073 71.43 191.073 71.43C191.073 71.43 183.683 79.84 176.163 83.94C174.073 85.08 172.483 85.54 171.203 85.5C166.133 85.38 164.553 80.47 165.103 77.85C165.763 74.72 172.623 53.61 173.483 50.14C173.573 49.8 173.223 49.39 172.763 49.52C170.683 50.09 165.233 53.64 165.233 53.64V47.78C165.233 47.78 180.213 37.61 184.173 36.49C187.833 35.45 190.953 37.54 190.033 41.7C189.613 44.58 180.693 68.98 180.133 71.93C180.023 72.52 180.633 72.56 180.803 72.51C183.713 71.62 189.073 67.08 193.183 60.59C197.013 54.53 199.643 46.84 202.823 37.36H216.483C216.483 37.36 206.153 69.04 204.983 74.29C204.853 74.86 205.443 75.13 205.733 74.94L205.763 74.95ZM315.113 85.48C307.803 85.43 304.413 79.36 303.573 77.4C295.233 56.67 319.693 37.41 319.693 37.41H333.863C333.863 37.41 312.283 54.67 315.273 69.97C317.283 77.4 323.723 75.45 327.923 69.6C333.033 62.49 337.633 48.47 334.163 48.09C330.943 47.74 326.663 54.7 326.663 54.7L326.643 54.68L323.643 50.11C325.973 47.09 332.603 39.21 339.973 36.75C341.093 36.4 347.783 34.65 347.783 44.52C347.783 55.08 336.013 85.62 315.113 85.48ZM115.953 79.77C115.953 82.9 113.413 85.43 110.293 85.43C107.173 85.43 104.633 82.9 104.633 79.77C104.633 76.64 107.183 74.1 110.293 74.1C113.403 74.1 115.953 76.63 115.953 79.77Z" fill="white"/>
    </g>
</svg>