<svg width="162" height="30" viewBox="0 0 162 30" fill="none" xmlns="http://www.w3.org/2000/svg">
<g clip-path="url(#clip0_1753_7751)">
<mask id="mask0_1753_7751" style="mask-type:luminance" maskUnits="userSpaceOnUse" x="0" y="0" width="162" height="30">
<path d="M161.312 0.5H0.3125V29.5H161.312V0.5Z" fill="white"/>
</mask>
<g mask="url(#mask0_1753_7751)">
<path d="M16.3608 0.871094V15.5293C16.3608 16.2147 15.8312 16.6893 15.1957 16.6893H13.448C13.3421 16.6893 13.2891 16.7947 13.2891 16.8475V29.1329C13.7128 29.1329 14.1365 29.2384 14.6131 29.2384C22.5042 29.2384 28.9125 22.8584 28.9125 15.002C28.9125 7.77837 23.4575 1.71473 16.3608 0.871094ZM16.0431 22.8056C15.0368 22.8056 14.2954 21.962 14.2954 21.0656C14.2954 20.0638 15.1427 19.3256 16.0431 19.3256C17.0493 19.3256 17.7908 20.1693 17.7908 21.0656C17.8967 22.0147 17.0493 22.8056 16.0431 22.8056ZM20.2269 22.8056C19.2207 22.8056 18.4792 21.962 18.4792 21.0656C18.4792 20.0638 19.3266 19.3256 20.2269 19.3256C21.2332 19.3256 21.9746 20.1693 21.9746 21.0656C21.9746 21.962 21.2861 22.8056 20.2269 22.8056ZM24.4638 22.8056C23.4575 22.8056 22.7161 21.962 22.7161 21.0656C22.7161 20.0638 23.5635 19.3256 24.4638 19.3256C25.47 19.3256 26.2115 20.1693 26.2115 21.0656C26.2115 21.962 25.47 22.8056 24.4638 22.8056Z" fill="white"/>
<path d="M14.6118 0.816406C6.72072 0.816406 0.3125 7.19641 0.3125 15.0528C0.3125 21.96 5.13191 27.6019 11.5931 28.92V16.1073C11.5931 15.5273 12.1227 15.0528 12.6523 14.9473H14.4C14.5059 14.9473 14.5589 14.8419 14.5589 14.7891L14.6118 0.816406ZM11.8579 12.5219C10.8516 12.5219 10.1102 11.6782 10.1102 10.7819C10.1102 9.78004 10.9576 9.04186 11.8579 9.04186C12.8641 9.04186 13.6056 9.8855 13.6056 10.7819C13.6056 11.6782 12.8112 12.5219 11.8579 12.5219Z" fill="white"/>
<path d="M157.767 8.56801V13.9462H150.564V8.56801H146.91V22.8044H150.564V17.0571H157.767V22.8044H161.315V8.56801H157.767ZM98.2399 10.2026C97.6573 8.9371 96.4922 8.25165 95.327 8.25165C94.1619 8.25165 92.9438 8.9371 92.4142 10.2026L86.6415 22.8571H90.4547L91.7257 19.8516H99.1402L100.411 22.8571H104.224L98.2399 10.2026ZM92.732 17.0044L94.9034 11.7844C95.0093 11.6262 95.0623 11.6262 95.1682 11.6262C95.2741 11.6262 95.433 11.6262 95.433 11.7844L97.6044 17.0044H92.732ZM55.6596 6.0371C53.9649 6.0371 52.9057 6.93346 52.1113 8.72618L47.5037 19.4298L42.8432 8.67346C42.1017 6.93346 40.9895 5.98438 39.2948 5.98438C37.706 5.98438 36.1172 7.03892 36.1172 9.5171V22.7516H39.6655V9.99164L44.379 20.5898C44.9616 22.1189 46.0738 23.0153 47.5037 23.0153C49.0396 23.0153 50.0458 22.1189 50.6284 20.5898L55.3419 9.99164V22.9098H58.8902V9.67527C58.8372 7.19709 57.2484 6.0371 55.6596 6.0371ZM65.1396 19.7989C64.9807 19.7989 64.7688 19.6407 64.7688 19.4298V16.8989H73.6662V13.9989H64.7688V11.8371C64.7688 11.6789 64.9277 11.468 65.1396 11.468H73.984V8.46256H63.3919C62.1208 8.46256 61.2734 9.46438 61.2734 10.5716V20.5371C61.2734 21.5916 62.1738 22.6462 63.3919 22.6462H73.984V19.6407H65.1396V19.7989ZM79.9685 22.8044V11.9426C79.9685 11.7844 80.1274 11.5735 80.3392 11.5735H89.1836V8.56801H78.5915C77.3205 8.56801 76.4731 9.56983 76.4731 10.6771V22.7516L79.9685 22.8044ZM144.58 15.7389C144.58 10.7826 142.409 8.46256 137.007 8.46256H135.736C130.334 8.46256 128.162 10.8353 128.162 15.7389C128.162 20.5898 130.334 23.0153 135.736 23.0153H136.901C142.409 22.9098 144.58 20.5898 144.58 15.7389ZM136.901 20.0098H135.736C132.823 20.0098 131.605 18.6916 131.605 15.7389C131.605 12.8916 132.611 11.468 135.736 11.468H136.901C139.919 11.468 141.032 12.8916 141.032 15.7389C141.032 18.6389 139.919 20.0098 136.901 20.0098ZM118.259 6.35347H111.162C105.866 6.35347 103.747 9.04255 103.747 13.6298C103.747 14.368 103.853 15.0535 103.906 15.6335C104.489 18.9026 106.448 20.9062 111.374 20.9062H112.963V22.7516H116.511V20.9062H118.047C123.025 20.9062 124.985 18.9026 125.514 15.6335C125.62 15.0535 125.673 14.368 125.673 13.6298C125.62 9.04255 123.449 6.35347 118.259 6.35347ZM112.857 17.9535H111.268C108.832 17.9535 107.984 17.0571 107.455 15.5807C107.296 15.0535 107.296 14.3153 107.296 13.5771C107.296 10.5716 108.726 9.30618 110.738 9.30618H112.91V17.9535H112.857ZM121.966 15.7389C121.436 17.1626 120.536 18.1116 118.153 18.1116H116.564V9.41164H118.735C120.748 9.41164 122.178 10.6771 122.178 13.6826C122.125 14.4735 122.125 15.1062 121.966 15.7389Z" fill="white"/>
</g>
</g>
<defs>
<clipPath id="clip0_1753_7751">
<rect width="161" height="29" fill="white" transform="translate(0.3125 0.5)"/>
</clipPath>
</defs>
</svg>
