<svg width="46" height="46" viewBox="0 0 46 46" fill="none" xmlns="http://www.w3.org/2000/svg">
<rect x="0.666667" y="0.666667" width="44.6667" height="44.6667" fill="white"/>
<rect x="0.666667" y="0.666667" width="44.6667" height="44.6667" stroke="white" stroke-width="1.33333"/>
<path d="M30.6434 3.50586V5.65189H35.2666V14.0479L35.2675 14.1861H37.8559V5.65189H42.479V3.50586H30.6434Z" fill="black"/>
<path d="M13.9935 3.53783L10.6122 10.5583L7.23087 3.53783H3.53906V14.1532H6.12728V6.55602L9.43241 12.9744H11.7921L15.0981 6.55602V14.1532H17.6863V3.53783H13.9935Z" fill="black"/>
<path d="M39.8842 38.9216C39.8359 39.3136 39.6573 39.6781 39.3771 39.9564C39.086 40.2213 38.7282 40.4018 38.3422 40.4785C37.7781 40.5903 37.2039 40.6423 36.6289 40.6338C36.0167 40.6447 35.4069 40.5554 34.8235 40.3694C34.3453 40.2141 33.9329 39.9031 33.6521 39.486C33.3699 39.0683 33.2307 38.4652 33.2307 37.6984V36.6109C33.2307 35.8384 33.3728 35.2353 33.6521 34.8176C33.9323 34.4014 34.3436 34.0908 34.8206 33.9351C35.404 33.749 36.0139 33.6597 36.6262 33.6708C37.2011 33.6622 37.7754 33.7142 38.3394 33.826C38.7254 33.9029 39.0831 34.0834 39.3743 34.3481C39.6545 34.6265 39.833 34.991 39.8814 35.383H42.4715C42.4247 34.5665 42.1132 33.7874 41.5843 33.1636C41.0626 32.5899 40.3874 32.1779 39.6387 31.9763C38.6567 31.7172 37.6434 31.5959 36.628 31.6159C35.387 31.6159 34.3107 31.7948 33.4291 32.1465C32.5571 32.4823 31.8265 33.107 31.3594 33.9163C30.903 34.7 30.6632 35.7462 30.6472 37.0285V37.1462L30.7855 37.1518H30.6472V37.2693C30.6632 38.5517 30.903 39.598 31.3594 40.3817C31.8265 41.191 32.5571 41.8156 33.4291 42.1513C34.3117 42.5032 35.389 42.6819 36.628 42.6819C37.6434 42.7024 38.6568 42.5812 39.6387 42.3216C40.3877 42.1208 41.0632 41.7086 41.5843 41.1343C42.1134 40.5106 42.4249 39.7314 42.4715 38.9149L39.8842 38.9216Z" fill="black"/>
</svg>
