<svg width="157" height="44" viewBox="0 0 157 44" fill="none" xmlns="http://www.w3.org/2000/svg">
<g clip-path="url(#clip0_1753_7877)">
<path d="M50.7812 23.8369H58.6266V26.3339H53.7192V28.8969H55.3514C56.4504 28.8969 57.8649 29.0289 58.9313 30.0849C59.3883 30.5469 59.9541 31.3939 59.9541 32.7579C59.9541 33.8579 59.595 34.8369 58.9313 35.5079C57.9955 36.4539 56.6462 36.6629 55.1011 36.6629H50.7812V23.8369ZM54.8726 34.2759C55.2752 34.2759 55.9933 34.2429 56.4504 33.8689C56.6027 33.7369 56.94 33.3849 56.94 32.7359C56.94 32.1199 56.6353 31.7349 56.3742 31.5479C55.9172 31.2179 55.1772 31.2069 54.8726 31.2069H53.7083V34.2869H54.8726V34.2759Z" fill="white"/>
<path d="M67.8532 28.0829H70.5953V36.6629H67.8532V35.6289C67.1133 36.7839 66.0469 36.9599 65.3396 36.9599C64.1209 36.9599 63.0981 36.6519 62.1623 35.6509C61.2701 34.6939 60.9219 33.5719 60.9219 32.4389C60.9219 30.9979 61.4551 29.7659 62.2385 28.9739C62.9784 28.2259 64.0121 27.7969 65.1873 27.7969C65.9055 27.7969 67.0697 27.9729 67.8532 29.0509V28.0829ZM64.3712 30.7999C64.0883 31.0859 63.7401 31.5919 63.7401 32.3619C63.7401 33.1319 64.0665 33.6269 64.3059 33.9019C64.6868 34.3089 65.2744 34.5729 65.9272 34.5729C66.4822 34.5729 66.9936 34.3419 67.3527 33.9789C67.7117 33.6379 68.0164 33.0989 68.0164 32.3619C68.0164 31.7459 67.7879 31.1739 67.3853 30.7889C66.9718 30.3819 66.3625 30.1949 65.8619 30.1949C65.2744 30.1839 64.7303 30.4369 64.3712 30.7999Z" fill="white"/>
<path d="M72.25 28.083H74.9921V31.064H78.0604V28.083H80.8025V36.663H78.0604V33.297H74.9921V36.663H72.25V28.083Z" fill="white"/>
<path d="M82.4453 28.083H85.1874V31.493L87.9621 28.083H91.3679L87.7336 32.065L91.6181 36.663H88.0818L85.1874 32.857V36.663H82.4453V28.083Z" fill="white"/>
<path d="M55.2582 7.33691C56.3572 7.33691 57.5759 7.49091 58.5878 8.39292C59.6759 9.34992 59.8283 10.6259 59.8283 11.5059C59.8283 13.1229 59.2189 14.0249 58.7401 14.5309C57.7282 15.5649 56.4007 15.6639 55.5084 15.6639H53.7239V20.1629H50.7969V7.33691H55.2582ZM53.713 13.2439H54.7576C55.1602 13.2439 55.8566 13.2219 56.3354 12.7599C56.5966 12.4959 56.8142 12.0449 56.8142 11.4949C56.8142 10.9559 56.6292 10.5159 56.3354 10.2409C55.9002 9.82292 55.269 9.75692 54.7032 9.75692H53.713V13.2439Z" fill="white"/>
<path d="M66.9704 11.5829H69.7124V20.1629H66.9704V19.1289C66.2305 20.2839 65.1641 20.4599 64.4568 20.4599C63.2381 20.4599 62.2153 20.1519 61.2795 19.1509C60.3873 18.1939 60.0391 17.0719 60.0391 15.9389C60.0391 14.4979 60.5722 13.2659 61.3557 12.4739C62.0956 11.7259 63.1293 11.2969 64.3045 11.2969C65.0226 11.2969 66.1869 11.4729 66.9704 12.5509V11.5829ZM63.4884 14.2999C63.2055 14.5859 62.8573 15.0919 62.8573 15.8619C62.8573 16.6319 63.1837 17.1269 63.4231 17.4019C63.804 17.8089 64.3915 18.0729 65.0444 18.0729C65.5994 18.0729 66.1108 17.8419 66.4698 17.4789C66.8289 17.1379 67.1336 16.5989 67.1336 15.8619C67.1336 15.2459 66.9051 14.6739 66.5025 14.2889C66.089 13.8819 65.4797 13.6949 64.9791 13.6949C64.4024 13.6839 63.8475 13.9369 63.4884 14.2999Z" fill="white"/>
<path d="M74.1092 11.5831V16.4891L77.7216 11.5831H80.2678V20.1631H77.5259V15.1801L73.9134 20.1631H71.3672V11.5831H74.1092ZM79.2668 8.11813C79.0383 8.81113 78.5813 9.40513 78.0481 9.75713C77.3301 10.2411 76.4487 10.2961 75.8176 10.2961C75.1865 10.2961 74.316 10.2411 73.5869 9.75713C73.0538 9.41613 72.5968 8.81113 72.3683 8.11813L74.2725 7.37012C74.3486 7.75512 74.5336 8.06313 74.7621 8.25013C75.0124 8.45913 75.3279 8.59113 75.8067 8.59113C76.2855 8.59113 76.601 8.45913 76.8513 8.25013C77.0798 8.06313 77.2648 7.75512 77.341 7.37012L79.2668 8.11813Z" fill="white"/>
<path d="M86.3329 24.4419V20.2949H86.2241C84.2981 20.2949 83.2318 19.4919 82.7421 19.0079C82.1328 18.4139 81.5234 17.3909 81.5234 15.8289C81.5234 14.1349 82.2851 13.0569 82.9924 12.4849C83.8302 11.8139 85.0816 11.4509 86.2132 11.4509H86.3438V7.33691H89.0859V11.4509H89.2164C90.3372 11.4509 91.5994 11.8139 92.4373 12.4849C93.1445 13.0569 93.9062 14.1349 93.9062 15.8289C93.9062 17.3909 93.2969 18.4029 92.6875 19.0079C92.1979 19.4919 91.1315 20.2949 89.2056 20.2949H89.0967V24.4419H86.3329ZM86.4635 13.6839C85.8215 13.6509 85.1469 13.8709 84.7551 14.2779C84.4287 14.6079 84.2002 15.1579 84.2002 15.8399C84.2002 16.5109 84.4287 17.0719 84.7551 17.4129C85.1142 17.8199 85.7671 18.0839 86.4635 18.0619V13.6839ZM88.9444 18.0729C89.6517 18.0949 90.2937 17.8199 90.6528 17.4239C90.9792 17.0829 91.2077 16.5219 91.2077 15.8509C91.2077 15.1799 90.9792 14.6189 90.6528 14.2889C90.2502 13.8819 89.5864 13.6509 88.9444 13.6949V18.0729Z" fill="white"/>
<path d="M99.5204 24.4419V20.2949H99.4116C97.4856 20.2949 96.4193 19.4919 95.9296 19.0079C95.3203 18.4139 94.7109 17.3909 94.7109 15.8289C94.7109 14.1349 95.4726 13.0569 96.1799 12.4849C97.0177 11.8139 98.2691 11.4509 99.4007 11.4509H99.5313V7.33691H102.273V11.4509H102.404C103.525 11.4509 104.787 11.8139 105.625 12.4849C106.332 13.0569 107.094 14.1349 107.094 15.8289C107.094 17.3909 106.484 18.4029 105.875 19.0079C105.385 19.4919 104.319 20.2949 102.393 20.2949H102.284V24.4419H99.5204ZM99.651 13.6839C99.009 13.6509 98.3344 13.8709 97.9426 14.2779C97.6162 14.6079 97.3877 15.1579 97.3877 15.8399C97.3877 16.5109 97.6162 17.0719 97.9426 17.4129C98.3017 17.8199 98.9546 18.0839 99.651 18.0619V13.6839ZM102.132 18.0729C102.839 18.0949 103.481 17.8199 103.84 17.4239C104.167 17.0829 104.395 16.5219 104.395 15.8509C104.395 15.1799 104.167 14.6189 103.84 14.2889C103.438 13.8819 102.774 13.6509 102.132 13.6949V18.0729Z" fill="white"/>
<path d="M114.822 11.5829H117.564V20.1629H114.822V19.1289C114.082 20.2839 113.016 20.4599 112.308 20.4599C111.09 20.4599 110.067 20.1519 109.131 19.1509C108.239 18.1939 107.891 17.0719 107.891 15.9389C107.891 14.4979 108.424 13.2659 109.207 12.4739C109.947 11.7259 110.981 11.2969 112.156 11.2969C112.874 11.2969 114.038 11.4729 114.822 12.5509V11.5829ZM111.34 14.2999C111.057 14.5859 110.709 15.0919 110.709 15.8619C110.709 16.6319 111.035 17.1269 111.275 17.4019C111.656 17.8089 112.243 18.0729 112.896 18.0729C113.451 18.0729 113.962 17.8419 114.321 17.4789C114.68 17.1379 114.985 16.5989 114.985 15.8619C114.985 15.2459 114.757 14.6739 114.354 14.2889C113.941 13.8819 113.331 13.6949 112.831 13.6949C112.254 13.6839 111.699 13.9369 111.34 14.2999Z" fill="white"/>
<path d="M121.953 11.5831V16.4891L125.566 11.5831H128.112V20.1631H125.37V15.1801L121.757 20.1631H119.211V11.5831H121.953ZM127.111 8.11813C126.882 8.81113 126.425 9.40513 125.892 9.75713C125.174 10.2411 124.292 10.2961 123.661 10.2961C123.03 10.2961 122.16 10.2411 121.431 9.75713C120.898 9.41613 120.441 8.81113 120.212 8.11813L122.116 7.37012C122.192 7.75512 122.377 8.06313 122.606 8.25013C122.856 8.45913 123.172 8.59113 123.65 8.59113C124.129 8.59113 124.445 8.45913 124.695 8.25013C124.924 8.06313 125.109 7.75512 125.185 7.37012L127.111 8.11813Z" fill="white"/>
<path d="M129.495 12.3199C129.854 12.0889 130.442 11.7809 130.899 11.6049C131.541 11.3739 132.248 11.2969 132.901 11.2969C133.358 11.2969 134.914 11.3299 135.774 12.1769C136.252 12.6389 136.405 13.1779 136.405 13.7499C136.405 14.2889 136.307 14.7729 135.893 15.2129C135.687 15.4219 135.436 15.5979 135.175 15.6969C135.806 15.8509 136.198 16.1919 136.318 16.3129C136.731 16.7199 136.884 17.1819 136.884 17.7319C136.884 18.3259 136.699 18.9639 136.144 19.5249C135.425 20.2399 134.435 20.4489 133.021 20.4489C132.259 20.4489 131.465 20.3499 130.703 20.0639C129.963 19.7779 129.408 19.3489 129.18 19.1619L130.344 17.3359C130.649 17.5999 131.051 17.8749 131.389 18.0289C131.748 18.1829 132.259 18.2929 132.705 18.2929C133.01 18.2929 133.423 18.2379 133.695 18.0839C134.022 17.8969 134.076 17.6219 134.076 17.4349C134.076 17.1489 133.924 16.9729 133.674 16.8629C133.445 16.7639 132.988 16.7089 132.683 16.7089H131.661V14.8279H132.444C132.694 14.8279 133.206 14.7949 133.467 14.6739C133.793 14.5199 133.869 14.2669 133.869 14.1019C133.869 13.9479 133.793 13.6949 133.456 13.5409C133.325 13.4859 133.053 13.3869 132.596 13.3869C132.161 13.3869 131.835 13.4639 131.476 13.6179C131.117 13.7719 130.834 13.9479 130.562 14.1789L129.495 12.3199Z" fill="white"/>
<path d="M146.806 16.3571H140.473C140.473 16.8191 140.647 17.4351 140.984 17.8201C141.398 18.2821 141.975 18.3591 142.388 18.3591C142.791 18.3591 143.204 18.2821 143.487 18.1061C143.52 18.0841 143.846 17.8751 144.075 17.3911L146.664 17.6551C146.284 18.8651 145.522 19.5031 145.032 19.8111C144.216 20.3061 143.302 20.4491 142.345 20.4491C141.072 20.4491 139.951 20.2181 138.961 19.2171C138.221 18.4691 137.688 17.3361 137.688 15.9061C137.688 14.6741 138.123 13.4091 138.982 12.5181C140.005 11.4841 141.289 11.2861 142.236 11.2861C143.182 11.2861 144.554 11.4621 145.609 12.5731C146.621 13.6511 146.806 14.9931 146.806 16.0601V16.3571ZM144.281 14.7071C144.26 14.6301 144.129 14.0911 143.727 13.7061C143.422 13.4201 142.987 13.2221 142.432 13.2221C141.724 13.2221 141.311 13.5081 141.039 13.7831C140.832 14.0141 140.636 14.3221 140.56 14.7071H144.281Z" fill="white"/>
<path d="M148.047 11.583H150.789V14.564H153.857V11.583H156.599V20.163H153.857V16.797H150.789V20.163H148.047V11.583Z" fill="white"/>
<path d="M43.5248 35.684C43.5248 41.03 40.5868 44 35.2986 44H8.22618C2.93792 44 0 41.03 0 35.684V8.316C0 2.97 2.93792 0 8.22618 0H35.3095C40.5868 0 43.5248 2.97 43.5248 8.316V35.684Z" fill="white"/>
<path d="M27.9856 19.8549V15.6529L29.4872 14.1349V17.7759L30.7929 19.0959L36.0485 13.7829L37.3434 15.0919C37.3325 14.1019 37.1367 11.2309 34.7319 8.84393C32.1422 6.31396 29.3349 7.45796 28.3773 8.42593L23.1326 13.7279L24.471 15.0809L21.7615 17.8419L19.0521 15.1029L20.3905 13.7499L15.1458 8.44793C14.1882 7.47996 11.3809 6.33596 8.79117 8.86593C6.38643 11.2529 6.19057 14.1239 6.17969 15.1139L7.47455 13.8049L12.7302 19.1179L14.0359 17.7979V14.1569L15.5375 15.6749V19.8769L17.6485 21.9999L7.24604 32.5159L11.3591 36.6629L21.7615 26.1579L32.164 36.6739L36.2771 32.5269L25.8746 21.9999L27.9856 19.8549Z" fill="black"/>
</g>
<defs>
<clipPath id="clip0_1753_7877">
<rect width="157" height="44" fill="white"/>
</clipPath>
</defs>
</svg>
