<svg width="140" height="30" viewBox="0 0 140 30" fill="none" xmlns="http://www.w3.org/2000/svg">
<g clip-path="url(#clip0_1753_7855)">
<path fill-rule="evenodd" clip-rule="evenodd" d="M62.4958 19.2224C59.6598 19.2224 58.4701 17.0358 58.4701 14.9064C58.4701 12.7769 59.6977 10.9178 62.5284 10.9178C65.3589 10.9178 66.372 13.333 66.372 15.0566C66.372 16.7802 65.3321 19.2224 62.4958 19.2224ZM62.8787 7.26558C60.8 7.26558 59.3148 8.23813 58.8989 8.53574C59.0134 8.03183 59.4617 4.04283 65.0695 4.04283H68.5338L69.818 0.683594H65.1289C58.9472 0.683594 54.2502 3.41693 54.2502 13.0311C54.2502 18.3093 56.5989 22.5138 62.3738 22.5138C67.8656 22.5138 70.5596 18.6637 70.5596 14.9187C70.5596 9.49549 66.3884 7.26558 62.8787 7.26558ZM6.73654 11.0224H4.59698V4.28222H6.79862C8.36252 4.28222 10.8867 5.20163 10.8867 7.66658C10.8867 10.1525 8.36252 11.0224 6.73654 11.0224ZM7.10517 0.683594H0.132812V22.1611H4.59698V14.5887H7.01313C11.5681 14.5887 15.3832 12.2564 15.3832 7.65257C15.3832 3.04878 11.5681 0.683594 7.10517 0.683594ZM81.0325 7.26558L86.7264 22.1611H82.1021L78.7943 12.6612H78.7371L75.4402 22.1611H70.8321L76.526 7.26558H81.0325ZM139.183 0.683594L128.259 29.2538H123.808L134.729 0.683594H139.183ZM47.8733 7.26558H51.5552V22.1611H47.2454V13.4345L43.068 18.6792H41.8998L41.8024 18.5615L37.6895 13.5067V22.1611H33.3775V7.26558H37.0619L37.1566 7.37622L42.51 13.5524L47.8733 7.26558ZM25.8117 15.9511C25.8117 17.9885 24.6277 19.3923 22.3343 19.3923C20.116 19.3923 19.9278 18.1405 19.9278 17.6634C19.9278 16.5616 20.969 15.8272 23.4477 15.6103C24.1303 15.5504 24.8277 15.5214 25.5179 15.5214H25.8117V15.9511ZM29.8475 14.3302C29.8475 14.0299 29.8427 13.742 29.8299 13.4632C29.6192 8.82417 27.5744 6.91289 23.1612 6.91289C20.173 6.91289 18.2301 8.08304 17.5464 8.5599L18.7103 11.6032C18.7103 11.6032 20.5269 10.1195 22.8225 10.1195C26.0704 10.1195 25.7493 12.695 25.7493 12.695C24.6386 12.7047 15.8001 12.2638 15.8001 17.781C15.8001 20.8417 18.4315 22.5138 21.3849 22.5138C24.0122 22.5138 25.4256 21.246 25.8916 20.7537C25.894 20.8209 25.9836 22.1609 25.9836 22.1609H29.9992C29.9992 22.1609 29.8475 20.8687 29.8475 18.8449V14.3302ZM113.57 19.2234C110.722 19.2234 109.15 16.9007 109.15 14.6834C109.15 12.4663 110.757 10.1431 113.57 10.1431C116.383 10.1431 117.924 12.1631 117.924 14.6834C117.924 17.2037 116.418 19.2234 113.57 19.2234ZM114.11 6.91265C111.359 6.91265 109.7 8.35336 109.212 8.86717V7.26534H105.054V29.2429H109.364V20.7011C109.852 21.2009 111.568 22.5138 114.11 22.5138C118.096 22.5138 121.762 19.6517 121.762 14.6834C121.762 9.48679 117.727 6.91265 114.11 6.91265ZM91.2679 13.048C91.3889 12.0472 92.4509 10.0342 95.0695 10.0342C97.9854 10.0342 98.4574 12.2266 98.5273 13.048H91.2679ZM95.0695 6.91265C90.2497 6.91265 86.976 10.3081 86.976 14.7435C86.976 19.1787 90.2893 22.5138 95.2214 22.5138C100.153 22.5138 102.256 19.1497 102.256 19.1497L99.1152 17.1181C99.1152 17.1181 98.0424 19.2224 95.2514 19.2224C92.3772 19.2224 91.2206 16.8655 91.2206 15.9656H102.61C102.61 15.9656 102.672 15.3148 102.672 15.1252V14.6232C102.672 10.2299 99.889 6.91265 95.0695 6.91265Z" fill="white"/>
</g>
<defs>
<clipPath id="clip0_1753_7855">
<rect width="139.31" height="28.7465" fill="white" transform="translate(0 0.626953)"/>
</clipPath>
</defs>
</svg>
