<svg width="162" height="38" viewBox="0 0 162 38" fill="none" xmlns="http://www.w3.org/2000/svg">
<g clip-path="url(#clip0_1753_7768)">
<mask id="mask0_1753_7768" style="mask-type:luminance" maskUnits="userSpaceOnUse" x="0" y="0" width="162" height="38">
<path d="M161.312 0.5H0.3125V37.5H161.312V0.5Z" fill="white"/>
</mask>
<g mask="url(#mask0_1753_7768)">
<path fill-rule="evenodd" clip-rule="evenodd" d="M40.57 17.8062L41.0992 16.0857L39.3475 16.1423C39.2004 16.1423 38.1239 16.1096 37.0817 15.3424C37.16 15.349 37.2362 15.3609 37.3178 15.3609C38.3911 15.3609 39.4312 14.7036 39.8466 13.7634L40.6001 12.0658C39.6555 12.0788 38.7915 11.958 38.7915 11.958C38.784 11.958 38.1035 11.8677 37.3167 11.0504C36.7522 10.4661 36.0534 10.1559 35.2967 10.1559C34.9971 10.1571 34.6995 10.2052 34.4144 10.2985C34.4542 10.1613 34.4917 10.021 34.5143 9.87732C34.7536 8.2885 33.7479 7.07838 33.7479 7.07838L32.4309 5.42209L31.6141 7.36785C31.6109 7.37438 31.4048 7.83144 31.0367 8.05344C30.925 7.48103 30.6513 6.83788 30.0674 6.22303C28.9651 5.06515 27.6245 4.89103 26.9226 4.89103C26.5974 4.89103 26.3644 4.92803 26.3086 4.93674L24.719 5.2545C24.8103 4.89429 25.0067 4.26421 25.363 3.69941L26.241 2.31191L24.0332 2.56765L23.3301 1.05065L21.9681 1.76344L20.7091 0.5L19.4533 1.76235L18.089 1.05065L17.3871 2.56656L15.1803 2.31082L16.0594 3.7005C16.4168 4.26529 16.6111 4.89212 16.7023 5.25232L15.1857 4.94762L15.1331 4.94C14.9236 4.90654 14.7119 4.89017 14.4998 4.89103C13.7979 4.89103 12.4573 5.06515 11.3582 6.22303C10.7732 6.83679 10.4984 7.48103 10.3868 8.05344C10.0208 7.83253 9.81579 7.38418 9.81579 7.38418L8.99791 5.42535L7.65947 7.09471C7.49632 7.30909 6.69025 8.44738 6.90813 9.88059C6.93175 10.0232 6.96824 10.1624 7.00795 10.2996C6.72367 10.2059 6.42672 10.1578 6.12782 10.157C5.37005 10.157 4.67131 10.4672 4.10566 11.0515C3.32213 11.8655 2.64485 11.958 2.65022 11.958C2.65022 11.958 1.93431 12.0886 0.825553 12.0669L1.57581 13.7645C1.99227 14.7047 3.0334 15.362 4.10459 15.362C4.18616 15.362 4.26237 15.3501 4.34179 15.3435C3.30066 16.1118 2.22518 16.1434 2.09531 16.1434L0.3125 16.0857L0.852387 17.8051C1.12501 18.6931 2.03305 20.1611 3.77185 20.3189C3.58295 21.1242 3.16327 22.0275 2.24235 22.4171L0.913567 22.9721L1.63807 24.254C2.04701 24.945 3.00764 25.7536 4.37399 25.7536C4.66916 25.7536 4.95467 25.722 5.23051 25.6633C5.30028 25.9789 5.38829 26.2944 5.49241 26.61C5.89813 27.8397 5.54822 28.6973 5.54393 28.7071L4.88919 30.1022L6.35215 30.4939C6.37039 30.5005 6.81368 30.6245 7.36645 30.6245C7.61761 30.6245 7.85803 30.5973 8.08343 30.5429C8.25302 30.5026 8.41617 30.4482 8.57395 30.384C8.76393 30.729 8.99362 31.0446 9.26195 31.3264C10.2 32.3048 11.531 32.7999 13.214 32.7999H13.2193L14.4215 32.7836L11.9378 33.8326L13.8236 34.7587C14.5095 35.0983 15.3209 35.4987 16.1495 35.8056L15.9134 36.4596L16.5628 36.7611C16.6207 36.7883 17.8722 37.3553 19.9491 37.4761C19.9491 37.4761 20.4504 37.5 20.7262 37.5C21.0031 37.5 21.499 37.475 21.499 37.475C23.562 37.3509 24.8027 36.7883 24.8607 36.7611L25.5122 36.4596L25.275 35.8045C26.1251 35.4889 26.9677 35.0711 27.6256 34.7457L29.476 33.8316L26.9999 32.7836L28.2074 32.7999C29.8925 32.7999 31.2234 32.3037 32.1604 31.3254C32.4277 31.0446 32.6563 30.7301 32.8474 30.384C33.2305 30.5447 33.6414 30.6261 34.056 30.6234C34.6001 30.6234 35.0477 30.5016 35.0595 30.4972L36.53 30.1022L35.8892 28.7321C35.8742 28.6973 35.5243 27.8397 35.93 26.6079C36.0341 26.2944 36.121 25.9778 36.1919 25.6633C36.4677 25.722 36.7565 25.7525 37.0538 25.7536C38.7947 25.7536 39.6298 24.5097 39.7908 24.2399L40.5088 22.971L39.18 22.4171C38.257 22.0286 37.8384 21.1253 37.6516 20.3211C39.3679 20.1688 40.2877 18.6996 40.5711 17.8073L40.57 17.8062Z" fill="#FFFFFE"/>
<path fill-rule="evenodd" clip-rule="evenodd" d="M20.7092 5.77069C19.3032 5.77178 18.2481 6.23972 18.0184 6.79146L20.7092 7.86881L23.4012 6.79146C23.1736 6.23972 22.1185 5.77178 20.7092 5.77069ZM20.7382 34.3249H20.6845C19.8323 34.3303 18.657 34.153 18.0925 33.9843L17.412 35.855C17.8606 36.0171 19.3805 36.3283 20.7125 36.3283C22.0423 36.3283 23.5632 36.0171 24.0108 35.855L23.3314 33.9854C22.7636 34.153 21.5904 34.3303 20.7382 34.3249ZM25.887 32.464C25.3804 32.7557 24.2502 33.1931 23.5922 33.3955L24.1439 34.9408C25.1614 34.6579 26.0018 34.3282 26.6952 33.9745L25.5489 33.5882L25.887 32.464ZM15.5347 32.464L15.8739 33.5882L14.7265 33.9745C15.4188 34.3282 16.2624 34.6579 17.2767 34.9398L17.8295 33.3945C17.1726 33.192 16.0402 32.7557 15.5347 32.464ZM20.7092 3.98272C21.7708 3.98272 22.8097 4.24063 23.6105 4.69225C23.6834 4.44413 23.7854 4.1416 23.9239 3.82493L23.6212 3.86193L23.3046 3.89458L23.1704 3.60184L22.7647 2.73452L22.0284 3.1241L21.7407 3.2721L21.511 3.04358L20.7092 2.23828L19.9096 3.04358L19.681 3.2721L19.3944 3.1241L18.6538 2.73452L18.2534 3.60184L18.1171 3.89566L17.7994 3.86193L17.4989 3.82493C17.6374 4.1416 17.7382 4.44413 17.8123 4.69225C18.6152 4.24063 19.6541 3.98272 20.7103 3.98272H20.7092ZM36.9005 14.013C37.0389 14.0609 37.1785 14.0826 37.3169 14.0826C37.918 14.0826 38.4976 13.6876 38.6962 13.2371C38.6962 13.2371 37.596 13.1696 36.4132 11.9497C36.0375 11.5558 35.6382 11.4371 35.2969 11.4371C34.7656 11.4371 34.3663 11.7212 34.3663 11.7212C35.796 12.4938 36.0869 13.7344 36.9005 14.013ZM4.10472 14.0815C4.24425 14.0815 4.38379 14.0609 4.51795 14.0119C5.33369 13.7333 5.62778 12.4938 7.05424 11.7223C7.05424 11.7223 6.65496 11.4371 6.12688 11.4371C5.78341 11.4371 5.38521 11.5547 5.00739 11.9508C3.82565 13.1696 2.72656 13.2382 2.72656 13.2382C2.92405 13.6876 3.50473 14.0826 4.10472 14.0826V14.0815Z" fill="#FFFFFE"/>
<path fill-rule="evenodd" clip-rule="evenodd" d="M36.4679 22.9133C35.3623 22.3583 34.6647 20.8892 34.4951 20.3603C34.3126 23.2746 32.9119 25.2965 31.2751 27.2423C30.425 28.2522 30.1287 29.2338 30.1287 29.2338C30.1287 29.2338 30.293 28.1216 31.0271 27.2162C32.5545 25.3531 34.0056 23.033 34.114 20.3494C34.1881 18.4776 33.7148 16.9596 32.9742 15.7081C33.3885 17.0107 33.3294 18.6071 31.9244 20.0969C31.9244 20.0969 34.7226 16.6929 30.8114 13.2019C29.2465 11.8742 27.5334 11.0537 26.6522 10.4726C29.8368 11.5282 31.3931 10.3659 31.3931 10.3659C30.3756 11.2616 29.0586 11.2463 28.2418 11.1168C28.464 11.2267 28.6948 11.3421 28.9416 11.4759C31.6282 12.9581 34.041 15.3968 34.4532 18.7726V18.7464C35.0768 22.0623 36.4679 22.9133 36.4679 22.9133ZM37.2857 19.0501C37.3104 19.0522 37.3319 19.0522 37.3566 19.0522C38.8539 19.0522 39.3605 17.4231 39.3605 17.4231H39.3315C39.0567 17.4231 36.8307 17.3578 35.2571 15.3261C34.2225 13.9908 33.3734 12.8166 31.6969 12.3552L31.5316 12.3248L31.4962 12.1539C31.45 11.8938 31.625 11.6501 32.0243 11.3878C34.3373 9.84902 32.7649 7.88585 32.7649 7.88585C32.7649 7.88585 32.1058 9.45508 30.6278 9.45508L30.5173 9.4529C30.3499 9.4442 30.1878 9.43876 30.0246 9.40285L29.752 9.34842C29.752 9.34842 30.1738 8.18402 29.1563 7.11646C28.391 6.30899 27.4583 6.17188 26.9206 6.17188C26.649 6.17188 26.4773 6.20779 26.4773 6.20779C26.9882 6.88576 27.3574 8.01208 26.7671 8.70637C26.2572 9.30273 25.0122 9.33211 25.0122 10.2223C25.0122 10.5988 25.3589 11.0385 25.9814 11.4335C27.8533 12.6306 29.7112 14.2194 30.484 16.3491C31.45 19.0043 30.3617 20.7673 28.8096 21.7783C28.8096 21.7783 29.2969 22.2331 30.0021 22.2919C30.1459 22.3061 30.2865 22.3126 30.4175 22.3126C31.9083 22.3126 32.679 21.602 32.679 21.602C32.679 21.602 32.5513 22.5835 31.7774 23.4944C31.0604 24.3345 30.1212 24.8308 28.6883 24.8514C28.6883 24.8514 28.6433 25.5261 29.2776 26.1116C29.6844 26.4805 30.6214 26.6013 30.6214 26.6013C30.6214 26.6013 28.8654 26.9615 28.6712 29.5961C28.566 31.0239 28.2075 31.5191 28.2075 31.5191H28.2386C32.313 31.5191 32.2089 27.9692 32.2089 27.9692C32.2089 27.9692 32.4922 29.0205 33.6289 29.2947C33.7663 29.3317 33.9133 29.3458 34.0529 29.3458C34.4178 29.3458 34.7366 29.2588 34.7366 29.2588C34.7366 29.2588 34.1409 27.9834 34.7312 26.1998C35.2217 24.7187 35.1423 23.6217 35.1423 23.6217C35.1423 23.6217 35.6908 24.4651 37.0528 24.4727H37.0668C37.3885 24.4778 37.7063 24.4004 37.9907 24.2479C38.2752 24.0953 38.517 23.8725 38.6939 23.6C35.9773 22.4541 36.2457 18.7573 36.2457 18.7573C36.2457 18.7573 36.5977 19.024 37.2857 19.0501ZM10.1423 27.2423C8.50542 25.2965 7.10472 23.2746 6.92011 20.3603C6.7516 20.8903 6.055 22.3594 4.95054 22.9133C4.95054 22.9133 6.33944 22.0623 6.96304 18.7464V18.7726C7.37628 15.3968 9.78913 12.9581 12.4756 11.477C12.7225 11.341 12.9543 11.2267 13.1744 11.1179C12.3586 11.2463 11.0406 11.2616 10.0242 10.367C10.0242 10.367 11.5805 11.5282 14.764 10.4726C13.8838 11.0537 12.1708 11.8742 10.607 13.2019C6.69471 16.6929 9.49289 20.0969 9.49289 20.0969C8.08682 18.6061 8.02886 17.0118 8.44317 15.7081C7.70257 16.9596 7.22816 18.4776 7.30544 20.3505C7.4117 23.033 8.86177 25.3531 10.3859 27.2173C11.1243 28.1205 11.2907 29.2327 11.2907 29.2327C11.2907 29.2327 10.9901 28.2522 10.1423 27.2423ZM10.7969 26.6002C10.7969 26.6002 11.734 26.4805 12.1408 26.1105C12.774 25.5261 12.73 24.8514 12.73 24.8514C11.296 24.8308 10.3579 24.3345 9.63779 23.4944C8.86714 22.5835 8.73834 21.602 8.73834 21.602C8.73834 21.602 9.50899 22.3126 10.9977 22.3126C11.1318 22.3126 11.2714 22.3061 11.4141 22.2919C11.8546 22.2467 12.2713 22.0677 12.6098 21.7783C11.0556 20.7673 9.9673 19.0043 10.9322 16.348C11.705 14.2205 13.5618 12.6306 15.4359 11.4324C16.0573 11.0385 16.403 10.5988 16.403 10.2223C16.403 9.33211 15.16 9.30273 14.6502 8.70637C14.0599 8.01208 14.4302 6.88576 14.94 6.20779C14.94 6.20779 14.7693 6.17188 14.4967 6.17188C13.9601 6.17188 13.0273 6.30899 12.261 7.11646C11.2413 8.18511 11.6653 9.34951 11.6653 9.34951L11.3926 9.40392C11.2306 9.43766 11.0663 9.4442 10.8989 9.45399L10.7916 9.45508C9.31042 9.45508 8.65247 7.88693 8.65247 7.88693C8.65247 7.88693 7.08218 9.84902 9.39522 11.3878C9.79235 11.6501 9.9673 11.8949 9.92115 12.1539L9.88573 12.3237L9.71722 12.3541C8.04389 12.8166 7.19488 13.9908 6.15804 15.3261C4.58454 17.3578 2.36059 17.4231 2.08474 17.4231H2.05469C2.05469 17.4231 2.56238 19.0522 4.06075 19.0522C4.08436 19.0522 4.10583 19.0522 4.13159 19.0501C4.8196 19.025 5.17272 18.7573 5.17272 18.7573C5.17272 18.7573 5.43891 22.4541 2.72338 23.6C2.72338 23.6 3.21818 24.4738 4.35162 24.4738H4.3645C5.72764 24.4651 6.27504 23.6217 6.27504 23.6217C6.27504 23.6217 6.19561 24.7198 6.68398 26.1998C7.27431 27.9845 6.68183 29.2577 6.68183 29.2577C6.68183 29.2577 6.99846 29.3448 7.36447 29.3448C7.50615 29.3448 7.65105 29.3317 7.78736 29.2947C8.92295 29.0205 9.20738 27.9692 9.20738 27.9692C9.20738 27.9692 9.10327 31.5191 13.1787 31.5191H13.2087C13.2087 31.5191 12.8513 31.0239 12.7472 29.5961C12.554 26.9626 10.7969 26.6002 10.7969 26.6002ZM19.7883 13.5196H21.7095V14.1889C21.4841 13.9081 21.0441 13.9658 21.0441 13.9658V14.9311C21.0441 14.9311 21.0591 15.4056 21.2244 15.6112H20.2734C20.4398 15.4056 20.4537 14.9311 20.4537 14.9311V13.9658C20.4537 13.9658 20.0158 13.9081 19.7883 14.1889V13.5196ZM17.6953 13.6198C17.7618 13.6927 17.8273 13.7721 17.8906 13.8516C17.9056 13.8701 17.9196 13.8864 17.9346 13.9081C17.9936 13.9865 18.0527 14.0714 18.1096 14.1563L18.1482 14.2139C18.2158 14.3184 18.2802 14.4261 18.3446 14.5382C18.9328 15.5688 19.873 16.1847 20.707 16.1858C21.5432 16.1847 22.4823 15.5688 23.0716 14.5382C23.1371 14.424 23.2025 14.313 23.2712 14.2085C23.3496 14.0868 23.4334 13.9688 23.5224 13.8548C23.5879 13.7721 23.6555 13.6916 23.7242 13.6176C23.736 13.6067 23.7456 13.5947 23.7574 13.5849C24.058 13.2737 24.4132 13.0365 24.8812 12.9048L24.673 12.7818H24.6623L23.8336 12.2943L22.9846 11.7991L20.7135 13.055L20.707 13.0495L20.7038 13.055L18.4326 11.7991L17.5826 12.2943L16.7539 12.7818H16.7443L16.535 12.9048C17.0019 13.0354 17.3582 13.2704 17.6588 13.5828C17.6716 13.5936 17.6802 13.6089 17.6953 13.6198Z" fill="#FFFFFE"/>
<path fill-rule="evenodd" clip-rule="evenodd" d="M19.9882 9.26287V9.89404L19.8691 9.83745C19.8637 9.8331 19.6877 9.79393 19.3839 9.54799C18.8805 9.15187 18.8709 8.78621 18.8709 8.78621L19.9871 9.26287H19.9882ZM20.5142 12.2196V8.29977L18.0584 7.45312L18.7067 11.2511L20.5152 12.2196H20.5142ZM21.4372 9.26287L22.5535 8.78621C22.5535 8.78621 22.5449 9.15187 22.0394 9.54799C21.7356 9.79283 21.5607 9.8331 21.5553 9.83745L21.4372 9.89295V9.26287ZM22.7177 11.2522L23.3628 7.45421L20.9081 8.29977V12.2196L22.7177 11.2511V11.2522ZM17.0408 21.3064C17.2802 21.3934 17.57 21.4119 17.7192 21.4119C17.7246 21.3934 17.7331 21.3706 17.7407 21.3423C17.7525 21.2987 17.7653 21.253 17.775 21.2052C17.8169 20.9875 17.8308 20.7427 17.8351 20.5838C17.6978 20.501 17.586 20.3812 17.512 20.2377C17.4208 20.0429 17.2909 19.9515 17.101 19.9515C16.8541 19.9515 16.589 20.1039 16.4741 20.1735C16.384 20.7155 16.7779 21.2073 17.0408 21.3053V21.3064ZM22.4741 19.2267C22.019 19.7306 21.1249 20.6088 21.0819 20.6523L21.0283 20.7067L18.2054 20.6621C18.2031 20.8989 18.1728 21.1345 18.1153 21.364L18.0927 21.4544L21.449 22.0681C21.7979 21.82 22.7585 21.1072 23.132 20.8275C22.8605 20.4249 22.8347 19.9472 22.8959 19.612C22.7347 19.5088 22.5921 19.3785 22.4741 19.2267Z" fill="#FFFFFE"/>
<path fill-rule="evenodd" clip-rule="evenodd" d="M22.8543 15.7784C22.2039 16.4336 21.5802 16.6762 21.0232 16.7328C20.9212 16.744 20.8189 16.7498 20.7163 16.7502H20.7023C20.4973 16.7502 20.2931 16.7283 20.0927 16.6849C20.0562 16.8318 20.01 17.1398 20.142 17.4315C20.26 17.6959 20.4994 17.8929 20.8493 18.0245L20.9674 18.0713L20.9684 18.1998C20.9684 18.2378 20.9964 19.0714 21.8915 19.3032C22.0375 19.1509 22.1706 19.0127 22.2672 18.8962C22.0847 18.4598 22.1813 18.0137 22.4464 17.7949C22.4357 17.8417 22.3176 18.9354 23.1817 19.3424L23.3245 19.411L23.2815 19.5644C23.2675 19.6112 22.9799 20.6701 24.0264 21.064L24.211 21.1358L24.1283 21.3176C24.1101 21.3578 23.7001 22.3187 24.6661 22.865H26.7602V21.175C26.0153 21.0825 25.7009 20.4742 25.6193 20.0432C25.2726 19.9834 25.0053 19.8321 24.8217 19.5851C24.3816 18.9974 24.7595 18.4588 24.7648 18.4294C24.7638 18.4337 24.7648 19.0061 25.1126 19.3609C25.2854 19.5307 25.4894 19.6634 25.7996 19.6928L25.9509 19.707L25.9637 19.8648C25.967 19.8985 26.0496 20.6744 26.7602 20.7963L26.7592 17.3466C26.7592 16.8112 26.9126 16.2736 27.0972 15.7773H22.8543V15.7784ZM17.2161 17.3596L17.1603 19.5557L17.4071 19.5949L18.0082 17.487L17.7023 16.8384L17.2172 17.3596H17.2161ZM18.5191 25.4931C18.5026 25.4926 18.4864 25.4886 18.4714 25.4815C18.4565 25.4744 18.4431 25.4643 18.4321 25.4518C18.4212 25.4392 18.4129 25.4246 18.4077 25.4086C18.4025 25.3927 18.4006 25.3759 18.4021 25.3593C18.4031 25.3428 18.4073 25.3266 18.4145 25.3118C18.4217 25.2969 18.4317 25.2837 18.4439 25.2729C18.4562 25.262 18.4707 25.2538 18.4861 25.2486C18.5016 25.2435 18.5179 25.2415 18.5341 25.2428C18.605 25.2461 18.6543 25.3081 18.6522 25.3756C18.6497 25.409 18.6344 25.44 18.6094 25.462C18.5846 25.484 18.5521 25.4952 18.5191 25.4931ZM23.845 27.4378C23.8632 27.4378 23.8847 27.44 23.904 27.4454C24.2797 27.5542 24.3731 28.9232 25.0289 29.0451C25.0933 29.0593 25.1534 29.0625 25.2049 29.0625C25.3949 29.0625 25.5077 28.9809 25.63 28.834C25.63 28.834 25.2994 28.3084 25.0526 27.9525C24.7252 27.4868 24.4707 26.9241 23.86 26.9241C23.845 26.9241 23.8278 26.9241 23.8117 26.9263C23.6954 26.9311 23.5829 26.9696 23.4876 27.0373C23.2837 26.9006 23.0451 26.8269 22.8007 26.8251C22.4197 26.8251 22.1213 27.0036 21.9721 27.0036H21.9666L20.6035 26.8665C20.3899 26.8447 20.2215 26.627 20.1603 26.5422L20.1366 26.5052C20.1366 26.4671 20.1366 26.429 20.1345 26.3953C20.0883 25.2624 19.2254 24.7781 18.9173 24.7694C18.9173 24.7694 18.9538 24.554 18.8712 24.4723L18.5706 24.8423L17.5832 24.3396L18.2874 25.1753L17.6916 25.8555C17.6164 25.9328 17.6262 26.0372 17.6573 26.0818L17.9148 26.3125L18.2411 26.1112C18.2572 26.0993 18.2873 26.0949 18.3238 26.0949C18.4139 26.0949 18.5492 26.1188 18.6704 26.1188C18.8046 26.1188 18.9195 26.0905 18.9334 25.9632C18.8926 26.3833 18.5084 27.1135 18.7606 27.687L18.9474 28.1201L17.742 27.9438L17.1774 28.9113C17.0036 29.2334 16.9756 29.5816 17.1431 29.771L17.3546 30.0398C17.3546 30.0398 17.6509 29.7209 17.7163 29.5109L17.6207 29.4042C17.5402 29.3139 17.5445 29.2334 17.5939 29.1365L17.9481 28.5402L19.3703 28.8808L19.4454 28.7502C19.542 28.587 19.6815 28.5391 19.8339 28.5391C19.8973 28.5391 19.9617 28.5467 20.0282 28.5576C20.2922 28.6109 20.727 28.6816 21.1617 28.6816C21.6393 28.6816 22.1126 28.5946 22.3649 28.3084C22.8801 29.0843 23.9255 29.2073 23.8429 29.6023L23.5682 30.9321C23.7506 30.9234 23.9255 30.9114 24.0918 30.8886L24.3537 29.5054C24.375 29.388 24.3936 29.2701 24.4096 29.1518C24.3087 29.0473 24.065 28.8285 23.9266 28.5619C23.743 28.2017 23.8428 28.0135 23.6711 27.5455C23.6711 27.5455 23.7248 27.4367 23.845 27.4367V27.4378Z" fill="#FFFFFE"/>
<path fill-rule="evenodd" clip-rule="evenodd" d="M16.5737 28.6952C16.5737 28.6952 17.0459 28.4993 17.0889 28.3578L17.0245 28.199C16.9804 28.0945 16.9858 27.9813 17.0728 27.9204L17.5815 27.5623L18.4327 27.7288C18.4327 27.7288 18.2781 27.533 18.2931 27.2718L17.4817 27.0977L16.7153 27.571C16.5816 27.6716 16.485 27.8146 16.4408 27.9773C16.3966 28.1401 16.4075 28.3131 16.4717 28.4688L16.5737 28.6963V28.6952ZM22.5918 30.95C22.7432 30.9435 22.9128 30.9413 23.0963 30.9413C23.0963 30.9413 23.5342 29.6409 23.5589 29.5995C23.2337 29.4457 22.9163 29.2753 22.6079 29.0891C22.7378 29.2872 23.0534 29.5125 22.9911 29.6866L22.5918 30.95Z" fill="#FFFFFE"/>
<path fill-rule="evenodd" clip-rule="evenodd" d="M26.7581 23.2361H14.6563V27.86C14.6563 29.7514 16.0033 30.9343 17.9922 30.9343C19.6526 30.9343 20.0906 30.9996 20.7077 31.6231C21.1338 31.1911 21.4859 31.0311 22.2104 30.9702L22.2265 30.8995L22.6075 29.7013C22.5861 29.6741 21.9635 28.9548 21.9635 28.9548C21.7167 29.0386 21.5084 29.0527 21.1585 29.0527C20.8011 29.0527 20.3965 29.0092 19.9575 28.9265C19.9163 28.9166 19.8742 28.9115 19.8319 28.9113C19.7782 28.9113 19.775 28.9156 19.76 28.9428L19.6848 29.0701L19.5453 29.303L19.2845 29.241L18.1231 28.9635L17.9632 29.2301L17.9879 29.2595L18.1285 29.4173L18.0663 29.624C17.9804 29.8928 17.7035 30.2073 17.6187 30.2944L17.3289 30.61L17.0638 30.2715L16.8652 30.018C16.6559 29.7808 16.6076 29.4173 16.7257 29.0364C16.7222 29.039 16.7181 29.0405 16.7139 29.0408L16.3865 29.179L16.2394 28.8525L16.1353 28.6229C16.0354 28.3879 16.0174 28.1255 16.0843 27.8788C16.1512 27.6321 16.2991 27.4159 16.5035 27.2658L17.4373 26.7293L18.3281 26.9067C18.3496 26.8197 18.3818 26.5106 18.4065 26.4312C18.3893 26.429 18.3732 26.4257 18.3561 26.4257L17.843 26.6194L17.3493 26.2734C17.3493 26.2734 17.1561 26.084 17.331 25.8947L17.8087 25.1579L16.5958 23.6126L18.4602 24.3896L18.5847 24.234L18.8358 23.9271L19.1213 24.2035C19.1964 24.278 19.2486 24.3728 19.2716 24.4767C19.7847 24.6802 20.7056 25.2798 20.7872 26.2549L20.4995 26.3713V26.3789C20.565 26.4584 20.6197 26.491 20.6369 26.4943L21.9678 26.627C22.0022 26.6205 22.043 26.6053 22.0902 26.5922C22.2565 26.5345 22.5045 26.4508 22.7986 26.4508C23.039 26.4508 23.2708 26.5073 23.493 26.614C23.5757 26.5813 23.6755 26.5585 23.7936 26.5509L23.858 26.5487C24.5696 26.5487 24.9238 27.0895 25.2082 27.5216C25.2554 27.5967 25.3027 27.6663 25.352 27.736C25.6011 28.0929 25.9263 28.6142 25.9392 28.637L26.0862 28.8688L25.9059 29.0821C25.7685 29.2453 25.5592 29.4358 25.2028 29.4358C25.1221 29.4351 25.0416 29.4267 24.9624 29.4108C24.8894 29.3965 24.8181 29.3743 24.7499 29.3444C24.739 29.4212 24.7265 29.4977 24.7123 29.574L24.4794 30.8113C25.8748 30.4631 26.7613 29.3923 26.7613 27.86L26.7581 23.2361ZM14.6563 22.8639H24.0694C23.5993 22.3699 23.6068 21.7463 23.7259 21.3404C23.599 21.2786 23.4809 21.1995 23.375 21.1053C23.0068 21.3807 21.8841 22.211 21.5911 22.4199L21.5278 22.4635L17.8333 21.7844H17.7582C17.6702 21.7844 17.5403 21.7811 17.3986 21.7626C17.3835 21.8314 17.349 21.8943 17.2993 21.9436C17.2497 21.9929 17.187 22.0266 17.1188 22.0405C17.0507 22.0544 16.98 22.048 16.9154 22.0221C16.8507 21.9961 16.7949 21.9518 16.7546 21.8943C16.7263 21.8551 16.7061 21.8105 16.695 21.7632C16.684 21.716 16.6823 21.6669 16.6902 21.619L16.7042 21.5374C16.3242 21.2653 15.9711 20.6559 16.1278 20.0138L16.1428 19.9464L16.1965 19.9072C16.2507 19.8697 16.3065 19.8349 16.3639 19.8027L16.0956 19.7592C16.048 19.7509 16.0054 19.7241 15.9769 19.6845C15.9484 19.6448 15.9364 19.5955 15.9432 19.547C15.9604 19.4447 16.0538 19.3729 16.1536 19.3914L16.7922 19.4937L16.8512 17.2073L17.8022 16.1843L18.3968 17.4543L17.77 19.6547L18.3346 19.745C18.3828 19.7531 18.4259 19.7801 18.4545 19.8203C18.4831 19.8605 18.4947 19.9105 18.487 19.9594C18.4801 20.0028 18.4581 20.0422 18.425 20.0705C18.392 20.0989 18.35 20.1143 18.3067 20.114L18.2777 20.1129L17.8172 20.0367C17.8237 20.0519 17.8323 20.0595 17.8387 20.0748C17.89 20.1649 17.9671 20.237 18.0598 20.2815L20.8752 20.3283C20.9943 20.2097 21.2895 19.9159 21.5943 19.6047C21.329 19.5059 21.096 19.3342 20.9216 19.1087C20.7472 18.8832 20.6382 18.613 20.6068 18.3282C20.2204 18.1606 19.9521 17.9103 19.804 17.5838C19.6237 17.179 19.6881 16.7742 19.7364 16.5772C19.3607 16.439 18.9657 16.1843 18.5621 15.7773H14.3203C14.5028 16.2736 14.6563 16.8112 14.6563 17.3455V22.8628V22.8639Z" fill="white"/>
<path fill-rule="evenodd" clip-rule="evenodd" d="M18.5342 25.2446C18.5178 25.2432 18.5014 25.2452 18.4858 25.2505C18.4703 25.2557 18.4559 25.264 18.4436 25.275C18.4313 25.286 18.4213 25.2993 18.4142 25.3143C18.407 25.3292 18.403 25.3455 18.4021 25.3621C18.4008 25.3787 18.4028 25.3954 18.4081 25.4112C18.4133 25.4269 18.4217 25.4415 18.4326 25.4539C18.4435 25.4663 18.4568 25.4763 18.4717 25.4834C18.4866 25.4904 18.5027 25.4943 18.5191 25.4949C18.5519 25.497 18.5842 25.486 18.6091 25.4642C18.634 25.4424 18.6495 25.4116 18.6522 25.3784C18.654 25.3448 18.6426 25.3119 18.6204 25.2868C18.5983 25.2617 18.5673 25.2465 18.5342 25.2446ZM24.1434 34.9407L23.5906 33.3954C24.2486 33.1919 25.3788 32.7545 25.8865 32.4639L25.5484 33.5881L26.6936 33.9744C26.0003 34.327 25.1609 34.6577 24.1434 34.9407ZM20.7109 36.3282C19.3789 36.3282 17.859 36.017 17.4104 35.8549L18.0909 33.9853C18.6555 34.1529 19.8297 34.3302 20.683 34.3248H20.7366C21.5889 34.3302 22.762 34.1518 23.3298 33.9853L24.0092 35.8549C23.5606 36.0181 22.0407 36.3282 20.7109 36.3282ZM14.726 33.9744L15.8723 33.5881L15.5331 32.4639C16.0387 32.7545 17.1721 33.193 17.8279 33.3954L17.2751 34.9407C16.2608 34.6578 15.4183 34.327 14.726 33.9744ZM26.7452 33.6316L26.0475 33.3595L26.2407 32.6282L26.4521 31.8306C26.4521 31.8306 25.2178 32.5118 23.4758 33.0222C22.9821 33.1658 22.6085 33.2322 22.6085 33.2322V33.7752C22.6085 33.7752 21.6769 33.9385 20.7366 33.9385H20.683C19.7406 33.9385 18.8111 33.7752 18.8111 33.7752V33.2311C18.8111 33.2311 18.4365 33.1658 17.9428 33.0222C16.2029 32.5107 14.9686 31.8306 14.9686 31.8306L15.1768 32.6282L15.3743 33.3595L14.6745 33.6316L13.8984 33.9254C14.7872 34.3618 16.0193 34.9962 17.1463 35.3097L16.8812 36.0475C16.8812 36.0475 18.3109 36.7091 20.6926 36.7156V36.7167H20.7248V36.7156C23.1098 36.7091 24.5395 36.0475 24.5395 36.0475L24.2711 35.3097C25.3992 34.9962 26.6335 34.3629 27.518 33.9254L26.7452 33.6316ZM17.7989 3.86074L18.1156 3.89556L18.2519 3.60174L18.6512 2.73442L19.3918 3.124L19.6794 3.27309L20.7077 2.23709L21.5094 3.04239L21.7391 3.27309L22.0268 3.124L22.7631 2.73442L23.1688 3.60174L23.303 3.89556L23.6196 3.86074L23.9223 3.82483C23.7838 4.1415 23.6819 4.44294 23.6078 4.69324C22.8082 4.23944 21.7692 3.98262 20.7087 3.98262C19.6526 3.98262 18.6136 4.23944 17.8107 4.69324C17.7241 4.39745 17.6195 4.10742 17.4973 3.82483L17.7979 3.86074H17.7989ZM20.7077 4.43424C22.1277 4.43424 23.2622 4.91306 23.8901 5.42127C23.8901 5.42127 24.0769 4.28189 24.7123 3.27744L23.5692 3.40803L22.9713 2.11847L21.8229 2.72027L20.7077 1.60156L19.5968 2.72027L18.4462 2.11847L17.8494 3.40912L16.7063 3.27636C17.3428 4.28189 17.5285 5.42018 17.5285 5.42018C18.1596 4.91197 19.2909 4.43424 20.7077 4.43424ZM38.6946 23.5992C38.6946 23.5992 38.2008 24.473 37.0674 24.473H37.0535C35.6925 24.4643 35.1429 23.6209 35.1429 23.6209C35.1429 23.6209 35.2224 24.7179 34.7329 26.1989C34.1426 27.9837 34.7372 29.2569 34.7372 29.2569C34.7372 29.2569 34.4195 29.345 34.0535 29.345C33.914 29.345 33.768 29.3309 33.6295 29.2939C32.4929 29.0207 32.2095 27.9695 32.2095 27.9695C32.2095 27.9695 32.3147 31.5182 28.2392 31.5182H28.207C28.207 31.5182 28.5666 31.0231 28.6729 29.5953C28.8661 26.9618 30.622 26.5994 30.622 26.5994C30.622 26.5994 29.685 26.4797 29.2782 26.1108C28.6439 25.5264 28.6879 24.8506 28.6879 24.8506C30.1219 24.8299 31.0621 24.3348 31.778 23.4936C32.2394 22.9554 32.5506 22.3021 32.6796 21.6012C32.6796 21.6012 31.909 22.3118 30.4181 22.3118C30.2872 22.3118 30.1476 22.3052 30.0038 22.2911C29.2976 22.2334 28.8103 21.7774 28.8103 21.7774C30.3623 20.7665 31.4507 19.0024 30.4857 16.3472C29.7129 14.2197 27.8539 12.6297 25.9831 11.4327C25.3606 11.0377 25.0128 10.598 25.0128 10.2204C25.0128 9.3313 26.2579 9.303 26.7688 8.70556C27.3591 8.01127 26.9888 6.88494 26.4779 6.20697C26.4779 6.20697 26.6496 6.17106 26.9212 6.17106C27.46 6.17106 28.3917 6.30818 29.158 7.11565C30.1745 8.1843 29.7526 9.34871 29.7526 9.34871L30.0253 9.40312C30.1884 9.43686 30.3505 9.44447 30.519 9.45318L30.6285 9.45427C32.1065 9.45427 32.7666 7.88503 32.7666 7.88503C32.7666 7.88503 34.3379 9.84821 32.0249 11.387C31.6267 11.6492 31.4507 11.8941 31.4968 12.1531L31.5333 12.3239L31.6975 12.3533C33.3741 12.8158 34.2231 13.9911 35.2588 15.3253C36.8324 17.357 39.0584 17.4223 39.3321 17.4223H39.3622C39.3622 17.4223 38.8545 19.0514 37.3572 19.0514C37.3325 19.0514 37.3111 19.0514 37.2864 19.0492C36.5994 19.0242 36.2452 18.7565 36.2452 18.7565C36.2452 18.7565 35.978 22.4532 38.6946 23.5992ZM37.3572 19.5498C39.1926 19.5498 39.8066 17.653 39.8323 17.5725L40.0363 16.9032L39.3493 16.925H39.3472C39.1035 16.925 37.0792 16.8706 35.6442 15.0173L35.5079 14.8454C34.5698 13.6342 33.68 12.4817 32.0893 11.9561C32.1529 11.8997 32.2207 11.8484 32.2922 11.8027C33.1358 11.239 33.6274 10.5545 33.7497 9.75897C33.9311 8.563 33.1787 7.60971 33.1465 7.57053L32.6356 6.92847L32.3158 7.69024C32.2943 7.73703 31.7576 8.95586 30.6285 8.95586H30.5448C30.4675 8.95259 30.3934 8.94933 30.3204 8.9428C30.3602 8.39868 30.2625 7.55856 29.5111 6.7685C28.6085 5.81847 27.5008 5.67592 26.9212 5.67592C26.6121 5.67592 26.406 5.71509 26.3835 5.71727L25.6117 5.87289L26.0872 6.5095C26.4607 7.00139 26.7999 7.90789 26.3985 8.38127C26.2697 8.53362 26.0056 8.65442 25.7534 8.77739C25.2339 9.02006 24.5234 9.35959 24.5234 10.2204C24.5234 10.7776 24.9495 11.3619 25.7223 11.8571C28.0063 13.3164 29.4167 14.8399 30.0253 16.5213C30.9677 19.1069 29.7387 20.5826 28.5441 21.3596L28.0096 21.7089L28.4786 22.1464C28.5419 22.2029 29.114 22.7155 29.9609 22.7895C30.1219 22.8004 30.2754 22.8091 30.4192 22.8091C30.9612 22.8091 31.4238 22.722 31.7995 22.6067C31.6872 22.8054 31.5564 22.9927 31.4088 23.166C30.7272 23.9692 29.8879 24.3348 28.6804 24.3544L28.2317 24.3609L28.1974 24.818C28.1931 24.9105 28.1598 25.7582 28.9487 26.4786C29.07 26.5896 29.216 26.6821 29.3695 26.7561C28.8328 27.2458 28.2897 28.099 28.1845 29.5594C28.0954 30.7782 27.8088 31.2299 27.8056 31.2353L27.3097 32.0036L28.206 32.0156C29.6861 32.0156 30.8195 31.602 31.6041 30.7793C32.0105 30.3472 32.3138 29.8264 32.4907 29.2569C32.9266 29.6337 33.4807 29.8405 34.0535 29.8402C34.4721 29.8402 34.822 29.7499 34.8606 29.7412L35.4327 29.5866L35.1805 29.0447C35.1612 29.0012 34.6846 27.9129 35.1977 26.36C35.4188 25.6886 35.5315 25.0879 35.5862 24.6188C35.9469 24.8104 36.4288 24.9671 37.0524 24.9692C38.4692 24.9692 39.0928 23.8952 39.1207 23.8505L39.3998 23.3565L38.8824 23.141C37.1951 22.4293 36.8216 20.5184 36.7465 19.4845C36.9 19.5139 37.0738 19.5411 37.2703 19.5466L37.3572 19.5498Z" fill="#1A1919"/>
<path fill-rule="evenodd" clip-rule="evenodd" d="M35.3001 11.4369C35.6415 11.4369 36.0407 11.5555 36.4164 11.9505C37.5992 13.1694 38.6994 13.2379 38.6994 13.2379C38.4997 13.6874 37.9201 14.0824 37.3202 14.0824C37.1817 14.0824 37.0411 14.0606 36.9048 14.0117C36.0901 13.7331 35.7992 12.4936 34.3706 11.722C34.3706 11.722 34.7678 11.4369 35.3001 11.4369ZM34.1377 12.1617C34.8214 12.5317 35.2207 13.029 35.5706 13.4686C35.9141 13.8985 36.2393 14.312 36.7513 14.484C36.9316 14.5471 37.1237 14.5775 37.3202 14.5775C38.0854 14.5775 38.855 14.1009 39.147 13.4414L39.44 12.782L38.7305 12.7384C38.6972 12.7384 37.7838 12.6525 36.7685 11.599C36.3499 11.1659 35.8443 10.9396 35.3001 10.9396C34.6347 10.9396 34.1409 11.2769 34.0873 11.3118L33.4347 11.7786L34.1377 12.1617ZM34.4586 18.7466V18.7716C34.0465 15.3959 31.6336 12.9583 28.9471 11.4761C28.7002 11.3411 28.4694 11.2258 28.2473 11.117C29.0641 11.2454 30.3811 11.2606 31.3986 10.3661C31.3986 10.3661 29.8422 11.5272 26.6577 10.4716C27.5378 11.0528 29.2519 11.8733 30.8168 13.2009C34.727 16.692 31.9299 20.096 31.9299 20.096C33.3359 18.6062 33.3939 17.0108 32.9796 15.7071C33.7202 16.9586 34.1925 18.4767 34.1195 20.3495C34.0121 23.032 32.5599 25.3522 31.0326 27.2163C30.2984 28.1195 30.1353 29.2317 30.1353 29.2317C30.1353 29.2317 30.4315 28.2512 31.2805 27.2424C32.9173 25.2945 34.318 23.2736 34.5005 20.3593C34.6701 20.8893 35.3678 22.3584 36.4733 22.9123C36.4733 22.9123 35.0833 22.0613 34.4586 18.7466ZM13.1852 31.5181C9.10973 31.5181 9.21385 27.9694 9.21385 27.9694C9.21385 27.9694 8.92834 29.0206 7.79383 29.2938C7.65524 29.3291 7.51276 29.3463 7.36986 29.3449C7.00493 29.3449 6.68722 29.2578 6.68722 29.2578C6.68722 29.2578 7.28077 27.9824 6.68937 26.1988C6.20207 24.7188 6.2815 23.6208 6.2815 23.6208C6.2815 23.6208 5.73303 24.4642 4.37097 24.4729H4.35701C3.22465 24.4729 2.72984 23.599 2.72984 23.599C5.44537 22.4531 5.17919 18.7564 5.17919 18.7564C5.17919 18.7564 4.82499 19.0241 4.13805 19.0502H4.06614C2.56777 19.0502 2.06008 17.4222 2.06008 17.4222H2.09121C2.36813 17.4222 4.591 17.3569 6.16343 15.3252C7.1992 13.9899 8.04928 12.8157 9.72261 12.3543L9.89112 12.3238L9.92654 12.153C9.97377 11.894 9.79774 11.6491 9.40061 11.3868C7.08757 9.84807 8.65786 7.88599 8.65786 7.88599C8.65786 7.88599 9.31474 9.45413 10.797 9.45413L10.9043 9.45305C11.0718 9.44434 11.236 9.43672 11.3981 9.4019L11.6707 9.34857C11.6707 9.34857 11.2478 8.18416 12.2675 7.11552C13.0338 6.30805 13.9644 6.17093 14.5022 6.17093C14.7759 6.17093 14.9444 6.20684 14.9444 6.20684C14.4356 6.88481 14.0664 8.01113 14.6546 8.70543C15.1655 9.30287 16.4095 9.33116 16.4095 10.2203C16.4095 10.5979 16.0628 11.0375 15.4413 11.4325C13.5684 12.6296 11.7104 14.2184 10.9376 16.3481C9.97376 19.0034 11.0621 20.7663 12.6152 21.7784C12.6152 21.7784 12.1269 22.2333 11.4206 22.291C11.2822 22.3045 11.1432 22.3114 11.0042 22.3116C9.51438 22.3116 8.74373 21.6021 8.74373 21.6021C8.74373 21.6021 8.87253 22.5826 9.64318 23.4945C10.3623 24.3347 11.3015 24.8298 12.7344 24.8505C12.7344 24.8505 12.7805 25.5252 12.1462 26.1107C11.7394 26.4807 10.8024 26.6004 10.8024 26.6004C10.8024 26.6004 12.5594 26.9617 12.7526 29.5952C12.8578 31.023 13.2142 31.5181 13.2142 31.5181H13.1852ZM13.6177 31.2352C13.6167 31.2297 13.3322 30.7781 13.241 29.5593C13.1337 28.0989 12.5906 27.2457 12.0528 26.756C12.2084 26.682 12.3533 26.5895 12.4736 26.4785C13.2625 25.7581 13.2292 24.9114 13.2238 24.8178L13.1938 24.3608L12.7419 24.3542C11.5376 24.3347 10.6972 23.969 10.0156 23.1659C9.8687 22.992 9.73792 22.8048 9.62493 22.6065C10.0006 22.723 10.46 22.809 11.0042 22.809C11.1491 22.809 11.3015 22.8003 11.4614 22.7894C12.0092 22.7339 12.5272 22.5099 12.9458 22.1473L13.4149 21.7088L12.8804 21.3605C11.6825 20.5824 10.4578 19.1079 11.3992 16.5211C12.0077 14.8398 13.4149 13.3174 15.7032 11.857C16.476 11.3618 16.8989 10.7774 16.8989 10.2203C16.8989 9.35946 16.1905 9.01993 15.671 8.77725C15.4177 8.65428 15.1537 8.5324 15.0259 8.38113C14.6234 7.90775 14.9615 7.00125 15.3361 6.50937L15.8148 5.87275L15.0388 5.71713C15.0174 5.71387 14.8134 5.67578 14.5022 5.67578C13.9236 5.67578 12.817 5.81834 11.9154 6.76837C11.163 7.55843 11.0643 8.39963 11.1029 8.94266C11.0299 8.94919 10.9569 8.95246 10.8797 8.95572H10.797C9.66357 8.95572 9.12905 7.7369 9.10866 7.6901L8.78988 6.92834L8.27468 7.5704C8.2457 7.60958 7.49115 8.56287 7.67576 9.75884C7.79705 10.5533 8.28863 11.2388 9.13227 11.8025C9.22458 11.8624 9.28791 11.9135 9.33406 11.956C7.74123 12.4816 6.85359 13.634 5.91549 14.8453L5.78025 15.0172C4.34628 16.8705 2.31661 16.926 2.07403 16.926L1.38281 16.9042L1.59318 17.5724C1.61787 17.6529 2.22967 19.5497 4.06614 19.5497L4.15415 19.5464C4.34843 19.541 4.52338 19.5138 4.67794 19.4833C4.60281 20.5171 4.22714 22.4292 2.53986 23.1398L2.02466 23.3574L2.30373 23.8504C2.32949 23.895 2.95631 24.9691 4.37526 24.9691C4.88312 24.9742 5.38467 24.8548 5.83714 24.6209C5.89188 25.0888 6.00565 25.6884 6.22676 26.3599C6.73981 27.9117 6.26218 29.001 6.24393 29.0445L5.99063 29.5865L6.56271 29.7399C6.60135 29.7508 6.95341 29.84 7.36986 29.84C7.94285 29.8415 8.49736 29.6346 8.93263 29.2568C9.08827 29.7432 9.35553 30.2927 9.81813 30.7792C10.606 31.6008 11.7383 32.0154 13.2174 32.0154L14.1136 32.0035L13.6177 31.2352Z" fill="#1A1919"/>
<path fill-rule="evenodd" clip-rule="evenodd" d="M5.00366 11.9487C5.38147 11.5536 5.77969 11.4339 6.12315 11.4339C6.65123 11.4339 7.05159 11.7201 7.05159 11.7201C5.62405 12.4928 5.32995 13.7312 4.51422 14.0109C4.38137 14.0576 4.2416 14.0807 4.10099 14.0794C3.501 14.0794 2.92033 13.6855 2.72283 13.236C2.72283 13.236 3.82192 13.1675 5.00366 11.9487ZM4.10099 14.5757C4.29741 14.5757 4.48953 14.5452 4.672 14.4821C5.18291 14.3101 5.5092 13.8977 5.85266 13.4667C6.20364 13.0282 6.59864 12.5309 7.28343 12.1609L7.98752 11.7767L7.3328 11.3088C7.27914 11.275 6.78862 10.9388 6.12315 10.9388C5.5779 10.9388 5.07129 11.164 4.65375 11.5972C3.6373 12.6517 2.72605 12.7365 2.69278 12.7376L1.98438 12.7801L2.27417 13.4406C2.56826 14.099 3.33678 14.5757 4.10099 14.5757ZM7.30274 20.3477C7.2276 18.4748 7.69987 16.9567 8.44047 15.7052C8.02831 17.009 8.08412 18.6043 9.49234 20.0952C9.49234 20.0952 6.69309 16.689 10.6054 13.2001C12.1703 11.8714 13.8823 11.0509 14.7624 10.4697C11.5789 11.5253 10.0236 10.3631 10.0236 10.3631C11.0401 11.2587 12.3571 11.2446 13.1739 11.114C12.9528 11.2239 12.7209 11.3382 12.4741 11.4742C9.7875 12.9553 7.37572 15.394 6.96142 18.7697V18.7447C6.33781 22.0595 4.94892 22.9104 4.94892 22.9104C6.05445 22.3554 6.74998 20.8863 6.91957 20.3575C7.10418 23.2717 8.5038 25.2937 10.1396 27.2405C10.9896 28.2493 11.288 29.2298 11.288 29.2298C11.288 29.2298 11.1227 28.1187 10.3854 27.2144C8.86123 25.3503 7.41007 23.0302 7.30274 20.3477ZM19.7867 13.5168V14.1872C20.0142 13.9053 20.4522 13.963 20.4522 13.963V14.9282C20.4522 14.9282 20.4382 15.4027 20.2718 15.6084H21.2228C21.0575 15.4027 21.0414 14.9282 21.0414 14.9282V13.963C21.0414 13.963 21.4815 13.9053 21.7069 14.1872V13.5168H19.7856H19.7867ZM19.3788 9.54692C19.6826 9.79177 19.8586 9.83313 19.864 9.83639L19.982 9.89189V9.2618L18.8658 8.78516C18.8658 8.78516 18.8754 9.1508 19.3788 9.54692ZM22.0342 9.54692C22.5387 9.1508 22.5494 8.78516 22.5494 8.78516L21.4321 9.2618V9.89298L21.5502 9.83639C21.5555 9.83313 21.7305 9.79177 22.0342 9.54692Z" fill="#1A1919"/>
<path fill-rule="evenodd" clip-rule="evenodd" d="M20.7088 7.86942L18.0179 6.78989C18.2466 6.23924 19.3017 5.7713 20.7088 5.77021C22.117 5.7713 23.1721 6.23924 23.4007 6.78989L20.7088 7.86942ZM22.7149 11.2527L20.9063 12.2213V8.29927L23.361 7.45262L22.7149 11.2506V11.2527ZM23.8354 12.2931L24.6619 12.7806H24.6737L24.8819 12.9036C24.415 13.0342 24.0576 13.2725 23.7581 13.5837L23.7259 13.6164C23.6553 13.6928 23.5876 13.7719 23.5231 13.8536L23.4855 13.9037C23.4211 13.9875 23.3599 14.0734 23.303 14.1627L23.2719 14.2073C23.2023 14.3151 23.1361 14.425 23.0733 14.537C22.483 15.5676 21.5438 16.1835 20.7088 16.1857C19.8737 16.1835 18.9335 15.5676 18.3453 14.537C18.2828 14.4271 18.2173 14.319 18.1489 14.2127L18.1103 14.1551C18.0542 14.071 17.9962 13.9883 17.9364 13.9069C17.9213 13.8852 17.9074 13.8689 17.8924 13.8504C17.8293 13.771 17.7638 13.6937 17.6959 13.6186C17.682 13.6077 17.6723 13.5935 17.6595 13.5816C17.3528 13.256 16.9642 13.0215 16.5357 12.9036L16.746 12.7806H16.7546L17.5843 12.2931L18.4333 11.7979L20.7045 13.0538L20.7088 13.0494L20.7152 13.0538L22.9853 11.7979L23.8354 12.2931ZM27.0983 15.7798C26.9127 16.276 26.7592 16.8136 26.7592 17.3479L26.7613 20.7977C26.0518 20.6779 25.9671 19.9009 25.9649 19.8672L25.952 19.7094L25.7985 19.6953C25.5383 19.672 25.2951 19.5541 25.1138 19.3634C24.7649 19.0097 24.7649 18.4373 24.7649 18.4318C24.7606 18.4612 24.3828 18.9977 24.8207 19.5854C25.0053 19.8335 25.2737 19.9869 25.6193 20.0468C25.7009 20.4766 26.0164 21.0849 26.7613 21.1785V22.8653H24.6672C23.7012 22.3201 24.1102 21.3603 24.1295 21.3189L24.2111 21.1361L24.0265 21.0654C22.98 20.6714 23.2687 19.6115 23.2826 19.5658L23.3256 19.4112L23.1818 19.3438C22.3188 18.9368 22.4358 17.842 22.4476 17.7963C22.1814 18.015 22.0859 18.4601 22.2683 18.8987C22.1696 19.014 22.0365 19.1522 21.8916 19.3046C21.6395 19.2488 21.4125 19.1104 21.2457 18.9107C21.0788 18.7111 20.9815 18.4614 20.9685 18.2L20.9675 18.0716L20.8494 18.0259C20.5006 17.8953 20.2612 17.6973 20.1421 17.4328C20.0101 17.1401 20.0562 16.8343 20.0927 16.6852C20.2933 16.7274 20.4975 16.7493 20.7024 16.7505H20.7163C20.8204 16.7505 20.9224 16.744 21.0233 16.7342C21.5814 16.6776 22.2039 16.4349 22.8544 15.7798H27.0983ZM24.4816 30.8138L24.7155 29.5764L24.7531 29.3479C24.8975 29.4053 25.051 29.4359 25.2061 29.4382C25.5624 29.4382 25.7706 29.2467 25.9091 29.0846L26.0873 28.8724L25.9413 28.6395C25.9284 28.6166 25.6032 28.0954 25.3542 27.7384C25.3047 27.6679 25.2571 27.596 25.2114 27.5229C24.927 27.092 24.5717 26.5511 23.859 26.5511L23.7957 26.5533C23.6931 26.5589 23.5918 26.5798 23.4952 26.6154C23.2783 26.5102 23.0411 26.4552 22.8007 26.4543C22.5589 26.4602 22.3198 26.5073 22.0934 26.5936C22.0462 26.6077 22.0032 26.623 21.97 26.6295L20.639 26.4967C20.6219 26.4924 20.5682 26.4597 20.5016 26.3814V26.3738L20.7893 26.2573C20.7088 25.2823 19.7868 24.6827 19.2737 24.4792C19.251 24.3749 19.1988 24.2796 19.1235 24.2049L18.838 23.9296L18.5868 24.2354L18.4634 24.3921L16.5979 23.614L17.8108 25.1604L17.3332 25.8971C17.1571 26.0854 17.3514 26.2758 17.3514 26.2758L17.8451 26.6219L18.3582 26.4271C18.3754 26.4271 18.3904 26.4314 18.4086 26.4336C18.384 26.5131 18.3518 26.8232 18.3303 26.9092L17.4405 26.7318L16.5067 27.2683C16.0248 27.6274 15.9593 28.2194 16.1385 28.6253L16.2416 28.856L16.3886 29.1814L16.716 29.0443C16.7214 29.0421 16.7257 29.041 16.7289 29.0378C16.6108 29.4197 16.6591 29.7821 16.8684 30.0204L17.067 30.274L17.331 30.6135L17.6208 30.2969C17.7067 30.2098 17.9836 29.8953 18.0684 29.6254L18.1306 29.4197L17.99 29.2619L17.9664 29.2326L18.1253 28.9659L19.2866 29.2445L19.5485 29.3055L19.6881 29.0715L19.7632 28.9453C19.7771 28.9181 19.7804 28.9137 19.834 28.9137C19.8759 28.9137 19.9167 28.9181 19.9607 28.9289C20.3567 29.0082 20.7592 29.0501 21.1628 29.0541C21.5095 29.0541 21.7188 29.041 21.9657 28.9572C21.9657 28.9572 22.5893 29.6755 22.6107 29.7038L22.2286 30.9008L22.2115 30.9727C21.4891 31.0325 21.1371 31.1936 20.7109 31.6256C20.0927 31.0031 19.6559 30.9367 17.9954 30.9367C16.0065 30.9367 14.6584 29.7538 14.6584 27.8614V23.2386H26.7613L26.7635 27.8614C26.7635 29.3947 25.8769 30.4644 24.4816 30.8138ZM17.0273 28.1998L17.0906 28.3598C17.0477 28.4991 16.5754 28.6971 16.5754 28.6971L16.4745 28.4697C16.4101 28.3138 16.399 28.1406 16.4432 27.9776C16.4874 27.8146 16.5842 27.6714 16.7181 27.5708L17.4834 27.0974L18.2959 27.2716C18.2798 27.5338 18.4344 27.7297 18.4344 27.7297L17.5843 27.5643L17.0745 27.9212C16.9886 27.9822 16.9822 28.0954 17.0273 28.1998ZM24.3528 29.5057L24.0919 30.8889C23.9245 30.9128 23.7485 30.9259 23.5682 30.9324L23.8429 29.6047C23.9245 29.2086 22.8812 29.0857 22.3649 28.3097C22.1127 28.597 21.6394 28.683 21.1628 28.683C20.727 28.683 20.2934 28.6123 20.0283 28.5589C19.9645 28.5477 19.8999 28.5415 19.8351 28.5404C19.6816 28.5404 19.5432 28.5883 19.4466 28.7527L19.3714 28.8832L17.9482 28.5426L17.594 29.1379C17.5446 29.2347 17.5403 29.3153 17.6208 29.4056L17.7174 29.5122C17.6509 29.7223 17.3546 30.0411 17.3546 30.0411L17.1432 29.7723C16.9757 29.583 17.0036 29.2347 17.1775 28.9126L17.7421 27.9441L18.9475 28.1215L18.7607 27.6873C18.5085 27.1138 18.8927 26.3847 18.9335 25.9646C18.9195 26.0919 18.8047 26.1202 18.6716 26.1202C18.5492 26.1202 18.414 26.0974 18.3238 26.0974C18.2884 26.0974 18.2573 26.1006 18.2412 26.1126L17.9149 26.3139L17.6573 26.0832C17.6262 26.0397 17.6165 25.9341 17.6917 25.8558L18.2884 25.1767L17.5843 24.3409L18.5696 24.8448L18.8712 24.4737C18.9539 24.5564 18.9174 24.7708 18.9174 24.7708C19.2254 24.7795 20.0895 25.2638 20.1346 26.3955C20.1378 26.4304 20.1378 26.4684 20.1378 26.5065L20.1603 26.5435C20.2215 26.6295 20.39 26.8482 20.6036 26.8678L21.9667 27.0049H21.9721C22.1224 27.0049 22.4197 26.8265 22.8007 26.8265C23.01 26.8265 23.2408 26.8809 23.4877 27.0387C23.4877 27.0387 23.6122 26.9386 23.8129 26.9277C23.8279 26.9255 23.8451 26.9255 23.859 26.9255C24.4708 26.9255 24.7252 27.487 25.0536 27.9539C25.3005 28.3087 25.63 28.8354 25.63 28.8354C25.5087 28.9823 25.395 29.0639 25.205 29.0639C25.1459 29.0641 25.0869 29.0583 25.029 29.0465C24.3742 28.9235 24.2787 27.5556 23.9052 27.4468C23.8856 27.4415 23.8654 27.439 23.8451 27.4391C23.7249 27.4391 23.6723 27.548 23.6723 27.548C23.844 28.0148 23.7431 28.2031 23.9277 28.5633C24.0651 28.8299 24.3088 29.0487 24.4096 29.1531C24.4096 29.1531 24.3828 29.3555 24.3528 29.5068V29.5057ZM23.098 30.9422C22.9156 30.9422 22.746 30.9444 22.5936 30.9509L22.9928 29.6874C23.0551 29.5122 22.7395 29.287 22.6097 29.0889C22.8061 29.2152 23.3159 29.4916 23.5617 29.6004C23.4024 30.046 23.2478 30.4932 23.098 30.9422ZM17.1604 19.5571L17.2172 17.361L17.7024 16.8397L18.0072 17.4883L17.4061 19.5962L17.1593 19.5582L17.1604 19.5571ZM17.5092 20.2383C17.5829 20.3814 17.6944 20.5008 17.8312 20.5833C17.8274 20.792 17.8077 21.0001 17.7722 21.2057C17.7614 21.2536 17.7507 21.2982 17.7367 21.3429C17.7303 21.3712 17.7217 21.394 17.7163 21.4125C17.5671 21.4125 17.2763 21.394 17.0391 21.3059C16.775 21.2079 16.3811 20.716 16.4723 20.1741C16.5861 20.1034 16.8502 19.9521 17.0981 19.9521C17.2881 19.9521 17.418 20.0435 17.5092 20.2383ZM23.1292 20.8281C22.7567 21.1078 21.795 21.8206 21.4462 22.0687L18.0888 21.4549L18.1124 21.3646C18.1553 21.1872 18.2015 20.9457 18.2036 20.6616L21.0254 20.7073L21.0791 20.6529C21.122 20.6094 22.0161 19.7312 22.4712 19.2273C22.5796 19.3655 22.7149 19.4961 22.893 19.6115C22.8329 19.9488 22.8576 20.4255 23.1292 20.8281ZM18.5643 15.7798C18.9689 16.1868 19.3628 16.4404 19.7385 16.5796C19.6902 16.7755 19.6258 17.1825 19.8061 17.5863C19.9542 17.9127 20.2226 18.163 20.61 18.3306C20.653 18.7333 20.9031 19.3394 21.5975 19.6071C21.2927 19.9184 20.9964 20.2122 20.8784 20.3297L18.062 20.2851C17.9689 20.24 17.8918 20.1671 17.8408 20.0762C17.8355 20.062 17.8258 20.0544 17.8194 20.0392L18.2798 20.1153L18.3088 20.1164C18.3521 20.1167 18.3941 20.1013 18.4272 20.073C18.4602 20.0446 18.4822 20.0052 18.4891 19.9619C18.4969 19.9131 18.4854 19.8633 18.457 19.8231C18.4287 19.7829 18.3858 19.7558 18.3378 19.7475L17.7722 19.6561L18.399 17.4568L17.8054 16.1868L16.8534 17.2097L16.7954 19.4961L16.1557 19.3927C16.057 19.3732 15.9625 19.4472 15.9443 19.5484C15.9371 19.5973 15.9492 19.6472 15.9779 19.6873C16.0066 19.7274 16.0496 19.7544 16.0978 19.7627L16.3661 19.8041C16.2695 19.8596 16.2062 19.9042 16.1986 19.9097L16.145 19.9488L16.13 20.0163C15.9743 20.6584 16.3264 21.2678 16.7063 21.5398L16.6924 21.6214C16.6774 21.7194 16.6988 21.8173 16.7568 21.8968C16.7898 21.945 16.8339 21.9844 16.8854 22.0113C16.9368 22.0382 16.994 22.052 17.0519 22.0513C17.1333 22.0506 17.212 22.0221 17.2753 21.9703C17.3387 21.9186 17.3829 21.8466 17.4008 21.7662C17.5425 21.7825 17.6723 21.7869 17.7603 21.7869H17.8366L21.5299 22.4648L21.5932 22.4224C21.8873 22.2134 23.01 21.3831 23.3771 21.1078C23.4791 21.1959 23.5918 21.2765 23.7281 21.3429C23.6089 21.7488 23.6014 22.3723 24.0715 22.8664H14.6584V17.349C14.6584 16.8136 14.5049 16.276 14.3225 15.7798H18.5643ZM18.0555 7.4548L20.5124 8.30036V12.2202L18.7038 11.2517L18.0555 7.45371V7.4548ZM24.049 6.98142C24.049 6.02486 22.4637 5.16406 20.7142 5.16406H20.7034C18.9539 5.16406 17.3697 6.02486 17.3697 6.98142L17.404 7.21647L18.1027 11.2897L17.4008 11.7033L15.5858 12.7806H15.5922C15.5922 12.7806 15.1843 12.9939 14.9944 13.1245C14.3031 13.612 14.1561 14.3237 14.5575 14.6176C14.6563 14.0375 15.1081 13.4314 15.9529 13.4314C16.5625 13.4314 17.0262 13.7513 17.4019 14.2291C17.4985 14.3499 17.5897 14.4794 17.6745 14.6176C17.7797 14.7928 17.8859 14.9473 17.99 15.0953H13.3125C13.6559 15.7972 13.9833 16.5405 13.9833 17.3479V27.8625C13.9833 30.4068 15.9099 31.6212 17.9943 31.6212C19.6054 31.6212 19.8222 31.5472 20.7109 32.4461C21.5954 31.5472 21.8133 31.6212 23.4254 31.6212C25.5109 31.6212 27.4343 30.4068 27.4343 27.8625V17.3479C27.4343 16.5405 27.7617 15.7972 28.1073 15.0953H23.4275C23.5327 14.9473 23.6379 14.7928 23.7431 14.6176C23.829 14.4794 23.9202 14.3499 24.0147 14.2291C24.3925 13.7492 24.8562 13.4314 25.4658 13.4314C26.3105 13.4314 26.7613 14.0375 26.8611 14.6176C27.2626 14.3237 27.1177 13.612 26.4211 13.1245C26.2365 12.9939 25.8264 12.7806 25.8264 12.7806H25.834L24.0147 11.7033L23.317 11.2897L24.0147 7.21647L24.049 6.98142Z" fill="#1A1919"/>
<path d="M54.1097 24.5045H57.3297V16.9086H61.7518V14.1445H49.6875V16.9086H54.1097V24.5045ZM71.5191 14.1445L66.1525 20.1734V14.1445H63.0398V24.5045H65.7875L71.1542 18.4757V24.5045H74.2669V14.1445H71.5191ZM79.7377 20.6522H84.7394V24.5045H87.8521V14.1445H84.7394V17.9316H79.7377V14.1445H76.625V24.5045H79.7377V20.6522ZM96.5203 24.5045C97.2287 24.5045 97.8727 24.4392 98.4738 24.2651C100.084 23.8081 101.135 22.4804 101.135 20.6739C101.135 18.9545 100.234 17.7575 98.7958 17.2134C98.1088 16.9522 97.2931 16.9304 96.5203 16.9304H93.3218V14.1445H90.2091V24.5045H96.5203ZM93.3218 19.3681H95.9836C96.413 19.3681 96.8208 19.3681 97.1858 19.4986C97.701 19.6728 98.0015 20.1081 98.0015 20.6304C98.0015 21.1745 97.701 21.6316 97.2072 21.8492C96.8638 22.0016 96.5203 22.0016 95.9836 22.0016H93.3218V19.3681ZM105.858 20.5869H106.716L110.43 24.5045H114.574L109.4 19.1069L114.381 14.1445H110.473L106.716 18.0404H105.858V14.1445H102.745V24.5045H105.858V20.5869Z" fill="white"/>
<path d="M120.978 13.8633C116.792 13.8633 114.281 16.2574 114.281 19.348C114.281 22.4386 116.792 24.8327 120.978 24.8327C125.143 24.8327 127.655 22.4386 127.655 19.348C127.655 16.2574 125.143 13.8633 120.978 13.8633ZM120.978 22.308C118.896 22.308 117.565 21.0457 117.565 19.348C117.565 17.6504 118.896 16.4098 120.978 16.4098C123.039 16.4098 124.392 17.6504 124.392 19.348C124.392 21.0457 123.039 22.308 120.978 22.308ZM138.021 14.6033V13.5586H134.908V14.6033C131.001 14.6904 128.661 16.3662 128.661 19.3262C128.661 22.2862 131.001 23.8315 134.908 23.9186V24.9633H138.021V23.9186C141.949 23.8315 144.289 22.2862 144.289 19.3262C144.289 16.3662 141.949 14.6904 138.021 14.6033ZM134.908 21.6986C132.761 21.6115 131.817 20.7192 131.817 19.3262C131.817 17.9333 132.761 16.9321 134.908 16.8451V21.6986ZM138.021 21.6986V16.8451C140.189 16.9321 141.112 17.9333 141.112 19.3262C141.112 20.7192 140.189 21.6115 138.021 21.6986ZM154.645 14.6033V13.5586H151.532V14.6033C147.625 14.6904 145.285 16.3662 145.285 19.3262C145.285 22.2862 147.625 23.8315 151.532 23.9186V24.9633H154.645V23.9186C158.573 23.8315 160.913 22.2862 160.913 19.3262C160.913 16.3662 158.573 14.6904 154.645 14.6033ZM151.532 21.6986C149.385 21.6115 148.441 20.7192 148.441 19.3262C148.441 17.9333 149.385 16.9321 151.532 16.8451V21.6986ZM154.645 21.6986V16.8451C156.813 16.9321 157.736 17.9333 157.736 19.3262C157.736 20.7192 156.813 21.6115 154.645 21.6986Z" fill="white"/>
</g>
</g>
<defs>
<clipPath id="clip0_1753_7768">
<rect width="161" height="37" fill="white" transform="translate(0.3125 0.5)"/>
</clipPath>
</defs>
</svg>
