<svg width="46" height="46" viewBox="0 0 46 46" fill="none" xmlns="http://www.w3.org/2000/svg">
<path d="M23.0014 44.9559C25.8845 44.9559 28.7394 44.3881 31.403 43.2848C34.0667 42.1814 36.4869 40.5642 38.5256 38.5257C40.5643 36.487 42.1815 34.0667 43.2848 31.4031C44.3881 28.7394 44.956 25.8845 44.956 23.0014C44.956 20.1183 44.3881 17.2634 43.2848 14.5998C42.1815 11.9361 40.5643 9.51584 38.5256 7.47722C36.4869 5.43855 34.0667 3.82138 31.403 2.71806C28.7394 1.61475 25.8845 1.04688 23.0014 1.04688C17.1787 1.04688 11.5945 3.35994 7.47722 7.47722C3.35993 11.5945 1.04688 17.1787 1.04688 23.0014C1.04688 28.8242 3.35993 34.4084 7.47722 38.5257C11.5945 42.6429 17.1787 44.9559 23.0014 44.9559Z" fill="white"/>
<path d="M26.4474 36.7248H31.2251V9.26074H24.2624C17.2578 9.26074 13.5778 12.8571 13.5778 18.1471C13.5778 22.3498 15.5956 24.8693 19.192 27.4307L12.9297 36.7143H18.1256L25.0883 26.3225L22.6628 24.7125C19.7356 22.7262 18.3033 21.1998 18.3033 17.8752C18.3033 14.9585 20.3628 12.9825 24.2833 12.9825H26.4265V36.7143H26.437L26.4474 36.7248Z" fill="black"/>
</svg>
