<svg width="106" height="27" viewBox="0 0 106 27" fill="none" xmlns="http://www.w3.org/2000/svg">
	<g clip-path="url(#clip0_179_962)">
		<path d="M61.5012 23.5765C61.5012 23.7817 61.5648 23.9005 61.6814 23.9005C61.7768 23.8897 61.8616 23.8465 61.9358 23.7925L94.976 1.94408C95.5343 1.5465 96.2031 1.34206 96.884 1.36088H104.145C105.258 1.36088 106.011 2.11688 106.011 3.25088V17.3773C106.011 19.0837 105.64 20.0773 104.156 20.9845L95.347 26.3845C95.2592 26.4466 95.1568 26.4839 95.0502 26.4925C94.9442 26.4925 94.8382 26.4061 94.8382 26.0929V9.61208C94.8382 9.41768 94.7852 9.28808 94.658 9.28808C94.5649 9.29899 94.4767 9.33642 94.4036 9.39608L70.2568 25.3801C69.7056 25.7581 69.059 25.9633 68.4018 25.9525H52.3958C51.2722 25.9525 50.5302 25.1965 50.5302 24.0517V3.69368C50.5302 3.54248 50.4666 3.40208 50.3394 3.40208C50.2466 3.41408 50.1587 3.45139 50.085 3.51008L34.1532 13.2517C33.9942 13.3597 33.9518 13.4353 33.9518 13.5109C33.9518 13.5757 33.9836 13.6405 34.0896 13.7593L45.474 25.3477C45.6224 25.4989 45.7284 25.6177 45.7284 25.7473C45.7284 25.8553 45.5588 25.9417 45.3574 25.9417H35.0754C34.2698 25.9417 33.6444 25.8229 33.2098 25.3801L26.3092 18.3601C26.283 18.3282 26.2507 18.3022 26.2142 18.2836C26.1778 18.265 26.1379 18.2543 26.0972 18.2521C26.0224 18.2556 25.9496 18.2779 25.8852 18.3169L14.3524 25.3801C13.6528 25.8121 13.1758 25.9309 12.4868 25.9309H1.8762C0.742 25.9417 0 25.1749 0 24.0409V10.1845C0 8.46728 0.371 7.48448 1.8656 6.57728L10.7272 1.15568C10.7967 1.10929 10.8774 1.08315 10.9604 1.08008C11.0982 1.08008 11.1724 1.22048 11.1724 1.53368V20.0881C11.1724 20.2825 11.2148 20.3689 11.3526 20.3689C11.448 20.3581 11.5328 20.3149 11.6176 20.2609L41.552 1.91168C42.1244 1.51208 42.824 1.31768 43.5236 1.35008H59.6356C60.7486 1.35008 61.5012 2.10608 61.5012 3.24008L61.4906 23.5765H61.5012Z" fill="white"></path>
	</g>
	<defs>
		<clipPath id="clip0_179_962">
			<rect width="106" height="27" fill="white"></rect>
		</clipPath>
	</defs>
</svg>