<svg width="156" height="29" viewBox="0 0 156 29" fill="none" xmlns="http://www.w3.org/2000/svg">
	<g clip-path="url(#clip0_179_869)">
		<path d="M15.5487 0.369141V15.0273C15.5487 15.7128 15.0355 16.1873 14.4198 16.1873H12.7263C12.6237 16.1873 12.5724 16.2928 12.5724 16.3455V28.631C12.9829 28.631 13.3934 28.7364 13.8553 28.7364C21.5013 28.7364 27.7105 22.3564 27.7105 14.5C27.7105 7.27641 22.425 1.21278 15.5487 0.369141ZM15.2408 22.3037C14.2658 22.3037 13.5474 21.46 13.5474 20.5637C13.5474 19.5619 14.3684 18.8237 15.2408 18.8237C16.2158 18.8237 16.9342 19.6673 16.9342 20.5637C17.0369 21.5128 16.2158 22.3037 15.2408 22.3037ZM19.2948 22.3037C18.3198 22.3037 17.6013 21.46 17.6013 20.5637C17.6013 19.5619 18.4224 18.8237 19.2948 18.8237C20.2698 18.8237 20.9882 19.6673 20.9882 20.5637C20.9882 21.46 20.3211 22.3037 19.2948 22.3037ZM23.4 22.3037C22.425 22.3037 21.7066 21.46 21.7066 20.5637C21.7066 19.5619 22.5276 18.8237 23.4 18.8237C24.375 18.8237 25.0934 19.6673 25.0934 20.5637C25.0934 21.46 24.375 22.3037 23.4 22.3037Z" fill="white"></path>
		<path d="M13.8553 0.316406C6.20921 0.316406 0 6.69641 0 14.5528C0 21.46 4.66974 27.1019 10.9303 28.42V15.6073C10.9303 15.0273 11.4434 14.5528 11.9566 14.4473H13.65C13.7526 14.4473 13.8039 14.3419 13.8039 14.2891L13.8553 0.316406ZM11.1868 12.0219C10.2118 12.0219 9.49342 11.1782 9.49342 10.2819C9.49342 9.28004 10.3145 8.54186 11.1868 8.54186C12.1618 8.54186 12.8803 9.3855 12.8803 10.2819C12.8803 11.1782 12.1105 12.0219 11.1868 12.0219Z" fill="white"></path>
		<path d="M152.562 8.06752V13.4457H145.583V8.06752H142.042V22.3039H145.583V16.5566H152.562V22.3039H156V8.06752H152.562ZM94.8829 9.70207C94.3184 8.43661 93.1895 7.75116 92.0605 7.75116C90.9316 7.75116 89.7513 8.43661 89.2381 9.70207L83.6447 22.3566H87.3395L88.571 19.3512H95.7552L96.9868 22.3566H100.682L94.8829 9.70207ZM89.546 16.5039L91.65 11.2839C91.7526 11.1257 91.8039 11.1257 91.9066 11.1257C92.0092 11.1257 92.1631 11.1257 92.1631 11.2839L94.2671 16.5039H89.546ZM53.625 5.53661C51.9829 5.53661 50.9566 6.43298 50.1868 8.22571L45.7223 18.9293L41.2066 8.17298C40.4881 6.43298 39.4105 5.48389 37.7684 5.48389C36.2289 5.48389 34.6895 6.53843 34.6895 9.01661V22.2512H38.1276V9.49116L42.6947 20.0893C43.2592 21.6184 44.3368 22.5148 45.7223 22.5148C47.2105 22.5148 48.1855 21.6184 48.75 20.0893L53.3171 9.49116V22.4093H56.7552V9.1748C56.7039 6.69661 55.1645 5.53661 53.625 5.53661ZM62.8105 19.2984C62.6566 19.2984 62.4513 19.1403 62.4513 18.9293V16.3984H71.0723V13.4984H62.4513V11.3366C62.4513 11.1784 62.6052 10.9675 62.8105 10.9675H71.3802V7.96207H61.1171C59.8855 7.96207 59.0645 8.96389 59.0645 10.0712V20.0366C59.0645 21.0912 59.9368 22.1457 61.1171 22.1457H71.3802V19.1402H62.8105V19.2984ZM77.1789 22.3039V11.4421C77.1789 11.2839 77.3329 11.073 77.5381 11.073H86.1079V8.06752H75.8447C74.6131 8.06752 73.7921 9.06934 73.7921 10.1766V22.2512L77.1789 22.3039ZM139.784 15.2384C139.784 10.2821 137.68 7.96207 132.446 7.96207H131.214C125.98 7.96207 123.876 10.3348 123.876 15.2384C123.876 20.0893 125.98 22.5148 131.214 22.5148H132.343C137.68 22.4093 139.784 20.0893 139.784 15.2384ZM132.343 19.5093H131.214C128.392 19.5093 127.212 18.1912 127.212 15.2384C127.212 12.3912 128.187 10.9675 131.214 10.9675H132.343C135.268 10.9675 136.346 12.3912 136.346 15.2384C136.346 18.1384 135.268 19.5093 132.343 19.5093ZM114.28 5.85298H107.404C102.272 5.85298 100.22 8.54207 100.22 13.1293C100.22 13.8675 100.322 14.553 100.374 15.133C100.938 18.4021 102.837 20.4057 107.609 20.4057H109.149V22.2512H112.587V20.4057H114.075C118.899 20.4057 120.797 18.4021 121.311 15.133C121.413 14.553 121.464 13.8675 121.464 13.1293C121.413 8.54207 119.309 5.85298 114.28 5.85298ZM109.046 17.453H107.507C105.146 17.453 104.325 16.5566 103.812 15.0803C103.658 14.553 103.658 13.8148 103.658 13.0766C103.658 10.0712 105.043 8.80571 106.993 8.80571H109.097V17.453H109.046ZM117.872 15.2384C117.359 16.6621 116.487 17.6112 114.178 17.6112H112.638V8.91116H114.742C116.692 8.91116 118.078 10.1766 118.078 13.1821C118.026 13.973 118.026 14.6057 117.872 15.2384Z" fill="white"></path>
	</g>
	<defs>
		<clipPath id="clip0_179_869">
			<rect width="156" height="29" fill="white"></rect>
		</clipPath>
	</defs>
</svg>
