<svg width="162" height="16" viewBox="0 0 162 16" fill="none" xmlns="http://www.w3.org/2000/svg">
	<path d="M11.1306 15.3586V4.7022H17.5716V0.824402H0V4.7022H6.4407V15.3586H11.1306ZM23.9821 9.2824V0.824402H19.4485V15.3586H23.4506L31.2671 6.9007V15.3586H35.8007V0.824402H31.7985L23.9821 9.2824ZM51.0528 9.9542V15.3586H55.5869V0.824402H51.0528V6.1373H43.7677V0.824402H39.2342V15.3586H43.7677V9.9542H51.0528ZM68.2118 15.3586C69.2433 15.3586 70.1813 15.2672 71.057 15.0228C73.4033 14.3817 74.9336 12.5189 74.9336 9.9846C74.9336 7.5725 73.6215 5.8932 71.5273 5.1297C70.5243 4.7634 69.3382 4.7328 68.2118 4.7328H63.5531V0.824402H59.0203V15.3586H68.2118ZM67.4297 8.1527C68.0559 8.1527 68.6496 8.1527 69.181 8.3359C69.9319 8.5801 70.3697 9.1908 70.3697 9.9236C70.3697 10.687 69.9319 11.3282 69.2122 11.6335C68.712 11.8473 68.2118 11.8473 67.4297 11.8473H63.5531V8.1527H67.4297ZM83.0624 9.8626L88.4721 15.3586H94.505L86.9716 7.7861L94.225 0.824402H88.5345L83.0624 6.2901H81.8127V0.824402H77.28V15.3586H81.8127V9.8626H83.0624ZM103.834 0.427597C97.737 0.427597 94.08 3.7862 94.08 8.122C94.08 12.458 97.737 15.8168 103.834 15.8168C109.901 15.8168 113.559 12.458 113.559 8.122C113.559 3.7862 109.901 0.427597 103.834 0.427597ZM103.834 12.2748C100.802 12.2748 98.865 10.5038 98.865 8.122C98.865 5.7406 100.802 4 103.834 4C106.836 4 108.806 5.7406 108.806 8.122C108.806 10.5038 106.836 12.2748 103.834 12.2748ZM128.658 0H124.124V1.4655C118.434 1.5877 115.025 3.9388 115.025 8.0915C115.025 12.2441 118.434 14.4122 124.124 14.5343V16H128.658V14.5343C134.378 14.4122 137.787 12.2441 137.787 8.0915C137.787 3.9388 134.378 1.5877 128.658 1.4655V0ZM124.124 11.4198C120.997 11.2977 119.621 10.0458 119.621 8.0915C119.621 6.1373 120.997 4.7328 124.124 4.6107V11.4198ZM128.658 4.6107C131.816 4.7328 133.16 6.1373 133.16 8.0915C133.16 10.0458 131.816 11.2977 128.658 11.4198V4.6107ZM152.87 0H148.335V1.4655C142.645 1.5877 139.239 3.9388 139.239 8.0915C139.239 12.2441 142.645 14.4122 148.335 14.5343V16H152.87V14.5343C158.592 14.4122 162 12.2441 162 8.0915C162 3.9388 158.592 1.5877 152.87 1.4655V0ZM148.335 11.4198C145.21 11.2977 143.834 10.0458 143.834 8.0915C143.834 6.1373 145.21 4.7328 148.335 4.6107V11.4198ZM152.87 4.6107C156.028 4.7328 157.372 6.1373 157.372 8.0915C157.372 10.0458 156.028 11.2977 152.87 11.4198V4.6107Z" fill="white"/>
</svg>

