<svg width="113" height="32" viewBox="0 0 113 32" fill="none" xmlns="http://www.w3.org/2000/svg">
	<g clip-path="url(#clip0_179_955)">
		<path d="M107.735 27.8644C109.952 27.8644 111.522 27.4719 112.692 26.6267V22.7927C111.491 23.6078 110.044 24.121 108.012 24.121C104.594 24.121 103.178 21.5248 103.178 17.4191C103.178 13.1021 104.902 10.8984 108.043 10.8984C109.89 10.8984 111.707 11.5323 112.661 12.1361V8.15118C111.645 7.60778 109.89 7.21533 107.489 7.21533C101.361 7.21533 98.19 11.5323 98.19 17.5701C98.2208 24.1814 101.331 27.8644 107.735 27.8644ZM77.7761 26.1134V22.2795C76.2982 23.2757 73.7734 24.1512 71.4641 24.1512C67.954 24.1512 66.63 22.521 66.4145 19.2002H77.9916V16.7248C77.9916 9.81156 74.8818 7.21533 70.1093 7.21533C64.2592 7.21533 61.4881 11.5927 61.4881 17.6002C61.4881 24.5134 64.9674 27.8644 71.0638 27.8644C74.1121 27.8644 76.3597 27.0493 77.7761 26.1134ZM33.8385 7.5776V15.4267H27.4341V7.5776H22.6309V27.4719H27.4341V19.17H33.8385V27.4719H38.6418V7.5776H33.8385ZM60.2873 23.7285H58.1627V7.5776H44.184V9.26816C44.184 14.1285 43.8761 20.4078 42.1826 23.7285H40.6431V32.0002H45.0769V27.4719H55.8227V32.0002H60.2565V23.7285H60.2873ZM93.0788 27.4719H98.5287L90.8311 16.755L97.605 7.5776H92.7709L85.9971 16.755V7.5776H81.1938V27.4719H85.9971V17.6908L93.0788 27.4719ZM69.9862 10.8984C72.357 10.8984 73.096 12.8304 73.096 15.3361V15.7285H66.4145C66.5377 12.5587 67.7077 10.8984 69.9862 10.8984ZM53.3595 23.7285H46.5856C47.9096 20.7399 48.2791 15.3059 48.2791 11.8644V11.2606H53.3595V23.7285Z" fill="white"></path>
		<path d="M18.6281 27.4717H13.7324V3.71321H11.5463C7.5436 3.71321 5.44986 5.67547 5.44986 8.60377C5.44986 11.9245 6.897 13.4642 9.88365 15.4264L12.3469 17.0566L5.26512 27.4717H0L6.37357 18.1736C2.70954 15.6075 0.646594 13.1019 0.646594 8.87547C0.646594 3.59245 4.403 0 11.5155 0H18.5973V27.4717H18.6281Z" fill="white"></path>
	</g>
	<defs>
		<clipPath id="clip0_179_955">
			<rect width="113" height="32" fill="white"></rect>
		</clipPath>
	</defs>
</svg>
