<svg width="156" height="30" viewBox="0 0 156 30" fill="none" xmlns="http://www.w3.org/2000/svg">
<g clip-path="url(#clip0_831_2344)">
<path d="M70.3097 15.1107C70.3097 21.0017 66.7167 23.7867 62.2197 23.7867H59.4697V20.2517H62.0047C64.7177 20.2517 66.5257 18.7878 66.5257 15.1107C66.5257 11.4677 64.8157 9.64675 61.9247 9.64675C59.1397 9.64675 57.1497 11.3608 57.1497 15.0387V29.8217H53.3997V6.57575H57.1487V8.57575H57.6837C58.9337 6.89775 60.7807 6.14775 62.7087 6.14775C66.8497 6.14775 70.3087 9.14775 70.3087 15.1107H70.3097ZM45.6757 13.5747L43.1757 13.3247C41.2127 13.1458 40.1777 12.6107 40.1777 11.4677C40.1777 10.1107 41.4977 9.32575 43.3907 9.32575C45.3537 9.32575 46.6037 10.2537 46.7107 11.5757H50.3157C50.1737 8.21875 47.5677 6.14775 43.4257 6.14775C39.2497 6.14775 36.4287 8.36075 36.4287 11.6107C36.4287 14.3247 38.1427 16.0737 42.0337 16.4667L44.5687 16.7167C46.1037 16.8597 47.1387 17.1807 47.1387 18.6447C47.1387 19.9667 46.1747 20.9307 43.6407 20.9307C41.3067 20.9307 40.1567 19.8708 39.7527 18.4508H35.8527C36.2407 21.6968 38.9667 24.2157 43.6407 24.2157C48.0307 24.2157 50.8877 21.8947 50.8877 18.4657C50.8877 15.4317 48.8877 13.8958 45.6757 13.5747ZM84.8277 18.4508C84.2397 19.8018 82.8347 20.8237 80.8407 20.8237C78.0927 20.8237 76.0577 19.0378 76.0577 15.1817C76.0577 11.5037 77.9497 9.46775 80.8767 9.46775C83.4827 9.46775 84.9827 11.0398 85.1247 13.3958H78.3777V16.1097H88.8017V14.3247C88.8017 9.36075 85.5177 6.14775 80.8417 6.14775C76.4857 6.14775 72.3087 9.11075 72.3087 15.1817C72.3087 21.2517 76.4857 24.2157 80.8407 24.2157C84.8247 24.2157 87.6657 21.7607 88.5477 18.4508H84.8277ZM25.7377 6.14775C21.6317 6.14775 18.5617 8.28975 18.2047 11.5747H22.2387C22.5247 10.3608 23.6307 9.46875 25.7377 9.46875C28.4507 9.46875 29.3427 10.8967 29.3427 12.6467V18.5378C27.8077 20.2878 26.0227 21.1087 24.2377 21.1087C22.3817 21.1087 21.0967 20.2167 21.0967 18.6097C21.0967 17.0737 22.0967 16.1097 24.0237 16.1097H27.0227V13.3958H23.9167C19.6327 13.3958 17.2407 15.5387 17.2407 18.8237C17.2407 21.8937 19.5607 24.2157 23.3807 24.2157C25.5227 24.2157 27.4157 23.3587 28.8077 22.3228H29.3427V23.7867H33.0917V12.2887C33.0917 8.03975 30.1997 6.14775 25.7377 6.14775ZM0.304688 23.7878H4.05269V0.21875H0.304688V23.7857V23.7878ZM16.0477 6.57475H11.4777L6.01669 13.7527V16.0028L11.6207 23.7857H16.2617L9.69369 14.8607L16.0477 6.57675V6.57475ZM151.554 6.57475L148.484 13.3947C147.734 15.0377 147.021 16.6448 146.806 17.7157H146.27C146.056 16.6448 145.307 15.0737 144.557 13.4307L141.487 6.57475H137.346L144.557 22.0367L140.987 29.8207H144.986L155.695 6.57475H151.554ZM136.517 6.57475H131.947L126.485 13.7527V16.0028L132.09 23.7857H136.731L130.162 14.8587L136.517 6.57475ZM113.048 13.5737L110.549 13.3237C108.585 13.1447 107.55 12.6097 107.55 11.4667C107.55 10.1097 108.871 9.32475 110.763 9.32475C112.726 9.32475 113.976 10.2528 114.083 11.5747H117.688C117.546 8.21775 114.94 6.14675 110.799 6.14675C106.622 6.14675 103.802 8.35975 103.802 11.6097C103.802 14.3237 105.515 16.0728 109.406 16.4657L111.941 16.7157C113.476 16.8587 114.511 17.1797 114.511 18.6437C114.511 19.9657 113.547 20.9298 111.013 20.9298C108.679 20.9298 107.529 19.8697 107.125 18.4497H103.224C103.613 21.6957 106.339 24.2148 111.013 24.2148C115.404 24.2148 118.26 21.8937 118.26 18.4648C118.26 15.4307 116.261 13.8947 113.048 13.5737ZM120.773 23.7857H124.522V0.22075H120.773V23.7878V23.7857ZM96.0547 8.57575H95.5197V6.57575H91.7697V23.7867H95.5187V14.7887C95.5187 11.7177 96.9367 9.93275 99.7307 9.93275H102.104V6.14775H100.731C98.1377 6.14775 97.0367 7.12575 96.0537 8.57575H96.0547Z" fill="white"/>
</g>
<defs>
<clipPath id="clip0_831_2344">
<rect width="156" height="30" fill="white"/>
</clipPath>
</defs>
</svg>
