<svg width="50" height="50" viewBox="0 0 50 50" fill="none" xmlns="http://www.w3.org/2000/svg">
<rect width="50" height="50" fill="white"/>
<path d="M17.9321 5L13.7494 13.5975L9.56673 5H5V18H8.20161V8.69618L12.29 16.5563H15.2089L19.2984 8.69618V18H22.5V5H17.9321Z" fill="black"/>
<path d="M41.8273 40.5815C41.768 41.0419 41.549 41.4699 41.2053 41.7968C40.8484 42.1079 40.4096 42.3198 39.9363 42.4099C39.2446 42.5412 38.5404 42.6023 37.8353 42.5922C37.0846 42.6051 36.3367 42.5002 35.6214 42.2818C35.035 42.0994 34.5292 41.7341 34.1849 41.2443C33.8389 40.7539 33.6681 40.0457 33.6681 39.1452V37.8681C33.6681 36.961 33.8424 36.2528 34.1849 35.7623C34.5285 35.2735 35.0329 34.9087 35.6179 34.726C36.3332 34.5074 37.0812 34.4025 37.8319 34.4155C38.537 34.4054 39.2412 34.4665 39.9329 34.5978C40.4062 34.6881 40.8449 34.9001 41.202 35.2109C41.5455 35.5379 41.7645 35.9658 41.8237 36.4262H45C44.9426 35.4673 44.5607 34.5525 43.912 33.8199C43.2723 33.1463 42.4443 32.6624 41.5262 32.4257C40.3219 32.1214 39.0794 31.979 37.8342 32.0025C36.3124 32.0025 34.9926 32.2125 33.9115 32.6256C32.8421 33.0199 31.9462 33.7534 31.3734 34.7038C30.8138 35.6241 30.5196 36.8526 30.5 38.3585V38.4967L30.6697 38.5033H30.5V38.6413C30.5196 40.1472 30.8138 41.3759 31.3734 42.2962C31.9462 43.2466 32.8421 43.9801 33.9115 44.3743C34.9937 44.7875 36.3148 44.9974 37.8342 44.9974C39.0794 45.0214 40.322 44.879 41.5262 44.5743C42.4447 44.3384 43.273 43.8544 43.912 43.1799C44.5609 42.4475 44.9428 41.5326 45 40.5737L41.8273 40.5815Z" fill="black"/>
<path d="M30.5 5V7.61215H36.164V17.8317L36.1651 18H39.3361V7.61215H45V5H30.5Z" fill="black"/>
</svg>
