<svg width="161" height="37" viewBox="0 0 161 37" fill="none" xmlns="http://www.w3.org/2000/svg">
<g clip-path="url(#clip0_831_2347)">
<path fill-rule="evenodd" clip-rule="evenodd" d="M40.2575 17.3062L40.7867 15.5857L39.035 15.6423C38.8879 15.6423 37.8114 15.6096 36.7692 14.8424C36.8475 14.849 36.9237 14.8609 37.0053 14.8609C38.0786 14.8609 39.1187 14.2036 39.5341 13.2634L40.2876 11.5658C39.343 11.5788 38.479 11.458 38.479 11.458C38.4715 11.458 37.791 11.3677 37.0042 10.5504C36.4397 9.96606 35.7409 9.65591 34.9842 9.65591C34.6846 9.65708 34.387 9.70517 34.1019 9.79847C34.1417 9.66135 34.1792 9.52097 34.2018 9.37732C34.4411 7.7885 33.4354 6.57838 33.4354 6.57838L32.1184 4.92209L31.3016 6.86785C31.2984 6.87438 31.0923 7.33144 30.7242 7.55344C30.6125 6.98103 30.3388 6.33788 29.7549 5.72303C28.6526 4.56515 27.312 4.39103 26.6101 4.39103C26.2849 4.39103 26.0519 4.42803 25.9961 4.43674L24.4065 4.7545C24.4978 4.39429 24.6942 3.76421 25.0505 3.19941L25.9285 1.81191L23.7207 2.06765L23.0176 0.550647L21.6556 1.26344L20.3966 0L19.1408 1.26235L17.7765 0.550647L17.0746 2.06656L14.8678 1.81082L15.7469 3.2005C16.1043 3.76529 16.2986 4.39212 16.3898 4.75232L14.8732 4.44762L14.8206 4.44C14.6111 4.40654 14.3994 4.39017 14.1873 4.39103C13.4854 4.39103 12.1448 4.56515 11.0457 5.72303C10.4607 6.33679 10.1859 6.98103 10.0743 7.55344C9.7083 7.33253 9.50329 6.88418 9.50329 6.88418L8.68541 4.92535L7.34697 6.59471C7.18382 6.80909 6.37775 7.94738 6.59563 9.38059C6.61925 9.52315 6.65574 9.66244 6.69545 9.79956C6.41117 9.70595 6.11422 9.65785 5.81532 9.657C5.05755 9.657 4.35881 9.96715 3.79316 10.5515C3.00963 11.3655 2.33235 11.458 2.33772 11.458C2.33772 11.458 1.62181 11.5886 0.513053 11.5669L1.26331 13.2645C1.67977 14.2047 2.7209 14.862 3.79209 14.862C3.87366 14.862 3.94987 14.8501 4.02929 14.8435C2.98816 15.6118 1.91268 15.6434 1.78281 15.6434L0 15.5857L0.539887 17.3051C0.812513 18.1931 1.72055 19.6611 3.45935 19.8189C3.27045 20.6242 2.85077 21.5275 1.92985 21.9171L0.601067 22.4721L1.32557 23.754C1.73451 24.445 2.69514 25.2536 4.06149 25.2536C4.35666 25.2536 4.64217 25.222 4.91801 25.1633C4.98778 25.4789 5.07579 25.7944 5.17991 26.11C5.58563 27.3397 5.23572 28.1973 5.23143 28.2071L4.57669 29.6022L6.03965 29.9939C6.05789 30.0005 6.50118 30.1245 7.05395 30.1245C7.30511 30.1245 7.54553 30.0973 7.77093 30.0429C7.94052 30.0026 8.10367 29.9482 8.26145 29.884C8.45143 30.229 8.68112 30.5446 8.94945 30.8264C9.88755 31.8048 11.2185 32.2999 12.9015 32.2999H12.9068L14.109 32.2836L11.6253 33.3326L13.5111 34.2587C14.197 34.5983 15.0084 34.9987 15.837 35.3056L15.6009 35.9596L16.2503 36.2611C16.3082 36.2883 17.5597 36.8553 19.6366 36.9761C19.6366 36.9761 20.1379 37 20.4137 37C20.6906 37 21.1865 36.975 21.1865 36.975C23.2495 36.8509 24.4902 36.2883 24.5482 36.2611L25.1997 35.9596L24.9625 35.3045C25.8126 34.9889 26.6552 34.5711 27.3131 34.2457L29.1635 33.3316L26.6874 32.2836L27.8949 32.2999C29.58 32.2999 30.9109 31.8037 31.8479 30.8254C32.1152 30.5446 32.3438 30.2301 32.5349 29.884C32.918 30.0447 33.3289 30.1261 33.7435 30.1234C34.2876 30.1234 34.7352 30.0016 34.747 29.9972L36.2175 29.6022L35.5767 28.2321C35.5617 28.1973 35.2118 27.3397 35.6175 26.1079C35.7216 25.7944 35.8085 25.4778 35.8794 25.1633C36.1552 25.222 36.444 25.2525 36.7413 25.2536C38.4822 25.2536 39.3173 24.0097 39.4783 23.7399L40.1963 22.471L38.8675 21.9171C37.9445 21.5286 37.5259 20.6253 37.3391 19.8211C39.0554 19.6688 39.9752 18.1996 40.2586 17.3073L40.2575 17.3062Z" fill="#FFFFFE"/>
<path fill-rule="evenodd" clip-rule="evenodd" d="M20.3947 5.27069C18.9887 5.27178 17.9336 5.73972 17.7039 6.29146L20.3947 7.36881L23.0867 6.29146C22.8591 5.73972 21.804 5.27178 20.3947 5.27069ZM20.4237 33.8249H20.37C19.5178 33.8303 18.3425 33.653 17.778 33.4843L17.0975 35.355C17.5461 35.5171 19.066 35.8283 20.398 35.8283C21.7278 35.8283 23.2487 35.5171 23.6963 35.355L23.0169 33.4854C22.4491 33.653 21.2759 33.8303 20.4237 33.8249ZM25.5725 31.964C25.0659 32.2557 23.9357 32.6931 23.2777 32.8955L23.8294 34.4408C24.8469 34.1579 25.6873 33.8282 26.3807 33.4745L25.2344 33.0882L25.5725 31.964ZM15.2202 31.964L15.5594 33.0882L14.412 33.4745C15.1043 33.8282 15.9479 34.1579 16.9622 34.4398L17.515 32.8945C16.8581 32.692 15.7257 32.2557 15.2202 31.964ZM20.3947 3.48272C21.4563 3.48272 22.4952 3.74063 23.296 4.19225C23.3689 3.94413 23.4709 3.6416 23.6094 3.32493L23.3067 3.36193L22.9901 3.39458L22.8559 3.10184L22.4502 2.23452L21.7139 2.6241L21.4262 2.7721L21.1965 2.54358L20.3947 1.73828L19.5951 2.54358L19.3665 2.7721L19.0799 2.6241L18.3393 2.23452L17.9389 3.10184L17.8026 3.39566L17.4849 3.36193L17.1844 3.32493C17.3229 3.6416 17.4237 3.94413 17.4978 4.19225C18.3007 3.74063 19.3396 3.48272 20.3958 3.48272H20.3947ZM36.586 13.513C36.7244 13.5609 36.864 13.5826 37.0024 13.5826C37.6035 13.5826 38.1831 13.1876 38.3817 12.7371C38.3817 12.7371 37.2815 12.6696 36.0987 11.4497C35.723 11.0558 35.3237 10.9371 34.9824 10.9371C34.4511 10.9371 34.0518 11.2212 34.0518 11.2212C35.4815 11.9938 35.7724 13.2344 36.586 13.513ZM3.79027 13.5815C3.9298 13.5815 4.06934 13.5609 4.2035 13.5119C5.01924 13.2333 5.31333 11.9938 6.73979 11.2223C6.73979 11.2223 6.34051 10.9371 5.81243 10.9371C5.46896 10.9371 5.07076 11.0547 4.69294 11.4508C3.5112 12.6696 2.41211 12.7382 2.41211 12.7382C2.6096 13.1876 3.19028 13.5826 3.79027 13.5826V13.5815Z" fill="#FFFFFE"/>
<path fill-rule="evenodd" clip-rule="evenodd" d="M36.1574 22.4133C35.0518 21.8583 34.3542 20.3892 34.1846 19.8603C34.0021 22.7746 32.6014 24.7965 30.9646 26.7423C30.1145 27.7522 29.8182 28.7338 29.8182 28.7338C29.8182 28.7338 29.9825 27.6216 30.7166 26.7162C32.244 24.8531 33.6951 22.533 33.8035 19.8494C33.8776 17.9776 33.4043 16.4596 32.6637 15.2081C33.078 16.5107 33.0189 18.1071 31.6139 19.5969C31.6139 19.5969 34.4121 16.1929 30.5009 12.7019C28.936 11.3742 27.2229 10.5537 26.3417 9.97258C29.5263 11.0282 31.0826 9.86593 31.0826 9.86593C30.0651 10.7616 28.7481 10.7463 27.9313 10.6168C28.1535 10.7267 28.3843 10.8421 28.6311 10.9759C31.3177 12.4581 33.7305 14.8968 34.1427 18.2726V18.2464C34.7663 21.5623 36.1574 22.4133 36.1574 22.4133ZM36.9752 18.5501C36.9999 18.5522 37.0214 18.5522 37.0461 18.5522C38.5434 18.5522 39.05 16.9231 39.05 16.9231H39.021C38.7462 16.9231 36.5201 16.8578 34.9466 14.8261C33.9119 13.4908 33.0629 12.3166 31.3864 11.8552L31.2211 11.8248L31.1857 11.6539C31.1395 11.3938 31.3145 11.1501 31.7138 10.8878C34.0268 9.34902 32.4544 7.38585 32.4544 7.38585C32.4544 7.38585 31.7953 8.95508 30.3173 8.95508L30.2068 8.9529C30.0394 8.9442 29.8773 8.93876 29.7141 8.90285L29.4415 8.84843C29.4415 8.84843 29.8633 7.68402 28.8458 6.61646C28.0805 5.80899 27.1478 5.67188 26.6101 5.67188C26.3385 5.67188 26.1668 5.70779 26.1668 5.70779C26.6777 6.38576 27.0469 7.51208 26.4566 8.20637C25.9467 8.80273 24.7017 8.83211 24.7017 9.72229C24.7017 10.0988 25.0484 10.5385 25.6709 10.9335C27.5428 12.1306 29.4007 13.7194 30.1735 15.8491C31.1395 18.5043 30.0512 20.2673 28.4991 21.2783C28.4991 21.2783 28.9864 21.7331 29.6916 21.7919C29.8354 21.8061 29.976 21.8126 30.107 21.8126C31.5978 21.8126 32.3685 21.102 32.3685 21.102C32.3685 21.102 32.2408 22.0835 31.4669 22.9944C30.7499 23.8345 29.8107 24.3308 28.3778 24.3514C28.3778 24.3514 28.3328 25.0261 28.9671 25.6116C29.3739 25.9805 30.3109 26.1013 30.3109 26.1013C30.3109 26.1013 28.5549 26.4615 28.3607 29.0961C28.2555 30.5239 27.897 31.0191 27.897 31.0191H27.9281C32.0025 31.0191 31.8984 27.4692 31.8984 27.4692C31.8984 27.4692 32.1817 28.5205 33.3184 28.7947C33.4558 28.8317 33.6028 28.8458 33.7424 28.8458C34.1073 28.8458 34.4261 28.7588 34.4261 28.7588C34.4261 28.7588 33.8304 27.4834 34.4207 25.6998C34.9112 24.2187 34.8318 23.1217 34.8318 23.1217C34.8318 23.1217 35.3803 23.9651 36.7423 23.9727H36.7563C37.078 23.9778 37.3958 23.9004 37.6802 23.7479C37.9647 23.5953 38.2065 23.3725 38.3834 23.1C35.6668 21.9541 35.9352 18.2573 35.9352 18.2573C35.9352 18.2573 36.2872 18.525 36.9752 18.5511V18.5501ZM9.83171 26.7423C8.19487 24.7965 6.79417 22.7746 6.60956 19.8603C6.44105 20.3903 5.74445 21.8594 4.63999 22.4133C4.63999 22.4133 6.02889 21.5623 6.65249 18.2464V18.2726C7.06573 14.8968 9.47858 12.4581 12.1651 10.977C12.412 10.841 12.6438 10.7267 12.8639 10.6179C12.0481 10.7463 10.7301 10.7616 9.71364 9.86702C9.71364 9.86702 11.27 11.0282 14.4535 9.97258C13.5733 10.5537 11.8603 11.3742 10.2965 12.7019C6.38416 16.1929 9.18234 19.5969 9.18234 19.5969C7.77627 18.1061 7.71831 16.5118 8.13262 15.2081C7.39202 16.4596 6.91761 17.9776 6.99489 19.8505C7.10115 22.533 8.55122 24.8531 10.0754 26.7173C10.8138 27.6205 10.9802 28.7327 10.9802 28.7327C10.9802 28.7327 10.6796 27.7522 9.83171 26.7423ZM10.4864 26.1002C10.4864 26.1002 11.4235 25.9805 11.8303 25.6105C12.4635 25.0261 12.4195 24.3514 12.4195 24.3514C10.9855 24.3308 10.0474 23.8345 9.32724 22.9944C8.55659 22.0835 8.42779 21.102 8.42779 21.102C8.42779 21.102 9.19844 21.8126 10.6872 21.8126C10.8213 21.8126 10.9609 21.8061 11.1036 21.7919C11.5441 21.7467 11.9608 21.5677 12.2993 21.2783C10.7451 20.2673 9.65675 18.5043 10.6217 15.848C11.3945 13.7205 13.2513 12.1306 15.1254 10.9324C15.7468 10.5385 16.0925 10.0988 16.0925 9.72229C16.0925 8.83211 14.8495 8.80273 14.3397 8.20637C13.7494 7.51208 14.1197 6.38576 14.6295 5.70779C14.6295 5.70779 14.4588 5.67188 14.1862 5.67188C13.6496 5.67188 12.7168 5.80899 11.9505 6.61646C10.9308 7.68511 11.3548 8.84952 11.3548 8.84952L11.0821 8.90393C10.9201 8.93767 10.7558 8.9442 10.5884 8.95399L10.4811 8.95508C8.99987 8.95508 8.34192 7.38693 8.34192 7.38693C8.34192 7.38693 6.77163 9.34902 9.08467 10.8878C9.4818 11.1501 9.65675 11.3949 9.6106 11.6539L9.57518 11.8237L9.40667 11.8541C7.73334 12.3166 6.88433 13.4908 5.84749 14.8261C4.27399 16.8578 2.05004 16.9231 1.77419 16.9231H1.74414C1.74414 16.9231 2.25183 18.5522 3.7502 18.5522C3.77381 18.5522 3.79528 18.5522 3.82104 18.5501C4.50905 18.525 4.86217 18.2573 4.86217 18.2573C4.86217 18.2573 5.12836 21.9541 2.41283 23.1C2.41283 23.1 2.90763 23.9738 4.04107 23.9738H4.05395C5.41709 23.9651 5.96449 23.1217 5.96449 23.1217C5.96449 23.1217 5.88506 24.2198 6.37343 25.6998C6.96376 27.4845 6.37128 28.7577 6.37128 28.7577C6.37128 28.7577 6.68791 28.8448 7.05392 28.8448C7.1956 28.8448 7.3405 28.8317 7.47681 28.7947C8.6124 28.5205 8.89683 27.4692 8.89683 27.4692C8.89683 27.4692 8.79272 31.0191 12.8682 31.0191H12.8982C12.8982 31.0191 12.5408 30.5239 12.4367 29.0961C12.2435 26.4626 10.4854 26.1002 10.4854 26.1002H10.4864ZM19.4778 13.0196H21.399V13.6889C21.1736 13.4081 20.7336 13.4658 20.7336 13.4658V14.4311C20.7336 14.4311 20.7486 14.9056 20.9139 15.1112H19.9629C20.1293 14.9056 20.1432 14.4311 20.1432 14.4311V13.4658C20.1432 13.4658 19.7053 13.4081 19.4778 13.6889V13.0196ZM17.3848 13.1198C17.4513 13.1927 17.5168 13.2721 17.5801 13.3516C17.5951 13.3701 17.6091 13.3864 17.6241 13.4081C17.6831 13.4865 17.7422 13.5714 17.7991 13.6563L17.8377 13.7139C17.9053 13.8184 17.9697 13.9261 18.0341 14.0382C18.6223 15.0688 19.5625 15.6847 20.3965 15.6858C21.2327 15.6847 22.1718 15.0688 22.7611 14.0382C22.8266 13.924 22.892 13.813 22.9607 13.7085C23.0391 13.5868 23.1229 13.4688 23.2119 13.3548C23.2774 13.2721 23.345 13.1916 23.4137 13.1176C23.4255 13.1067 23.4351 13.0947 23.4469 13.0849C23.7475 12.7737 24.1027 12.5365 24.5707 12.4048L24.3625 12.2818H24.3518L23.5231 11.7943L22.6741 11.2991L20.403 12.555L20.3965 12.5495L20.3933 12.555L18.1221 11.2991L17.2721 11.7943L16.4434 12.2818H16.4338L16.2245 12.4048C16.6914 12.5354 17.0477 12.7704 17.3483 13.0828C17.3611 13.0936 17.3697 13.1089 17.3848 13.1198Z" fill="#FFFFFE"/>
<path fill-rule="evenodd" clip-rule="evenodd" d="M19.6737 8.76286V9.39404L19.5546 9.33745C19.5492 9.3331 19.3732 9.29392 19.0694 9.04798C18.566 8.65186 18.5564 8.28621 18.5564 8.28621L19.6726 8.76286H19.6737ZM20.1997 11.7196V7.79977L17.7439 6.95312L18.3922 10.7511L20.2007 11.7196H20.1997ZM21.1227 8.76286L22.239 8.28621C22.239 8.28621 22.2304 8.65186 21.7249 9.04798C21.4211 9.29283 21.2462 9.3331 21.2408 9.33745L21.1227 9.39295V8.76286ZM22.4032 10.7522L23.0483 6.95421L20.5936 7.79977V11.7196L22.4032 10.7511V10.7522ZM16.7263 20.8064C16.9657 20.8934 17.2555 20.9119 17.4047 20.9119C17.4101 20.8934 17.4186 20.8706 17.4262 20.8423C17.438 20.7987 17.4508 20.753 17.4605 20.7052C17.5024 20.4875 17.5163 20.2427 17.5206 20.0838C17.3833 20.001 17.2715 19.8812 17.1975 19.7377C17.1063 19.5429 16.9764 19.4515 16.7865 19.4515C16.5396 19.4515 16.2745 19.6039 16.1596 19.6735C16.0695 20.2155 16.4634 20.7073 16.7263 20.8053V20.8064ZM22.1596 18.7267C21.7045 19.2306 20.8104 20.1088 20.7674 20.1523L20.7138 20.2067L17.8909 20.1621C17.8886 20.3989 17.8583 20.6345 17.8008 20.864L17.7782 20.9544L21.1345 21.5681C21.4834 21.32 22.444 20.6072 22.8175 20.3275C22.546 19.9249 22.5202 19.4472 22.5814 19.112C22.4202 19.0088 22.2776 18.8785 22.1596 18.7267Z" fill="#FFFFFE"/>
<path fill-rule="evenodd" clip-rule="evenodd" d="M22.5438 15.2784C21.8934 15.9336 21.2697 16.1762 20.7127 16.2328C20.6107 16.244 20.5083 16.2498 20.4057 16.2502H20.3918C20.1868 16.2502 19.9825 16.2283 19.7821 16.1849C19.7456 16.3318 19.6995 16.6398 19.8315 16.9315C19.9495 17.1959 20.1889 17.3929 20.5388 17.5245L20.6569 17.5713L20.6579 17.6998C20.6579 17.7378 20.6859 18.5714 21.581 18.8032C21.727 18.6509 21.8601 18.5127 21.9567 18.3962C21.7742 17.9598 21.8708 17.5137 22.1359 17.2949C22.1252 17.3417 22.0071 18.4354 22.8712 18.8424L23.0139 18.911L22.971 19.0644C22.957 19.1112 22.6694 20.1701 23.7159 20.564L23.9005 20.6358L23.8178 20.8176C23.7996 20.8578 23.3896 21.8187 24.3556 22.365H26.4497V20.675C25.7048 20.5825 25.3903 19.9742 25.3087 19.5432C24.962 19.4834 24.6948 19.3321 24.5112 19.0851C24.0711 18.4974 24.449 17.9588 24.4543 17.9294C24.4533 17.9337 24.4543 18.5061 24.8021 18.8609C24.9749 19.0307 25.1788 19.1634 25.489 19.1928L25.6404 19.207L25.6532 19.3648C25.6565 19.3985 25.7391 20.1744 26.4497 20.2963L26.4486 16.8466C26.4486 16.3112 26.6021 15.7736 26.7867 15.2773H22.5438V15.2784ZM16.9056 16.8596L16.8498 19.0557L17.0966 19.0949L17.6977 16.987L17.3918 16.3384L16.9066 16.8596H16.9056ZM18.2086 24.9931C18.1921 24.9926 18.1759 24.9886 18.1609 24.9815C18.146 24.9744 18.1326 24.9643 18.1216 24.9518C18.1107 24.9392 18.1024 24.9246 18.0972 24.9086C18.092 24.8927 18.0901 24.8759 18.0916 24.8593C18.0926 24.8428 18.0967 24.8266 18.1039 24.8118C18.1111 24.7969 18.1212 24.7837 18.1334 24.7729C18.1457 24.762 18.1601 24.7538 18.1755 24.7486C18.191 24.7435 18.2074 24.7415 18.2236 24.7428C18.2945 24.7461 18.3438 24.8081 18.3417 24.8756C18.3392 24.909 18.3239 24.94 18.2989 24.962C18.274 24.984 18.2416 24.9952 18.2086 24.9931ZM23.5345 26.9378C23.5527 26.9378 23.5742 26.94 23.5935 26.9454C23.9692 27.0542 24.0626 28.4232 24.7184 28.5451C24.7828 28.5593 24.8429 28.5625 24.8944 28.5625C25.0844 28.5625 25.1971 28.4809 25.3194 28.334C25.3194 28.334 24.9888 27.8084 24.742 27.4525C24.4146 26.9868 24.1602 26.4241 23.5495 26.4241C23.5345 26.4241 23.5173 26.4241 23.5012 26.4263C23.3849 26.4311 23.2724 26.4696 23.1771 26.5373C22.9732 26.4006 22.7345 26.3269 22.4901 26.3251C22.1091 26.3251 21.8107 26.5036 21.6615 26.5036H21.6561L20.293 26.3665C20.0794 26.3447 19.9109 26.127 19.8497 26.0422L19.8261 26.0052C19.8261 25.9671 19.8261 25.929 19.824 25.8953C19.7778 24.7624 18.9149 24.2781 18.6068 24.2694C18.6068 24.2694 18.6433 24.054 18.5607 23.9723L18.2601 24.3423L17.2727 23.8396L17.9768 24.6753L17.3811 25.3555C17.3059 25.4328 17.3156 25.5372 17.3467 25.5818L17.6043 25.8125L17.9306 25.6112C17.9467 25.5993 17.9768 25.5949 18.0133 25.5949C18.1034 25.5949 18.2387 25.6188 18.3599 25.6188C18.4941 25.6188 18.609 25.5905 18.6229 25.4632C18.5821 25.8833 18.1979 26.6135 18.4501 27.187L18.6369 27.6201L17.4315 27.4438L16.8669 28.4113C16.6931 28.7334 16.6651 29.0816 16.8326 29.271L17.044 29.5398C17.044 29.5398 17.3403 29.2209 17.4057 29.0109L17.3102 28.9042C17.2297 28.8139 17.234 28.7334 17.2834 28.6365L17.6376 28.0402L19.0598 28.3808L19.1349 28.2502C19.2315 28.087 19.371 28.0391 19.5234 28.0391C19.5868 28.0391 19.6512 28.0467 19.7177 28.0576C19.9817 28.1109 20.4164 28.1816 20.8511 28.1816C21.3288 28.1816 21.8021 28.0946 22.0544 27.8084C22.5696 28.5843 23.615 28.7073 23.5323 29.1023L23.2576 30.4321C23.44 30.4234 23.615 30.4114 23.7813 30.3886L24.0432 29.0054C24.0645 28.888 24.0831 28.7701 24.0991 28.6518C23.9982 28.5473 23.7545 28.3285 23.6161 28.0619C23.4325 27.7017 23.5323 27.5135 23.3606 27.0455C23.3606 27.0455 23.4143 26.9367 23.5345 26.9367V26.9378Z" fill="#FFFFFE"/>
<path fill-rule="evenodd" clip-rule="evenodd" d="M16.2631 28.1952C16.2631 28.1952 16.7353 27.9993 16.7783 27.8578L16.7139 27.699C16.6698 27.5945 16.6752 27.4813 16.7622 27.4204L17.2709 27.0623L18.1221 27.2288C18.1221 27.2288 17.9675 27.033 17.9825 26.7718L17.1711 26.5977L16.4047 27.071C16.271 27.1716 16.1744 27.3146 16.1302 27.4773C16.086 27.6401 16.0969 27.8131 16.1611 27.9688L16.2631 28.1963V28.1952ZM22.2812 30.45C22.4326 30.4435 22.6022 30.4413 22.7857 30.4413C22.7857 30.4413 23.2236 29.1409 23.2483 29.0995C22.9231 28.9457 22.6057 28.7753 22.2973 28.5891C22.4272 28.7872 22.7428 29.0125 22.6805 29.1866L22.2812 30.45Z" fill="#FFFFFE"/>
<path fill-rule="evenodd" clip-rule="evenodd" d="M26.4495 22.7361H14.3477V27.36C14.3477 29.2514 15.6947 30.4343 17.6836 30.4343C19.344 30.4343 19.782 30.4996 20.3991 31.1231C20.8252 30.6911 21.1773 30.5311 21.9018 30.4702L21.9179 30.3995L22.2989 29.2013C22.2775 29.1741 21.6549 28.4548 21.6549 28.4548C21.4081 28.5386 21.1998 28.5527 20.8499 28.5527C20.4925 28.5527 20.0879 28.5092 19.6489 28.4265C19.6077 28.4166 19.5656 28.4115 19.5233 28.4113C19.4696 28.4113 19.4664 28.4156 19.4514 28.4428L19.3762 28.5701L19.2367 28.803L18.9759 28.741L17.8145 28.4635L17.6546 28.7301L17.6793 28.7595L17.8199 28.9173L17.7577 29.124C17.6718 29.3928 17.3949 29.7073 17.3101 29.7944L17.0203 30.11L16.7552 29.7715L16.5566 29.518C16.3473 29.2808 16.299 28.9173 16.4171 28.5364C16.4136 28.539 16.4095 28.5405 16.4053 28.5408L16.0779 28.679L15.9308 28.3525L15.8267 28.1229C15.7268 27.8879 15.7088 27.6255 15.7757 27.3788C15.8426 27.1321 15.9905 26.9159 16.1949 26.7658L17.1287 26.2293L18.0195 26.4067C18.041 26.3197 18.0732 26.0106 18.0979 25.9312C18.0807 25.929 18.0646 25.9257 18.0475 25.9257L17.5344 26.1194L17.0407 25.7734C17.0407 25.7734 16.8475 25.584 17.0224 25.3947L17.5001 24.6579L16.2872 23.1126L18.1516 23.8896L18.2761 23.734L18.5272 23.4271L18.8127 23.7035C18.8878 23.778 18.94 23.8728 18.963 23.9767C19.4761 24.1802 20.397 24.7798 20.4786 25.7549L20.1909 25.8713V25.8789C20.2564 25.9584 20.3111 25.991 20.3283 25.9943L21.6592 26.127C21.6936 26.1205 21.7344 26.1053 21.7816 26.0922C21.9479 26.0345 22.1959 25.9508 22.49 25.9508C22.7304 25.9508 22.9622 26.0073 23.1844 26.114C23.2671 26.0813 23.3669 26.0585 23.485 26.0509L23.5494 26.0487C24.261 26.0487 24.6152 26.5895 24.8996 27.0216C24.9468 27.0967 24.9941 27.1663 25.0434 27.236C25.2925 27.5929 25.6177 28.1142 25.6306 28.137L25.7776 28.3688L25.5973 28.5821C25.4599 28.7453 25.2506 28.9358 24.8942 28.9358C24.8135 28.9351 24.733 28.9267 24.6538 28.9108C24.5808 28.8965 24.5095 28.8743 24.4413 28.8444C24.4304 28.9212 24.4179 28.9977 24.4037 29.074L24.1708 30.3113C25.5662 29.9631 26.4527 28.8923 26.4527 27.36L26.4495 22.7361ZM14.3477 22.3639H23.7608C23.2907 21.8699 23.2982 21.2463 23.4173 20.8404C23.2904 20.7786 23.1723 20.6995 23.0664 20.6053C22.6982 20.8807 21.5755 21.711 21.2825 21.9199L21.2192 21.9635L17.5247 21.2844H17.4496C17.3616 21.2844 17.2317 21.2811 17.09 21.2626C17.0749 21.3314 17.0404 21.3943 16.9907 21.4436C16.9411 21.4929 16.8784 21.5266 16.8102 21.5405C16.7421 21.5544 16.6714 21.548 16.6068 21.5221C16.5421 21.4961 16.4863 21.4518 16.446 21.3943C16.4177 21.3551 16.3975 21.3105 16.3864 21.2632C16.3754 21.216 16.3737 21.1669 16.3816 21.119L16.3956 21.0374C16.0156 20.7653 15.6625 20.1559 15.8192 19.5138L15.8342 19.4464L15.8879 19.4072C15.9421 19.3697 15.9979 19.3349 16.0553 19.3027L15.787 19.2592C15.7394 19.2509 15.6968 19.2241 15.6683 19.1845C15.6398 19.1448 15.6278 19.0955 15.6346 19.047C15.6518 18.9447 15.7452 18.8729 15.845 18.8914L16.4836 18.9937L16.5426 16.7073L17.4936 15.6843L18.0882 16.9543L17.4614 19.1547L18.026 19.245C18.0742 19.2531 18.1173 19.2801 18.1459 19.3203C18.1745 19.3605 18.1861 19.4105 18.1784 19.4594C18.1715 19.5028 18.1495 19.5422 18.1164 19.5705C18.0834 19.5989 18.0414 19.6143 17.9981 19.614L17.9691 19.6129L17.5086 19.5367C17.5151 19.5519 17.5237 19.5595 17.5301 19.5748C17.5814 19.6649 17.6585 19.737 17.7512 19.7815L20.5666 19.8283C20.6857 19.7097 20.9809 19.4159 21.2857 19.1047C21.0204 19.0059 20.7874 18.8342 20.613 18.6087C20.4386 18.3832 20.3296 18.113 20.2982 17.8282C19.9118 17.6606 19.6435 17.4103 19.4954 17.0838C19.3151 16.679 19.3795 16.2742 19.4278 16.0772C19.0521 15.939 18.6571 15.6843 18.2535 15.2773H14.0117C14.1942 15.7736 14.3477 16.3112 14.3477 16.8455V22.3628V22.3639Z" fill="white"/>
<path fill-rule="evenodd" clip-rule="evenodd" d="M18.2217 24.7446C18.2053 24.7432 18.1889 24.7452 18.1733 24.7505C18.1578 24.7557 18.1434 24.764 18.1311 24.775C18.1188 24.786 18.1088 24.7993 18.1017 24.8143C18.0945 24.8292 18.0905 24.8455 18.0896 24.8621C18.0883 24.8787 18.0903 24.8954 18.0956 24.9112C18.1008 24.9269 18.1092 24.9415 18.1201 24.9539C18.131 24.9663 18.1443 24.9763 18.1592 24.9834C18.1741 24.9904 18.1902 24.9943 18.2066 24.9949C18.2394 24.997 18.2717 24.986 18.2966 24.9642C18.3215 24.9424 18.337 24.9116 18.3397 24.8784C18.3415 24.8448 18.3301 24.8119 18.3079 24.7868C18.2858 24.7617 18.2548 24.7465 18.2217 24.7446ZM23.8309 34.4407L23.2781 32.8954C23.9361 32.6919 25.0663 32.2545 25.574 31.9639L25.2359 33.0881L26.3811 33.4744C25.6878 33.827 24.8484 34.1567 23.8309 34.4397V34.4407ZM20.3984 35.8282C19.0664 35.8282 17.5465 35.517 17.0979 35.3549L17.7784 33.4853C18.343 33.6529 19.5172 33.8302 20.3705 33.8248H20.4241C21.2764 33.8302 22.4495 33.6518 23.0173 33.4853L23.6967 35.3549C23.2481 35.5181 21.7282 35.8282 20.3984 35.8282ZM14.4135 33.4744L15.5598 33.0881L15.2206 31.9639C15.7262 32.2545 16.8596 32.693 17.5154 32.8954L16.9626 34.4407C15.9483 34.1578 15.1058 33.827 14.4135 33.4744ZM26.4327 33.1316L25.735 32.8595L25.9282 32.1282L26.1396 31.3306C26.1396 31.3306 24.9053 32.0118 23.1633 32.5222C22.6696 32.6658 22.296 32.7322 22.296 32.7322V33.2752C22.296 33.2752 21.3644 33.4385 20.4241 33.4385H20.3705C19.4281 33.4385 18.4986 33.2752 18.4986 33.2752V32.7311C18.4986 32.7311 18.124 32.6658 17.6303 32.5222C15.8904 32.0107 14.6561 31.3306 14.6561 31.3306L14.8643 32.1282L15.0618 32.8595L14.362 33.1316L13.5859 33.4254C14.4747 33.8618 15.7068 34.4962 16.8338 34.8097L16.5687 35.5475C16.5687 35.5475 17.9984 36.2091 20.3801 36.2156V36.2167H20.4123V36.2156C22.7973 36.2091 24.227 35.5475 24.227 35.5475L23.9586 34.8097C25.0867 34.4962 26.321 33.8629 27.2055 33.4254L26.4327 33.1316ZM17.4864 3.36074L17.8031 3.39556L17.9394 3.10174L18.3387 2.23442L19.0793 2.624L19.3669 2.77309L20.3952 1.73709L21.1969 2.54239L21.4266 2.77309L21.7143 2.624L22.4506 2.23442L22.8563 3.10174L22.9905 3.39556L23.3071 3.36074L23.6098 3.32483C23.4713 3.6415 23.3694 3.94294 23.2953 4.19324C22.4957 3.73944 21.4567 3.48262 20.3962 3.48262C19.3401 3.48262 18.3011 3.73944 17.4982 4.19324C17.4116 3.89745 17.307 3.60742 17.1848 3.32483L17.4854 3.36074H17.4864ZM20.3952 3.93424C21.8152 3.93424 22.9497 4.41306 23.5776 4.92127C23.5776 4.92127 23.7644 3.78189 24.3998 2.77744L23.2567 2.90803L22.6588 1.61847L21.5104 2.22027L20.3952 1.10156L19.2843 2.22027L18.1337 1.61847L17.5369 2.90912L16.3938 2.77636C17.0303 3.78189 17.216 4.92018 17.216 4.92018C17.8471 4.41197 18.9784 3.93424 20.3952 3.93424ZM38.3821 23.0992C38.3821 23.0992 37.8883 23.973 36.7549 23.973H36.741C35.38 23.9643 34.8304 23.1209 34.8304 23.1209C34.8304 23.1209 34.9099 24.2179 34.4204 25.6989C33.8301 27.4837 34.4247 28.7569 34.4247 28.7569C34.4247 28.7569 34.107 28.845 33.741 28.845C33.6015 28.845 33.4555 28.8309 33.317 28.7939C32.1804 28.5207 31.897 27.4695 31.897 27.4695C31.897 27.4695 32.0022 31.0182 27.9267 31.0182H27.8945C27.8945 31.0182 28.2541 30.5231 28.3604 29.0953C28.5536 26.4618 30.3095 26.0994 30.3095 26.0994C30.3095 26.0994 29.3725 25.9797 28.9657 25.6108C28.3314 25.0264 28.3754 24.3506 28.3754 24.3506C29.8094 24.3299 30.7496 23.8348 31.4655 22.9936C31.9269 22.4554 32.2381 21.8021 32.3671 21.1012C32.3671 21.1012 31.5965 21.8118 30.1056 21.8118C29.9747 21.8118 29.8351 21.8052 29.6913 21.7911C28.9851 21.7334 28.4978 21.2774 28.4978 21.2774C30.0498 20.2665 31.1382 18.5024 30.1732 15.8472C29.4004 13.7197 27.5414 12.1297 25.6706 10.9327C25.0481 10.5377 24.7003 10.098 24.7003 9.72039C24.7003 8.8313 25.9454 8.803 26.4563 8.20556C27.0466 7.51127 26.6763 6.38494 26.1654 5.70697C26.1654 5.70697 26.3371 5.67106 26.6087 5.67106C27.1475 5.67106 28.0792 5.80818 28.8455 6.61565C29.862 7.6843 29.4401 8.84871 29.4401 8.84871L29.7128 8.90312C29.8759 8.93686 30.038 8.94447 30.2065 8.95318L30.316 8.95427C31.794 8.95427 32.4541 7.38503 32.4541 7.38503C32.4541 7.38503 34.0254 9.34821 31.7124 10.887C31.3142 11.1492 31.1382 11.3941 31.1843 11.6531L31.2208 11.8239L31.385 11.8533C33.0616 12.3158 33.9106 13.4911 34.9463 14.8253C36.5199 16.857 38.7459 16.9223 39.0196 16.9223H39.0497C39.0497 16.9223 38.542 18.5514 37.0447 18.5514C37.02 18.5514 36.9986 18.5514 36.9739 18.5492C36.2869 18.5242 35.9327 18.2565 35.9327 18.2565C35.9327 18.2565 35.6655 21.9532 38.3821 23.0992ZM37.0447 19.0498C38.8801 19.0498 39.4941 17.153 39.5198 17.0725L39.7238 16.4032L39.0368 16.425H39.0347C38.791 16.425 36.7667 16.3706 35.3317 14.5173L35.1954 14.3454C34.2573 13.1342 33.3675 11.9817 31.7768 11.4561C31.8404 11.3997 31.9082 11.3484 31.9797 11.3027C32.8233 10.739 33.3149 10.0545 33.4372 9.25897C33.6186 8.063 32.8662 7.10971 32.834 7.07053L32.3231 6.42847L32.0033 7.19024C31.9818 7.23703 31.4451 8.45586 30.316 8.45586H30.2323C30.155 8.45259 30.0809 8.44933 30.0079 8.4428C30.0477 7.89868 29.95 7.05856 29.1986 6.2685C28.296 5.31847 27.1883 5.17592 26.6087 5.17592C26.2996 5.17592 26.0935 5.21509 26.071 5.21727L25.2992 5.37289L25.7747 6.0095C26.1482 6.50139 26.4874 7.40789 26.086 7.88127C25.9572 8.03362 25.6931 8.15442 25.4409 8.27739C24.9214 8.52006 24.2109 8.85959 24.2109 9.72039C24.2109 10.2776 24.637 10.8619 25.4098 11.3571C27.6938 12.8164 29.1042 14.3399 29.7128 16.0213C30.6552 18.6069 29.4262 20.0826 28.2316 20.8596L27.6971 21.2089L28.1661 21.6464C28.2294 21.7029 28.8015 22.2155 29.6484 22.2895C29.8094 22.3004 29.9629 22.3091 30.1067 22.3091C30.6487 22.3091 31.1113 22.222 31.487 22.1067C31.3747 22.3054 31.2439 22.4927 31.0963 22.666C30.4147 23.4692 29.5754 23.8348 28.3679 23.8544L27.9192 23.8609L27.8849 24.318C27.8806 24.4105 27.8473 25.2582 28.6362 25.9786C28.7575 26.0896 28.9035 26.1821 29.057 26.2561C28.5203 26.7458 27.9772 27.599 27.872 29.0594C27.7829 30.2782 27.4963 30.7299 27.4931 30.7353L26.9972 31.5036L27.8935 31.5156C29.3736 31.5156 30.507 31.102 31.2916 30.2793C31.698 29.8472 32.0013 29.3264 32.1782 28.7569C32.6141 29.1337 33.1682 29.3405 33.741 29.3402C34.1596 29.3402 34.5095 29.2499 34.5481 29.2412L35.1202 29.0866L34.868 28.5447C34.8487 28.5012 34.3721 27.4129 34.8852 25.86C35.1063 25.1886 35.219 24.5879 35.2737 24.1188C35.6344 24.3104 36.1163 24.4671 36.7399 24.4692C38.1567 24.4692 38.7803 23.3952 38.8082 23.3505L39.0873 22.8565L38.5699 22.641C36.8826 21.9293 36.5091 20.0184 36.434 18.9845C36.5875 19.0139 36.7613 19.0411 36.9578 19.0466L37.0447 19.0498Z" fill="#1A1919"/>
<path fill-rule="evenodd" clip-rule="evenodd" d="M34.9837 10.9369C35.3251 10.9369 35.7243 11.0555 36.1 11.4505C37.2828 12.6694 38.383 12.7379 38.383 12.7379C38.1833 13.1874 37.6037 13.5824 37.0038 13.5824C36.8653 13.5824 36.7247 13.5606 36.5884 13.5117C35.7737 13.2331 35.4828 11.9936 34.0542 11.222C34.0542 11.222 34.4514 10.9369 34.9837 10.9369ZM33.8213 11.6617C34.505 12.0317 34.9043 12.529 35.2542 12.9686C35.5977 13.3985 35.9229 13.812 36.4349 13.984C36.6152 14.0471 36.8073 14.0775 37.0038 14.0775C37.769 14.0775 38.5386 13.6009 38.8306 12.9414L39.1236 12.282L38.4141 12.2384C38.3808 12.2384 37.4674 12.1525 36.4521 11.099C36.0335 10.6659 35.5279 10.4396 34.9837 10.4396C34.3183 10.4396 33.8245 10.7769 33.7709 10.8118L33.1183 11.2786L33.8213 11.6617ZM34.1422 18.2466V18.2716C33.7301 14.8959 31.3172 12.4583 28.6307 10.9761C28.3838 10.8411 28.153 10.7258 27.9309 10.617C28.7477 10.7454 30.0647 10.7606 31.0822 9.86608C31.0822 9.86608 29.5258 11.0272 26.3413 9.97163C27.2214 10.5528 28.9355 11.3733 30.5004 12.7009C34.4106 16.192 31.6135 19.596 31.6135 19.596C33.0195 18.1062 33.0775 16.5108 32.6632 15.2071C33.4038 16.4586 33.8761 17.9767 33.8031 19.8495C33.6957 22.532 32.2435 24.8522 30.7162 26.7163C29.982 27.6195 29.8189 28.7317 29.8189 28.7317C29.8189 28.7317 30.1151 27.7512 30.9641 26.7424C32.6009 24.7945 34.0016 22.7736 34.1841 19.8593C34.3537 20.3893 35.0514 21.8584 36.1569 22.4123C36.1569 22.4123 34.7669 21.5613 34.1422 18.2466ZM12.8688 31.0181C8.79333 31.0181 8.89745 27.4694 8.89745 27.4694C8.89745 27.4694 8.61194 28.5206 7.47743 28.7938C7.33884 28.8291 7.19636 28.8463 7.05346 28.8449C6.68853 28.8449 6.37082 28.7578 6.37082 28.7578C6.37082 28.7578 6.96437 27.4824 6.37297 25.6988C5.88567 24.2188 5.9651 23.1208 5.9651 23.1208C5.9651 23.1208 5.41663 23.9642 4.05457 23.9729H4.04061C2.90825 23.9729 2.41344 23.099 2.41344 23.099C5.12897 21.9531 4.86279 18.2564 4.86279 18.2564C4.86279 18.2564 4.50859 18.5241 3.82165 18.5502H3.74974C2.25137 18.5502 1.74368 16.9222 1.74368 16.9222H1.77481C2.05173 16.9222 4.2746 16.8569 5.84703 14.8252C6.8828 13.4899 7.73288 12.3157 9.40621 11.8543L9.57472 11.8238L9.61014 11.653C9.65737 11.394 9.48134 11.1491 9.08421 10.8868C6.77117 9.34807 8.34146 7.38599 8.34146 7.38599C8.34146 7.38599 8.99834 8.95413 10.4806 8.95413L10.5879 8.95305C10.7554 8.94434 10.9196 8.93672 11.0817 8.9019L11.3543 8.84857C11.3543 8.84857 10.9314 7.68416 11.9511 6.61552C12.7174 5.80805 13.648 5.67093 14.1858 5.67093C14.4595 5.67093 14.628 5.70684 14.628 5.70684C14.1192 6.38481 13.75 7.51113 14.3382 8.20543C14.8491 8.80287 16.0931 8.83116 16.0931 9.72025C16.0931 10.0979 15.7464 10.5375 15.1249 10.9325C13.252 12.1296 11.394 13.7184 10.6212 15.8481C9.65736 18.5034 10.7457 20.2663 12.2988 21.2784C12.2988 21.2784 11.8105 21.7333 11.1042 21.791C10.9658 21.8045 10.8268 21.8114 10.6878 21.8116C9.19798 21.8116 8.42733 21.1021 8.42733 21.1021C8.42733 21.1021 8.55613 22.0826 9.32678 22.9945C10.0459 23.8347 10.9851 24.3298 12.418 24.3505C12.418 24.3505 12.4641 25.0252 11.8298 25.6107C11.423 25.9807 10.486 26.1004 10.486 26.1004C10.486 26.1004 12.243 26.4617 12.4362 29.0952C12.5414 30.523 12.8978 31.0181 12.8978 31.0181H12.8688ZM13.3013 30.7352C13.3003 30.7297 13.0158 30.2781 12.9246 29.0593C12.8173 27.5989 12.2742 26.7457 11.7364 26.256C11.892 26.182 12.0369 26.0895 12.1572 25.9785C12.9461 25.2581 12.9128 24.4114 12.9074 24.3178L12.8774 23.8608L12.4255 23.8542C11.2212 23.8347 10.3808 23.469 9.69922 22.6659C9.5523 22.492 9.42152 22.3048 9.30853 22.1065C9.6842 22.223 10.1436 22.309 10.6878 22.309C10.8327 22.309 10.9851 22.3003 11.145 22.2894C11.6928 22.2339 12.2108 22.0099 12.6294 21.6473L13.0985 21.2088L12.564 20.8605C11.3661 20.0824 10.1414 18.6079 11.0828 16.0211C11.6913 14.3398 13.0985 12.8174 15.3868 11.357C16.1596 10.8618 16.5825 10.2774 16.5825 9.72025C16.5825 8.85946 15.8741 8.51993 15.3546 8.27725C15.1013 8.15428 14.8373 8.0324 14.7095 7.88113C14.307 7.40775 14.6451 6.50125 15.0197 6.00937L15.4984 5.37275L14.7224 5.21713C14.701 5.21387 14.497 5.17578 14.1858 5.17578C13.6072 5.17578 12.5006 5.31834 11.599 6.26837C10.8466 7.05843 10.7479 7.89963 10.7865 8.44266C10.7135 8.44919 10.6405 8.45246 10.5633 8.45572H10.4806C9.34717 8.45572 8.81265 7.2369 8.79226 7.1901L8.47348 6.42834L7.95828 7.0704C7.9293 7.10958 7.17475 8.06287 7.35936 9.25884C7.48065 10.0533 7.97223 10.7388 8.81587 11.3025C8.90818 11.3624 8.97151 11.4135 9.01766 11.456C7.42483 11.9816 6.53719 13.134 5.59909 14.3453L5.46385 14.5172C4.02988 16.3705 2.00021 16.426 1.75763 16.426L1.06641 16.4042L1.27678 17.0724C1.30147 17.1529 1.91327 19.0497 3.74974 19.0497L3.83775 19.0464C4.03203 19.041 4.20698 19.0138 4.36154 18.9833C4.28641 20.0171 3.91074 21.9292 2.22346 22.6398L1.70826 22.8574L1.98733 23.3504C2.01309 23.395 2.63991 24.4691 4.05886 24.4691C4.56672 24.4742 5.06827 24.3548 5.52074 24.1209C5.57548 24.5888 5.68925 25.1884 5.91036 25.8599C6.42341 27.4117 5.94578 28.501 5.92753 28.5445L5.67423 29.0865L6.24631 29.2399C6.28495 29.2508 6.63701 29.34 7.05346 29.34C7.62645 29.3415 8.18096 29.1346 8.61623 28.7568C8.77187 29.2432 9.03913 29.7927 9.50173 30.2792C10.2896 31.1008 11.4219 31.5154 12.901 31.5154L13.7972 31.5035L13.3013 30.7352Z" fill="#1A1919"/>
<path fill-rule="evenodd" clip-rule="evenodd" d="M4.69507 11.4487C5.07288 11.0536 5.47109 10.9339 5.81455 10.9339C6.34263 10.9339 6.74299 11.2201 6.74299 11.2201C5.31545 11.9928 5.02136 13.2312 4.20563 13.5109C4.07278 13.5576 3.933 13.5807 3.79239 13.5794C3.1924 13.5794 2.61173 13.1855 2.41423 12.736C2.41423 12.736 3.51333 12.6675 4.69507 11.4487ZM3.79239 14.0757C3.98881 14.0757 4.18094 14.0452 4.36341 13.9821C4.87432 13.8101 5.20061 13.3977 5.54407 12.9667C5.89505 12.5282 6.29004 12.0309 6.97483 11.6609L7.67893 11.2767L7.0242 10.8088C6.97054 10.775 6.48002 10.4388 5.81455 10.4388C5.2693 10.4388 4.76269 10.664 4.34516 11.0972C3.32871 12.1517 2.41745 12.2365 2.38418 12.2376L1.67578 12.2801L1.96558 12.9406C2.25967 13.599 3.02818 14.0757 3.79239 14.0757ZM6.99415 19.8477C6.91901 17.9748 7.39128 16.4567 8.13188 15.2052C7.71972 16.509 7.77553 18.1043 9.18375 19.5952C9.18375 19.5952 6.3845 16.189 10.2968 12.7001C11.8617 11.3714 13.5737 10.5509 14.4538 9.96974C11.2703 11.0253 9.71505 9.8631 9.71505 9.8631C10.7315 10.7587 12.0485 10.7446 12.8653 10.614C12.6442 10.7239 12.4123 10.8382 12.1655 10.9742C9.47891 12.4553 7.06713 14.894 6.65283 18.2697V18.2447C6.02922 21.5595 4.64033 22.4104 4.64033 22.4104C5.74586 21.8554 6.44138 20.3863 6.61097 19.8575C6.79558 22.7717 8.19521 24.7937 9.83097 26.7405C10.681 27.7493 10.9794 28.7298 10.9794 28.7298C10.9794 28.7298 10.8141 27.6187 10.0768 26.7144C8.55263 24.8503 7.10148 22.5302 6.99415 19.8477ZM19.4781 13.0168V13.6872C19.7056 13.4053 20.1436 13.463 20.1436 13.463V14.4282C20.1436 14.4282 20.1296 14.9027 19.9632 15.1084H20.9142C20.7489 14.9027 20.7328 14.4282 20.7328 14.4282V13.463C20.7328 13.463 21.1729 13.4053 21.3983 13.6872V13.0168H19.477H19.4781ZM19.0702 9.04692C19.374 9.29177 19.55 9.33313 19.5554 9.33639L19.6734 9.39189V8.7618L18.5572 8.28516C18.5572 8.28516 18.5668 8.6508 19.0702 9.04692ZM21.7256 9.04692C22.2301 8.6508 22.2408 8.28516 22.2408 8.28516L21.1235 8.7618V9.39298L21.2416 9.33639C21.2469 9.33313 21.4219 9.29177 21.7256 9.04692Z" fill="#1A1919"/>
<path fill-rule="evenodd" clip-rule="evenodd" d="M20.3983 7.36942L17.7074 6.28989C17.9361 5.73924 18.9912 5.2713 20.3983 5.27021C21.8065 5.2713 22.8616 5.73924 23.0902 6.28989L20.3983 7.36942ZM22.4044 10.7527L20.5958 11.7213V7.79927L23.0505 6.95262L22.4044 10.7506V10.7527ZM23.5249 11.7931L24.3514 12.2806H24.3632L24.5714 12.4036C24.1045 12.5342 23.7471 12.7725 23.4476 13.0837L23.4154 13.1164C23.3448 13.1928 23.2771 13.2719 23.2126 13.3536L23.175 13.4037C23.1106 13.4875 23.0494 13.5734 22.9925 13.6627L22.9614 13.7073C22.8918 13.8151 22.8256 13.925 22.7628 14.037C22.1725 15.0676 21.2333 15.6835 20.3983 15.6857C19.5632 15.6835 18.623 15.0676 18.0348 14.037C17.9723 13.9271 17.9068 13.819 17.8384 13.7127L17.7998 13.6551C17.7437 13.571 17.6857 13.4883 17.6259 13.4069C17.6108 13.3852 17.5969 13.3689 17.5819 13.3504C17.5188 13.271 17.4533 13.1937 17.3854 13.1186C17.3715 13.1077 17.3618 13.0935 17.349 13.0816C17.0423 12.756 16.6537 12.5215 16.2252 12.4036L16.4355 12.2806H16.4441L17.2738 11.7931L18.1228 11.2979L20.394 12.5538L20.3983 12.5494L20.4047 12.5538L22.6748 11.2979L23.5249 11.7931ZM26.7878 15.2798C26.6022 15.776 26.4487 16.3136 26.4487 16.8479L26.4508 20.2977C25.7413 20.1779 25.6566 19.4009 25.6544 19.3672L25.6415 19.2094L25.488 19.1953C25.2278 19.172 24.9846 19.0541 24.8033 18.8634C24.4544 18.5097 24.4544 17.9373 24.4544 17.9318C24.4501 17.9612 24.0723 18.4977 24.5102 19.0854C24.6948 19.3335 24.9632 19.4869 25.3088 19.5468C25.3904 19.9766 25.7059 20.5849 26.4508 20.6785V22.3653H24.3567C23.3907 21.8201 23.7997 20.8603 23.819 20.8189L23.9006 20.6361L23.716 20.5654C22.6695 20.1714 22.9582 19.1115 22.9721 19.0658L23.0151 18.9112L22.8713 18.8438C22.0083 18.4368 22.1253 17.342 22.1371 17.2963C21.8709 17.515 21.7754 17.9601 21.9578 18.3987C21.8591 18.514 21.726 18.6522 21.5811 18.8046C21.329 18.7488 21.102 18.6104 20.9352 18.4107C20.7683 18.2111 20.671 17.9614 20.658 17.7L20.657 17.5716L20.5389 17.5259C20.1901 17.3953 19.9507 17.1973 19.8316 16.9328C19.6996 16.6401 19.7457 16.3343 19.7822 16.1852C19.9828 16.2274 20.187 16.2493 20.3919 16.2505H20.4058C20.5099 16.2505 20.6119 16.244 20.7128 16.2342C21.2709 16.1776 21.8934 15.9349 22.5439 15.2798H26.7878ZM24.1711 30.3138L24.405 29.0764L24.4426 28.8479C24.587 28.9053 24.7405 28.9359 24.8956 28.9382C25.2519 28.9382 25.4601 28.7467 25.5986 28.5846L25.7768 28.3724L25.6308 28.1395C25.6179 28.1166 25.2927 27.5954 25.0437 27.2384C24.9942 27.1679 24.9466 27.096 24.9009 27.0229C24.6165 26.592 24.2612 26.0511 23.5485 26.0511L23.4852 26.0533C23.3826 26.0589 23.2813 26.0798 23.1847 26.1154C22.9678 26.0102 22.7306 25.9552 22.4902 25.9543C22.2484 25.9602 22.0093 26.0073 21.7829 26.0936C21.7357 26.1077 21.6927 26.123 21.6595 26.1295L20.3285 25.9967C20.3114 25.9924 20.2577 25.9597 20.1911 25.8814V25.8738L20.4788 25.7573C20.3983 24.7823 19.4763 24.1827 18.9632 23.9792C18.9405 23.8749 18.8883 23.7796 18.813 23.7049L18.5275 23.4296L18.2763 23.7354L18.1529 23.8921L16.2874 23.114L17.5003 24.6604L17.0227 25.3971C16.8466 25.5854 17.0409 25.7758 17.0409 25.7758L17.5346 26.1219L18.0477 25.9271C18.0649 25.9271 18.0799 25.9314 18.0981 25.9336C18.0735 26.0131 18.0413 26.3232 18.0198 26.4092L17.13 26.2318L16.1962 26.7683C15.7143 27.1274 15.6488 27.7194 15.828 28.1253L15.9311 28.356L16.0781 28.6814L16.4055 28.5443C16.4109 28.5421 16.4152 28.541 16.4184 28.5378C16.3003 28.9197 16.3486 29.2821 16.5579 29.5204L16.7565 29.774L17.0205 30.1135L17.3103 29.7969C17.3962 29.7098 17.6731 29.3953 17.7579 29.1254L17.8201 28.9197L17.6795 28.7619L17.6559 28.7326L17.8148 28.4659L18.9761 28.7445L19.238 28.8055L19.3776 28.5715L19.4527 28.4453C19.4666 28.4181 19.4699 28.4137 19.5235 28.4137C19.5654 28.4137 19.6062 28.4181 19.6502 28.4289C20.0462 28.5082 20.4487 28.5501 20.8523 28.5541C21.199 28.5541 21.4083 28.541 21.6552 28.4572C21.6552 28.4572 22.2788 29.1755 22.3002 29.2038L21.9181 30.4008L21.901 30.4727C21.1786 30.5325 20.8266 30.6936 20.4004 31.1256C19.7822 30.5031 19.3454 30.4367 17.6849 30.4367C15.696 30.4367 14.3479 29.2538 14.3479 27.3614V22.7386H26.4508L26.453 27.3614C26.453 28.8947 25.5664 29.9644 24.1711 30.3138ZM16.7168 27.6998L16.7801 27.8598C16.7372 27.9991 16.2649 28.1971 16.2649 28.1971L16.164 27.9697C16.0996 27.8138 16.0885 27.6406 16.1327 27.4776C16.1769 27.3146 16.2737 27.1714 16.4076 27.0708L17.1729 26.5974L17.9854 26.7716C17.9693 27.0338 18.1239 27.2297 18.1239 27.2297L17.2738 27.0643L16.764 27.4212C16.6781 27.4822 16.6717 27.5954 16.7168 27.6998ZM24.0423 29.0057L23.7814 30.3889C23.614 30.4128 23.438 30.4259 23.2577 30.4324L23.5324 29.1047C23.614 28.7086 22.5707 28.5857 22.0544 27.8097C21.8022 28.097 21.3289 28.183 20.8523 28.183C20.4165 28.183 19.9829 28.1123 19.7178 28.0589C19.654 28.0477 19.5894 28.0415 19.5246 28.0404C19.3711 28.0404 19.2327 28.0883 19.1361 28.2527L19.0609 28.3832L17.6377 28.0426L17.2835 28.6379C17.2341 28.7347 17.2298 28.8153 17.3103 28.9056L17.4069 29.0122C17.3404 29.2223 17.0441 29.5411 17.0441 29.5411L16.8327 29.2723C16.6652 29.083 16.6931 28.7347 16.867 28.4126L17.4316 27.4441L18.637 27.6215L18.4502 27.1873C18.198 26.6138 18.5822 25.8847 18.623 25.4646C18.609 25.5919 18.4942 25.6202 18.3611 25.6202C18.2387 25.6202 18.1035 25.5974 18.0133 25.5974C17.9779 25.5974 17.9468 25.6006 17.9307 25.6126L17.6044 25.8139L17.3468 25.5832C17.3157 25.5397 17.306 25.4341 17.3812 25.3558L17.9779 24.6767L17.2738 23.8409L18.2591 24.3448L18.5607 23.9737C18.6434 24.0564 18.6069 24.2708 18.6069 24.2708C18.9149 24.2795 19.779 24.7638 19.8241 25.8955C19.8273 25.9304 19.8273 25.9684 19.8273 26.0065L19.8498 26.0435C19.911 26.1295 20.0795 26.3482 20.2931 26.3678L21.6562 26.5049H21.6616C21.8119 26.5049 22.1092 26.3265 22.4902 26.3265C22.6995 26.3265 22.9303 26.3809 23.1772 26.5387C23.1772 26.5387 23.3017 26.4386 23.5024 26.4277C23.5174 26.4255 23.5346 26.4255 23.5485 26.4255C24.1603 26.4255 24.4147 26.987 24.7431 27.4539C24.99 27.8087 25.3195 28.3354 25.3195 28.3354C25.1982 28.4823 25.0845 28.5639 24.8945 28.5639C24.8354 28.5641 24.7764 28.5583 24.7185 28.5465C24.0637 28.4235 23.9682 27.0556 23.5947 26.9468C23.5751 26.9415 23.5549 26.939 23.5346 26.9391C23.4144 26.9391 23.3618 27.048 23.3618 27.048C23.5335 27.5148 23.4326 27.7031 23.6172 28.0633C23.7546 28.3299 23.9983 28.5487 24.0991 28.6531C24.0991 28.6531 24.0723 28.8555 24.0423 29.0068V29.0057ZM22.7875 30.4422C22.6051 30.4422 22.4355 30.4444 22.2831 30.4509L22.6823 29.1874C22.7446 29.0122 22.429 28.787 22.2992 28.5889C22.4956 28.7152 23.0054 28.9916 23.2512 29.1004C23.0919 29.546 22.9373 29.9932 22.7875 30.4422ZM16.8499 19.0571L16.9067 16.861L17.3919 16.3397L17.6967 16.9883L17.0956 19.0962L16.8488 19.0582L16.8499 19.0571ZM17.1987 19.7383C17.2724 19.8814 17.3839 20.0008 17.5207 20.0833C17.5169 20.292 17.4972 20.5001 17.4617 20.7057C17.4509 20.7536 17.4402 20.7982 17.4262 20.8429C17.4198 20.8712 17.4112 20.894 17.4058 20.9125C17.2566 20.9125 16.9658 20.894 16.7286 20.8059C16.4645 20.7079 16.0706 20.216 16.1618 19.6741C16.2756 19.6034 16.5397 19.4521 16.7876 19.4521C16.9776 19.4521 17.1075 19.5435 17.1987 19.7383ZM22.8187 20.3281C22.4462 20.6078 21.4845 21.3206 21.1357 21.5687L17.7783 20.9549L17.8019 20.8646C17.8448 20.6872 17.891 20.4457 17.8931 20.1616L20.7149 20.2073L20.7686 20.1529C20.8115 20.1094 21.7056 19.2312 22.1607 18.7273C22.2691 18.8655 22.4044 18.9961 22.5825 19.1115C22.5224 19.4488 22.5471 19.9255 22.8187 20.3281ZM18.2538 15.2798C18.6584 15.6868 19.0523 15.9404 19.428 16.0796C19.3797 16.2755 19.3153 16.6825 19.4956 17.0863C19.6437 17.4127 19.9121 17.663 20.2995 17.8306C20.3425 18.2333 20.5926 18.8394 21.287 19.1071C20.9822 19.4184 20.6859 19.7122 20.5679 19.8297L17.7515 19.7851C17.6584 19.74 17.5813 19.6671 17.5303 19.5762C17.525 19.562 17.5153 19.5544 17.5089 19.5392L17.9693 19.6153L17.9983 19.6164C18.0416 19.6167 18.0836 19.6013 18.1167 19.573C18.1497 19.5446 18.1717 19.5052 18.1786 19.4619C18.1864 19.4131 18.1749 19.3633 18.1465 19.3231C18.1182 19.2829 18.0753 19.2558 18.0273 19.2475L17.4617 19.1561L18.0885 16.9568L17.4949 15.6868L16.5429 16.7097L16.4849 18.9961L15.8452 18.8927C15.7465 18.8732 15.652 18.9472 15.6338 19.0484C15.6266 19.0973 15.6387 19.1472 15.6674 19.1873C15.6961 19.2274 15.7391 19.2544 15.7873 19.2627L16.0556 19.3041C15.959 19.3596 15.8957 19.4042 15.8881 19.4097L15.8345 19.4488L15.8195 19.5163C15.6638 20.1584 16.0159 20.7678 16.3958 21.0398L16.3819 21.1214C16.3669 21.2194 16.3883 21.3173 16.4463 21.3968C16.4793 21.445 16.5234 21.4844 16.5749 21.5113C16.6263 21.5382 16.6835 21.552 16.7414 21.5513C16.8228 21.5506 16.9015 21.5221 16.9648 21.4703C17.0282 21.4186 17.0724 21.3466 17.0903 21.2662C17.232 21.2825 17.3618 21.2869 17.4498 21.2869H17.5261L21.2194 21.9648L21.2827 21.9224C21.5768 21.7134 22.6995 20.8831 23.0666 20.6078C23.1686 20.6959 23.2813 20.7765 23.4176 20.8429C23.2984 21.2488 23.2909 21.8723 23.761 22.3664H14.3479V16.849C14.3479 16.3136 14.1944 15.776 14.012 15.2798H18.2538ZM17.745 6.9548L20.2019 7.80036V11.7202L18.3933 10.7517L17.745 6.95371V6.9548ZM23.7385 6.48142C23.7385 5.52486 22.1532 4.66406 20.4037 4.66406H20.3929C18.6434 4.66406 17.0592 5.52486 17.0592 6.48142L17.0935 6.71647L17.7922 10.7897L17.0903 11.2033L15.2753 12.2806H15.2817C15.2817 12.2806 14.8738 12.4939 14.6839 12.6245C13.9926 13.112 13.8456 13.8237 14.247 14.1176C14.3458 13.5375 14.7976 12.9314 15.6424 12.9314C16.252 12.9314 16.7157 13.2513 17.0914 13.7291C17.188 13.8499 17.2792 13.9794 17.364 14.1176C17.4692 14.2928 17.5754 14.4473 17.6795 14.5953H13.002C13.3454 15.2972 13.6728 16.0405 13.6728 16.8479V27.3625C13.6728 29.9068 15.5994 31.1212 17.6838 31.1212C19.2949 31.1212 19.5117 31.0472 20.4004 31.9461C21.2849 31.0472 21.5028 31.1212 23.1149 31.1212C25.2004 31.1212 27.1238 29.9068 27.1238 27.3625V16.8479C27.1238 16.0405 27.4512 15.2972 27.7968 14.5953H23.117C23.2222 14.4473 23.3274 14.2928 23.4326 14.1176C23.5185 13.9794 23.6097 13.8499 23.7042 13.7291C24.082 13.2492 24.5457 12.9314 25.1553 12.9314C26 12.9314 26.4508 13.5375 26.5506 14.1176C26.9521 13.8237 26.8072 13.112 26.1106 12.6245C25.926 12.4939 25.5159 12.2806 25.5159 12.2806H25.5235L23.7042 11.2033L23.0065 10.7897L23.7042 6.71647L23.7385 6.48142Z" fill="#1A1919"/>
<path d="M53.7952 24.0045H57.0152V16.4086H61.4373V13.6445H49.373V16.4086H53.7952V24.0045ZM71.2046 13.6445L65.838 19.6734V13.6445H62.7253V24.0045H65.473L70.8397 17.9757V24.0045H73.9524V13.6445H71.2046ZM79.4232 20.1522H84.4249V24.0045H87.5376V13.6445H84.4249V17.4316H79.4232V13.6445H76.3105V24.0045H79.4232V20.1522ZM96.2058 24.0045C96.9142 24.0045 97.5582 23.9392 98.1593 23.7651C99.7693 23.3081 100.821 21.9804 100.821 20.1739C100.821 18.4545 99.9195 17.2575 98.4813 16.7134C97.7943 16.4522 96.9786 16.4304 96.2058 16.4304H93.0073V13.6445H89.8946V24.0045H96.2058ZM93.0073 18.8681H95.6691C96.0985 18.8681 96.5063 18.8681 96.8713 18.9986C97.3865 19.1728 97.687 19.6081 97.687 20.1304C97.687 20.6745 97.3865 21.1316 96.8927 21.3492C96.5493 21.5016 96.2058 21.5016 95.6691 21.5016H93.0073V18.8681ZM105.544 20.0869H106.402L110.116 24.0045H114.259L109.086 18.6069L114.066 13.6445H110.159L106.402 17.5404H105.544V13.6445H102.431V24.0045H105.544V20.0869Z" fill="white"/>
<path d="M120.664 13.3633C116.478 13.3633 113.967 15.7574 113.967 18.848C113.967 21.9386 116.478 24.3327 120.664 24.3327C124.829 24.3327 127.341 21.9386 127.341 18.848C127.341 15.7574 124.829 13.3633 120.664 13.3633ZM120.664 21.808C118.582 21.808 117.251 20.5457 117.251 18.848C117.251 17.1504 118.582 15.9098 120.664 15.9098C122.725 15.9098 124.078 17.1504 124.078 18.848C124.078 20.5457 122.725 21.808 120.664 21.808ZM137.707 14.1033V13.0586H134.594V14.1033C130.687 14.1904 128.347 15.8662 128.347 18.8262C128.347 21.7862 130.687 23.3315 134.594 23.4186V24.4633H137.707V23.4186C141.635 23.3315 143.975 21.7862 143.975 18.8262C143.975 15.8662 141.635 14.1904 137.707 14.1033ZM134.594 21.1986C132.447 21.1115 131.503 20.2192 131.503 18.8262C131.503 17.4333 132.447 16.4321 134.594 16.3451V21.1986ZM137.707 21.1986V16.3451C139.875 16.4321 140.798 17.4333 140.798 18.8262C140.798 20.2192 139.875 21.1115 137.707 21.1986ZM154.331 14.1033V13.0586H151.218V14.1033C147.311 14.1904 144.971 15.8662 144.971 18.8262C144.971 21.7862 147.311 23.3315 151.218 23.4186V24.4633H154.331V23.4186C158.259 23.3315 160.599 21.7862 160.599 18.8262C160.599 15.8662 158.259 14.1904 154.331 14.1033ZM151.218 21.1986C149.071 21.1115 148.127 20.2192 148.127 18.8262C148.127 17.4333 149.071 16.4321 151.218 16.3451V21.1986ZM154.331 21.1986V16.3451C156.499 16.4321 157.422 17.4333 157.422 18.8262C157.422 20.2192 156.499 21.1115 154.331 21.1986Z" fill="white"/>
</g>
<defs>
<clipPath id="clip0_831_2347">
<rect width="161" height="37" fill="white"/>
</clipPath>
</defs>
</svg>
