<svg width="96" height="24" viewBox="0 0 96 24" fill="none" xmlns="http://www.w3.org/2000/svg">
<g clip-path="url(#clip0_831_2373)">
<path fill-rule="evenodd" clip-rule="evenodd" d="M0 14.5334C0 19.2468 2.63427 24 8.53324 24C14.4269 24 17.0664 19.2468 17.0664 14.5334C17.0664 11.3139 15.984 7.6064 14.1773 4.61182C12.4203 1.72004 10.3093 0 8.53324 0C6.75213 0 4.64015 1.72004 2.89843 4.61182C1.08321 7.6064 0 11.3139 0 14.5334Z" fill="white"/>
<path fill-rule="evenodd" clip-rule="evenodd" d="M60.5845 7.07072H54.6113V1.28516H72.9577V7.07072H66.9845V22.7136H60.5845V7.07072Z" fill="white"/>
<path fill-rule="evenodd" clip-rule="evenodd" d="M86.6095 7.07097H95.9966V1.28516H86.6103C77.9854 1.28516 73.3809 5.59233 73.3809 11.9995C73.3809 18.4067 77.9854 22.7138 86.6103 22.7138H95.9966V16.928H86.6095C82.6188 16.928 79.9941 15.495 79.9941 11.9995C79.9941 8.50401 82.6188 7.07097 86.6095 7.07097Z" fill="white"/>
<path fill-rule="evenodd" clip-rule="evenodd" d="M38.1831 14.0756L41.595 1.28516H52.9044V22.7138H46.5042V5.27282L41.852 22.7138H34.514L29.8648 5.28391L29.8645 22.7138H23.4648V1.28516H34.771L38.1831 14.0756Z" fill="white"/>
</g>
<defs>
<clipPath id="clip0_831_2373">
<rect width="96" height="24" fill="white"/>
</clipPath>
</defs>
</svg>
