<svg width="109" height="30" viewBox="0 0 109 30" fill="none" xmlns="http://www.w3.org/2000/svg">
<path d="M41.4257 0.620768L32.0645 25.0625H37.0927L39.0171 19.9556H48.9494L50.8821 25.0625H55.8731L46.5698 0.620768H41.4257ZM40.7429 15.4695L44.0122 6.86983L47.2692 15.4695H40.7429ZM61.882 18.7596L57.8222 7.89206H53.0258L59.5645 25.0625H64.3196L70.7425 7.89206H65.9459L61.882 18.7596ZM76.7764 7.89206H72.2117V25.0625H76.7764V7.89206ZM74.492 6.65463C76.3296 6.65463 77.8193 5.16494 77.8193 3.32732C77.8193 1.48969 76.3296 0 74.492 0C72.6543 0 71.1646 1.48969 71.1646 3.32732C71.1646 5.16494 72.6543 6.65463 74.492 6.65463ZM85.8231 3.31076H81.2708V7.86306H78.6015V12.0015H81.2708V19.2976C81.2708 23.4361 83.5511 25.2156 86.7626 25.2156C87.8463 25.2299 88.9214 25.0199 89.9202 24.599V20.3446C89.3751 20.5443 88.7998 20.6492 88.2192 20.655C86.8246 20.655 85.819 20.1129 85.819 18.2547V12.0015H89.9202V7.90444H85.8231V3.31076ZM99.5172 7.58167C97.757 7.58086 96.0362 8.1021 94.5723 9.07948C93.1085 10.0569 91.9674 11.4464 91.2935 13.0724C90.6195 14.6985 90.4429 16.4878 90.7861 18.2142C91.1293 19.9405 91.9768 21.5263 93.2214 22.771C94.466 24.0156 96.0518 24.8631 97.7782 25.2063C99.5046 25.5494 101.294 25.3729 102.92 24.6989C104.546 24.025 105.936 22.8839 106.913 21.4201C107.89 19.9562 108.412 18.2354 108.411 16.4752C108.41 14.1168 107.472 11.8554 105.805 10.1877C104.137 8.52012 101.876 7.58277 99.5172 7.58167ZM99.5172 20.8247C98.66 20.8255 97.8218 20.5721 97.1087 20.0965C96.3957 19.6209 95.8397 18.9445 95.5111 18.1528C95.1824 17.3611 95.0961 16.4898 95.2628 15.649C95.4296 14.8082 95.8418 14.0358 96.4476 13.4294C97.0534 12.823 97.8256 12.4099 98.6662 12.2424C99.5068 12.0748 100.378 12.1604 101.17 12.4882C101.962 12.8161 102.639 13.3714 103.116 14.0841C103.592 14.7967 103.846 15.6346 103.846 16.4918C103.844 17.638 103.387 18.7365 102.575 19.5459C101.763 20.3553 100.664 20.8093 99.5172 20.8082V20.8247Z" fill="white"/>
<path d="M8.89768 27.4985C13.8117 27.4985 17.7954 23.5149 17.7954 18.6008C17.7954 13.6868 13.8117 9.70312 8.89768 9.70312C3.98363 9.70313 0 13.6868 0 18.6008C0 23.5149 3.98363 27.4985 8.89768 27.4985Z" fill="white"/>
<path d="M24.329 26.3767C27.298 26.3767 29.7048 23.9699 29.7048 21.0009C29.7048 18.0319 27.298 15.625 24.329 15.625C21.36 15.625 18.9531 18.0319 18.9531 21.0009C18.9531 23.9699 21.36 26.3767 24.329 26.3767Z" fill="white"/>
<path d="M10.5988 8.54917C12.4364 8.54917 13.9261 7.05948 13.9261 5.22185C13.9261 3.38422 12.4364 1.89453 10.5988 1.89453C8.76117 1.89453 7.27148 3.38422 7.27148 5.22185C7.27148 7.05948 8.76117 8.54917 10.5988 8.54917Z" fill="white"/>
<path d="M22.24 14.468C26.2352 14.468 29.474 11.2293 29.474 7.23402C29.474 3.23878 26.2352 0 22.24 0C18.2447 0 15.0059 3.23878 15.0059 7.23402C15.0059 11.2293 18.2447 14.468 22.24 14.468Z" fill="white"/>
</svg>
