<svg width="161" height="29" viewBox="0 0 161 29" fill="none" xmlns="http://www.w3.org/2000/svg">
<g clip-path="url(#clip0_831_2366)">
<path d="M16.0463 0.371094V15.0293C16.0463 15.7147 15.5167 16.1893 14.8812 16.1893H13.1335C13.0276 16.1893 12.9746 16.2947 12.9746 16.3475V28.6329C13.3983 28.6329 13.822 28.7384 14.2986 28.7384C22.1897 28.7384 28.598 22.3584 28.598 14.502C28.598 7.27837 23.143 1.21473 16.0463 0.371094ZM15.7286 22.3056C14.7223 22.3056 13.9809 21.462 13.9809 20.5656C13.9809 19.5638 14.8282 18.8256 15.7286 18.8256C16.7348 18.8256 17.4763 19.6693 17.4763 20.5656C17.5822 21.5147 16.7348 22.3056 15.7286 22.3056ZM19.9124 22.3056C18.9062 22.3056 18.1647 21.462 18.1647 20.5656C18.1647 19.5638 19.0121 18.8256 19.9124 18.8256C20.9187 18.8256 21.6601 19.6693 21.6601 20.5656C21.6601 21.462 20.9716 22.3056 19.9124 22.3056ZM24.1493 22.3056C23.143 22.3056 22.4016 21.462 22.4016 20.5656C22.4016 19.5638 23.249 18.8256 24.1493 18.8256C25.1555 18.8256 25.897 19.6693 25.897 20.5656C25.897 21.462 25.1555 22.3056 24.1493 22.3056Z" fill="white"/>
<path d="M14.2993 0.316406C6.40822 0.316406 0 6.69641 0 14.5528C0 21.46 4.81941 27.1019 11.2806 28.42V15.6073C11.2806 15.0273 11.8102 14.5528 12.3398 14.4473H14.0875C14.1934 14.4473 14.2464 14.3419 14.2464 14.2891L14.2993 0.316406ZM11.5454 12.0219C10.5391 12.0219 9.7977 11.1782 9.7977 10.2819C9.7977 9.28004 10.6451 8.54186 11.5454 8.54186C12.5516 8.54186 13.2931 9.3855 13.2931 10.2819C13.2931 11.1782 12.4987 12.0219 11.5454 12.0219Z" fill="white"/>
<path d="M157.451 8.06801V13.4462H150.248V8.06801H146.594V22.3044H150.248V16.5571H157.451V22.3044H160.999V8.06801H157.451ZM97.9235 9.70256C97.3409 8.4371 96.1758 7.75165 95.0106 7.75165C93.8455 7.75165 92.6274 8.4371 92.0978 9.70256L86.3251 22.3571H90.1383L91.4093 19.3516H98.8238L100.095 22.3571H103.908L97.9235 9.70256ZM92.4156 16.5044L94.587 11.2844C94.6929 11.1262 94.7459 11.1262 94.8518 11.1262C94.9577 11.1262 95.1166 11.1262 95.1166 11.2844L97.288 16.5044H92.4156ZM55.3432 5.5371C53.6485 5.5371 52.5893 6.43347 51.7949 8.22619L47.1873 18.9298L42.5268 8.17347C41.7853 6.43347 40.6731 5.48438 38.9784 5.48438C37.3896 5.48438 35.8008 6.53892 35.8008 9.0171V22.2516H39.3491V9.49165L44.0626 20.0898C44.6452 21.6189 45.7574 22.5153 47.1873 22.5153C48.7232 22.5153 49.7294 21.6189 50.312 20.0898L55.0255 9.49165V22.4098H58.5738V9.17528C58.5208 6.6971 56.932 5.5371 55.3432 5.5371ZM64.8232 19.2989C64.6643 19.2989 64.4524 19.1407 64.4524 18.9298V16.3989H73.3498V13.4989H64.4524V11.3371C64.4524 11.1789 64.6113 10.968 64.8232 10.968H73.6676V7.96256H63.0755C61.8044 7.96256 60.957 8.96438 60.957 10.0716V20.0371C60.957 21.0916 61.8574 22.1462 63.0755 22.1462H73.6676V19.1407H64.8232V19.2989ZM79.6521 22.3044V11.4426C79.6521 11.2844 79.811 11.0735 80.0228 11.0735H88.8672V8.06801H78.2751C77.0041 8.06801 76.1567 9.06983 76.1567 10.1771V22.2516L79.6521 22.3044ZM144.264 15.2389C144.264 10.2826 142.093 7.96256 136.691 7.96256H135.42C130.018 7.96256 127.846 10.3353 127.846 15.2389C127.846 20.0898 130.018 22.5153 135.42 22.5153H136.585C142.093 22.4098 144.264 20.0898 144.264 15.2389ZM136.585 19.5098H135.42C132.507 19.5098 131.289 18.1916 131.289 15.2389C131.289 12.3916 132.295 10.968 135.42 10.968H136.585C139.603 10.968 140.716 12.3916 140.716 15.2389C140.716 18.1389 139.603 19.5098 136.585 19.5098ZM117.943 5.85347H110.846C105.55 5.85347 103.431 8.54256 103.431 13.1298C103.431 13.868 103.537 14.5535 103.59 15.1335C104.173 18.4026 106.132 20.4062 111.058 20.4062H112.647V22.2516H116.195V20.4062H117.731C122.709 20.4062 124.669 18.4026 125.198 15.1335C125.304 14.5535 125.357 13.868 125.357 13.1298C125.304 8.54256 123.133 5.85347 117.943 5.85347ZM112.541 17.4535H110.952C108.516 17.4535 107.668 16.5571 107.139 15.0807C106.98 14.5535 106.98 13.8153 106.98 13.0771C106.98 10.0716 108.41 8.80619 110.422 8.80619H112.594V17.4535H112.541ZM121.65 15.2389C121.12 16.6626 120.22 17.6116 117.837 17.6116H116.248V8.91165H118.419C120.432 8.91165 121.862 10.1771 121.862 13.1826C121.809 13.9735 121.809 14.6062 121.65 15.2389Z" fill="white"/>
</g>
<defs>
<clipPath id="clip0_831_2366">
<rect width="161" height="29" fill="white"/>
</clipPath>
</defs>
</svg>
