<svg width="92" height="21" viewBox="0 0 92 21" fill="none" xmlns="http://www.w3.org/2000/svg">
<path d="M53.3794 18.6256C53.3794 18.7952 53.427 18.8877 53.5382 18.8877C53.6177 18.8877 53.6812 18.8568 53.7607 18.8106L82.4203 0.724669C82.9287 0.400881 83.3894 0.231278 84.0725 0.231278H90.3796C91.3486 0.231278 92 0.863436 92 1.80396V13.4758C92 14.8789 91.6823 15.696 90.3796 16.4515L82.738 20.9075C82.6427 20.9692 82.5474 21 82.4838 21C82.3885 21 82.3091 20.9383 82.3091 20.6762V7.04626C82.3091 6.89207 82.2614 6.78414 82.1502 6.78414C82.0708 6.78414 82.0072 6.81498 81.9278 6.86123L60.9732 20.0749C60.3854 20.4449 59.9088 20.5529 59.3687 20.5529H45.4678C44.4987 20.5529 43.8473 19.9207 43.8473 18.9802V2.17401C43.8473 2.05066 43.7838 1.94273 43.6885 1.94273C43.609 1.94273 43.5455 1.97357 43.4661 2.01982L29.6446 10.0837C29.5016 10.1608 29.4699 10.2379 29.4699 10.2996C29.4699 10.3612 29.4858 10.4075 29.597 10.5L39.4626 20.0749C39.5897 20.1982 39.685 20.3062 39.685 20.3987C39.685 20.5066 39.542 20.5683 39.3673 20.5683H30.439C29.7399 20.5683 29.1998 20.4604 28.8185 20.0903L22.8292 14.2775C22.7657 14.2159 22.718 14.185 22.6545 14.185C22.6068 14.185 22.5274 14.2159 22.4638 14.2467L12.4552 20.0903C11.8515 20.4449 11.4384 20.5529 10.8347 20.5529H1.62045C0.651356 20.5529 0 19.9207 0 18.9802V7.52423C0 6.10573 0.317735 5.30397 1.62045 4.54846L9.30962 0.0616742C9.38905 0.0154187 9.4526 0 9.51615 0C9.62735 0 9.6909 0.123348 9.6909 0.370044V15.696C9.6909 15.8502 9.73856 15.9273 9.84977 15.9273C9.91331 15.9273 9.99275 15.8811 10.0722 15.8348L36.047 0.678414C36.6665 0.323789 37.0478 0.215859 37.7627 0.215859H51.743C52.7121 0.215859 53.3635 0.848017 53.3635 1.78855L53.3794 18.6256Z" fill="white"/>
</svg>
