<svg width="52" height="52" viewBox="0 0 52 52" fill="none" xmlns="http://www.w3.org/2000/svg">
<path d="M25.9998 50.8199C29.259 50.8199 32.4862 50.178 35.4973 48.9308C38.5084 47.6835 41.2443 45.8554 43.5489 43.5509C45.8535 41.2463 47.6816 38.5104 48.9288 35.4993C50.1761 32.4882 50.818 29.2609 50.818 26.0018C50.818 22.7426 50.1761 19.5153 48.9288 16.5043C47.6816 13.4932 45.8535 10.7572 43.5489 8.45267C41.2443 6.14809 38.5084 4.31999 35.4973 3.07276C32.4862 1.82553 29.259 1.18359 25.9998 1.18359C19.4176 1.18359 13.105 3.79836 8.45072 8.45267C3.7964 13.107 1.18164 19.4196 1.18164 26.0018C1.18164 32.584 3.7964 38.8966 8.45072 43.5509C13.105 48.2052 19.4176 50.8199 25.9998 50.8199Z" fill="white"/>
<path d="M29.8981 41.5151H35.299V10.4688H27.4281C19.5099 10.4688 15.3499 14.5342 15.3499 20.5142C15.3499 25.2651 17.6308 28.1133 21.6963 31.0088L14.6172 41.5033H20.4908L28.3617 29.756L25.6199 27.936C22.3108 25.6906 20.6917 23.9651 20.6917 20.2069C20.6917 16.9097 23.0199 14.676 27.4517 14.676H29.8745V41.5033H29.8863L29.8981 41.5151Z" fill="black"/>
</svg>
