<svg width="53" height="52" viewBox="0 0 53 52" fill="none" xmlns="http://www.w3.org/2000/svg">
<path d="M26.3332 50.8199C29.5924 50.8199 32.8196 50.178 35.8307 48.9308C38.8418 47.6835 41.5777 45.8554 43.8823 43.5509C46.1869 41.2463 48.015 38.5104 49.2622 35.4993C50.5095 32.4882 51.1514 29.2609 51.1514 26.0018C51.1514 22.7426 50.5095 19.5153 49.2622 16.5043C48.015 13.4932 46.1869 10.7572 43.8823 8.45267C41.5777 6.14809 38.8418 4.31999 35.8307 3.07276C32.8196 1.82553 29.5924 1.18359 26.3332 1.18359C19.751 1.18359 13.4384 3.79836 8.78409 8.45267C4.12977 13.107 1.51501 19.4196 1.51501 26.0018C1.51501 32.584 4.12977 38.8966 8.78409 43.5509C13.4384 48.2052 19.751 50.8199 26.3332 50.8199Z" fill="white"/>
<path d="M30.2315 41.515H35.6324V10.4688H27.7615C19.8433 10.4688 15.6833 14.5342 15.6833 20.5142C15.6833 25.2651 17.9642 28.1133 22.0297 31.0088L14.9506 41.5033H20.8242L28.6951 29.756L25.9533 27.936C22.6442 25.6906 21.0251 23.965 21.0251 20.2069C21.0251 16.9096 23.3533 14.676 27.7851 14.676H30.2079V41.5033H30.2197L30.2315 41.515Z" fill="black"/>
</svg>
