<svg width="162" height="30" viewBox="0 0 162 30" fill="none" xmlns="http://www.w3.org/2000/svg">
<g clip-path="url(#clip0_18282_3239)">
<mask id="mask0_18282_3239" style="mask-type:luminance" maskUnits="userSpaceOnUse" x="0" y="0" width="162" height="30">
<path d="M161.333 0.5H0.333374V29.5H161.333V0.5Z" fill="white"/>
</mask>
<g mask="url(#mask0_18282_3239)">
<path d="M16.3797 0.871094V15.5293C16.3797 16.2147 15.8501 16.6893 15.2146 16.6893H13.4669C13.361 16.6893 13.308 16.7947 13.308 16.8475V29.1329C13.7317 29.1329 14.1554 29.2384 14.632 29.2384C22.5231 29.2384 28.9314 22.8584 28.9314 15.002C28.9314 7.77837 23.4764 1.71473 16.3797 0.871094ZM16.062 22.8056C15.0557 22.8056 14.3143 21.962 14.3143 21.0656C14.3143 20.0638 15.1616 19.3256 16.062 19.3256C17.0682 19.3256 17.8097 20.1693 17.8097 21.0656C17.9156 22.0147 17.0682 22.8056 16.062 22.8056ZM20.2458 22.8056C19.2396 22.8056 18.4981 21.962 18.4981 21.0656C18.4981 20.0638 19.3455 19.3256 20.2458 19.3256C21.2521 19.3256 21.9935 20.1693 21.9935 21.0656C21.9935 21.962 21.305 22.8056 20.2458 22.8056ZM24.4827 22.8056C23.4764 22.8056 22.735 21.962 22.735 21.0656C22.735 20.0638 23.5824 19.3256 24.4827 19.3256C25.4889 19.3256 26.2304 20.1693 26.2304 21.0656C26.2304 21.962 25.4889 22.8056 24.4827 22.8056Z" fill="white"/>
<path d="M14.6327 0.816406C6.74159 0.816406 0.333374 7.19641 0.333374 15.0528C0.333374 21.96 5.15278 27.6019 11.614 28.92V16.1073C11.614 15.5273 12.1436 15.0528 12.6732 14.9473H14.4209C14.5268 14.9473 14.5798 14.8419 14.5798 14.7891L14.6327 0.816406ZM11.8788 12.5219C10.8725 12.5219 10.1311 11.6782 10.1311 10.7819C10.1311 9.78004 10.9785 9.04186 11.8788 9.04186C12.885 9.04186 13.6265 9.8855 13.6265 10.7819C13.6265 11.6782 12.8321 12.5219 11.8788 12.5219Z" fill="white"/>
<path d="M157.784 8.56801V13.9462H150.581V8.56801H146.927V22.8044H150.581V17.0571H157.784V22.8044H161.332V8.56801H157.784ZM98.2569 10.2026C97.6743 8.9371 96.5092 8.25165 95.344 8.25165C94.1789 8.25165 92.9608 8.9371 92.4312 10.2026L86.6585 22.8571H90.4717L91.7427 19.8516H99.1572L100.428 22.8571H104.241L98.2569 10.2026ZM92.749 17.0044L94.9204 11.7844C95.0263 11.6262 95.0793 11.6262 95.1852 11.6262C95.2911 11.6262 95.45 11.6262 95.45 11.7844L97.6214 17.0044H92.749ZM55.6766 6.0371C53.9819 6.0371 52.9227 6.93346 52.1283 8.72618L47.5207 19.4298L42.8602 8.67346C42.1187 6.93346 41.0065 5.98438 39.3118 5.98438C37.723 5.98438 36.1342 7.03892 36.1342 9.5171V22.7516H39.6825V9.99164L44.396 20.5898C44.9786 22.1189 46.0908 23.0153 47.5207 23.0153C49.0566 23.0153 50.0628 22.1189 50.6454 20.5898L55.3589 9.99164V22.9098H58.9072V9.67527C58.8542 7.19709 57.2654 6.0371 55.6766 6.0371ZM65.1566 19.7989C64.9977 19.7989 64.7858 19.6407 64.7858 19.4298V16.8989H73.6832V13.9989H64.7858V11.8371C64.7858 11.6789 64.9447 11.468 65.1566 11.468H74.001V8.46256H63.4089C62.1378 8.46256 61.2904 9.46438 61.2904 10.5716V20.5371C61.2904 21.5916 62.1908 22.6462 63.4089 22.6462H74.001V19.6407H65.1566V19.7989ZM79.9855 22.8044V11.9426C79.9855 11.7844 80.1444 11.5735 80.3562 11.5735H89.2006V8.56801H78.6085C77.3375 8.56801 76.4901 9.56983 76.4901 10.6771V22.7516L79.9855 22.8044ZM144.597 15.7389C144.597 10.7826 142.426 8.46256 137.024 8.46256H135.753C130.351 8.46256 128.179 10.8353 128.179 15.7389C128.179 20.5898 130.351 23.0153 135.753 23.0153H136.918C142.426 22.9098 144.597 20.5898 144.597 15.7389ZM136.918 20.0098H135.753C132.84 20.0098 131.622 18.6916 131.622 15.7389C131.622 12.8916 132.628 11.468 135.753 11.468H136.918C139.936 11.468 141.049 12.8916 141.049 15.7389C141.049 18.6389 139.936 20.0098 136.918 20.0098ZM118.276 6.35347H111.179C105.883 6.35347 103.764 9.04255 103.764 13.6298C103.764 14.368 103.87 15.0535 103.923 15.6335C104.506 18.9026 106.465 20.9062 111.391 20.9062H112.98V22.7516H116.528V20.9062H118.064C123.042 20.9062 125.002 18.9026 125.531 15.6335C125.637 15.0535 125.69 14.368 125.69 13.6298C125.637 9.04255 123.466 6.35347 118.276 6.35347ZM112.874 17.9535H111.285C108.849 17.9535 108.001 17.0571 107.472 15.5807C107.313 15.0535 107.313 14.3153 107.313 13.5771C107.313 10.5716 108.743 9.30618 110.755 9.30618H112.927V17.9535H112.874ZM121.983 15.7389C121.453 17.1626 120.553 18.1116 118.17 18.1116H116.581V9.41164H118.752C120.765 9.41164 122.195 10.6771 122.195 13.6826C122.142 14.4735 122.142 15.1062 121.983 15.7389Z" fill="white"/>
</g>
</g>
<defs>
<clipPath id="clip0_18282_3239">
<rect width="161" height="29" fill="white" transform="translate(0.333374 0.5)"/>
</clipPath>
</defs>
</svg>
