<svg width="157" height="30" viewBox="0 0 157 30" fill="none" xmlns="http://www.w3.org/2000/svg">
<g clip-path="url(#clip0_18282_3277)">
<mask id="mask0_18282_3277" style="mask-type:luminance" maskUnits="userSpaceOnUse" x="0" y="0" width="157" height="30">
<path d="M156.667 0H0.666748V30H156.667V0Z" fill="white"/>
</mask>
<g mask="url(#mask0_18282_3277)">
<path d="M70.9764 15.1107C70.9764 21.0017 67.3834 23.7867 62.8864 23.7867H60.1364V20.2517H62.6714C65.3844 20.2517 67.1925 18.7878 67.1925 15.1107C67.1925 11.4677 65.4825 9.64675 62.5914 9.64675C59.8064 9.64675 57.8164 11.3608 57.8164 15.0387V29.8217H54.0664V6.57575H57.8154V8.57575H58.3504C59.6004 6.89775 61.4474 6.14775 63.3754 6.14775C67.5164 6.14775 70.9764 9.14775 70.9764 15.1107ZM46.3424 13.5747L43.8424 13.3247C41.8794 13.1458 40.8444 12.6107 40.8444 11.4677C40.8444 10.1107 42.1644 9.32575 44.0574 9.32575C46.0205 9.32575 47.2705 10.2537 47.3774 11.5757H50.9824C50.8405 8.21875 48.2345 6.14775 44.0924 6.14775C39.9165 6.14775 37.0954 8.36075 37.0954 11.6107C37.0954 14.3247 38.8094 16.0737 42.7004 16.4667L45.2354 16.7167C46.7704 16.8597 47.8054 17.1807 47.8054 18.6447C47.8054 19.9667 46.8414 20.9307 44.3074 20.9307C41.9734 20.9307 40.8234 19.8708 40.4194 18.4508H36.5194C36.9074 21.6968 39.6334 24.2157 44.3074 24.2157C48.6974 24.2157 51.5544 21.8947 51.5544 18.4657C51.5544 15.4317 49.5545 13.8958 46.3424 13.5747ZM85.4944 18.4508C84.9064 19.8018 83.5014 20.8237 81.5074 20.8237C78.7594 20.8237 76.7244 19.0378 76.7244 15.1817C76.7244 11.5037 78.6164 9.46775 81.5434 9.46775C84.1495 9.46775 85.6495 11.0398 85.7915 13.3958H79.0444V16.1097H89.4684V14.3247C89.4684 9.36075 86.1844 6.14775 81.5084 6.14775C77.1524 6.14775 72.9754 9.11075 72.9754 15.1817C72.9754 21.2517 77.1524 24.2157 81.5074 24.2157C85.4914 24.2157 88.3324 21.7607 89.2144 18.4508H85.4944ZM26.4044 6.14775C22.2984 6.14775 19.2284 8.28975 18.8714 11.5747H22.9054C23.1914 10.3608 24.2974 9.46875 26.4044 9.46875C29.1174 9.46875 30.0094 10.8967 30.0094 12.6467V18.5378C28.4744 20.2878 26.6894 21.1087 24.9044 21.1087C23.0484 21.1087 21.7634 20.2167 21.7634 18.6097C21.7634 17.0737 22.7634 16.1097 24.6904 16.1097H27.6894V13.3958H24.5834C20.2994 13.3958 17.9074 15.5387 17.9074 18.8237C17.9074 21.8937 20.2274 24.2157 24.0474 24.2157C26.1894 24.2157 28.0824 23.3587 29.4744 22.3228H30.0094V23.7867H33.7584V12.2887C33.7584 8.03975 30.8664 6.14775 26.4044 6.14775ZM0.971436 23.7878H4.71944V0.21875H0.971436V23.7857V23.7878ZM16.7144 6.57475H12.1444L6.68344 13.7527V16.0028L12.2874 23.7857H16.9284L10.3604 14.8607L16.7144 6.57675V6.57475ZM152.221 6.57475L149.151 13.3947C148.401 15.0377 147.688 16.6448 147.473 17.7157H146.937C146.723 16.6448 145.974 15.0737 145.224 13.4307L142.154 6.57475H138.013L145.224 22.0367L141.654 29.8207H145.653L156.362 6.57475H152.221ZM137.184 6.57475H132.614L127.152 13.7527V16.0028L132.757 23.7857H137.398L130.829 14.8587L137.184 6.57475ZM113.715 13.5737L111.216 13.3237C109.252 13.1447 108.217 12.6097 108.217 11.4667C108.217 10.1097 109.538 9.32475 111.43 9.32475C113.393 9.32475 114.643 10.2528 114.75 11.5747H118.355C118.213 8.21775 115.607 6.14675 111.466 6.14675C107.289 6.14675 104.469 8.35975 104.469 11.6097C104.469 14.3237 106.182 16.0728 110.073 16.4657L112.608 16.7157C114.143 16.8587 115.178 17.1797 115.178 18.6437C115.178 19.9657 114.214 20.9298 111.68 20.9298C109.346 20.9298 108.196 19.8697 107.792 18.4497H103.891C104.28 21.6957 107.006 24.2148 111.68 24.2148C116.071 24.2148 118.927 21.8937 118.927 18.4648C118.927 15.4307 116.928 13.8947 113.715 13.5737ZM121.44 23.7857H125.189V0.22075H121.44V23.7878V23.7857ZM96.7215 8.57575H96.1864V6.57575H92.4364V23.7867H96.1854V14.7887C96.1854 11.7177 97.6034 9.93275 100.397 9.93275H102.771V6.14775H101.398C98.8045 6.14775 97.7045 7.12575 96.7215 8.57575Z" fill="white"/>
</g>
</g>
<defs>
<clipPath id="clip0_18282_3277">
<rect width="156" height="30" fill="white" transform="translate(0.666748)"/>
</clipPath>
</defs>
</svg>
