<svg width="92" height="22" viewBox="0 0 92 22" fill="none" xmlns="http://www.w3.org/2000/svg">
<g clip-path="url(#clip0_18282_3283)">
<path d="M53.3795 19.1256C53.3795 19.2952 53.4271 19.3877 53.5383 19.3877C53.6178 19.3877 53.6813 19.3568 53.7608 19.3106L82.4204 1.22467C82.9288 0.900881 83.3895 0.731278 84.0726 0.731278H90.3797C91.3487 0.731278 92.0001 1.36344 92.0001 2.30396V13.9758C92.0001 15.3789 91.6824 16.196 90.3797 16.9515L82.7381 21.4075C82.6428 21.4692 82.5475 21.5 82.4839 21.5C82.3886 21.5 82.3092 21.4383 82.3092 21.1762V7.54626C82.3092 7.39207 82.2615 7.28414 82.1503 7.28414C82.0709 7.28414 82.0073 7.31498 81.9279 7.36123L60.9733 20.5749C60.3855 20.9449 59.9089 21.0529 59.3688 21.0529H45.4679C44.4988 21.0529 43.8474 20.4207 43.8474 19.4802V2.67401C43.8474 2.55066 43.7839 2.44273 43.6886 2.44273C43.6091 2.44273 43.5456 2.47357 43.4662 2.51982L29.6447 10.5837C29.5017 10.6608 29.47 10.7379 29.47 10.7996C29.47 10.8612 29.4859 10.9075 29.5971 11L39.4627 20.5749C39.5898 20.6982 39.6851 20.8062 39.6851 20.8987C39.6851 21.0066 39.5421 21.0683 39.3674 21.0683H30.4391C29.74 21.0683 29.1999 20.9604 28.8186 20.5903L22.8293 14.7775C22.7658 14.7159 22.7181 14.685 22.6546 14.685C22.6069 14.685 22.5275 14.7159 22.4639 14.7467L12.4553 20.5903C11.8516 20.9449 11.4385 21.0529 10.8348 21.0529H1.62057C0.651478 21.0529 0.00012207 20.4207 0.00012207 19.4802V8.02423C0.00012207 6.60573 0.317857 5.80397 1.62057 5.04846L9.30974 0.561674C9.38917 0.515419 9.45272 0.5 9.51627 0.5C9.62747 0.5 9.69102 0.623348 9.69102 0.870044V16.196C9.69102 16.3502 9.73868 16.4273 9.84989 16.4273C9.91343 16.4273 9.99287 16.3811 10.0723 16.3348L36.0471 1.17841C36.6666 0.823789 37.0479 0.715859 37.7628 0.715859H51.7431C52.7122 0.715859 53.3636 1.34802 53.3636 2.28855L53.3795 19.1256Z" fill="white"/>
</g>
<defs>
<clipPath id="clip0_18282_3283">
<rect width="92" height="21" fill="white" transform="translate(0.00012207 0.5)"/>
</clipPath>
</defs>
</svg>
