<svg width="161" height="38" viewBox="0 0 161 38" fill="none" xmlns="http://www.w3.org/2000/svg">
<g clip-path="url(#clip0_18282_3256)">
<mask id="mask0_18282_3256" style="mask-type:luminance" maskUnits="userSpaceOnUse" x="0" y="0" width="161" height="38">
<path d="M161 0.5H0V37.5H161V0.5Z" fill="white"/>
</mask>
<g mask="url(#mask0_18282_3256)">
<path fill-rule="evenodd" clip-rule="evenodd" d="M40.2575 17.8062L40.7867 16.0857L39.035 16.1423C38.8879 16.1423 37.8114 16.1096 36.7692 15.3424C36.8475 15.349 36.9237 15.3609 37.0053 15.3609C38.0786 15.3609 39.1187 14.7036 39.5341 13.7634L40.2876 12.0658C39.343 12.0788 38.479 11.958 38.479 11.958C38.4715 11.958 37.791 11.8677 37.0042 11.0504C36.4397 10.4661 35.7409 10.1559 34.9842 10.1559C34.6846 10.1571 34.387 10.2052 34.1019 10.2985C34.1417 10.1613 34.1792 10.021 34.2018 9.87732C34.4411 8.2885 33.4354 7.07838 33.4354 7.07838L32.1184 5.42209L31.3016 7.36785C31.2984 7.37438 31.0923 7.83144 30.7242 8.05344C30.6125 7.48103 30.3388 6.83788 29.7549 6.22303C28.6526 5.06515 27.312 4.89103 26.6101 4.89103C26.2849 4.89103 26.0519 4.92803 25.9961 4.93674L24.4065 5.2545C24.4978 4.89429 24.6942 4.26421 25.0505 3.69941L25.9285 2.31191L23.7207 2.56765L23.0176 1.05065L21.6556 1.76344L20.3966 0.5L19.1408 1.76235L17.7765 1.05065L17.0746 2.56656L14.8678 2.31082L15.7469 3.7005C16.1043 4.26529 16.2986 4.89212 16.3898 5.25232L14.8732 4.94762L14.8206 4.94C14.6111 4.90654 14.3994 4.89017 14.1873 4.89103C13.4854 4.89103 12.1448 5.06515 11.0457 6.22303C10.4607 6.83679 10.1859 7.48103 10.0743 8.05344C9.7083 7.83253 9.50329 7.38418 9.50329 7.38418L8.68541 5.42535L7.34697 7.09471C7.18382 7.30909 6.37775 8.44738 6.59563 9.88059C6.61925 10.0232 6.65574 10.1624 6.69545 10.2996C6.41117 10.2059 6.11422 10.1578 5.81532 10.157C5.05755 10.157 4.35881 10.4672 3.79316 11.0515C3.00963 11.8655 2.33235 11.958 2.33772 11.958C2.33772 11.958 1.62181 12.0886 0.513053 12.0669L1.26331 13.7645C1.67977 14.7047 2.7209 15.362 3.79209 15.362C3.87366 15.362 3.94987 15.3501 4.02929 15.3435C2.98816 16.1118 1.91268 16.1434 1.78281 16.1434L0 16.0857L0.539887 17.8051C0.812513 18.6931 1.72055 20.1611 3.45935 20.3189C3.27045 21.1242 2.85077 22.0275 1.92985 22.4171L0.601067 22.9721L1.32557 24.254C1.73451 24.945 2.69514 25.7536 4.06149 25.7536C4.35666 25.7536 4.64217 25.722 4.91801 25.6633C4.98778 25.9789 5.07579 26.2944 5.17991 26.61C5.58563 27.8397 5.23572 28.6973 5.23143 28.7071L4.57669 30.1022L6.03965 30.4939C6.05789 30.5005 6.50118 30.6245 7.05395 30.6245C7.30511 30.6245 7.54553 30.5973 7.77093 30.5429C7.94052 30.5026 8.10367 30.4482 8.26145 30.384C8.45143 30.729 8.68112 31.0446 8.94945 31.3264C9.88755 32.3048 11.2185 32.7999 12.9015 32.7999H12.9068L14.109 32.7836L11.6253 33.8326L13.5111 34.7587C14.197 35.0983 15.0084 35.4987 15.837 35.8056L15.6009 36.4596L16.2503 36.7611C16.3082 36.7883 17.5597 37.3553 19.6366 37.4761C19.6366 37.4761 20.1379 37.5 20.4137 37.5C20.6906 37.5 21.1865 37.475 21.1865 37.475C23.2495 37.3509 24.4902 36.7883 24.5482 36.7611L25.1997 36.4596L24.9625 35.8045C25.8126 35.4889 26.6552 35.0711 27.3131 34.7457L29.1635 33.8316L26.6874 32.7836L27.8949 32.7999C29.58 32.7999 30.9109 32.3037 31.8479 31.3254C32.1152 31.0446 32.3438 30.7301 32.5349 30.384C32.918 30.5447 33.3289 30.6261 33.7435 30.6234C34.2876 30.6234 34.7352 30.5016 34.747 30.4972L36.2175 30.1022L35.5767 28.7321C35.5617 28.6973 35.2118 27.8397 35.6175 26.6079C35.7216 26.2944 35.8085 25.9778 35.8794 25.6633C36.1552 25.722 36.444 25.7525 36.7413 25.7536C38.4822 25.7536 39.3173 24.5097 39.4783 24.2399L40.1963 22.971L38.8675 22.4171C37.9445 22.0286 37.5259 21.1253 37.3391 20.3211C39.0554 20.1688 39.9752 18.6996 40.2586 17.8073L40.2575 17.8062Z" fill="#FFFFFE"/>
<path fill-rule="evenodd" clip-rule="evenodd" d="M20.3947 5.77069C18.9887 5.77178 17.9336 6.23972 17.7039 6.79146L20.3947 7.86881L23.0867 6.79146C22.8591 6.23972 21.804 5.77178 20.3947 5.77069ZM20.4237 34.3249H20.37C19.5178 34.3303 18.3425 34.153 17.778 33.9843L17.0975 35.855C17.5461 36.0171 19.066 36.3283 20.398 36.3283C21.7278 36.3283 23.2487 36.0171 23.6963 35.855L23.0169 33.9854C22.4491 34.153 21.2759 34.3303 20.4237 34.3249ZM25.5725 32.464C25.0659 32.7557 23.9357 33.1931 23.2777 33.3955L23.8294 34.9408C24.8469 34.6579 25.6873 34.3282 26.3807 33.9745L25.2344 33.5882L25.5725 32.464ZM15.2202 32.464L15.5594 33.5882L14.412 33.9745C15.1043 34.3282 15.9479 34.6579 16.9622 34.9398L17.515 33.3945C16.8581 33.192 15.7257 32.7557 15.2202 32.464ZM20.3947 3.98272C21.4563 3.98272 22.4952 4.24063 23.296 4.69225C23.3689 4.44413 23.4709 4.1416 23.6094 3.82493L23.3067 3.86193L22.9901 3.89458L22.8559 3.60184L22.4502 2.73452L21.7139 3.1241L21.4262 3.2721L21.1965 3.04358L20.3947 2.23828L19.5951 3.04358L19.3665 3.2721L19.0799 3.1241L18.3393 2.73452L17.9389 3.60184L17.8026 3.89566L17.4849 3.86193L17.1844 3.82493C17.3229 4.1416 17.4237 4.44413 17.4978 4.69225C18.3007 4.24063 19.3396 3.98272 20.3958 3.98272H20.3947ZM36.586 14.013C36.7244 14.0609 36.864 14.0826 37.0024 14.0826C37.6035 14.0826 38.1831 13.6876 38.3817 13.2371C38.3817 13.2371 37.2815 13.1696 36.0987 11.9497C35.723 11.5558 35.3237 11.4371 34.9824 11.4371C34.4511 11.4371 34.0518 11.7212 34.0518 11.7212C35.4815 12.4938 35.7724 13.7344 36.586 14.013ZM3.79027 14.0815C3.9298 14.0815 4.06934 14.0609 4.2035 14.0119C5.01924 13.7333 5.31333 12.4938 6.73979 11.7223C6.73979 11.7223 6.34051 11.4371 5.81243 11.4371C5.46896 11.4371 5.07076 11.5547 4.69294 11.9508C3.5112 13.1696 2.41211 13.2382 2.41211 13.2382C2.6096 13.6876 3.19028 14.0826 3.79027 14.0826V14.0815Z" fill="#FFFFFE"/>
<path fill-rule="evenodd" clip-rule="evenodd" d="M36.1574 22.9133C35.0518 22.3583 34.3542 20.8892 34.1846 20.3603C34.0021 23.2746 32.6014 25.2965 30.9646 27.2423C30.1145 28.2522 29.8182 29.2338 29.8182 29.2338C29.8182 29.2338 29.9825 28.1216 30.7166 27.2162C32.244 25.3531 33.6951 23.033 33.8035 20.3494C33.8776 18.4776 33.4043 16.9596 32.6637 15.7081C33.078 17.0107 33.0189 18.6071 31.6139 20.0969C31.6139 20.0969 34.4121 16.6929 30.5009 13.2019C28.936 11.8742 27.2229 11.0537 26.3417 10.4726C29.5263 11.5282 31.0826 10.3659 31.0826 10.3659C30.0651 11.2616 28.7481 11.2463 27.9313 11.1168C28.1535 11.2267 28.3843 11.3421 28.6311 11.4759C31.3177 12.9581 33.7305 15.3968 34.1427 18.7726V18.7464C34.7663 22.0623 36.1574 22.9133 36.1574 22.9133ZM36.9752 19.0501C36.9999 19.0522 37.0214 19.0522 37.0461 19.0522C38.5434 19.0522 39.05 17.4231 39.05 17.4231H39.021C38.7462 17.4231 36.5201 17.3578 34.9466 15.3261C33.9119 13.9908 33.0629 12.8166 31.3864 12.3552L31.2211 12.3248L31.1857 12.1539C31.1395 11.8938 31.3145 11.6501 31.7138 11.3878C34.0268 9.84902 32.4544 7.88585 32.4544 7.88585C32.4544 7.88585 31.7953 9.45508 30.3173 9.45508L30.2068 9.4529C30.0394 9.4442 29.8773 9.43876 29.7141 9.40285L29.4415 9.34842C29.4415 9.34842 29.8633 8.18402 28.8458 7.11646C28.0805 6.30899 27.1478 6.17188 26.6101 6.17188C26.3385 6.17188 26.1668 6.20779 26.1668 6.20779C26.6777 6.88576 27.0469 8.01208 26.4566 8.70637C25.9467 9.30273 24.7017 9.33211 24.7017 10.2223C24.7017 10.5988 25.0484 11.0385 25.6709 11.4335C27.5428 12.6306 29.4007 14.2194 30.1735 16.3491C31.1395 19.0043 30.0512 20.7673 28.4991 21.7783C28.4991 21.7783 28.9864 22.2331 29.6916 22.2919C29.8354 22.3061 29.976 22.3126 30.107 22.3126C31.5978 22.3126 32.3685 21.602 32.3685 21.602C32.3685 21.602 32.2408 22.5835 31.4669 23.4944C30.7499 24.3345 29.8107 24.8308 28.3778 24.8514C28.3778 24.8514 28.3328 25.5261 28.9671 26.1116C29.3739 26.4805 30.3109 26.6013 30.3109 26.6013C30.3109 26.6013 28.5549 26.9615 28.3607 29.5961C28.2555 31.0239 27.897 31.5191 27.897 31.5191H27.9281C32.0025 31.5191 31.8984 27.9692 31.8984 27.9692C31.8984 27.9692 32.1817 29.0205 33.3184 29.2947C33.4558 29.3317 33.6028 29.3458 33.7424 29.3458C34.1073 29.3458 34.4261 29.2588 34.4261 29.2588C34.4261 29.2588 33.8304 27.9834 34.4207 26.1998C34.9112 24.7187 34.8318 23.6217 34.8318 23.6217C34.8318 23.6217 35.3803 24.4651 36.7423 24.4727H36.7563C37.078 24.4778 37.3958 24.4004 37.6802 24.2479C37.9647 24.0953 38.2065 23.8725 38.3834 23.6C35.6668 22.4541 35.9352 18.7573 35.9352 18.7573C35.9352 18.7573 36.2872 19.024 36.9752 19.0501ZM9.83171 27.2423C8.19487 25.2965 6.79417 23.2746 6.60956 20.3603C6.44105 20.8903 5.74445 22.3594 4.63999 22.9133C4.63999 22.9133 6.02889 22.0623 6.65249 18.7464V18.7726C7.06573 15.3968 9.47858 12.9581 12.1651 11.477C12.412 11.341 12.6438 11.2267 12.8639 11.1179C12.0481 11.2463 10.7301 11.2616 9.71364 10.367C9.71364 10.367 11.27 11.5282 14.4535 10.4726C13.5733 11.0537 11.8603 11.8742 10.2965 13.2019C6.38416 16.6929 9.18234 20.0969 9.18234 20.0969C7.77627 18.6061 7.71831 17.0118 8.13262 15.7081C7.39202 16.9596 6.91761 18.4776 6.99489 20.3505C7.10115 23.033 8.55122 25.3531 10.0754 27.2173C10.8138 28.1205 10.9802 29.2327 10.9802 29.2327C10.9802 29.2327 10.6796 28.2522 9.83171 27.2423ZM10.4864 26.6002C10.4864 26.6002 11.4235 26.4805 11.8303 26.1105C12.4635 25.5261 12.4195 24.8514 12.4195 24.8514C10.9855 24.8308 10.0474 24.3345 9.32724 23.4944C8.55659 22.5835 8.42779 21.602 8.42779 21.602C8.42779 21.602 9.19844 22.3126 10.6872 22.3126C10.8213 22.3126 10.9609 22.3061 11.1036 22.2919C11.5441 22.2467 11.9608 22.0677 12.2993 21.7783C10.7451 20.7673 9.65675 19.0043 10.6217 16.348C11.3945 14.2205 13.2513 12.6306 15.1254 11.4324C15.7468 11.0385 16.0925 10.5988 16.0925 10.2223C16.0925 9.33211 14.8495 9.30273 14.3397 8.70637C13.7494 8.01208 14.1197 6.88576 14.6295 6.20779C14.6295 6.20779 14.4588 6.17188 14.1862 6.17188C13.6496 6.17188 12.7168 6.30899 11.9505 7.11646C10.9308 8.18511 11.3548 9.34951 11.3548 9.34951L11.0821 9.40392C10.9201 9.43766 10.7558 9.4442 10.5884 9.45399L10.4811 9.45508C8.99987 9.45508 8.34192 7.88693 8.34192 7.88693C8.34192 7.88693 6.77163 9.84902 9.08467 11.3878C9.4818 11.6501 9.65675 11.8949 9.6106 12.1539L9.57518 12.3237L9.40667 12.3541C7.73334 12.8166 6.88433 13.9908 5.84749 15.3261C4.27399 17.3578 2.05004 17.4231 1.77419 17.4231H1.74414C1.74414 17.4231 2.25183 19.0522 3.7502 19.0522C3.77381 19.0522 3.79528 19.0522 3.82104 19.0501C4.50905 19.025 4.86217 18.7573 4.86217 18.7573C4.86217 18.7573 5.12836 22.4541 2.41283 23.6C2.41283 23.6 2.90763 24.4738 4.04107 24.4738H4.05395C5.41709 24.4651 5.96449 23.6217 5.96449 23.6217C5.96449 23.6217 5.88506 24.7198 6.37343 26.1998C6.96376 27.9845 6.37128 29.2577 6.37128 29.2577C6.37128 29.2577 6.68791 29.3448 7.05392 29.3448C7.1956 29.3448 7.3405 29.3317 7.47681 29.2947C8.6124 29.0205 8.89683 27.9692 8.89683 27.9692C8.89683 27.9692 8.79272 31.5191 12.8682 31.5191H12.8982C12.8982 31.5191 12.5408 31.0239 12.4367 29.5961C12.2435 26.9626 10.4864 26.6002 10.4864 26.6002ZM19.4778 13.5196H21.399V14.1889C21.1736 13.9081 20.7336 13.9658 20.7336 13.9658V14.9311C20.7336 14.9311 20.7486 15.4056 20.9139 15.6112H19.9629C20.1293 15.4056 20.1432 14.9311 20.1432 14.9311V13.9658C20.1432 13.9658 19.7053 13.9081 19.4778 14.1889V13.5196ZM17.3848 13.6198C17.4513 13.6927 17.5168 13.7721 17.5801 13.8516C17.5951 13.8701 17.6091 13.8864 17.6241 13.9081C17.6831 13.9865 17.7422 14.0714 17.7991 14.1563L17.8377 14.2139C17.9053 14.3184 17.9697 14.4261 18.0341 14.5382C18.6223 15.5688 19.5625 16.1847 20.3965 16.1858C21.2327 16.1847 22.1718 15.5688 22.7611 14.5382C22.8266 14.424 22.892 14.313 22.9607 14.2085C23.0391 14.0868 23.1229 13.9688 23.2119 13.8548C23.2774 13.7721 23.345 13.6916 23.4137 13.6176C23.4255 13.6067 23.4351 13.5947 23.4469 13.5849C23.7475 13.2737 24.1027 13.0365 24.5707 12.9048L24.3625 12.7818H24.3518L23.5231 12.2943L22.6741 11.7991L20.403 13.055L20.3965 13.0495L20.3933 13.055L18.1221 11.7991L17.2721 12.2943L16.4434 12.7818H16.4338L16.2245 12.9048C16.6914 13.0354 17.0477 13.2704 17.3483 13.5828C17.3611 13.5936 17.3697 13.6089 17.3848 13.6198Z" fill="#FFFFFE"/>
<path fill-rule="evenodd" clip-rule="evenodd" d="M19.6737 9.26287V9.89404L19.5546 9.83745C19.5492 9.8331 19.3732 9.79393 19.0694 9.54799C18.566 9.15187 18.5564 8.78621 18.5564 8.78621L19.6726 9.26287H19.6737ZM20.1997 12.2196V8.29977L17.7439 7.45312L18.3922 11.2511L20.2007 12.2196H20.1997ZM21.1227 9.26287L22.239 8.78621C22.239 8.78621 22.2304 9.15187 21.7249 9.54799C21.4211 9.79283 21.2462 9.8331 21.2408 9.83745L21.1227 9.89295V9.26287ZM22.4032 11.2522L23.0483 7.45421L20.5936 8.29977V12.2196L22.4032 11.2511V11.2522ZM16.7263 21.3064C16.9657 21.3934 17.2555 21.4119 17.4047 21.4119C17.4101 21.3934 17.4186 21.3706 17.4262 21.3423C17.438 21.2987 17.4508 21.253 17.4605 21.2052C17.5024 20.9875 17.5163 20.7427 17.5206 20.5838C17.3833 20.501 17.2715 20.3812 17.1975 20.2377C17.1063 20.0429 16.9764 19.9515 16.7865 19.9515C16.5396 19.9515 16.2745 20.1039 16.1596 20.1735C16.0695 20.7155 16.4634 21.2073 16.7263 21.3053V21.3064ZM22.1596 19.2267C21.7045 19.7306 20.8104 20.6088 20.7674 20.6523L20.7138 20.7067L17.8909 20.6621C17.8886 20.8989 17.8583 21.1345 17.8008 21.364L17.7782 21.4544L21.1345 22.0681C21.4834 21.82 22.444 21.1072 22.8175 20.8275C22.546 20.4249 22.5202 19.9472 22.5814 19.612C22.4202 19.5088 22.2776 19.3785 22.1596 19.2267Z" fill="#FFFFFE"/>
<path fill-rule="evenodd" clip-rule="evenodd" d="M22.5438 15.7784C21.8934 16.4336 21.2697 16.6762 20.7127 16.7328C20.6107 16.744 20.5083 16.7498 20.4057 16.7502H20.3918C20.1868 16.7502 19.9825 16.7283 19.7821 16.6849C19.7456 16.8318 19.6995 17.1398 19.8315 17.4315C19.9495 17.6959 20.1889 17.8929 20.5388 18.0245L20.6569 18.0713L20.6579 18.1998C20.6579 18.2378 20.6859 19.0714 21.581 19.3032C21.727 19.1509 21.8601 19.0127 21.9567 18.8962C21.7742 18.4598 21.8708 18.0137 22.1359 17.7949C22.1252 17.8417 22.0071 18.9354 22.8712 19.3424L23.0139 19.411L22.971 19.5644C22.957 19.6112 22.6694 20.6701 23.7159 21.064L23.9005 21.1358L23.8178 21.3176C23.7996 21.3578 23.3896 22.3187 24.3556 22.865H26.4497V21.175C25.7048 21.0825 25.3903 20.4742 25.3087 20.0432C24.962 19.9834 24.6948 19.8321 24.5112 19.5851C24.0711 18.9974 24.449 18.4588 24.4543 18.4294C24.4533 18.4337 24.4543 19.0061 24.8021 19.3609C24.9749 19.5307 25.1788 19.6634 25.489 19.6928L25.6404 19.707L25.6532 19.8648C25.6565 19.8985 25.7391 20.6744 26.4497 20.7963L26.4486 17.3466C26.4486 16.8112 26.6021 16.2736 26.7867 15.7773H22.5438V15.7784ZM16.9056 17.3596L16.8498 19.5557L17.0966 19.5949L17.6977 17.487L17.3918 16.8384L16.9066 17.3596H16.9056ZM18.2086 25.4931C18.1921 25.4926 18.1759 25.4886 18.1609 25.4815C18.146 25.4744 18.1326 25.4643 18.1216 25.4518C18.1107 25.4392 18.1024 25.4246 18.0972 25.4086C18.092 25.3927 18.0901 25.3759 18.0916 25.3593C18.0926 25.3428 18.0967 25.3266 18.1039 25.3118C18.1111 25.2969 18.1212 25.2837 18.1334 25.2729C18.1457 25.262 18.1601 25.2538 18.1755 25.2486C18.191 25.2435 18.2074 25.2415 18.2236 25.2428C18.2945 25.2461 18.3438 25.3081 18.3417 25.3756C18.3392 25.409 18.3239 25.44 18.2989 25.462C18.274 25.484 18.2416 25.4952 18.2086 25.4931ZM23.5345 27.4378C23.5527 27.4378 23.5742 27.44 23.5935 27.4454C23.9692 27.5542 24.0626 28.9232 24.7184 29.0451C24.7828 29.0593 24.8429 29.0625 24.8944 29.0625C25.0844 29.0625 25.1971 28.9809 25.3194 28.834C25.3194 28.834 24.9888 28.3084 24.742 27.9525C24.4146 27.4868 24.1602 26.9241 23.5495 26.9241C23.5345 26.9241 23.5173 26.9241 23.5012 26.9263C23.3849 26.9311 23.2724 26.9696 23.1771 27.0373C22.9732 26.9006 22.7345 26.8269 22.4901 26.8251C22.1091 26.8251 21.8107 27.0036 21.6615 27.0036H21.6561L20.293 26.8665C20.0794 26.8447 19.9109 26.627 19.8497 26.5422L19.8261 26.5052C19.8261 26.4671 19.8261 26.429 19.824 26.3953C19.7778 25.2624 18.9149 24.7781 18.6068 24.7694C18.6068 24.7694 18.6433 24.554 18.5607 24.4723L18.2601 24.8423L17.2727 24.3396L17.9768 25.1753L17.3811 25.8555C17.3059 25.9328 17.3156 26.0372 17.3467 26.0818L17.6043 26.3125L17.9306 26.1112C17.9467 26.0993 17.9768 26.0949 18.0133 26.0949C18.1034 26.0949 18.2387 26.1188 18.3599 26.1188C18.4941 26.1188 18.609 26.0905 18.6229 25.9632C18.5821 26.3833 18.1979 27.1135 18.4501 27.687L18.6369 28.1201L17.4315 27.9438L16.8669 28.9113C16.6931 29.2334 16.6651 29.5816 16.8326 29.771L17.044 30.0398C17.044 30.0398 17.3403 29.7209 17.4057 29.5109L17.3102 29.4042C17.2297 29.3139 17.234 29.2334 17.2834 29.1365L17.6376 28.5402L19.0598 28.8808L19.1349 28.7502C19.2315 28.587 19.371 28.5391 19.5234 28.5391C19.5868 28.5391 19.6512 28.5467 19.7177 28.5576C19.9817 28.6109 20.4164 28.6816 20.8511 28.6816C21.3288 28.6816 21.8021 28.5946 22.0544 28.3084C22.5696 29.0843 23.615 29.2073 23.5323 29.6023L23.2576 30.9321C23.44 30.9234 23.615 30.9114 23.7813 30.8886L24.0432 29.5054C24.0645 29.388 24.0831 29.2701 24.0991 29.1518C23.9982 29.0473 23.7545 28.8285 23.6161 28.5619C23.4325 28.2017 23.5323 28.0135 23.3606 27.5455C23.3606 27.5455 23.4143 27.4367 23.5345 27.4367V27.4378Z" fill="#FFFFFE"/>
<path fill-rule="evenodd" clip-rule="evenodd" d="M16.2631 28.6952C16.2631 28.6952 16.7353 28.4993 16.7783 28.3578L16.7139 28.199C16.6698 28.0945 16.6752 27.9813 16.7622 27.9204L17.2709 27.5623L18.1221 27.7288C18.1221 27.7288 17.9675 27.533 17.9825 27.2718L17.1711 27.0977L16.4047 27.571C16.271 27.6716 16.1744 27.8146 16.1302 27.9773C16.086 28.1401 16.0969 28.3131 16.1611 28.4688L16.2631 28.6963V28.6952ZM22.2812 30.95C22.4326 30.9435 22.6022 30.9413 22.7857 30.9413C22.7857 30.9413 23.2236 29.6409 23.2483 29.5995C22.9231 29.4457 22.6057 29.2753 22.2973 29.0891C22.4272 29.2872 22.7428 29.5125 22.6805 29.6866L22.2812 30.95Z" fill="#FFFFFE"/>
<path fill-rule="evenodd" clip-rule="evenodd" d="M26.4495 23.2361H14.3477V27.86C14.3477 29.7514 15.6947 30.9343 17.6836 30.9343C19.344 30.9343 19.782 30.9996 20.3991 31.6231C20.8252 31.1911 21.1773 31.0311 21.9018 30.9702L21.9179 30.8995L22.2989 29.7013C22.2775 29.6741 21.6549 28.9548 21.6549 28.9548C21.4081 29.0386 21.1998 29.0527 20.8499 29.0527C20.4925 29.0527 20.0879 29.0092 19.6489 28.9265C19.6077 28.9166 19.5656 28.9115 19.5233 28.9113C19.4696 28.9113 19.4664 28.9156 19.4514 28.9428L19.3762 29.0701L19.2367 29.303L18.9759 29.241L17.8145 28.9635L17.6546 29.2301L17.6793 29.2595L17.8199 29.4173L17.7577 29.624C17.6718 29.8928 17.3949 30.2073 17.3101 30.2944L17.0203 30.61L16.7552 30.2715L16.5566 30.018C16.3473 29.7808 16.299 29.4173 16.4171 29.0364C16.4136 29.039 16.4095 29.0405 16.4053 29.0408L16.0779 29.179L15.9308 28.8525L15.8267 28.6229C15.7268 28.3879 15.7088 28.1255 15.7757 27.8788C15.8426 27.6321 15.9905 27.4159 16.1949 27.2658L17.1287 26.7293L18.0195 26.9067C18.041 26.8197 18.0732 26.5106 18.0979 26.4312C18.0807 26.429 18.0646 26.4257 18.0475 26.4257L17.5344 26.6194L17.0407 26.2734C17.0407 26.2734 16.8475 26.084 17.0224 25.8947L17.5001 25.1579L16.2872 23.6126L18.1516 24.3896L18.2761 24.234L18.5272 23.9271L18.8127 24.2035C18.8878 24.278 18.94 24.3728 18.963 24.4767C19.4761 24.6802 20.397 25.2798 20.4786 26.2549L20.1909 26.3713V26.3789C20.2564 26.4584 20.3111 26.491 20.3283 26.4943L21.6592 26.627C21.6936 26.6205 21.7344 26.6053 21.7816 26.5922C21.9479 26.5345 22.1959 26.4508 22.49 26.4508C22.7304 26.4508 22.9622 26.5073 23.1844 26.614C23.2671 26.5813 23.3669 26.5585 23.485 26.5509L23.5494 26.5487C24.261 26.5487 24.6152 27.0895 24.8996 27.5216C24.9468 27.5967 24.9941 27.6663 25.0434 27.736C25.2925 28.0929 25.6177 28.6142 25.6306 28.637L25.7776 28.8688L25.5973 29.0821C25.4599 29.2453 25.2506 29.4358 24.8942 29.4358C24.8135 29.4351 24.733 29.4267 24.6538 29.4108C24.5808 29.3965 24.5095 29.3743 24.4413 29.3444C24.4304 29.4212 24.4179 29.4977 24.4037 29.574L24.1708 30.8113C25.5662 30.4631 26.4527 29.3923 26.4527 27.86L26.4495 23.2361ZM14.3477 22.8639H23.7608C23.2907 22.3699 23.2982 21.7463 23.4173 21.3404C23.2904 21.2786 23.1723 21.1995 23.0664 21.1053C22.6982 21.3807 21.5755 22.211 21.2825 22.4199L21.2192 22.4635L17.5247 21.7844H17.4496C17.3616 21.7844 17.2317 21.7811 17.09 21.7626C17.0749 21.8314 17.0404 21.8943 16.9907 21.9436C16.9411 21.9929 16.8784 22.0266 16.8102 22.0405C16.7421 22.0544 16.6714 22.048 16.6068 22.0221C16.5421 21.9961 16.4863 21.9518 16.446 21.8943C16.4177 21.8551 16.3975 21.8105 16.3864 21.7632C16.3754 21.716 16.3737 21.6669 16.3816 21.619L16.3956 21.5374C16.0156 21.2653 15.6625 20.6559 15.8192 20.0138L15.8342 19.9464L15.8879 19.9072C15.9421 19.8697 15.9979 19.8349 16.0553 19.8027L15.787 19.7592C15.7394 19.7509 15.6968 19.7241 15.6683 19.6845C15.6398 19.6448 15.6278 19.5955 15.6346 19.547C15.6518 19.4447 15.7452 19.3729 15.845 19.3914L16.4836 19.4937L16.5426 17.2073L17.4936 16.1843L18.0882 17.4543L17.4614 19.6547L18.026 19.745C18.0742 19.7531 18.1173 19.7801 18.1459 19.8203C18.1745 19.8605 18.1861 19.9105 18.1784 19.9594C18.1715 20.0028 18.1495 20.0422 18.1164 20.0705C18.0834 20.0989 18.0414 20.1143 17.9981 20.114L17.9691 20.1129L17.5086 20.0367C17.5151 20.0519 17.5237 20.0595 17.5301 20.0748C17.5814 20.1649 17.6585 20.237 17.7512 20.2815L20.5666 20.3283C20.6857 20.2097 20.9809 19.9159 21.2857 19.6047C21.0204 19.5059 20.7874 19.3342 20.613 19.1087C20.4386 18.8832 20.3296 18.613 20.2982 18.3282C19.9118 18.1606 19.6435 17.9103 19.4954 17.5838C19.3151 17.179 19.3795 16.7742 19.4278 16.5772C19.0521 16.439 18.6571 16.1843 18.2535 15.7773H14.0117C14.1942 16.2736 14.3477 16.8112 14.3477 17.3455V22.8628V22.8639Z" fill="white"/>
<path fill-rule="evenodd" clip-rule="evenodd" d="M18.2217 25.2446C18.2053 25.2432 18.1889 25.2452 18.1733 25.2505C18.1578 25.2557 18.1434 25.264 18.1311 25.275C18.1188 25.286 18.1088 25.2993 18.1017 25.3143C18.0945 25.3292 18.0905 25.3455 18.0896 25.3621C18.0883 25.3787 18.0903 25.3954 18.0956 25.4112C18.1008 25.4269 18.1092 25.4415 18.1201 25.4539C18.131 25.4663 18.1443 25.4763 18.1592 25.4834C18.1741 25.4904 18.1902 25.4943 18.2066 25.4949C18.2394 25.497 18.2717 25.486 18.2966 25.4642C18.3215 25.4424 18.337 25.4116 18.3397 25.3784C18.3415 25.3448 18.3301 25.3119 18.3079 25.2868C18.2858 25.2617 18.2548 25.2465 18.2217 25.2446ZM23.8309 34.9407L23.2781 33.3954C23.9361 33.1919 25.0663 32.7545 25.574 32.4639L25.2359 33.5881L26.3811 33.9744C25.6878 34.327 24.8484 34.6577 23.8309 34.9407ZM20.3984 36.3282C19.0664 36.3282 17.5465 36.017 17.0979 35.8549L17.7784 33.9853C18.343 34.1529 19.5172 34.3302 20.3705 34.3248H20.4241C21.2764 34.3302 22.4495 34.1518 23.0173 33.9853L23.6967 35.8549C23.2481 36.0181 21.7282 36.3282 20.3984 36.3282ZM14.4135 33.9744L15.5598 33.5881L15.2206 32.4639C15.7262 32.7545 16.8596 33.193 17.5154 33.3954L16.9626 34.9407C15.9483 34.6578 15.1058 34.327 14.4135 33.9744ZM26.4327 33.6316L25.735 33.3595L25.9282 32.6282L26.1396 31.8306C26.1396 31.8306 24.9053 32.5118 23.1633 33.0222C22.6696 33.1658 22.296 33.2322 22.296 33.2322V33.7752C22.296 33.7752 21.3644 33.9385 20.4241 33.9385H20.3705C19.4281 33.9385 18.4986 33.7752 18.4986 33.7752V33.2311C18.4986 33.2311 18.124 33.1658 17.6303 33.0222C15.8904 32.5107 14.6561 31.8306 14.6561 31.8306L14.8643 32.6282L15.0618 33.3595L14.362 33.6316L13.5859 33.9254C14.4747 34.3618 15.7068 34.9962 16.8338 35.3097L16.5687 36.0475C16.5687 36.0475 17.9984 36.7091 20.3801 36.7156V36.7167H20.4123V36.7156C22.7973 36.7091 24.227 36.0475 24.227 36.0475L23.9586 35.3097C25.0867 34.9962 26.321 34.3629 27.2055 33.9254L26.4327 33.6316ZM17.4864 3.86074L17.8031 3.89556L17.9394 3.60174L18.3387 2.73442L19.0793 3.124L19.3669 3.27309L20.3952 2.23709L21.1969 3.04239L21.4266 3.27309L21.7143 3.124L22.4506 2.73442L22.8563 3.60174L22.9905 3.89556L23.3071 3.86074L23.6098 3.82483C23.4713 4.1415 23.3694 4.44294 23.2953 4.69324C22.4957 4.23944 21.4567 3.98262 20.3962 3.98262C19.3401 3.98262 18.3011 4.23944 17.4982 4.69324C17.4116 4.39745 17.307 4.10742 17.1848 3.82483L17.4854 3.86074H17.4864ZM20.3952 4.43424C21.8152 4.43424 22.9497 4.91306 23.5776 5.42127C23.5776 5.42127 23.7644 4.28189 24.3998 3.27744L23.2567 3.40803L22.6588 2.11847L21.5104 2.72027L20.3952 1.60156L19.2843 2.72027L18.1337 2.11847L17.5369 3.40912L16.3938 3.27636C17.0303 4.28189 17.216 5.42018 17.216 5.42018C17.8471 4.91197 18.9784 4.43424 20.3952 4.43424ZM38.3821 23.5992C38.3821 23.5992 37.8883 24.473 36.7549 24.473H36.741C35.38 24.4643 34.8304 23.6209 34.8304 23.6209C34.8304 23.6209 34.9099 24.7179 34.4204 26.1989C33.8301 27.9837 34.4247 29.2569 34.4247 29.2569C34.4247 29.2569 34.107 29.345 33.741 29.345C33.6015 29.345 33.4555 29.3309 33.317 29.2939C32.1804 29.0207 31.897 27.9695 31.897 27.9695C31.897 27.9695 32.0022 31.5182 27.9267 31.5182H27.8945C27.8945 31.5182 28.2541 31.0231 28.3604 29.5953C28.5536 26.9618 30.3095 26.5994 30.3095 26.5994C30.3095 26.5994 29.3725 26.4797 28.9657 26.1108C28.3314 25.5264 28.3754 24.8506 28.3754 24.8506C29.8094 24.8299 30.7496 24.3348 31.4655 23.4936C31.9269 22.9554 32.2381 22.3021 32.3671 21.6012C32.3671 21.6012 31.5965 22.3118 30.1056 22.3118C29.9747 22.3118 29.8351 22.3052 29.6913 22.2911C28.9851 22.2334 28.4978 21.7774 28.4978 21.7774C30.0498 20.7665 31.1382 19.0024 30.1732 16.3472C29.4004 14.2197 27.5414 12.6297 25.6706 11.4327C25.0481 11.0377 24.7003 10.598 24.7003 10.2204C24.7003 9.3313 25.9454 9.303 26.4563 8.70556C27.0466 8.01127 26.6763 6.88494 26.1654 6.20697C26.1654 6.20697 26.3371 6.17106 26.6087 6.17106C27.1475 6.17106 28.0792 6.30818 28.8455 7.11565C29.862 8.1843 29.4401 9.34871 29.4401 9.34871L29.7128 9.40312C29.8759 9.43686 30.038 9.44447 30.2065 9.45318L30.316 9.45427C31.794 9.45427 32.4541 7.88503 32.4541 7.88503C32.4541 7.88503 34.0254 9.84821 31.7124 11.387C31.3142 11.6492 31.1382 11.8941 31.1843 12.1531L31.2208 12.3239L31.385 12.3533C33.0616 12.8158 33.9106 13.9911 34.9463 15.3253C36.5199 17.357 38.7459 17.4223 39.0196 17.4223H39.0497C39.0497 17.4223 38.542 19.0514 37.0447 19.0514C37.02 19.0514 36.9986 19.0514 36.9739 19.0492C36.2869 19.0242 35.9327 18.7565 35.9327 18.7565C35.9327 18.7565 35.6655 22.4532 38.3821 23.5992ZM37.0447 19.5498C38.8801 19.5498 39.4941 17.653 39.5198 17.5725L39.7238 16.9032L39.0368 16.925H39.0347C38.791 16.925 36.7667 16.8706 35.3317 15.0173L35.1954 14.8454C34.2573 13.6342 33.3675 12.4817 31.7768 11.9561C31.8404 11.8997 31.9082 11.8484 31.9797 11.8027C32.8233 11.239 33.3149 10.5545 33.4372 9.75897C33.6186 8.563 32.8662 7.60971 32.834 7.57053L32.3231 6.92847L32.0033 7.69024C31.9818 7.73703 31.4451 8.95586 30.316 8.95586H30.2323C30.155 8.95259 30.0809 8.94933 30.0079 8.9428C30.0477 8.39868 29.95 7.55856 29.1986 6.7685C28.296 5.81847 27.1883 5.67592 26.6087 5.67592C26.2996 5.67592 26.0935 5.71509 26.071 5.71727L25.2992 5.87289L25.7747 6.5095C26.1482 7.00139 26.4874 7.90789 26.086 8.38127C25.9572 8.53362 25.6931 8.65442 25.4409 8.77739C24.9214 9.02006 24.2109 9.35959 24.2109 10.2204C24.2109 10.7776 24.637 11.3619 25.4098 11.8571C27.6938 13.3164 29.1042 14.8399 29.7128 16.5213C30.6552 19.1069 29.4262 20.5826 28.2316 21.3596L27.6971 21.7089L28.1661 22.1464C28.2294 22.2029 28.8015 22.7155 29.6484 22.7895C29.8094 22.8004 29.9629 22.8091 30.1067 22.8091C30.6487 22.8091 31.1113 22.722 31.487 22.6067C31.3747 22.8054 31.2439 22.9927 31.0963 23.166C30.4147 23.9692 29.5754 24.3348 28.3679 24.3544L27.9192 24.3609L27.8849 24.818C27.8806 24.9105 27.8473 25.7582 28.6362 26.4786C28.7575 26.5896 28.9035 26.6821 29.057 26.7561C28.5203 27.2458 27.9772 28.099 27.872 29.5594C27.7829 30.7782 27.4963 31.2299 27.4931 31.2353L26.9972 32.0036L27.8935 32.0156C29.3736 32.0156 30.507 31.602 31.2916 30.7793C31.698 30.3472 32.0013 29.8264 32.1782 29.2569C32.6141 29.6337 33.1682 29.8405 33.741 29.8402C34.1596 29.8402 34.5095 29.7499 34.5481 29.7412L35.1202 29.5866L34.868 29.0447C34.8487 29.0012 34.3721 27.9129 34.8852 26.36C35.1063 25.6886 35.219 25.0879 35.2737 24.6188C35.6344 24.8104 36.1163 24.9671 36.7399 24.9692C38.1567 24.9692 38.7803 23.8952 38.8082 23.8505L39.0873 23.3565L38.5699 23.141C36.8826 22.4293 36.5091 20.5184 36.434 19.4845C36.5875 19.5139 36.7613 19.5411 36.9578 19.5466L37.0447 19.5498Z" fill="#1A1919"/>
<path fill-rule="evenodd" clip-rule="evenodd" d="M34.9837 11.4369C35.3251 11.4369 35.7243 11.5555 36.1 11.9505C37.2828 13.1694 38.383 13.2379 38.383 13.2379C38.1833 13.6874 37.6037 14.0824 37.0038 14.0824C36.8653 14.0824 36.7247 14.0606 36.5884 14.0117C35.7737 13.7331 35.4828 12.4936 34.0542 11.722C34.0542 11.722 34.4514 11.4369 34.9837 11.4369ZM33.8213 12.1617C34.505 12.5317 34.9043 13.029 35.2542 13.4686C35.5977 13.8985 35.9229 14.312 36.4349 14.484C36.6152 14.5471 36.8073 14.5775 37.0038 14.5775C37.769 14.5775 38.5386 14.1009 38.8306 13.4414L39.1236 12.782L38.4141 12.7384C38.3808 12.7384 37.4674 12.6525 36.4521 11.599C36.0335 11.1659 35.5279 10.9396 34.9837 10.9396C34.3183 10.9396 33.8245 11.2769 33.7709 11.3118L33.1183 11.7786L33.8213 12.1617ZM34.1422 18.7466V18.7716C33.7301 15.3959 31.3172 12.9583 28.6307 11.4761C28.3838 11.3411 28.153 11.2258 27.9309 11.117C28.7477 11.2454 30.0647 11.2606 31.0822 10.3661C31.0822 10.3661 29.5258 11.5272 26.3413 10.4716C27.2214 11.0528 28.9355 11.8733 30.5004 13.2009C34.4106 16.692 31.6135 20.096 31.6135 20.096C33.0195 18.6062 33.0775 17.0108 32.6632 15.7071C33.4038 16.9586 33.8761 18.4767 33.8031 20.3495C33.6957 23.032 32.2435 25.3522 30.7162 27.2163C29.982 28.1195 29.8189 29.2317 29.8189 29.2317C29.8189 29.2317 30.1151 28.2512 30.9641 27.2424C32.6009 25.2945 34.0016 23.2736 34.1841 20.3593C34.3537 20.8893 35.0514 22.3584 36.1569 22.9123C36.1569 22.9123 34.7669 22.0613 34.1422 18.7466ZM12.8688 31.5181C8.79333 31.5181 8.89745 27.9694 8.89745 27.9694C8.89745 27.9694 8.61194 29.0206 7.47743 29.2938C7.33884 29.3291 7.19636 29.3463 7.05346 29.3449C6.68853 29.3449 6.37082 29.2578 6.37082 29.2578C6.37082 29.2578 6.96437 27.9824 6.37297 26.1988C5.88567 24.7188 5.9651 23.6208 5.9651 23.6208C5.9651 23.6208 5.41663 24.4642 4.05457 24.4729H4.04061C2.90825 24.4729 2.41344 23.599 2.41344 23.599C5.12897 22.4531 4.86279 18.7564 4.86279 18.7564C4.86279 18.7564 4.50859 19.0241 3.82165 19.0502H3.74974C2.25137 19.0502 1.74368 17.4222 1.74368 17.4222H1.77481C2.05173 17.4222 4.2746 17.3569 5.84703 15.3252C6.8828 13.9899 7.73288 12.8157 9.40621 12.3543L9.57472 12.3238L9.61014 12.153C9.65737 11.894 9.48134 11.6491 9.08421 11.3868C6.77117 9.84807 8.34146 7.88599 8.34146 7.88599C8.34146 7.88599 8.99834 9.45413 10.4806 9.45413L10.5879 9.45305C10.7554 9.44434 10.9196 9.43672 11.0817 9.4019L11.3543 9.34857C11.3543 9.34857 10.9314 8.18416 11.9511 7.11552C12.7174 6.30805 13.648 6.17093 14.1858 6.17093C14.4595 6.17093 14.628 6.20684 14.628 6.20684C14.1192 6.88481 13.75 8.01113 14.3382 8.70543C14.8491 9.30287 16.0931 9.33116 16.0931 10.2203C16.0931 10.5979 15.7464 11.0375 15.1249 11.4325C13.252 12.6296 11.394 14.2184 10.6212 16.3481C9.65736 19.0034 10.7457 20.7663 12.2988 21.7784C12.2988 21.7784 11.8105 22.2333 11.1042 22.291C10.9658 22.3045 10.8268 22.3114 10.6878 22.3116C9.19798 22.3116 8.42733 21.6021 8.42733 21.6021C8.42733 21.6021 8.55613 22.5826 9.32678 23.4945C10.0459 24.3347 10.9851 24.8298 12.418 24.8505C12.418 24.8505 12.4641 25.5252 11.8298 26.1107C11.423 26.4807 10.486 26.6004 10.486 26.6004C10.486 26.6004 12.243 26.9617 12.4362 29.5952C12.5414 31.023 12.8978 31.5181 12.8978 31.5181H12.8688ZM13.3013 31.2352C13.3003 31.2297 13.0158 30.7781 12.9246 29.5593C12.8173 28.0989 12.2742 27.2457 11.7364 26.756C11.892 26.682 12.0369 26.5895 12.1572 26.4785C12.9461 25.7581 12.9128 24.9114 12.9074 24.8178L12.8774 24.3608L12.4255 24.3542C11.2212 24.3347 10.3808 23.969 9.69922 23.1659C9.5523 22.992 9.42152 22.8048 9.30853 22.6065C9.6842 22.723 10.1436 22.809 10.6878 22.809C10.8327 22.809 10.9851 22.8003 11.145 22.7894C11.6928 22.7339 12.2108 22.5099 12.6294 22.1473L13.0985 21.7088L12.564 21.3605C11.3661 20.5824 10.1414 19.1079 11.0828 16.5211C11.6913 14.8398 13.0985 13.3174 15.3868 11.857C16.1596 11.3618 16.5825 10.7774 16.5825 10.2203C16.5825 9.35946 15.8741 9.01993 15.3546 8.77725C15.1013 8.65428 14.8373 8.5324 14.7095 8.38113C14.307 7.90775 14.6451 7.00125 15.0197 6.50937L15.4984 5.87275L14.7224 5.71713C14.701 5.71387 14.497 5.67578 14.1858 5.67578C13.6072 5.67578 12.5006 5.81834 11.599 6.76837C10.8466 7.55843 10.7479 8.39963 10.7865 8.94266C10.7135 8.94919 10.6405 8.95246 10.5633 8.95572H10.4806C9.34717 8.95572 8.81265 7.7369 8.79226 7.6901L8.47348 6.92834L7.95828 7.5704C7.9293 7.60958 7.17475 8.56287 7.35936 9.75884C7.48065 10.5533 7.97223 11.2388 8.81587 11.8025C8.90818 11.8624 8.97151 11.9135 9.01766 11.956C7.42483 12.4816 6.53719 13.634 5.59909 14.8453L5.46385 15.0172C4.02988 16.8705 2.00021 16.926 1.75763 16.926L1.06641 16.9042L1.27678 17.5724C1.30147 17.6529 1.91327 19.5497 3.74974 19.5497L3.83775 19.5464C4.03203 19.541 4.20698 19.5138 4.36154 19.4833C4.28641 20.5171 3.91074 22.4292 2.22346 23.1398L1.70826 23.3574L1.98733 23.8504C2.01309 23.895 2.63991 24.9691 4.05886 24.9691C4.56672 24.9742 5.06827 24.8548 5.52074 24.6209C5.57548 25.0888 5.68925 25.6884 5.91036 26.3599C6.42341 27.9117 5.94578 29.001 5.92753 29.0445L5.67423 29.5865L6.24631 29.7399C6.28495 29.7508 6.63701 29.84 7.05346 29.84C7.62645 29.8415 8.18096 29.6346 8.61623 29.2568C8.77187 29.7432 9.03913 30.2927 9.50173 30.7792C10.2896 31.6008 11.4219 32.0154 12.901 32.0154L13.7972 32.0035L13.3013 31.2352Z" fill="#1A1919"/>
<path fill-rule="evenodd" clip-rule="evenodd" d="M4.69507 11.9487C5.07288 11.5536 5.47109 11.4339 5.81455 11.4339C6.34263 11.4339 6.74299 11.7201 6.74299 11.7201C5.31545 12.4928 5.02136 13.7312 4.20563 14.0109C4.07278 14.0576 3.933 14.0807 3.79239 14.0794C3.1924 14.0794 2.61173 13.6855 2.41423 13.236C2.41423 13.236 3.51333 13.1675 4.69507 11.9487ZM3.79239 14.5757C3.98881 14.5757 4.18094 14.5452 4.36341 14.4821C4.87432 14.3101 5.20061 13.8977 5.54407 13.4667C5.89505 13.0282 6.29004 12.5309 6.97483 12.1609L7.67893 11.7767L7.0242 11.3088C6.97054 11.275 6.48002 10.9388 5.81455 10.9388C5.2693 10.9388 4.76269 11.164 4.34516 11.5972C3.32871 12.6517 2.41745 12.7365 2.38418 12.7376L1.67578 12.7801L1.96558 13.4406C2.25967 14.099 3.02818 14.5757 3.79239 14.5757ZM6.99415 20.3477C6.91901 18.4748 7.39128 16.9567 8.13188 15.7052C7.71972 17.009 7.77553 18.6043 9.18375 20.0952C9.18375 20.0952 6.3845 16.689 10.2968 13.2001C11.8617 11.8714 13.5737 11.0509 14.4538 10.4697C11.2703 11.5253 9.71505 10.3631 9.71505 10.3631C10.7315 11.2587 12.0485 11.2446 12.8653 11.114C12.6442 11.2239 12.4123 11.3382 12.1655 11.4742C9.47891 12.9553 7.06713 15.394 6.65283 18.7697V18.7447C6.02922 22.0595 4.64033 22.9104 4.64033 22.9104C5.74586 22.3554 6.44138 20.8863 6.61097 20.3575C6.79558 23.2717 8.19521 25.2937 9.83097 27.2405C10.681 28.2493 10.9794 29.2298 10.9794 29.2298C10.9794 29.2298 10.8141 28.1187 10.0768 27.2144C8.55263 25.3503 7.10148 23.0302 6.99415 20.3477ZM19.4781 13.5168V14.1872C19.7056 13.9053 20.1436 13.963 20.1436 13.963V14.9282C20.1436 14.9282 20.1296 15.4027 19.9632 15.6084H20.9142C20.7489 15.4027 20.7328 14.9282 20.7328 14.9282V13.963C20.7328 13.963 21.1729 13.9053 21.3983 14.1872V13.5168H19.477H19.4781ZM19.0702 9.54692C19.374 9.79177 19.55 9.83313 19.5554 9.83639L19.6734 9.89189V9.2618L18.5572 8.78516C18.5572 8.78516 18.5668 9.1508 19.0702 9.54692ZM21.7256 9.54692C22.2301 9.1508 22.2408 8.78516 22.2408 8.78516L21.1235 9.2618V9.89298L21.2416 9.83639C21.2469 9.83313 21.4219 9.79177 21.7256 9.54692Z" fill="#1A1919"/>
<path fill-rule="evenodd" clip-rule="evenodd" d="M20.3983 7.86942L17.7074 6.78989C17.9361 6.23924 18.9912 5.7713 20.3983 5.77021C21.8065 5.7713 22.8616 6.23924 23.0902 6.78989L20.3983 7.86942ZM22.4044 11.2527L20.5958 12.2213V8.29927L23.0505 7.45262L22.4044 11.2506V11.2527ZM23.5249 12.2931L24.3514 12.7806H24.3632L24.5714 12.9036C24.1045 13.0342 23.7471 13.2725 23.4476 13.5837L23.4154 13.6164C23.3448 13.6928 23.2771 13.7719 23.2126 13.8536L23.175 13.9037C23.1106 13.9875 23.0494 14.0734 22.9925 14.1627L22.9614 14.2073C22.8918 14.3151 22.8256 14.425 22.7628 14.537C22.1725 15.5676 21.2333 16.1835 20.3983 16.1857C19.5632 16.1835 18.623 15.5676 18.0348 14.537C17.9723 14.4271 17.9068 14.319 17.8384 14.2127L17.7998 14.1551C17.7437 14.071 17.6857 13.9883 17.6259 13.9069C17.6108 13.8852 17.5969 13.8689 17.5819 13.8504C17.5188 13.771 17.4533 13.6937 17.3854 13.6186C17.3715 13.6077 17.3618 13.5935 17.349 13.5816C17.0423 13.256 16.6537 13.0215 16.2252 12.9036L16.4355 12.7806H16.4441L17.2738 12.2931L18.1228 11.7979L20.394 13.0538L20.3983 13.0494L20.4047 13.0538L22.6748 11.7979L23.5249 12.2931ZM26.7878 15.7798C26.6022 16.276 26.4487 16.8136 26.4487 17.3479L26.4508 20.7977C25.7413 20.6779 25.6566 19.9009 25.6544 19.8672L25.6415 19.7094L25.488 19.6953C25.2278 19.672 24.9846 19.5541 24.8033 19.3634C24.4544 19.0097 24.4544 18.4373 24.4544 18.4318C24.4501 18.4612 24.0723 18.9977 24.5102 19.5854C24.6948 19.8335 24.9632 19.9869 25.3088 20.0468C25.3904 20.4766 25.7059 21.0849 26.4508 21.1785V22.8653H24.3567C23.3907 22.3201 23.7997 21.3603 23.819 21.3189L23.9006 21.1361L23.716 21.0654C22.6695 20.6714 22.9582 19.6115 22.9721 19.5658L23.0151 19.4112L22.8713 19.3438C22.0083 18.9368 22.1253 17.842 22.1371 17.7963C21.8709 18.015 21.7754 18.4601 21.9578 18.8987C21.8591 19.014 21.726 19.1522 21.5811 19.3046C21.329 19.2488 21.102 19.1104 20.9352 18.9107C20.7683 18.7111 20.671 18.4614 20.658 18.2L20.657 18.0716L20.5389 18.0259C20.1901 17.8953 19.9507 17.6973 19.8316 17.4328C19.6996 17.1401 19.7457 16.8343 19.7822 16.6852C19.9828 16.7274 20.187 16.7493 20.3919 16.7505H20.4058C20.5099 16.7505 20.6119 16.744 20.7128 16.7342C21.2709 16.6776 21.8934 16.4349 22.5439 15.7798H26.7878ZM24.1711 30.8138L24.405 29.5764L24.4426 29.3479C24.587 29.4053 24.7405 29.4359 24.8956 29.4382C25.2519 29.4382 25.4601 29.2467 25.5986 29.0846L25.7768 28.8724L25.6308 28.6395C25.6179 28.6166 25.2927 28.0954 25.0437 27.7384C24.9942 27.6679 24.9466 27.596 24.9009 27.5229C24.6165 27.092 24.2612 26.5511 23.5485 26.5511L23.4852 26.5533C23.3826 26.5589 23.2813 26.5798 23.1847 26.6154C22.9678 26.5102 22.7306 26.4552 22.4902 26.4543C22.2484 26.4602 22.0093 26.5073 21.7829 26.5936C21.7357 26.6077 21.6927 26.623 21.6595 26.6295L20.3285 26.4967C20.3114 26.4924 20.2577 26.4597 20.1911 26.3814V26.3738L20.4788 26.2573C20.3983 25.2823 19.4763 24.6827 18.9632 24.4792C18.9405 24.3749 18.8883 24.2796 18.813 24.2049L18.5275 23.9296L18.2763 24.2354L18.1529 24.3921L16.2874 23.614L17.5003 25.1604L17.0227 25.8971C16.8466 26.0854 17.0409 26.2758 17.0409 26.2758L17.5346 26.6219L18.0477 26.4271C18.0649 26.4271 18.0799 26.4314 18.0981 26.4336C18.0735 26.5131 18.0413 26.8232 18.0198 26.9092L17.13 26.7318L16.1962 27.2683C15.7143 27.6274 15.6488 28.2194 15.828 28.6253L15.9311 28.856L16.0781 29.1814L16.4055 29.0443C16.4109 29.0421 16.4152 29.041 16.4184 29.0378C16.3003 29.4197 16.3486 29.7821 16.5579 30.0204L16.7565 30.274L17.0205 30.6135L17.3103 30.2969C17.3962 30.2098 17.6731 29.8953 17.7579 29.6254L17.8201 29.4197L17.6795 29.2619L17.6559 29.2326L17.8148 28.9659L18.9761 29.2445L19.238 29.3055L19.3776 29.0715L19.4527 28.9453C19.4666 28.9181 19.4699 28.9137 19.5235 28.9137C19.5654 28.9137 19.6062 28.9181 19.6502 28.9289C20.0462 29.0082 20.4487 29.0501 20.8523 29.0541C21.199 29.0541 21.4083 29.041 21.6552 28.9572C21.6552 28.9572 22.2788 29.6755 22.3002 29.7038L21.9181 30.9008L21.901 30.9727C21.1786 31.0325 20.8266 31.1936 20.4004 31.6256C19.7822 31.0031 19.3454 30.9367 17.6849 30.9367C15.696 30.9367 14.3479 29.7538 14.3479 27.8614V23.2386H26.4508L26.453 27.8614C26.453 29.3947 25.5664 30.4644 24.1711 30.8138ZM16.7168 28.1998L16.7801 28.3598C16.7372 28.4991 16.2649 28.6971 16.2649 28.6971L16.164 28.4697C16.0996 28.3138 16.0885 28.1406 16.1327 27.9776C16.1769 27.8146 16.2737 27.6714 16.4076 27.5708L17.1729 27.0974L17.9854 27.2716C17.9693 27.5338 18.1239 27.7297 18.1239 27.7297L17.2738 27.5643L16.764 27.9212C16.6781 27.9822 16.6717 28.0954 16.7168 28.1998ZM24.0423 29.5057L23.7814 30.8889C23.614 30.9128 23.438 30.9259 23.2577 30.9324L23.5324 29.6047C23.614 29.2086 22.5707 29.0857 22.0544 28.3097C21.8022 28.597 21.3289 28.683 20.8523 28.683C20.4165 28.683 19.9829 28.6123 19.7178 28.5589C19.654 28.5477 19.5894 28.5415 19.5246 28.5404C19.3711 28.5404 19.2327 28.5883 19.1361 28.7527L19.0609 28.8832L17.6377 28.5426L17.2835 29.1379C17.2341 29.2347 17.2298 29.3153 17.3103 29.4056L17.4069 29.5122C17.3404 29.7223 17.0441 30.0411 17.0441 30.0411L16.8327 29.7723C16.6652 29.583 16.6931 29.2347 16.867 28.9126L17.4316 27.9441L18.637 28.1215L18.4502 27.6873C18.198 27.1138 18.5822 26.3847 18.623 25.9646C18.609 26.0919 18.4942 26.1202 18.3611 26.1202C18.2387 26.1202 18.1035 26.0974 18.0133 26.0974C17.9779 26.0974 17.9468 26.1006 17.9307 26.1126L17.6044 26.3139L17.3468 26.0832C17.3157 26.0397 17.306 25.9341 17.3812 25.8558L17.9779 25.1767L17.2738 24.3409L18.2591 24.8448L18.5607 24.4737C18.6434 24.5564 18.6069 24.7708 18.6069 24.7708C18.9149 24.7795 19.779 25.2638 19.8241 26.3955C19.8273 26.4304 19.8273 26.4684 19.8273 26.5065L19.8498 26.5435C19.911 26.6295 20.0795 26.8482 20.2931 26.8678L21.6562 27.0049H21.6616C21.8119 27.0049 22.1092 26.8265 22.4902 26.8265C22.6995 26.8265 22.9303 26.8809 23.1772 27.0387C23.1772 27.0387 23.3017 26.9386 23.5024 26.9277C23.5174 26.9255 23.5346 26.9255 23.5485 26.9255C24.1603 26.9255 24.4147 27.487 24.7431 27.9539C24.99 28.3087 25.3195 28.8354 25.3195 28.8354C25.1982 28.9823 25.0845 29.0639 24.8945 29.0639C24.8354 29.0641 24.7764 29.0583 24.7185 29.0465C24.0637 28.9235 23.9682 27.5556 23.5947 27.4468C23.5751 27.4415 23.5549 27.439 23.5346 27.4391C23.4144 27.4391 23.3618 27.548 23.3618 27.548C23.5335 28.0148 23.4326 28.2031 23.6172 28.5633C23.7546 28.8299 23.9983 29.0487 24.0991 29.1531C24.0991 29.1531 24.0723 29.3555 24.0423 29.5068V29.5057ZM22.7875 30.9422C22.6051 30.9422 22.4355 30.9444 22.2831 30.9509L22.6823 29.6874C22.7446 29.5122 22.429 29.287 22.2992 29.0889C22.4956 29.2152 23.0054 29.4916 23.2512 29.6004C23.0919 30.046 22.9373 30.4932 22.7875 30.9422ZM16.8499 19.5571L16.9067 17.361L17.3919 16.8397L17.6967 17.4883L17.0956 19.5962L16.8488 19.5582L16.8499 19.5571ZM17.1987 20.2383C17.2724 20.3814 17.3839 20.5008 17.5207 20.5833C17.5169 20.792 17.4972 21.0001 17.4617 21.2057C17.4509 21.2536 17.4402 21.2982 17.4262 21.3429C17.4198 21.3712 17.4112 21.394 17.4058 21.4125C17.2566 21.4125 16.9658 21.394 16.7286 21.3059C16.4645 21.2079 16.0706 20.716 16.1618 20.1741C16.2756 20.1034 16.5397 19.9521 16.7876 19.9521C16.9776 19.9521 17.1075 20.0435 17.1987 20.2383ZM22.8187 20.8281C22.4462 21.1078 21.4845 21.8206 21.1357 22.0687L17.7783 21.4549L17.8019 21.3646C17.8448 21.1872 17.891 20.9457 17.8931 20.6616L20.7149 20.7073L20.7686 20.6529C20.8115 20.6094 21.7056 19.7312 22.1607 19.2273C22.2691 19.3655 22.4044 19.4961 22.5825 19.6115C22.5224 19.9488 22.5471 20.4255 22.8187 20.8281ZM18.2538 15.7798C18.6584 16.1868 19.0523 16.4404 19.428 16.5796C19.3797 16.7755 19.3153 17.1825 19.4956 17.5863C19.6437 17.9127 19.9121 18.163 20.2995 18.3306C20.3425 18.7333 20.5926 19.3394 21.287 19.6071C20.9822 19.9184 20.6859 20.2122 20.5679 20.3297L17.7515 20.2851C17.6584 20.24 17.5813 20.1671 17.5303 20.0762C17.525 20.062 17.5153 20.0544 17.5089 20.0392L17.9693 20.1153L17.9983 20.1164C18.0416 20.1167 18.0836 20.1013 18.1167 20.073C18.1497 20.0446 18.1717 20.0052 18.1786 19.9619C18.1864 19.9131 18.1749 19.8633 18.1465 19.8231C18.1182 19.7829 18.0753 19.7558 18.0273 19.7475L17.4617 19.6561L18.0885 17.4568L17.4949 16.1868L16.5429 17.2097L16.4849 19.4961L15.8452 19.3927C15.7465 19.3732 15.652 19.4472 15.6338 19.5484C15.6266 19.5973 15.6387 19.6472 15.6674 19.6873C15.6961 19.7274 15.7391 19.7544 15.7873 19.7627L16.0556 19.8041C15.959 19.8596 15.8957 19.9042 15.8881 19.9097L15.8345 19.9488L15.8195 20.0163C15.6638 20.6584 16.0159 21.2678 16.3958 21.5398L16.3819 21.6214C16.3669 21.7194 16.3883 21.8173 16.4463 21.8968C16.4793 21.945 16.5234 21.9844 16.5749 22.0113C16.6263 22.0382 16.6835 22.052 16.7414 22.0513C16.8228 22.0506 16.9015 22.0221 16.9648 21.9703C17.0282 21.9186 17.0724 21.8466 17.0903 21.7662C17.232 21.7825 17.3618 21.7869 17.4498 21.7869H17.5261L21.2194 22.4648L21.2827 22.4224C21.5768 22.2134 22.6995 21.3831 23.0666 21.1078C23.1686 21.1959 23.2813 21.2765 23.4176 21.3429C23.2984 21.7488 23.2909 22.3723 23.761 22.8664H14.3479V17.349C14.3479 16.8136 14.1944 16.276 14.012 15.7798H18.2538ZM17.745 7.4548L20.2019 8.30036V12.2202L18.3933 11.2517L17.745 7.45371V7.4548ZM23.7385 6.98142C23.7385 6.02486 22.1532 5.16406 20.4037 5.16406H20.3929C18.6434 5.16406 17.0592 6.02486 17.0592 6.98142L17.0935 7.21647L17.7922 11.2897L17.0903 11.7033L15.2753 12.7806H15.2817C15.2817 12.7806 14.8738 12.9939 14.6839 13.1245C13.9926 13.612 13.8456 14.3237 14.247 14.6176C14.3458 14.0375 14.7976 13.4314 15.6424 13.4314C16.252 13.4314 16.7157 13.7513 17.0914 14.2291C17.188 14.3499 17.2792 14.4794 17.364 14.6176C17.4692 14.7928 17.5754 14.9473 17.6795 15.0953H13.002C13.3454 15.7972 13.6728 16.5405 13.6728 17.3479V27.8625C13.6728 30.4068 15.5994 31.6212 17.6838 31.6212C19.2949 31.6212 19.5117 31.5472 20.4004 32.4461C21.2849 31.5472 21.5028 31.6212 23.1149 31.6212C25.2004 31.6212 27.1238 30.4068 27.1238 27.8625V17.3479C27.1238 16.5405 27.4512 15.7972 27.7968 15.0953H23.117C23.2222 14.9473 23.3274 14.7928 23.4326 14.6176C23.5185 14.4794 23.6097 14.3499 23.7042 14.2291C24.082 13.7492 24.5457 13.4314 25.1553 13.4314C26 13.4314 26.4508 14.0375 26.5506 14.6176C26.9521 14.3237 26.8072 13.612 26.1106 13.1245C25.926 12.9939 25.5159 12.7806 25.5159 12.7806H25.5235L23.7042 11.7033L23.0065 11.2897L23.7042 7.21647L23.7385 6.98142Z" fill="#1A1919"/>
<path d="M53.7952 24.5045H57.0152V16.9086H61.4373V14.1445H49.373V16.9086H53.7952V24.5045ZM71.2046 14.1445L65.838 20.1734V14.1445H62.7253V24.5045H65.473L70.8397 18.4757V24.5045H73.9524V14.1445H71.2046ZM79.4232 20.6522H84.4249V24.5045H87.5376V14.1445H84.4249V17.9316H79.4232V14.1445H76.3105V24.5045H79.4232V20.6522ZM96.2058 24.5045C96.9142 24.5045 97.5582 24.4392 98.1593 24.2651C99.7693 23.8081 100.821 22.4804 100.821 20.6739C100.821 18.9545 99.9195 17.7575 98.4813 17.2134C97.7943 16.9522 96.9786 16.9304 96.2058 16.9304H93.0073V14.1445H89.8946V24.5045H96.2058ZM93.0073 19.3681H95.6691C96.0985 19.3681 96.5063 19.3681 96.8713 19.4986C97.3865 19.6728 97.687 20.1081 97.687 20.6304C97.687 21.1745 97.3865 21.6316 96.8927 21.8492C96.5493 22.0016 96.2058 22.0016 95.6691 22.0016H93.0073V19.3681ZM105.544 20.5869H106.402L110.116 24.5045H114.259L109.086 19.1069L114.066 14.1445H110.159L106.402 18.0404H105.544V14.1445H102.431V24.5045H105.544V20.5869Z" fill="white"/>
<path d="M120.664 13.8633C116.478 13.8633 113.967 16.2574 113.967 19.348C113.967 22.4386 116.478 24.8327 120.664 24.8327C124.829 24.8327 127.341 22.4386 127.341 19.348C127.341 16.2574 124.829 13.8633 120.664 13.8633ZM120.664 22.308C118.582 22.308 117.251 21.0457 117.251 19.348C117.251 17.6504 118.582 16.4098 120.664 16.4098C122.725 16.4098 124.078 17.6504 124.078 19.348C124.078 21.0457 122.725 22.308 120.664 22.308ZM137.707 14.6033V13.5586H134.594V14.6033C130.687 14.6904 128.347 16.3662 128.347 19.3262C128.347 22.2862 130.687 23.8315 134.594 23.9186V24.9633H137.707V23.9186C141.635 23.8315 143.975 22.2862 143.975 19.3262C143.975 16.3662 141.635 14.6904 137.707 14.6033ZM134.594 21.6986C132.447 21.6115 131.503 20.7192 131.503 19.3262C131.503 17.9333 132.447 16.9321 134.594 16.8451V21.6986ZM137.707 21.6986V16.8451C139.875 16.9321 140.798 17.9333 140.798 19.3262C140.798 20.7192 139.875 21.6115 137.707 21.6986ZM154.331 14.6033V13.5586H151.218V14.6033C147.311 14.6904 144.971 16.3662 144.971 19.3262C144.971 22.2862 147.311 23.8315 151.218 23.9186V24.9633H154.331V23.9186C158.259 23.8315 160.599 22.2862 160.599 19.3262C160.599 16.3662 158.259 14.6904 154.331 14.6033ZM151.218 21.6986C149.071 21.6115 148.127 20.7192 148.127 19.3262C148.127 17.9333 149.071 16.9321 151.218 16.8451V21.6986ZM154.331 21.6986V16.8451C156.499 16.9321 157.422 17.9333 157.422 19.3262C157.422 20.7192 156.499 21.6115 154.331 21.6986Z" fill="white"/>
</g>
</g>
<defs>
<clipPath id="clip0_18282_3256">
<rect width="161" height="37" fill="white" transform="translate(0 0.5)"/>
</clipPath>
</defs>
</svg>
