<svg width="260" height="100" viewBox="0 0 260 100" fill="none" xmlns="http://www.w3.org/2000/svg">
<g clip-path="url(#clip0)">
<path d="M171.474 30.1381C171.931 30.7642 171.514 32.7601 172.03 32.7014C172.527 32.6427 174.234 29.3749 173.678 28.24C173.102 27.1051 169.072 25.7941 168.377 25.755C165.637 25.5984 164.843 27.7508 164.525 29.4728C164.386 30.2555 161.786 35.8518 161.905 35.6757L167.285 29.6685C168.198 28.7684 170.799 29.2184 171.474 30.1381ZM145.227 74.791C145.029 75.2802 144.354 74.4975 144.552 73.9496C144.612 73.7931 145.426 72.0124 147.233 72.3842C147.749 72.5016 145.883 73.206 145.227 74.791ZM173.678 48.238C174.909 47.5335 178.483 41.996 178.622 42.2895C178.741 42.583 178.939 44.1092 178.562 45.1854C178.046 46.6139 173.678 48.238 173.678 48.238ZM180.766 36.1453C180.647 35.8713 183.923 41.9568 183.267 44.6376C182.235 48.9033 178.364 51.8384 178.364 51.8384C178.364 51.8384 180.21 48.3554 180.488 47.7292C180.766 47.1031 182.612 40.7632 180.766 36.1453ZM189.958 39.6674C191.904 42.9548 189.224 46.6921 188.648 47.2205C188.171 47.6705 187.199 48.1793 186.543 48.5119C187.715 47.4553 188.787 46.1247 189.105 44.5593C189.402 42.9743 188.906 41.3894 188.072 39.6283C187.913 39.2956 184.955 34.9908 184.697 34.756C185.173 34.8147 188.966 37.4759 189.958 39.6674ZM191.189 47.3966C193.631 44.9898 194.008 42.446 194.128 41.3894C194.584 43.6787 193.274 46.9465 192.202 48.4532C191.288 48.4923 190.415 48.6097 189.601 48.7467C190.216 48.4141 190.613 47.964 191.189 47.3966ZM180.329 63.1092C176.736 67.6489 170.68 67.4532 166.55 69.0969C161.726 70.9949 158.43 74.3605 157.577 75.2019C156.087 76.6499 154.221 76.2781 153.209 76.2194C152.196 76.1607 151.223 75.652 150.806 75.5737C150.389 75.4954 149.436 75.5933 149.436 75.5933C149.436 75.5933 149.476 75.1432 149.814 74.9084C150.171 74.6932 150.886 74.6149 152.156 74.3605C153.427 74.1061 154.4 73.4408 154.896 73.1082C155.412 72.7756 155.075 72.6777 154.737 72.756C154.42 72.8343 153.387 73.2256 151.62 73.48C149.853 73.7344 149.278 73.5974 148.603 74.067C147.908 74.5171 148.067 75.6715 147.908 75.9846C147.749 76.3173 147.63 76.3955 147.391 76.1803C147.173 75.9846 147.074 75.2019 147.233 74.5562C147.411 73.9105 148.444 73.3821 149.417 73.1669C150.389 72.9517 152.454 72.8147 154.698 71.6406C161.329 68.1772 164.247 65.5747 170.104 61.1133C176.338 56.378 181.898 53.756 186.285 51.6623C188.985 50.3708 196.987 49.412 196.987 49.412C196.987 49.412 195.835 48.6489 194.644 48.5119C193.929 48.4336 193.234 48.4141 192.559 48.4336C193.651 47.8466 196.431 45.7333 196.848 43.0135C197.384 39.3739 192.48 36.3605 192.42 33.0536C192.261 25.344 184.399 24.2483 184.757 24.4635C186.226 25.3636 187.754 27.1051 188.032 28.1031C188.549 29.9228 186.98 31.8991 184.697 32.6623C183.605 33.0145 177.569 34.3255 176.775 35.1278C175.961 35.93 177.629 40.137 176.557 41.8394C175.485 43.5418 169.489 46.4573 168.774 47.2792C168.059 48.101 167.305 47.8466 167.047 47.8271C166.789 47.8075 167.007 48.1206 167.742 48.2771C168.476 48.4336 169.747 48.0032 170.482 47.6118C171.216 47.2009 172.249 48.0619 172.209 48.6293C172.149 49.1772 171.454 49.3337 170.104 50.1751C169.032 50.8404 165.975 48.962 165.717 48.3358C165.459 47.7096 166.352 47.9249 166.908 47.24C167.464 46.5747 166.491 46.4573 166.153 46.5747C165.796 46.6726 165.598 46.4965 165.24 46.3986C164.883 46.3008 164.426 46.3986 164.208 46.653C163.989 46.9074 164.208 47.1031 163.374 47.2009C162.54 47.2987 162.917 46.3008 163.096 45.2246C163.275 44.1484 163.969 41.2915 163.83 40.9393C163.692 40.5675 163.672 40.7045 163.374 40.3523C163.076 40.0001 163.056 39.3739 163.016 38.3564C162.997 37.3389 163.076 35.4409 163.076 35.4409C163.076 35.4409 162.441 36.3605 162.163 37.9846C161.885 39.6087 163.036 40.5088 163.056 40.7632C163.076 41.0176 163.016 41.6046 162.52 44.481C162.004 47.3574 162.639 47.9053 163.275 48.4141C163.91 48.9228 166.749 50.3708 166.749 50.3708L166.689 51.6623C166.689 51.6623 165.28 52.1123 163.95 52.9733C162.619 53.8147 162.123 55.341 162.024 55.8497C161.925 56.3585 162.202 56.2802 162.202 56.2802C162.202 56.2802 162.5 55.9671 163.553 55.1648C164.585 54.3626 166.868 53.9321 167.146 53.9125C167.424 53.893 167.444 53.9908 167.087 54.2452C166.729 54.4995 165.796 55.1648 163.791 56.6324C161.786 58.1195 161.508 59.9589 161.508 60.3894C161.508 60.8003 161.786 60.4676 161.786 60.4676C161.786 60.4676 162.064 59.8415 162.758 59.2153C163.433 58.5891 164.982 58.2174 166.709 57.9434C168.437 57.6695 168.715 57.239 169.251 56.4563C169.787 55.6932 171.236 54.2452 171.534 54.0495C171.832 53.8734 171.911 53.9712 171.732 54.1082C171.554 54.2452 171.454 54.343 170.541 55.3018C169.628 56.2802 169.469 57.4347 169.469 57.4347C169.469 57.4347 169.965 56.7498 171.097 55.9867C172.209 55.204 174.929 54.343 175.644 54.1669C176.338 53.9908 176.299 54.0886 176.18 54.1865C176.061 54.2843 175.981 54.3039 175.187 54.7148C174.413 55.1061 171.633 56.7302 168 59.3914C164.287 62.1113 161.249 65.2421 158.252 67.4336C155.273 69.6056 153.03 70.584 151.859 70.7797C150.687 70.9753 149.317 70.3101 147.59 70.2318C145.863 70.1535 144.711 71.308 144.533 71.5624C144.354 71.8167 144.354 72.032 144.513 72.0124C144.671 71.9929 144.949 71.6798 145.208 71.6798C145.466 71.6798 145.446 71.8363 145.446 71.8363C145.446 71.8363 145.327 71.895 144.83 72.1298C144.354 72.3842 143.619 73.0886 143.262 74.1648C142.904 75.2215 143.738 76.826 143.738 76.826C143.738 76.826 144.274 76.826 145.009 77.1391C145.744 77.4326 146.22 77.6283 146.577 77.8435C146.935 78.0392 147.292 78.0979 148.027 77.9022C148.761 77.687 150.27 77.687 151.303 77.7457C152.335 77.7848 156.385 78.7632 158.986 77.1C167.106 70.0752 175.604 70.6818 178.661 69.6056C184.915 67.3554 183.883 59.0196 194.902 60.2915C194.366 59.0392 185.749 56.2998 180.329 63.1092ZM156.405 45.8703C156.822 46.1834 157.616 47.6314 157.517 47.3966C157.418 47.1618 157.835 45.8312 156.941 44.1875C156.028 42.5438 155.75 41.9372 155.353 40.2936C154.956 38.6303 154.241 37.2802 155.432 36.2627C156.643 35.2452 157.577 33.7776 157.954 32.2122C158.331 30.6468 159.621 29.4141 161.051 27.7117C162.48 26.0093 162.758 25.755 162.758 25.755C162.421 26.205 161.746 28.0248 161.448 28.9836C161.13 29.9424 159.582 32.0361 158.867 33.1515C158.172 34.2668 156.564 36.4192 156.425 38.4347C156.306 40.4501 157.974 42.8374 158.232 43.7179C158.47 44.5984 157.894 47.0835 158.51 48.8641C159.105 50.6448 160.813 52.2884 161.13 52.5037C161.428 52.7189 161.369 52.5037 161.269 52.3863C161.17 52.2689 160.972 52.0928 160.555 51.2318C160.138 50.3904 160.336 49.4316 160.614 48.1401C160.912 46.8487 161.051 45.8116 160.932 44.5202C160.813 43.2287 159.76 41.0371 159.443 39.7066C159.125 38.376 159.939 37.065 161.309 34.7951C162.659 32.5057 162.858 30.5881 163.036 29.1793C163.215 27.7704 164.009 25.755 166.153 24.8744C167.404 24.3657 170.879 25.0701 172.685 26.1854C173.956 27.0269 174.591 27.8095 174.77 28.7097C174.988 29.7663 174.333 30.4903 173.936 31.5078C173.539 32.5449 173.261 33.7385 173.718 33.6798C174.115 33.6406 178.78 29.7663 179.833 28.6509C180.349 28.0835 181.044 26.6551 180.051 25.3832C179.197 24.2678 173.122 23.7787 171.951 22.1741C170.918 20.7457 168.218 20.824 167.424 21.3523C166.689 21.8415 165.081 23.1721 163.513 23.7004C161.944 24.2287 160.336 24.4831 158.212 25.5397C156.087 26.6159 156.187 27.8487 155.949 28.7488C155.71 29.6489 155.551 32.0753 153.824 34.6777C152.077 37.2802 153.09 39.0608 153.943 41.7024C154.777 44.2853 155.988 45.5572 156.405 45.8703ZM167.901 44.5397C167.861 44.8332 168.159 44.5593 168.397 44.2266C168.635 43.8744 169.588 42.3286 171.137 39.7066C172.685 37.0845 173.599 34.8343 173.519 34.7756C173.42 34.7169 173.202 34.9321 172.963 35.1082C172.705 35.2843 172.209 35.7735 171.792 36.3018C171.375 36.8301 171.018 36.7714 170.482 36.8888C169.946 37.0062 168.973 38.0433 168.417 38.4934C167.861 38.9239 167.106 39.3739 166.412 39.4717C165.657 39.5892 165.538 39.2565 165.22 39.3152C164.903 39.3739 164.922 39.8827 165.022 40.2544C165.141 40.6067 165.042 40.7828 164.982 41.4089C164.922 42.0547 165.379 42.6612 165.756 43.033C166.134 43.3852 166.014 43.9527 166.273 44.1484C166.531 44.344 166.61 43.0526 166.61 42.2503C166.61 41.4676 166.431 40.6849 166.451 40.5675C166.491 40.4501 167.126 40.274 167.424 40.0783C167.742 39.8827 168.476 39.3543 168.834 39.1782C169.211 39.0021 169.211 39.1391 169.112 39.3348C169.012 39.55 168.814 39.8631 168.417 40.1957C168 40.548 167.027 40.8023 166.809 40.8219C166.59 40.8415 166.61 41.0176 166.828 41.1937C167.047 41.3502 167.583 41.3502 168.059 41.2328C168.536 41.0958 168.476 41.722 168.417 42.3873C168.357 43.0526 167.96 44.2462 167.901 44.5397ZM178.383 22.9568C182.017 24.1113 182.811 27.203 181.56 28.6118C180.865 29.3945 180.071 29.8641 178.244 30.9795C176.418 32.0948 175.703 32.6818 175.127 33.1123C174.552 33.5624 174.234 34.169 175.485 33.8363C175.604 33.7972 183.287 32.1731 184.28 31.6643C185.948 30.8034 186.424 30.2163 186.682 29.101C186.94 27.9857 185.213 26.1463 184.399 25.2462C182.771 23.3873 178.86 21.4697 178.681 21.4501C176.716 20.8044 174.313 21.3327 172.348 21.4306C172.129 21.4306 172.209 21.7632 172.328 21.8415C174.095 23.0351 176.239 22.4676 178.383 22.9568ZM65.4941 67.551V46.8682H70.2392V63.7941H77.8234V67.551H65.4941ZM80.9008 67.551V46.8682H85.626V67.551H80.9008ZM101.589 64.1659C103.594 64.1659 105.261 63.5006 106.572 62.1896C107.882 60.8785 108.537 59.2349 108.537 57.2586C108.537 55.3018 107.882 53.6581 106.552 52.308C105.222 50.9774 103.574 50.3121 101.589 50.3121C99.5833 50.3121 97.9156 50.9774 96.5853 52.308C95.2551 53.6386 94.6 55.2822 94.6 57.2586C94.6 59.2544 95.2551 60.8981 96.5456 62.2091C97.8758 63.5201 99.5436 64.1659 101.589 64.1659ZM113.421 57.2586C113.421 58.7457 113.124 60.135 112.528 61.446C111.932 62.757 111.079 63.9311 109.967 64.929C108.815 65.9465 107.525 66.7488 106.076 67.2967C104.626 67.8446 103.137 68.1185 101.589 68.1185C100.238 68.1185 98.9083 67.9033 97.6177 67.4728C96.3272 67.0423 95.136 66.4357 94.044 65.6334C92.6543 64.5964 91.5822 63.3636 90.8476 61.9156C90.113 60.4676 89.7358 58.9218 89.7358 57.2586C89.7358 55.7714 90.0336 54.3821 90.6093 53.0711C91.2049 51.7601 92.0587 50.6056 93.1903 49.5881C94.3021 48.5902 95.5927 47.8075 97.0618 47.24C98.531 46.6921 100.04 46.3986 101.608 46.3986C103.157 46.3986 104.666 46.6726 106.115 47.24C107.584 47.7879 108.875 48.5706 109.987 49.5881C111.099 50.6056 111.972 51.7601 112.548 53.0711C113.124 54.3821 113.421 55.7714 113.421 57.2586ZM117.412 67.551V46.8682H122.336L132.164 58.9022C132.441 59.2349 132.759 59.7241 133.097 60.3307C133.434 60.9568 133.792 61.6808 134.149 62.5222C134.03 61.9156 133.95 61.309 133.911 60.7024C133.851 60.0958 133.831 59.3523 133.831 58.4522V46.8878H138.358V67.5706H133.712L123.626 55.3018C123.348 54.9692 123.031 54.48 122.693 53.8734C122.356 53.2668 121.998 52.5232 121.641 51.6623C121.76 52.2493 121.84 52.8559 121.879 53.4625C121.939 54.0691 121.959 54.8322 121.959 55.7519V67.5706H117.412V67.551Z" fill="white"/>
<path d="M141.893 64.9285L144.534 62.1499C144.871 62.913 145.407 63.5196 146.142 63.9501C146.877 64.3806 147.71 64.6154 148.624 64.6154C149.735 64.6154 150.609 64.361 151.264 63.8718C151.919 63.3826 152.237 62.7174 152.237 61.8955C152.237 60.9171 151.165 59.9388 149.001 58.98C148.306 58.6669 147.75 58.4125 147.353 58.2168C145.407 57.2776 144.077 56.3579 143.323 55.4578C142.568 54.5577 142.191 53.4815 142.191 52.2488C142.191 50.5464 142.926 49.1375 144.375 48.0418C145.824 46.946 147.71 46.3981 150.013 46.3981C151.363 46.3981 152.515 46.6133 153.488 47.0634C154.461 47.4939 155.334 48.1787 156.069 49.118L153.269 51.6226C152.932 51.016 152.495 50.566 151.939 50.2725C151.383 49.9789 150.728 49.8224 149.954 49.8224C149.021 49.8224 148.266 50.0376 147.671 50.4877C147.095 50.9182 146.817 51.4856 146.817 52.1901C146.817 53.2858 147.968 54.2838 150.252 55.1839C150.708 55.36 151.046 55.497 151.304 55.6144C153.19 56.4166 154.58 57.3167 155.473 58.3342C156.387 59.3322 156.823 60.4867 156.823 61.7781C156.823 63.7153 156.109 65.2611 154.699 66.4156C153.289 67.5701 151.363 68.1375 148.981 68.1375C147.293 68.1375 145.824 67.8636 144.613 67.3157C143.382 66.7482 142.489 65.946 141.893 64.9285ZM75.879 33.6988C75.2238 33.1509 74.5488 32.7596 73.8539 32.5052C73.159 32.2508 72.4244 32.1334 71.6303 32.1334C70.0221 32.1334 68.7316 32.5835 67.7588 33.4836C66.8058 34.3837 66.3293 35.5969 66.3293 37.1036C66.3293 38.5907 66.7661 39.7647 67.6595 40.6453C68.5529 41.5258 69.764 41.9563 71.3126 41.9563C72.1862 41.9563 73.0002 41.8193 73.7546 41.5454C74.5091 41.2714 75.204 40.8605 75.8393 40.3126L75.8194 43.4043C75.1245 43.7761 74.4098 44.0696 73.6554 44.2457C72.9009 44.4218 72.1068 44.5196 71.2729 44.5196C68.8507 44.5196 66.8653 43.8152 65.3167 42.4259C63.788 41.0366 63.0137 39.256 63.0137 37.1036C63.0137 34.9511 63.788 33.1901 65.3366 31.7812C66.8852 30.3919 68.8904 29.6875 71.3325 29.6875C72.1465 29.6875 72.9406 29.7658 73.7149 29.9223C74.4892 30.0788 75.2437 30.3332 75.9783 30.6659L75.879 33.6988ZM86.7391 38.7668L85.0515 34.2076C85.0118 34.0706 84.9324 33.8358 84.8728 33.5032C84.7934 33.1705 84.714 32.7792 84.6346 32.29C84.5551 32.74 84.4559 33.1509 84.3765 33.5227C84.297 33.8945 84.2375 34.1293 84.1978 34.2467L82.5698 38.7472L86.7391 38.7668ZM77.0901 44.1478L82.8477 30.0201H86.5604L92.4173 44.1478H88.7245L87.4935 41.154H81.6366L80.5844 44.1478H77.0901ZM94.0255 44.1478V30.0201H97.3808L104.091 38.2385C104.29 38.4733 104.488 38.8059 104.727 39.2168C104.965 39.6473 105.203 40.1365 105.441 40.704C105.362 40.2931 105.302 39.8626 105.283 39.4517C105.243 39.0407 105.223 38.532 105.223 37.9058V30.0201H108.32V44.1478H105.144L98.2543 35.773C98.0558 35.5382 97.8573 35.2055 97.619 34.7946C97.3808 34.3641 97.1425 33.8749 96.8844 33.2879C96.9638 33.6988 97.0234 34.1097 97.0432 34.5207C97.083 34.9316 97.1028 35.4599 97.1028 36.0861V44.1478H94.0255ZM111.715 44.1478V30.0201H115.09L121.801 38.2385C122 38.4733 122.198 38.8059 122.436 39.2168C122.675 39.6473 122.913 40.1365 123.151 40.704C123.072 40.2931 123.012 39.8626 122.992 39.4517C122.953 39.0407 122.933 38.532 122.933 37.9058V30.0201H126.03V44.1478H122.853L115.964 35.773C115.765 35.5382 115.567 35.2055 115.329 34.7946C115.11 34.3641 114.852 33.8749 114.614 33.2879C114.693 33.6988 114.753 34.1097 114.773 34.5207C114.812 34.9316 114.832 35.4599 114.832 36.0861V44.1478H111.715ZM129.385 44.1478V30.0201H138.319V32.5639H132.641V35.4795H138.319V38.0428H132.641V41.5845H138.319V44.1478H129.385ZM140.523 42.3476L142.33 40.4496C142.548 40.9779 142.926 41.3888 143.422 41.6823C143.918 41.9759 144.494 42.1324 145.129 42.1324C145.884 42.1324 146.479 41.9563 146.936 41.6236C147.373 41.291 147.591 40.8409 147.591 40.2735C147.591 39.6082 146.857 38.9429 145.387 38.2776C144.911 38.0624 144.534 37.8863 144.256 37.7493C142.926 37.1036 142.012 36.4774 141.496 35.8708C140.98 35.2642 140.722 34.5207 140.722 33.6793C140.722 32.5052 141.218 31.566 142.211 30.8028C143.204 30.0593 144.494 29.6875 146.062 29.6875C146.976 29.6875 147.77 29.844 148.445 30.1376C149.1 30.4311 149.696 30.9007 150.212 31.5464L148.286 33.2488C148.068 32.8379 147.75 32.5248 147.373 32.3291C146.996 32.1334 146.539 32.016 146.003 32.016C145.368 32.016 144.851 32.1726 144.454 32.4661C144.057 32.7596 143.859 33.1509 143.859 33.6206C143.859 34.3641 144.633 35.049 146.201 35.6751C146.519 35.7925 146.757 35.8904 146.916 35.9687C148.207 36.5165 149.16 37.1427 149.775 37.8276C150.391 38.5124 150.708 39.2951 150.708 40.1757C150.708 41.5062 150.232 42.5629 149.259 43.3456C148.286 44.1283 146.996 44.5196 145.348 44.5196C144.196 44.5196 143.184 44.324 142.37 43.9522C141.556 43.6 140.94 43.0521 140.523 42.3476Z" fill="white"/>
</g>
<defs>
<clipPath id="clip0">
<rect width="134" height="57" fill="white" transform="translate(63 21)"/>
</clipPath>
</defs>
</svg>
