<svg width="260" height="100" viewBox="0 0 260 100" fill="none" xmlns="http://www.w3.org/2000/svg">
<g clip-path="url(#clip0)">
<path d="M102.429 38.3838H109.325L116.818 61.0192H111.274L109.167 54.3906H101.643L99.2188 61.0153H93.8672L102.429 38.3838ZM107.909 50.4542L105.688 41.748L103.045 50.4542H107.894H107.909Z" fill="white"/>
<path d="M115.682 38.3838H120.875L124.338 57.559L129.501 43.8871L127.612 38.3838H132.934L138.761 57.3669L143.104 38.3838H148.207L142.096 61.0192H135.362L131.517 49.4288L127.363 61.0192H120.471L115.682 38.3838Z" fill="white"/>
<path d="M155.636 38.3838H162.528L170.021 61.0192H164.481L162.374 54.3906H154.847L152.422 61.0153H147.07L155.636 38.3838ZM161.112 50.4542L158.876 41.748L156.263 50.4542H161.112Z" fill="white"/>
<path d="M183.085 56.1534L180.566 53.177C180.188 53.2078 179.777 53.2078 179.369 53.2078H177.73V61.0192H172.352V38.3838H181.008C186.012 38.3838 189.6 40.7226 189.6 45.7804C189.615 47.037 189.288 48.2734 188.655 49.3526C188.022 50.4317 187.107 51.3115 186.012 51.8944L188.278 54.3906C189.505 55.7348 190.891 56.6296 193.316 57.2709L192.123 61.4262C187.776 61.2112 185.415 58.9069 183.085 56.1534ZM179.561 49.3981C182.738 49.3981 184.093 48.0539 184.093 45.9072C184.093 43.6336 183.179 42.6735 180.317 42.6735H177.733V49.3942H179.561V49.3981Z" fill="white"/>
<path d="M195.553 38.3838H203.507C211.219 38.3838 216.506 41.7441 216.506 49.6208C216.506 57.4975 211.721 61.0192 203.695 61.0192H195.553V38.3838ZM204.054 56.7601C209.187 56.7601 211.169 54.3906 211.169 49.9396C211.169 45.0738 208.775 42.6428 203.423 42.6428H200.863V56.7601H204.043H204.054Z" fill="white"/>
<path d="M218.281 59.7713L219.792 55.8656C221.672 56.5871 223.671 56.9351 225.68 56.891C228.358 56.891 229.585 56.0576 229.585 54.6828C229.585 51.0036 219.01 51.9945 219.01 44.3137C218.991 39.9548 223.066 38.0653 227.005 38.0653C229.412 37.9979 231.8 38.525 233.962 39.6015L232.418 43.3766C230.782 42.8965 229.426 42.4472 227.16 42.4472C224.894 42.4472 224.233 43.3113 224.233 44.2714C224.233 47.2823 235.001 47.2823 235.001 54.4831C235.001 59.4449 230.34 61.3651 225.744 61.3651C222.092 61.3728 219.951 60.7007 218.281 59.7713Z" fill="white"/>
<path d="M59.492 56.4916H69.5343V61.1654H53.7249V38H68.8054V42.6699H59.492V47.3437H68.1104V51.7256H59.492V56.4916ZM94.1509 49.502C94.1509 57.1329 89.6189 61.1654 81.0646 61.1654H72.6689V38H80.8758C89.4489 38 94.1509 42.0862 94.1509 49.502ZM78.4058 56.4916H81.4272C86.2463 56.4916 88.3952 54.437 88.3952 49.8246C88.3952 44.9435 85.9781 42.6738 80.7927 42.6738H78.4171V56.4993L78.4058 56.4916ZM48.6377 43.3766L41.341 45.8229V38H35.2114V45.8152L27.9224 43.1538L26 48.9528L33.4024 51.5566L28.723 57.7013L33.5837 61.4265L38.1157 55.2166L42.8026 61.7453L47.7728 58.0277L43.1425 51.5643L50.4354 49.1871L48.6377 43.3766Z" fill="white"/>
</g>
<defs>
<clipPath id="clip0">
<rect width="209" height="23" fill="white" transform="translate(26 38)"/>
</clipPath>
</defs>
</svg>
