<svg width="260" height="100" viewBox="0 0 260 100" fill="none" xmlns="http://www.w3.org/2000/svg">
<path d="M188.245 47.4591H180.294V39.252C180.294 38.1578 179.674 37.2094 178.798 36.6987C178.397 36.4799 177.923 36.334 177.412 36.334H150.748C150.055 36.334 149.399 36.5893 148.888 36.9905C148.523 37.2459 148.195 37.5742 147.94 37.9754L138.894 54.7542L130.723 38.7414C130.577 38.1213 130.212 37.5377 129.702 37.1365C128.863 36.3705 127.586 36.1516 126.492 36.6623C125.58 37.1 124.996 37.9754 124.887 38.9238L116.352 54.7542L107.853 38.0483C107.561 37.3918 107.014 36.9176 106.43 36.6623C106.029 36.4799 105.591 36.334 105.117 36.334H83.56C83.0493 36.334 82.5751 36.4434 82.1739 36.6987C81.262 37.1729 80.6784 38.1578 80.6784 39.252V47.4591H72.6902C71.0852 47.4591 69.8086 48.7357 69.8086 50.3407C69.8086 51.9456 71.0852 53.2223 72.6902 53.2223H80.6419V61.174C80.6419 62.7789 81.9185 64.0556 83.5235 64.0556C85.1284 64.0556 86.4051 62.7789 86.4051 61.174V53.2223H100.156C101.761 53.2223 103.038 51.9456 103.038 50.3407C103.038 48.7357 101.761 47.4591 100.156 47.4591H86.4051V42.1336H103.403L113.579 62.0859C113.652 62.2682 113.725 62.4506 113.835 62.5965C114.601 63.8732 116.206 64.4203 117.592 63.7273C118.431 63.326 119.014 62.5236 119.16 61.6846L127.769 45.7447L136.085 62.0859C136.158 62.2682 136.231 62.4506 136.34 62.5965C137.106 63.8732 138.711 64.4203 140.097 63.7273C140.936 63.326 141.52 62.5236 141.666 61.6846L152.207 42.0972H174.421V47.4226H155.162C153.593 47.4226 152.353 48.6628 152.28 50.1948V60.9916C152.28 62.5965 153.557 63.8732 155.162 63.8732H176.427C176.719 63.9826 177.047 63.8732 177.376 63.8732C178.981 63.8732 180.257 62.5965 180.257 60.9916V53.1858H188.209C189.814 53.1858 191.09 51.9091 191.09 50.3042C191.127 48.7722 189.814 47.4591 188.245 47.4591ZM174.494 58.1465H158.007V53.2587H174.494V58.1465Z" fill="black"/>
<path d="M177.376 36.37C177.887 36.37 178.361 36.4794 178.763 36.7348C179.674 37.209 180.258 38.1938 180.258 39.2881V47.4951H188.21C189.815 47.4951 191.091 48.7718 191.091 50.3767C191.091 51.9816 189.815 53.2583 188.21 53.2583H180.258V61.0641C180.258 62.669 178.981 63.9457 177.376 63.9457C177.048 63.9457 155.236 63.9457 155.236 63.9457C153.631 63.9457 152.354 62.669 152.354 61.0641V50.2308C152.427 48.6988 153.704 47.4586 155.236 47.4586H174.495V42.1332H152.281L141.74 61.7207C141.557 62.5961 141.01 63.3621 140.171 63.7633C139.77 63.9457 139.332 64.0551 138.931 64.0551C137.946 64.0551 136.961 63.5444 136.451 62.6325C136.341 62.4866 136.268 62.3043 136.195 62.1219L127.879 45.7808L119.453 61.7571C119.088 62.5961 118.541 63.3621 117.702 63.7998C117.301 63.9822 116.863 64.0916 116.462 64.0916C115.477 64.0916 114.492 63.5809 113.982 62.669C113.872 62.5231 113.799 62.3407 113.726 62.1584L103.55 42.2061H86.5518V47.5316H100.303C101.908 47.5316 103.185 48.8082 103.185 50.4132C103.185 52.0181 101.908 53.2948 100.303 53.2948H86.5518V61.2465C86.5518 62.8514 85.2752 64.1281 83.6702 64.1281C82.0653 64.1281 80.7887 62.8514 80.7887 61.2465V53.2948H72.691C71.0861 53.2948 69.8095 52.0181 69.8095 50.4132C69.8095 48.8082 71.0861 47.5316 72.691 47.5316H80.6428V39.3245C80.6428 38.2303 81.2628 37.2819 82.1383 36.7712C82.5395 36.5524 83.0137 36.4065 83.5243 36.4065H105.082C105.556 36.4065 105.993 36.5159 106.395 36.7348C107.015 36.9901 107.525 37.4643 107.817 38.1208L116.353 54.8632L124.888 38.8868C125.326 38.0114 125.544 37.209 126.493 36.7712C126.894 36.5889 127.332 36.4794 127.733 36.4794C128.462 36.4794 129.156 36.7348 129.666 37.2454C130.177 37.6467 130.432 37.9385 130.797 38.6315L138.858 54.8632L147.904 38.0844C148.123 37.6831 148.451 37.3549 148.852 37.0995C149.363 36.6983 149.983 36.443 150.713 36.443H177.376V36.37ZM158.008 58.146H174.495V53.2583H158.008V58.146ZM177.376 30.4609H150.713C148.779 30.4609 146.883 31.1175 145.351 32.2847C144.293 33.0142 143.418 33.9991 142.797 35.0934L142.761 35.1663L142.724 35.2393L139.04 42.0967C139.04 42.0967 134.773 33.7073 133.496 32.686C131.891 31.2999 129.849 30.5339 127.733 30.5339C126.42 30.5339 125.107 30.8257 123.903 31.4093C121.605 32.5036 120.328 34.5462 119.271 36.9171L116.498 42.0967L113.106 35.4581C112.231 33.6708 110.735 32.2118 108.911 31.3728C107.708 30.7892 106.395 30.4974 105.082 30.4974H83.5243C82.0653 30.4974 80.6063 30.8622 79.3296 31.5552C76.4845 33.0872 74.7337 36.0782 74.7337 39.2881V41.586H72.691C67.8398 41.586 63.9004 45.5254 63.9004 50.3767C63.9004 55.228 67.8398 59.1674 72.691 59.1674H74.7337V61.21C74.7337 66.0613 78.6731 70.0007 83.5243 70.0007C88.3756 70.0007 92.315 66.0613 92.315 61.21V59.1674H100.121C101.799 59.1674 103.404 58.6932 104.753 57.8542L108.218 64.6387C108.401 65.0399 108.583 65.4047 108.802 65.7695C110.407 68.3957 113.252 70.0007 116.316 70.0007C117.629 70.0007 118.942 69.7088 120.146 69.1252C122.298 68.1039 124.158 66.3531 125.107 64.1281L127.624 58.5473L130.76 64.6752C130.943 65.0764 131.125 65.4412 131.344 65.8059C132.949 68.4322 135.794 70.0371 138.858 70.0371C140.171 70.0371 141.484 69.7453 142.688 69.1617C144.694 68.1769 146.263 66.4625 147.065 64.4199C148.378 67.6297 151.552 69.8912 155.236 69.8912H177.376C182.228 69.8912 186.167 66.0977 186.167 61.2465V59.2038H188.21C193.061 59.2038 197 55.2644 197 50.4132C197 45.5619 193.061 41.6225 188.21 41.6225H186.167V39.3245C186.167 36.0782 184.416 33.1237 181.571 31.5917C180.295 30.8257 178.835 30.4609 177.376 30.4609Z" fill="white"/>
</svg>
