<svg width="260" height="100" viewBox="0 0 260 100" fill="none" xmlns="http://www.w3.org/2000/svg">
<path fill-rule="evenodd" clip-rule="evenodd" d="M144.806 38.0596V38.9959H145.327C145.766 38.9959 146.085 39.2954 146.085 39.6974C146.085 39.8398 146.049 39.9673 146.014 40.0681L138.734 61.9215C138.713 61.9927 138.728 62.0685 138.774 62.1295C138.814 62.1803 138.865 62.2062 138.931 62.2062H144.604C144.771 62.2062 144.957 62.0583 145.023 61.8809L149.862 46.5734C149.903 46.4153 150.054 46.1565 150.363 46.1565C150.671 46.1565 150.818 46.4153 150.858 46.5632L155.743 61.8651C155.819 62.0583 156.005 62.2062 156.172 62.2062H161.846C161.917 62.2062 161.962 62.1859 161.997 62.135C162.048 62.0685 162.058 61.9668 162.042 61.9308L154.155 38.2324C154.114 38.1465 154.039 38.0596 153.72 38.0596H144.806Z" fill="white"/>
<path fill-rule="evenodd" clip-rule="evenodd" d="M128.286 61.9748C128.15 61.9748 128.045 61.8675 128.045 61.7307V39.5316C128.045 39.1046 127.708 38.7644 127.292 38.7644H126.719V37.8281H134.025C134.161 37.8281 134.266 37.94 134.266 38.0777V61.7307C134.266 61.8675 134.161 61.9748 134.025 61.9748H128.286Z" fill="white"/>
<path fill-rule="evenodd" clip-rule="evenodd" d="M82.8008 49.9972C82.8008 36.7461 103.935 26 130.003 26C156.071 26 177.201 36.7461 177.201 49.9972C177.201 63.2539 156.071 74 130.003 74C103.935 74 82.8008 63.2539 82.8008 49.9972ZM129.998 28.5106C106.708 28.5106 87.8281 38.1279 87.8281 49.9972C87.8281 61.8721 106.708 71.4894 129.998 71.4894C153.293 71.4894 172.173 61.8721 172.173 49.9972C172.173 38.1279 153.293 28.5106 129.998 28.5106Z" fill="white"/>
<path fill-rule="evenodd" clip-rule="evenodd" d="M115.211 61.9748C115.029 61.9748 114.724 61.8065 114.543 61.5274L107.94 52.1494C107.86 52.0274 107.699 51.7981 107.367 51.7981C107.106 51.7981 106.84 51.9811 106.84 52.3934V61.7307C106.84 61.8675 106.734 61.9748 106.599 61.9748H101.02C100.89 61.9748 100.779 61.8675 100.779 61.7307V39.5316C100.779 39.1046 100.443 38.7644 100.025 38.7644H99.3984V37.8281H106.599C106.73 37.8281 106.84 37.94 106.84 38.0777V45.9602C106.84 46.2708 107.066 46.4991 107.367 46.4991C107.453 46.4991 107.729 46.4686 107.97 46.1025L113.433 38.281C113.618 38.001 113.931 37.8281 114.111 37.8281H120.403C120.498 37.8281 120.554 37.915 120.568 37.94C120.598 37.9963 120.619 38.0879 120.574 38.1636L113.558 48.6814L113.549 48.6961C113.483 48.8283 113.413 48.9762 113.413 49.1435C113.413 49.2609 113.453 49.4282 113.598 49.6214C114.141 50.3996 121.939 61.5681 121.965 61.5986C122.03 61.6947 122.04 61.776 122.005 61.8527C121.965 61.9285 121.884 61.9748 121.839 61.9748H115.211Z" fill="white"/>
</svg>
