<svg width="260" height="100" viewBox="0 0 260 100" fill="none" xmlns="http://www.w3.org/2000/svg">
<path fill-rule="evenodd" clip-rule="evenodd" d="M85.9974 55.6613H90.4156C92.1394 55.6613 92.7949 56.2558 92.7949 57.712C92.7949 59.1141 92.1391 59.708 90.4156 59.708H85.9974V55.6613ZM79.1529 70.3896H85.9978V64.4005H93.3294C98.1836 64.4005 99.9313 61.5426 99.9313 57.8475C99.9313 53.5582 98.1342 51.1311 93.28 51.1311H79.1529V70.3896ZM102.189 51.1311H120.611V55.8233H109.033V58.4129H119.787V63.1071H109.033V65.6963H120.611V70.3896H102.189V51.1311ZM130.321 55.6613H134.739C136.462 55.6613 137.118 56.2558 137.118 57.712C137.118 59.1141 136.462 59.708 134.739 59.708H130.321V55.6613ZM123.476 70.3896H130.321V64.4005H137.651C142.507 64.4005 144.255 61.5426 144.255 57.8475C144.255 53.5582 142.458 51.1311 137.602 51.1311H123.476V70.3896ZM150.88 62.2166C147.531 61.6493 146.148 59.4916 146.148 56.795C146.148 51.8041 150.542 50.4567 156.172 50.4567C163.89 50.4567 167.07 52.6946 167.313 56.7681H159.351C159.351 55.9857 158.938 55.4992 158.309 55.2298C157.701 54.9339 156.925 54.8261 156.172 54.8261C154.133 54.8261 153.43 55.3918 153.43 56.2018C153.43 56.7403 153.647 57.0922 154.327 57.1996L162.507 58.5477C165.954 59.1141 168.09 60.8944 168.09 64.1573C168.09 68.8522 164.643 71.0639 156.948 71.0639C151.681 71.0639 145.928 70.255 145.905 64.5904H154.157C154.18 65.237 154.4 65.6685 154.886 65.9654C155.394 66.2355 156.147 66.3707 157.215 66.3707C159.351 66.3707 159.934 65.7228 159.934 64.8055C159.934 64.2392 159.618 63.6731 158.697 63.5121L150.88 62.2166ZM170.323 51.1311H177.167V70.3896H170.323V51.1311ZM202.534 62.891C202.097 65.4265 201.32 67.4766 199.62 68.8787C197.947 70.2815 195.324 71.0639 191.15 71.0639C186.999 71.0639 179.305 70.7395 179.305 60.7608C179.305 50.7801 186.999 50.4563 191.15 50.4563C195.275 50.4563 201.636 51.0492 202.534 58.6836H194.816C194.621 57.3067 193.795 55.311 191.15 55.311C188.357 55.311 186.586 56.8483 186.586 60.7605C186.586 64.6716 188.309 66.208 190.809 66.208C192.97 66.208 194.257 65.2101 194.815 62.8907H202.534V62.891ZM211.49 60.7611C211.49 56.8487 213.263 55.3116 216.055 55.3116C218.846 55.3116 220.618 56.849 220.618 60.7611C220.618 64.6723 218.846 66.2086 216.055 66.2086C213.263 66.2083 211.49 64.672 211.49 60.7611ZM204.208 60.7611C204.208 70.7395 211.903 71.0643 216.054 71.0643C220.205 71.0643 227.9 70.7398 227.9 60.7611C227.9 50.7805 220.205 50.4567 216.054 50.4567C211.903 50.4567 204.208 50.7801 204.208 60.7611ZM68.8099 51.322C69.2519 42.0823 61.2797 31.6771 50.4112 30.3909L50.4298 30.2646C61.1444 30.2646 69.3584 40.1787 69.3584 48C69.3481 49.6282 69.2194 50.637 68.99 51.3693L68.8099 51.322ZM68.1607 52.4964C67.4479 53.367 66.5513 54.2436 65.5009 55.0757C63.5685 43.9676 55.4017 34.2543 49.6277 31.4192L49.504 31.5054C55.3108 36.2686 62.2366 45.5195 64.9299 55.5115C63.5561 56.5201 62.0721 57.3695 60.5065 58.0434C55.027 51.7978 49.9185 39.7529 48.2723 32.1095L48.1048 32.1599C48.142 39.5792 53.4122 52.1743 59.8394 58.3201C58.3653 58.9031 56.8328 59.3263 55.2684 59.5824C49.1075 57.1429 44.7222 49.3299 44.7222 41.3264C44.7222 36.1015 46.316 32.8694 46.6244 32.208L46.4931 32.1559C46.1201 32.72 43.7852 35.9504 43.7852 41.5911C43.7852 50.638 48.2491 57.5529 54.1755 59.7305C52.0562 59.9635 49.9135 59.863 47.8253 59.4326L47.7812 59.5704C48.4152 59.8037 50.5661 60.7061 53.8473 60.7061C61.2688 60.7061 66.2857 56.0974 68.3053 52.5942L68.1607 52.4964Z" fill="white"/>
<path fill-rule="evenodd" clip-rule="evenodd" d="M53.1057 27C47.4797 27 40.8828 31.0583 40.8828 34.7679C40.8828 36.2029 42.1962 37.4151 44.9143 37.4151C51.2244 37.4151 57.0869 33.0821 57.0869 29.7128C57.0869 27.9398 55.3833 27 53.1057 27ZM55.3518 29.6081C55.3518 32.4482 49.8952 35.9199 45.3338 35.9199C43.3185 35.9199 42.2296 35.1272 42.2296 33.8192C42.2296 30.9383 47.7483 27.5256 52.0268 27.5256C54.8163 27.5256 55.3518 28.9443 55.3518 29.6081Z" fill="white"/>
<path fill-rule="evenodd" clip-rule="evenodd" d="M38.6411 36.486C38.4829 36.7594 37.8496 37.9988 37.8496 39.2687C37.8496 41.624 40.2306 43.8105 44.61 43.8105C53.0348 43.8105 62.7683 37.6124 62.7683 31.859C62.7683 29.2765 60.3223 27.8723 58.624 27.582L58.5922 27.6828C59.1204 27.8498 61.0554 28.7489 61.0554 31.0494C61.0554 35.6337 52.4615 41.8798 43.9011 41.8798C40.6238 41.8798 38.5592 40.2629 38.5592 37.9077C38.5592 37.1627 38.7143 36.6719 38.7555 36.5297L38.6411 36.486Z" fill="white"/>
<path fill-rule="evenodd" clip-rule="evenodd" d="M66.242 32.2891C66.4731 32.4644 67.8607 33.6203 67.8607 35.8062C67.8607 43.2593 56.1769 50.5882 45.8475 50.5882C39.6877 50.5882 36.8796 47.5483 37.004 44.849H37.1144C37.3557 46.2508 39.3558 48.7592 44.7471 48.7592C55.0893 48.7592 66.6369 41.1758 66.6369 34.5316C66.6369 33.392 66.3272 32.6818 66.1521 32.3659L66.242 32.2891Z" fill="white"/>
<path fill-rule="evenodd" clip-rule="evenodd" d="M70.1471 39.2471C70.1955 39.4058 70.4472 40.1193 70.4472 41.2368C70.4472 49.5277 58.6231 56.6256 48.3396 56.6256C43.0467 56.6256 40.2828 54.0559 39.6992 53.0123L39.7934 52.9427C41.2579 54.2229 44.1426 55.1956 47.509 55.1956C56.5913 55.1956 70.1435 48.2893 70.0225 39.2772L70.1471 39.2471Z" fill="white"/>
</svg>
