<svg width="260" height="100" viewBox="0 0 260 100" fill="none" xmlns="http://www.w3.org/2000/svg">
<g clip-path="url(#clip0)">
<path d="M129.598 100C145.392 100 158.195 87.1911 158.195 71.3906C158.195 55.5901 145.392 42.7812 129.598 42.7812C113.804 42.7812 101 55.5901 101 71.3906C101 87.1911 113.804 100 129.598 100Z" fill="white"/>
<path d="M125.69 3.64413C127.101 3.70135 128.397 4.54055 129.503 5.704C130.342 6.58136 130.99 7.57315 131.238 8.81288C131.543 10.3196 131.066 11.5785 130.094 12.6656C129.007 13.8672 127.825 14.9734 126.681 16.1178C126.452 16.3467 126.243 16.3467 126.014 16.1178C123.631 13.7337 121.229 11.3496 118.845 8.96547C118.579 8.69845 118.636 8.48865 118.864 8.25977C120.008 7.13447 121.133 5.9901 122.296 4.90294C123.192 4.0828 124.222 3.62505 125.69 3.64413ZM122.067 8.2407C122.125 8.37421 122.144 8.43143 122.182 8.46957C123.574 9.88097 124.984 11.2924 126.395 12.6656C126.491 12.7419 126.796 12.7419 126.891 12.6465C127.272 12.3223 127.596 11.9218 127.978 11.5975C128.988 10.7392 128.969 9.11805 128.206 8.2407C127.711 7.68758 127.177 7.15354 126.586 6.71487C125.728 6.10453 124.756 6.06639 123.898 6.63857C123.211 7.1154 122.658 7.72573 122.067 8.2407Z" fill="white"/>
<path d="M114.117 21.2864C115.147 21.0576 115.91 21.5725 116.672 22.1447C117.301 22.6215 117.95 23.0984 118.598 23.5752C118.846 23.7468 118.827 23.9566 118.636 24.1474C118.216 24.567 117.816 25.0057 117.359 25.3871C117.206 25.5016 116.844 25.5016 116.672 25.3871C116.119 25.0247 115.624 24.5861 115.09 24.1855C114.041 23.3463 113.488 23.3654 112.497 24.3C112.116 24.6623 111.772 25.0438 111.372 25.4062C111.105 25.6351 111.143 25.8258 111.391 26.0547C112.154 26.7985 112.897 27.5614 113.66 28.2862C113.965 28.5723 114.003 28.8012 113.66 29.1063C113.259 29.4496 112.897 29.8311 112.554 30.2126C112.306 30.4796 112.097 30.4796 111.849 30.2316C111.639 30.0218 111.429 29.812 111.22 29.6022C109.046 27.447 106.873 25.2727 104.699 23.1174C104.451 22.8695 104.413 22.6788 104.68 22.4117C106.053 21.0576 107.349 19.6652 108.779 18.3683C110.895 16.4419 113.355 17.8342 114.022 19.875C114.156 20.2946 114.079 20.7715 114.117 21.2864ZM110.4 20.1039C110.247 20.1802 109.942 20.2565 109.732 20.4472C109.141 20.9813 108.569 21.5344 108.017 22.1066C107.921 22.2019 107.921 22.5071 107.998 22.6025C108.455 23.1174 108.951 23.6133 109.466 24.0711C109.542 24.1474 109.809 24.1474 109.885 24.0711C110.476 23.4989 111.067 22.9076 111.639 22.2782C111.982 21.8968 112.058 21.4199 111.811 20.9622C111.544 20.4854 111.143 20.1421 110.4 20.1039Z" fill="white"/>
<path d="M115.108 15.2778C115.509 15.6592 115.852 15.9644 116.176 16.3077C116.443 16.5938 116.614 16.5938 116.9 16.3077C117.854 15.3159 118.845 14.3623 119.817 13.3705C120.141 13.0272 120.389 13.0462 120.675 13.3896C120.885 13.6184 121.095 13.8473 121.342 14.0571C121.705 14.3623 121.647 14.6102 121.342 14.9154C120.389 15.8309 119.474 16.7845 118.521 17.7191C118.387 17.8526 118.197 17.9289 118.139 17.9671C118.692 18.5965 119.131 19.1496 119.627 19.6645C119.665 19.7027 119.97 19.5883 120.084 19.4738C121.171 18.4057 122.258 17.3186 123.344 16.2314C123.821 15.7546 123.878 15.7546 124.355 16.2314C125.632 17.5475 125.651 17.166 124.355 18.4439C122.887 19.9125 121.419 21.3811 119.951 22.8497C119.493 23.3075 119.455 23.3075 118.997 22.8497C116.633 20.561 114.326 18.2341 111.981 15.9263C111.676 15.6211 111.695 15.3922 111.981 15.1061C113.697 13.4086 115.394 11.7111 117.091 10.0137C117.396 9.70849 117.625 9.70849 117.911 10.0327C118.159 10.3188 118.425 10.5858 118.711 10.8529C119.016 11.1199 118.997 11.3488 118.711 11.6349C117.644 12.6839 116.595 13.7519 115.528 14.801C115.413 14.9345 115.28 15.087 115.108 15.2778Z" fill="white"/>
<path d="M145.27 6.86704C146.28 5.8371 147.31 4.80716 148.32 3.7963C148.892 3.22411 148.892 3.22411 149.483 3.7963C150.608 4.90253 150.475 4.65458 149.503 5.64637C148.606 6.56187 147.691 7.4583 146.814 8.33565C147.367 8.88877 147.882 9.42281 148.454 9.99499C148.53 9.93777 148.664 9.82334 148.797 9.68983C149.903 8.60267 151.009 7.51552 152.095 6.40929C152.4 6.10412 152.629 6.10412 152.915 6.40929C153.182 6.69538 153.449 6.9624 153.735 7.21035C154.078 7.51552 154.002 7.74439 153.716 8.03048C152.229 9.4991 150.742 10.9677 149.255 12.4363C148.111 13.5807 148.111 13.5807 146.967 12.4363C144.927 10.4146 142.887 8.39287 140.847 6.35207C140.275 5.77988 140.275 5.74174 140.847 5.18862C142.487 3.54835 144.126 1.92715 145.766 0.267812C146.071 -0.0564272 146.319 -0.113646 146.624 0.248739C146.852 0.534833 147.119 0.78278 147.405 1.03073C147.749 1.33589 147.71 1.58384 147.386 1.90808C146.338 2.91895 145.327 3.92981 144.298 4.94067C143.783 5.45564 143.783 5.45564 144.279 5.97061C144.546 6.23763 144.832 6.50465 145.098 6.77167C145.098 6.79075 145.137 6.80982 145.27 6.86704Z" fill="white"/>
<path d="M126.548 34.9804C126.396 34.9231 126.281 34.8659 126.186 34.8278C125.805 34.6561 125.423 34.4654 125.061 34.2937C124.165 33.8551 124.394 33.836 123.669 34.5417C123.078 35.1139 122.526 35.7051 121.934 36.2773C121.668 36.5253 121.629 36.7541 121.801 37.0593C122.068 37.5552 122.316 38.0511 122.526 38.5661C122.602 38.7377 122.545 39.0429 122.43 39.1955C122.087 39.6151 121.687 39.9775 121.305 40.3589C120.886 40.7595 120.752 40.7404 120.524 40.2254C119.875 38.7949 119.227 37.3645 118.579 35.9531C117.759 34.1412 116.958 32.3292 116.12 30.5364C115.967 30.2121 116.005 29.9833 116.253 29.7353C116.634 29.3539 117.035 28.9915 117.397 28.5909C117.683 28.2667 117.969 28.2667 118.331 28.4384C120.886 29.6018 123.46 30.7843 126.014 31.9478C126.644 32.2339 127.273 32.52 127.921 32.8061C128.474 33.054 128.493 33.1875 128.093 33.6071C127.711 33.9886 127.33 34.37 126.949 34.7515C126.796 34.8087 126.663 34.9041 126.548 34.9804ZM122.201 32.9205C121.267 32.4627 120.295 31.9859 119.304 31.5091C119.265 31.5472 119.227 31.5854 119.189 31.6235C119.666 32.6153 120.123 33.588 120.581 34.5417C121.134 34.0076 121.649 33.4927 122.201 32.9205Z" fill="white"/>
<path d="M127.462 19.9892C129.063 20.1037 130.169 20.9619 130.817 22.4115C131.389 23.7084 131.027 24.8719 130.188 25.9018C129.654 26.5503 129.044 27.1225 128.453 27.7138C128.186 27.9617 128.186 28.1524 128.453 28.4004C129.12 29.0489 129.749 29.7164 130.417 30.3458C130.76 30.6701 130.76 30.9371 130.398 31.2422C130.016 31.5665 129.673 31.9479 129.33 32.3103C129.063 32.5773 128.853 32.5773 128.586 32.2913C126.241 29.9262 123.877 27.5802 121.513 25.2343C121.227 24.9482 121.208 24.7193 121.494 24.4523C122.6 23.3651 123.668 22.2398 124.793 21.1717C125.536 20.4851 126.375 19.9511 127.462 19.9892ZM124.507 24.4141C125.193 25.1198 125.822 25.7492 126.451 26.3787C126.508 26.4359 126.718 26.4168 126.756 26.3596C127.309 25.7874 127.9 25.2343 128.377 24.5858C128.796 24.0136 128.625 23.4033 128.091 22.9074C127.595 22.4496 126.966 22.3161 126.432 22.7357C125.746 23.2316 125.136 23.8229 124.507 24.4141Z" fill="white"/>
<path d="M138.216 16.3649C138.177 17.2995 137.949 18.0242 137.434 18.6155C136.843 19.3021 136.195 19.9506 135.565 20.58C135.318 20.8279 135.299 21.0187 135.565 21.2666C136.233 21.896 136.862 22.5826 137.529 23.2121C137.872 23.5363 137.872 23.8033 137.51 24.1085C137.11 24.4518 136.767 24.8332 136.404 25.2147C136.176 25.4436 135.985 25.4627 135.737 25.2147C133.354 22.8306 130.99 20.4656 128.607 18.1005C128.359 17.8526 128.321 17.6237 128.607 17.3567C129.712 16.2695 130.799 15.1633 131.905 14.0952C132.668 13.3704 133.525 12.8555 134.631 12.8745C136.442 12.8936 138.235 14.7246 138.216 16.3649ZM131.619 17.3185C132.21 17.9098 132.725 18.4248 133.24 18.9397C133.335 19.0351 133.392 19.1495 133.506 19.1877C133.64 19.2258 133.869 19.264 133.945 19.1877C134.441 18.7108 134.917 18.2531 135.356 17.7191C135.871 17.0896 135.813 16.384 135.279 15.8308C134.727 15.2586 134.059 15.1824 133.411 15.6783C132.782 16.1741 132.248 16.7463 131.619 17.3185Z" fill="white"/>
<path d="M147.443 14.2291C147.348 14.3435 147.272 14.477 147.176 14.5915C145.804 15.9266 144.431 17.2617 143.058 18.5968C142.811 18.8447 142.639 18.8066 142.41 18.5777C140.046 16.2127 137.682 13.8476 135.299 11.4826C135.013 11.1965 134.956 10.9676 135.299 10.6625C135.68 10.3573 136.023 9.99491 136.347 9.63253C136.672 9.27014 136.939 9.32736 137.263 9.6516C138.978 11.3872 140.713 13.1038 142.429 14.8204C142.506 14.8966 142.582 14.9539 142.658 15.0492C142.906 15.3735 143.116 15.3544 143.402 15.0683C144.069 14.3817 144.793 13.7523 145.461 13.0657C145.823 12.7033 146.09 12.627 146.433 13.0657C146.681 13.3708 146.986 13.6378 147.272 13.9239C147.329 14.0002 147.367 14.0956 147.443 14.2291Z" fill="white"/>
</g>
<defs>
<clipPath id="clip0">
<rect width="260" height="100" fill="white"/>
</clipPath>
</defs>
</svg>
