<svg width="260" height="100" viewBox="0 0 260 100" fill="none" xmlns="http://www.w3.org/2000/svg">
<g clip-path="url(#clip0)">
<path d="M56.2726 55.174C56.5245 55.7639 56.4416 56.5211 56.3149 56.9843C56.1036 57.7838 55.5576 58.6255 53.9586 58.6255C52.4457 58.6255 51.5211 57.7415 51.5211 56.4366V54.0804H45V55.9329C45 61.3587 49.2477 63 53.8335 63C58.208 63 61.8252 61.4855 62.4135 57.4474C62.7076 55.343 62.498 53.9975 62.3713 53.4499C61.3638 48.3587 52.15 46.8442 51.435 44.0249C51.3099 43.5211 51.3521 43.0174 51.3927 42.7639C51.5617 42.0066 52.1077 41.1226 53.6222 41.1226C55.0522 41.1226 55.894 42.0066 55.894 43.3099V44.826H61.952V43.1002C61.952 37.7995 57.1989 37 53.749 37C49.4167 37 45.9246 38.43 45.2519 42.3853C45.0845 43.4789 45.0406 44.4474 45.2941 45.6677C46.3877 50.5882 55.0116 52.0199 56.2726 55.174ZM135.14 55.1334C135.392 55.7216 135.308 56.4789 135.183 56.8997C134.971 57.6993 134.425 58.4987 132.826 58.4987C131.312 58.4987 130.429 57.6147 130.429 56.3099V53.9975H123.994V55.8484C123.994 61.1914 128.2 62.831 132.742 62.831C137.076 62.831 140.651 61.3587 141.241 57.3206C141.533 55.2585 141.322 53.8707 141.197 53.3654C140.188 48.3165 131.06 46.8443 130.387 44.0265C130.261 43.5211 130.303 43.0157 130.345 42.7639C130.514 42.0066 131.018 41.1649 132.532 41.1649C133.92 41.1649 134.762 42.0489 134.762 43.3521V44.826H140.776V43.1425C140.776 37.9262 136.065 37.0845 132.659 37.0845C128.41 37.0845 124.919 38.5145 124.246 42.4275C124.077 43.4789 124.035 44.4474 124.289 45.6661C125.382 50.5899 133.92 52.0199 135.14 55.1334ZM185.489 57.2784L185.153 37.7572H191.167V61.7374H182.503L176.404 41.5857L176.74 61.7374H170.767V37.7572H179.769L185.489 57.2784ZM76.4194 39.5236L73.0556 61.9909H66.4939L70.9529 37.7572H81.7624L86.2214 61.9909H79.7019L76.4194 39.5236ZM111.838 39.5236L107.631 61.9925H101.49L97.3266 39.5236L97.1576 61.9909H91.1012L91.605 37.7572H101.49L104.561 56.6885L107.632 37.7572H117.516L118.063 61.9909H112.005L111.838 39.5236ZM155.498 58.3736C157.18 58.3736 157.728 57.1939 157.812 56.6056C157.855 56.3521 157.855 55.9735 157.855 55.6794V37.715H163.995V55.135C163.995 55.5965 163.953 56.4805 163.953 56.7324C163.532 61.2775 159.956 62.7498 155.498 62.7498C151.039 62.7498 147.464 61.2775 147.043 56.7324C147.001 56.4805 146.959 55.5965 147.001 55.135V37.715H153.144V55.6794C153.144 55.9735 153.144 56.3521 153.184 56.6056C153.311 57.2361 153.816 58.372 155.498 58.372V58.3736ZM206.142 58.1201C207.908 58.1201 208.498 56.9826 208.623 56.3521C208.665 56.0596 208.707 55.7216 208.665 55.4259V51.8931H206.184V48.3587H214.764V54.8799C214.764 55.343 214.764 55.6794 214.681 56.4789C214.26 60.8972 210.432 62.4524 206.142 62.4524C201.852 62.4524 198.023 60.8972 197.604 56.4789C197.519 55.6794 197.519 55.343 197.519 54.8799V44.657C197.519 44.2361 197.562 43.4789 197.604 43.058C198.15 38.5145 201.809 37.0845 206.142 37.0845C210.432 37.0845 214.218 38.5145 214.639 43.058C214.723 43.8152 214.681 44.657 214.681 44.657V45.4565H208.538V44.1094C208.538 44.1094 208.538 43.5211 208.455 43.1831C208.329 42.6371 207.867 41.4168 206.016 41.4168C204.248 41.4168 203.745 42.5949 203.618 43.1847C203.533 43.5211 203.533 43.942 203.533 44.3206V55.4275C203.533 55.7216 203.533 56.058 203.576 56.3538C203.745 57.0265 204.375 58.1201 206.143 58.1201H206.142Z" fill="white"/>
</g>
<defs>
<clipPath id="clip0">
<rect width="170.625" height="26" fill="white" transform="translate(45 37)"/>
</clipPath>
</defs>
</svg>
