<svg width="96" height="30" viewBox="0 0 96 30" fill="none" xmlns="http://www.w3.org/2000/svg">
<path fill-rule="evenodd" clip-rule="evenodd" d="M0 15C0 6.37255 7.06748 0 15.6074 0C24.1472 0 31.2147 6.37255 31.2147 15C31.2147 23.6275 24.1472 30 15.6074 30C7.06748 30 0 23.6275 0 15ZM6.57669 15.098C6.57669 20.2941 10.6994 24.2157 15.6074 24.2157C20.6135 24.2157 24.638 20.1961 24.638 15C24.638 9.80392 20.5153 5.88235 15.6074 5.88235C10.6994 5.88235 6.57669 9.90196 6.57669 15.098Z" fill="white"/>
<path d="M57.7178 0.784317V19.8039L42.2086 0.784317H36.2209V29.3137H42.4049V10.098L58.1105 29.3137H63.9019V0.784317H57.7178Z" fill="white"/>
<path d="M89.3251 0.784317L81.5705 14.3137L73.7178 0.784317H67.1411L78.4294 20V29.4118H84.7116V20L96 0.784317H89.3251Z" fill="white"/>
</svg>
