<svg width="260" height="100" viewBox="0 0 260 100" fill="none" xmlns="http://www.w3.org/2000/svg">
<path d="M51.6355 32.458V50.6544C51.6355 51.5053 50.9875 52.0944 50.2098 52.0944H48.0714C47.9418 52.0944 47.877 52.2253 47.877 52.2907V67.5416C48.3954 67.5416 48.9138 67.6726 49.497 67.6726C59.1526 67.6726 66.9937 59.7526 66.9937 49.9998C66.9937 41.0326 60.3191 33.5053 51.6355 32.458ZM51.2467 59.6871C50.0154 59.6871 49.1082 58.6398 49.1082 57.5271C49.1082 56.2835 50.145 55.3671 51.2467 55.3671C52.4779 55.3671 53.3852 56.4144 53.3852 57.5271C53.5148 58.7053 52.4779 59.6871 51.2467 59.6871ZM56.3661 59.6871C55.1348 59.6871 54.2276 58.6398 54.2276 57.5271C54.2276 56.2835 55.2645 55.3671 56.3661 55.3671C57.5973 55.3671 58.5046 56.4144 58.5046 57.5271C58.5046 58.6398 57.6622 59.6871 56.3661 59.6871ZM61.5503 59.6871C60.3191 59.6871 59.4118 58.6398 59.4118 57.5271C59.4118 56.2835 60.4487 55.3671 61.5503 55.3671C62.7816 55.3671 63.6888 56.4144 63.6888 57.5271C63.6888 58.6398 62.7816 59.6871 61.5503 59.6871Z" fill="white"/>
<path d="M49.4967 32.3926C39.8411 32.3926 32 40.3126 32 50.0653C32 58.6399 37.897 65.6435 45.803 67.2799V51.3744C45.803 50.6544 46.451 50.0653 47.099 49.9344H49.2375C49.3671 49.9344 49.4319 49.8035 49.4319 49.738L49.4967 32.3926ZM46.127 46.9235C44.8957 46.9235 43.9885 45.8762 43.9885 44.7635C43.9885 43.5198 45.0253 42.6035 46.127 42.6035C47.3582 42.6035 48.2655 43.6508 48.2655 44.7635C48.2655 45.8762 47.2934 46.9235 46.127 46.9235Z" fill="white"/>
<path d="M224.658 42.0139V48.6903H215.845V42.0139H211.374V59.6866H215.845V52.5521H224.658V59.6866H229V42.0139H224.658ZM151.82 44.043C151.107 42.4721 149.682 41.6212 148.256 41.6212C146.83 41.6212 145.34 42.4721 144.692 44.043L137.628 59.7521H142.294L143.849 56.0212H152.922L154.477 59.7521H159.143L151.82 44.043ZM145.081 52.4866L147.738 46.0066C147.867 45.8103 147.932 45.8103 148.062 45.8103C148.191 45.8103 148.386 45.8103 148.386 46.0066L151.042 52.4866H145.081ZM99.7188 38.8721C97.6451 38.8721 96.3491 39.9848 95.377 42.2103L89.7392 55.4976L84.0366 42.1448C83.1293 39.9848 81.7685 38.8066 79.6948 38.8066C77.7507 38.8066 75.8066 40.1157 75.8066 43.1921V59.6212H80.1484V43.7812L85.9159 56.9376C86.6287 58.8357 87.9895 59.9485 89.7392 59.9485C91.6185 59.9485 92.8497 58.8357 93.5626 56.9376L99.33 43.7812V59.8176H103.672V43.3885C103.607 40.3121 101.663 38.8721 99.7188 38.8721ZM111.318 55.9557C111.124 55.9557 110.865 55.7594 110.865 55.4976V52.3557H121.752V48.7557H110.865V46.0721C110.865 45.8757 111.059 45.6139 111.318 45.6139H122.141V41.883H109.18C107.625 41.883 106.588 43.1266 106.588 44.5012V56.8721C106.588 58.1812 107.69 59.4903 109.18 59.4903H122.141V55.7594H111.318V55.9557ZM129.463 59.6866V46.203C129.463 46.0066 129.658 45.7448 129.917 45.7448H140.739V42.0139H127.778C126.223 42.0139 125.186 43.2576 125.186 44.6321V59.6212L129.463 59.6866ZM208.522 50.9157C208.522 44.763 205.866 41.883 199.256 41.883H197.7C191.091 41.883 188.434 44.8285 188.434 50.9157C188.434 56.9376 191.091 59.9485 197.7 59.9485H199.126C205.866 59.8176 208.522 56.9376 208.522 50.9157ZM199.126 56.2176H197.7C194.136 56.2176 192.646 54.5812 192.646 50.9157C192.646 47.3812 193.877 45.6139 197.7 45.6139H199.126C202.82 45.6139 204.181 47.3812 204.181 50.9157C204.181 54.5157 202.82 56.2176 199.126 56.2176ZM176.316 39.2648H167.632C161.152 39.2648 158.56 42.603 158.56 48.2976C158.56 49.2139 158.689 50.0648 158.754 50.7848C159.467 54.843 161.865 57.3303 167.891 57.3303H169.835V59.6212H174.177V57.3303H176.056C182.148 57.3303 184.545 54.843 185.193 50.7848C185.323 50.0648 185.388 49.2139 185.388 48.2976C185.323 42.603 182.666 39.2648 176.316 39.2648ZM169.706 53.6648H167.762C164.781 53.6648 163.744 52.5521 163.096 50.7194C162.901 50.0648 162.901 49.1485 162.901 48.2321C162.901 44.5012 164.651 42.9303 167.114 42.9303H169.77V53.6648H169.706ZM180.852 50.9157C180.204 52.683 179.102 53.8612 176.186 53.8612H174.242V43.0612H176.899C179.361 43.0612 181.111 44.6321 181.111 48.363C181.046 49.3448 181.046 50.1303 180.852 50.9157Z" fill="white"/>
</svg>
