<svg width="260" height="100" viewBox="0 0 260 100" fill="none" xmlns="http://www.w3.org/2000/svg">
<path d="M46.9741 30C35.9285 30 27 38.9401 27 50C27 61.0599 35.9285 70 46.9741 70C58.0197 70 66.9482 61.0599 66.9482 50C66.9482 38.9401 58.0197 30 46.9741 30ZM44.2127 58.4793L42.74 62.8111C37.2172 60.9677 33.5353 55.7143 33.5353 49.8157C33.5353 43.917 37.2172 38.7558 42.832 36.8203L44.3047 41.1521C40.6229 42.3502 38.2297 45.8525 38.2297 49.7235C38.0456 53.7788 40.5308 57.2811 44.2127 58.4793ZM51.0241 62.9032L49.6434 58.4793C53.4173 57.2811 55.9026 53.7788 55.9026 49.8157C55.9026 45.8525 53.4173 42.4424 49.7355 41.2442L51.2082 36.8203C56.8231 38.6636 60.597 43.917 60.597 49.8157C60.597 55.8986 56.731 61.1521 51.0241 62.9032Z" fill="white"/>
<path d="M229.87 53.5946L232.079 56.2674C229.778 58.6638 226.925 59.3089 224.624 59.3089C222.414 59.3089 220.85 58.9403 219.469 58.2951C216.523 56.8204 215.051 53.8711 215.051 50.2767C215.051 44.8389 218.733 40.7836 224.163 40.7836C230.238 40.7836 233.184 45.2997 232.724 51.1983H218.917C219.009 52.673 219.837 54.0555 221.034 54.7928C222.046 55.438 223.243 55.7144 224.808 55.7144C226.557 55.7144 228.305 55.1614 229.87 53.5946ZM219.009 47.9725H228.766C228.49 45.8527 226.741 44.0094 223.979 44.0094C221.126 44.0094 219.377 46.037 219.009 47.9725ZM126.318 58.7559H131.288L123.464 49.6315L131.196 41.0601H126.318L120.427 47.8803H118.678V41.0601H114.904V58.6638H118.678V51.6591H120.427L126.318 58.7559ZM142.518 44.2859C139.296 44.2859 137.179 46.7744 137.179 49.908C137.179 53.0416 139.296 55.5301 142.518 55.5301C145.74 55.5301 147.765 53.1338 147.765 49.908C147.857 46.8665 145.832 44.2859 142.518 44.2859ZM143.162 40.6914C148.133 40.6914 151.815 44.5624 151.815 49.908C151.815 55.1614 148.225 59.2168 143.162 59.2168C140.769 59.2168 138.836 58.3873 137.456 56.9126V66.1292H133.59V41.1522H137.363V43.2721C138.836 41.5209 140.769 40.6914 143.162 40.6914ZM193.328 41.1522H177.588V44.6545H183.571V58.7559H187.437V44.6545H193.42V41.1522H193.328ZM112.235 41.1522H96.4028V44.6545H102.386V58.7559H106.252V44.6545H112.235V41.1522ZM91.8005 50.0002C91.8005 46.6822 89.4993 44.2859 86.2777 44.2859C83.1481 44.2859 80.7549 46.6822 80.7549 50.0002C80.7549 53.3181 83.056 55.7144 86.2777 55.7144C89.4072 55.7144 91.8005 53.3181 91.8005 50.0002ZM76.7969 50.0002C76.7969 44.7467 80.8469 40.7836 86.2777 40.7836C91.6164 40.7836 95.7585 44.7467 95.7585 50.0002C95.7585 55.2536 91.7084 59.3089 86.2777 59.3089C80.939 59.2167 76.7969 55.2536 76.7969 50.0002ZM212.013 41.1522V58.7559H208.239V47.4195L199.035 58.7559H195.997V41.1522H199.771V52.4886L208.976 41.1522H212.013ZM174.918 58.7559H171.145V41.1522H174.918V58.7559ZM165.162 52.7651C165.162 51.1983 164.057 50.0923 162.584 50.0923H158.718V55.5301H162.584C164.057 55.5301 165.162 54.332 165.162 52.7651ZM168.935 52.7651C168.935 56.2674 166.358 58.7559 162.676 58.7559H154.944V41.1522H158.718V46.8665H163.044C166.726 46.8665 168.935 49.2628 168.935 52.7651Z" fill="white"/>
</svg>
