<svg width="260" height="100" viewBox="0 0 260 100" fill="none" xmlns="http://www.w3.org/2000/svg">
<g clip-path="url(#clip0)">
<path fill-rule="evenodd" clip-rule="evenodd" d="M120.436 54.9348C116.786 54.9348 115.255 52.1203 115.255 49.3795C115.255 46.6387 116.835 44.2459 120.478 44.2459C124.121 44.2459 125.425 47.3545 125.425 49.5729C125.425 51.7914 124.087 54.9348 120.436 54.9348ZM120.929 39.545C118.254 39.545 116.342 40.7968 115.807 41.1798C115.954 40.5313 116.531 35.397 123.749 35.397H128.208L129.861 31.0732H123.825C115.869 31.0732 109.823 34.5914 109.823 46.9658C109.823 53.7595 112.846 59.1712 120.279 59.1712C127.348 59.1712 130.815 54.2157 130.815 49.3954C130.815 42.4151 125.446 39.545 120.929 39.545ZM48.6677 44.3805H45.9139V35.7051H48.7476C50.7605 35.7051 54.0094 36.8885 54.0094 40.0611C54.0094 43.2609 50.7605 44.3805 48.6677 44.3805ZM49.1422 31.0732H40.168V58.7172H45.9139V48.9707H49.0237C54.8865 48.9707 59.7969 45.9687 59.7969 40.0431C59.7969 34.1175 54.8865 31.0732 49.1422 31.0732ZM144.295 39.545L151.624 58.7172H145.672L141.414 46.4898H141.341L137.097 58.7172H131.166L138.495 39.545H144.295ZM219.141 31.0732L205.081 67.8463H199.352L213.408 31.0732H219.141ZM101.615 39.545H106.354V58.7172H100.807V47.4851L95.4304 54.2356H93.9268L93.8015 54.0841L88.5077 47.578V58.7172H82.9577V39.545H87.6999L87.8218 39.6874L94.7122 47.6368L101.615 39.545ZM73.2195 50.7243C73.2195 53.3466 71.6957 55.1534 68.7438 55.1534C65.8886 55.1534 65.6464 53.5422 65.6464 52.9281C65.6464 51.51 66.9864 50.5648 70.1768 50.2856C71.0555 50.2085 71.9531 50.1712 72.8414 50.1712H73.2195V50.7243ZM78.4141 48.638C78.4141 48.2515 78.4079 47.8809 78.3914 47.5221C78.1203 41.5511 75.4883 39.091 69.8081 39.091C65.9619 39.091 63.4612 40.5972 62.5813 41.2109L64.0793 45.128C64.0793 45.128 66.4174 43.2183 69.3722 43.2183C73.5525 43.2183 73.1393 46.5333 73.1393 46.5333C71.7097 46.5458 60.3336 45.9783 60.3336 53.0795C60.3336 57.0189 63.7205 59.1712 67.5218 59.1712C70.9035 59.1712 72.7227 57.5394 73.3224 56.9058C73.3256 56.9922 73.4409 58.7169 73.4409 58.7169H78.6094C78.6094 58.7169 78.4141 57.0538 78.4141 54.4488V48.638ZM186.174 54.9361C182.509 54.9361 180.485 51.9465 180.485 49.0926C180.485 46.2389 182.554 43.2487 186.174 43.2487C189.795 43.2487 191.778 45.8487 191.778 49.0926C191.778 52.3364 189.84 54.9361 186.174 54.9361ZM186.869 39.0907C183.328 39.0907 181.193 40.9451 180.565 41.6064V39.5447H175.214V67.8323H180.76V56.838C181.389 57.4813 183.598 59.1712 186.869 59.1712C192 59.1712 196.719 55.4873 196.719 49.0926C196.719 42.4039 191.524 39.0907 186.869 39.0907ZM157.469 46.9876C157.625 45.6994 158.992 43.1085 162.362 43.1085C166.115 43.1085 166.723 45.9305 166.813 46.9876H157.469ZM162.362 39.0907C156.159 39.0907 151.945 43.4611 151.945 49.17C151.945 54.8785 156.21 59.1712 162.558 59.1712C168.906 59.1712 171.612 54.8412 171.612 54.8412L167.57 52.2264C167.57 52.2264 166.189 54.9348 162.596 54.9348C158.897 54.9348 157.408 51.9011 157.408 50.7429H172.068C172.068 50.7429 172.148 49.9053 172.148 49.6612V49.0151C172.148 43.3604 168.565 39.0907 162.362 39.0907Z" fill="white"/>
</g>
<defs>
<clipPath id="clip0">
<rect width="179.308" height="37" fill="white" transform="translate(40 31)"/>
</clipPath>
</defs>
</svg>
