<svg width="260" height="100" viewBox="0 0 260 100" fill="none" xmlns="http://www.w3.org/2000/svg">
<path d="M170.884 42.3812L176.059 38.5625H158.734V61.4373H176.059V57.6186H163.684V51.7782H174.259V47.9595H163.684V42.3812H170.884Z" fill="white"/>
<path d="M145.647 47.4728H139.647V42.3812H149.247L154.421 38.5625H134.697V61.4373H145.009C150.784 61.4373 154.121 58.8166 154.121 54.2492C154.121 49.8689 151.122 47.4728 145.647 47.4728ZM144.822 57.6186H139.647V51.2915H144.822C147.972 51.2915 149.434 52.3398 149.434 54.4738C149.434 56.6078 147.859 57.6186 144.822 57.6186Z" fill="white"/>
<path d="M190.082 38.5625H180.67V61.4373H185.62V54.9605H190.12C196.119 54.9605 199.869 51.8157 199.869 46.7615C199.869 41.7073 196.119 38.5625 190.082 38.5625ZM189.97 51.1418H185.582V42.3812H189.97C193.157 42.3812 194.882 43.9536 194.882 46.7615C194.882 49.5694 193.157 51.1418 189.97 51.1418Z" fill="white"/>
<path d="M126.223 56.4961C124.91 57.2075 123.448 57.5818 121.948 57.5818C117.486 57.5818 114.261 54.3996 114.261 50.0193C114.261 45.639 117.486 42.4568 121.948 42.4568C123.56 42.4193 125.135 42.9435 126.448 43.8794L130.01 41.2587L129.785 41.0341C127.723 39.1996 124.948 38.2637 121.798 38.2637C118.386 38.2637 115.273 39.4243 113.023 41.5208C110.773 43.6922 109.498 46.7247 109.573 49.8695C109.536 53.0518 110.773 56.1217 113.023 58.368C115.386 60.5769 118.536 61.8124 121.76 61.7375C125.323 61.7375 128.435 60.502 130.535 58.2557L127.348 55.8971L126.223 56.4961Z" fill="white"/>
<path d="M94.0869 38.4121C94.9869 39.5727 95.7369 40.8456 96.3743 42.1934L79.0501 54.9598L71.7754 50.3924V44.9264L79.0126 49.4564L94.0869 38.4121Z" fill="white"/>
<path d="M64.3873 50.0183C64.3873 49.7562 64.3873 49.5316 64.4248 49.2696L60.0375 49.0449C60.0375 49.3444 60 49.6814 60 49.9809C60 55.2222 62.1374 59.9769 65.5873 63.4212L68.6996 60.3139C66.0372 57.6932 64.3873 54.0617 64.3873 50.0183Z" fill="white"/>
<path d="M79.0123 35.4174C79.2748 35.4174 79.4998 35.4174 79.7623 35.4548L79.9873 31.0745C79.6873 31.0745 79.3498 31.0371 79.0498 31.0371C73.8 31.0371 69.0377 33.1711 65.5879 36.6154L68.7003 39.7228C71.3251 37.0647 75 35.4174 79.0123 35.4174Z" fill="white"/>
<path d="M79.0121 64.6199C78.7496 64.6199 78.5246 64.6199 78.2621 64.5824L78.0371 68.9627C78.3371 68.9627 78.6746 69.0001 78.9746 69.0001C84.2243 69.0001 88.9866 66.8662 92.4365 63.4218L89.3241 60.3145C86.6992 63.01 83.0619 64.6199 79.0121 64.6199Z" fill="white"/>
<path d="M87.2614 37.9635L90.9737 35.2305C87.7113 32.6098 83.549 31 79.0117 31V35.3803C82.0866 35.4177 84.9365 36.3537 87.2614 37.9635Z" fill="white"/>
<path d="M98.0605 50.0182C98.0605 48.8576 97.948 47.7345 97.7606 46.6113L93.6732 49.6438C93.6732 49.7561 93.6732 49.9059 93.6732 50.0182C93.6732 54.3236 91.7983 58.1798 88.8359 60.8379L91.7983 64.095C95.6231 60.6507 98.0605 55.5965 98.0605 50.0182Z" fill="white"/>
<path d="M79.0115 64.6186C74.6992 64.6186 70.8369 62.7467 68.1745 59.7891L64.9121 62.7467C68.3995 66.6028 73.4242 68.9989 79.0115 68.9989V64.6186Z" fill="white"/>
<path d="M69.2246 39.1985L66.2622 35.9414C62.3999 39.4232 60 44.4399 60 50.0182H64.3873C64.3873 45.7502 66.2622 41.8567 69.2246 39.1985Z" fill="white"/>
</svg>
