<svg width="260" height="100" viewBox="0 0 260 100" fill="none" xmlns="http://www.w3.org/2000/svg">
<g clip-path="url(#clip0)">
<path d="M142.141 17C138.156 17 135.391 18.9219 134.125 22.3437L132.906 22.2969L133.281 16.8594L126.484 16.4844L126.156 35.4219L131.922 35.7031L132.297 30.875L133.891 30.9687C135.016 34.4844 137.875 36.6406 142.141 36.6406C147.813 36.6406 151.188 32.5625 151.188 25.8594C151.141 18.7812 145.984 17 142.141 17ZM142.422 31.2969C140.688 31.2969 139.094 30.6406 139.094 29.1875C139.094 27.9687 140.078 27.2656 141.625 27.2656C143.5 27.2656 145 27.875 145 29.2812C145 30.4062 144.203 31.2969 142.422 31.2969ZM97.3281 40.7187L96.0625 47.0469L93.9063 41L85.0469 41.7031L87.5313 60.125L92.6406 59.6562L92.3125 51.9687L94.75 58.0156L98.875 57.5937L100.141 50.9844L100.797 58.9062L106.094 58.4375V40.0156L97.3281 40.7187Z" fill="white"/>
<path d="M115.562 40.5781L107.641 40.3906C107.641 40.3906 112.187 53.7969 112.328 54.1719C111.719 54.1719 111.016 54.125 110.125 53.9375C109.047 53.7031 108.25 53.2813 108.25 53.2813C108.25 53.2813 107.594 56.7969 107.453 57.7813C108.766 58.6719 110.969 59.2344 113.078 59.2344C117.953 59.2344 121.047 55.8125 123.25 49.4375C125.453 43.0625 126.109 40.7656 126.109 40.7656L118.188 40.625L116.781 48.9219L115.562 40.5781Z" fill="white"/>
<path d="M141.109 59.1875L136.328 40.625L127.656 40.7187L123.438 59.4219L128.828 59.3281L132.109 52.7656L135.766 59.2344L141.109 59.1875Z" fill="white"/>
<path d="M126.391 64.3906L121.938 82.3906L127.375 82.4375L130.094 76.8125L132.859 82.4844L138.203 82.5313L133.891 64.3438L126.391 64.3906Z" fill="white"/>
<path d="M104.922 27.0312C105.016 26.0469 106 17.6094 106 17.6094C106 17.6094 103.75 16.625 100.234 16.625C95.7813 16.625 90.4844 18.8281 90.4844 26.375C90.4844 33.0312 94.2813 36.125 99.4844 36.125C101.875 36.125 104.219 35.375 106.281 34.4375C105.906 33.1719 105.25 31.1094 104.922 29.8437C104.078 30.1719 102.25 30.6875 100.656 30.6875C99.1563 30.6875 97.8906 30.0781 97.8906 28.7187C97.8906 27.2187 99.2031 26.6094 101.219 26.6094C102.438 26.6562 103.609 26.8438 104.922 27.0312Z" fill="white"/>
<path d="M115.703 16.8594C111.203 16.8594 106.188 19.5312 106.188 26.375C106.188 33.8281 111.062 36.2656 115.516 36.2656C120.063 36.2656 125.313 33.9219 125.313 25.9531C125.266 19.4375 120.953 16.8594 115.703 16.8594ZM115.844 30.9219C114.109 30.9219 112.984 30.0781 112.984 28.9062C112.984 27.7344 114.109 26.8906 115.891 26.8906C117.484 26.8906 118.891 27.4062 118.891 28.7656C118.891 30.0312 117.766 30.9219 115.844 30.9219Z" fill="white"/>
<path d="M151.375 17.8437L152.359 25.9531C152.359 25.9531 155.125 25.1563 157.984 25.1563C161.031 25.1563 161.547 25.625 161.547 26.1875C161.547 26.6094 161.266 26.7969 160.563 26.75C159.859 26.75 155.406 26.375 155.406 26.375L155.219 29.7031C155.219 29.7031 160.141 30.125 160.891 30.1719C161.359 30.2188 161.594 30.4531 161.594 30.8281C161.594 31.25 161.219 31.625 160.516 31.625C157.047 31.625 154.469 30.6875 152.594 29.9844C152.453 30.4531 151.281 33.7813 151.141 34.2969C152.781 35.1875 156.391 36.5938 161.078 36.5938C166.75 36.5938 167.594 33.875 167.594 31.9063C167.594 30.2188 166.609 29 165.391 28.2969C166.891 27.3594 167.875 25.8594 167.875 23.375C167.875 19.8125 164.781 16.8125 159.531 16.8125C156.297 16.8125 153.016 17.2812 151.375 17.8437Z" fill="white"/>
<path d="M148.984 45.2188C149.078 43.625 149.312 40.6719 149.312 40.6719L142.609 40.2969C142.609 40.2969 142.094 58.3906 142.094 58.8125C143.828 59.1875 147.156 59.8438 150.766 59.8438C155.594 59.8438 157.75 56.3281 157.75 52.2969C157.797 48.6406 155.594 44.9844 148.984 45.2188ZM150.812 55.0156C149.687 55.0156 148.938 54.875 148.328 54.7344C148.375 54.3594 148.422 52.9531 148.469 52.5781C149.125 52.5312 149.828 52.4844 150.484 52.5312C151.516 52.5781 152.406 52.9531 152.406 53.75C152.453 54.7344 151.609 55.0156 150.812 55.0156Z" fill="white"/>
<path d="M144.344 63.9219L137.688 64.25L139 82.1563C139 82.1563 142.844 82.9531 146.969 82.4844C151.281 82.0156 153.062 78.9688 153.062 75.5469C153.062 71 150.859 67.5781 144.297 68.5156L144.344 63.9219ZM146.594 77.6563C145.75 77.75 144.906 77.6563 144.203 77.6094V75.5C144.812 75.4063 145.469 75.3125 145.937 75.3125C147.25 75.3125 147.953 75.5938 147.953 76.4844C147.906 77.0938 147.344 77.6094 146.594 77.6563Z" fill="white"/>
<path d="M107.594 82.0156L112.703 82.1563L115.938 76.0625L116.031 82.25L121.188 82.3906L122.641 64.6719L115.891 64.4844L113.406 70.1094L113.453 64.4375L106.703 64.25L107.594 82.0156Z" fill="white"/>
<path d="M154.094 81.8281L158.969 82.0625L159.344 74.8906L160.75 80.6094L164.687 80.7969L166.469 74.9375L166.375 82.4375L171.203 82.6719L173.031 64.6719L164.781 64.2031L162.953 69.0781L161.828 64.0156L153.438 63.5469L154.094 81.8281Z" fill="white"/>
<path d="M98.7342 64.7187C98.6873 63.6406 98.6873 63.2656 98.6873 63.2656L92.5467 63.5C92.5467 63.5 92.5936 64.0625 92.6404 64.9531C89.0779 65.6094 85.7029 68.375 85.9373 73.5312C86.1717 79.7188 90.5311 81.4063 93.6717 81.5469C93.7186 82.2969 93.7654 82.9062 93.7654 82.9062L99.0154 82.7188C99.0154 82.7188 99.0154 82.25 98.9686 81.2656C102.625 80.7031 106.375 78.3594 106.14 72.5469C105.953 66.6406 101.453 65 98.7342 64.7187ZM91.4686 75.5469C91.4217 74.0938 92.9217 73.7656 93.6248 73.6719C93.6248 74.0469 93.7654 76.3906 93.8123 77.2812C92.9217 77.2812 91.5154 76.9531 91.4686 75.5469ZM98.5467 77.0938C98.5467 76.4844 98.4529 74.1875 98.4529 73.5312C99.5311 73.5312 100.75 74 100.797 75.2656C100.844 76.3906 99.5779 76.9531 98.5467 77.0938Z" fill="white"/>
<path d="M157.938 48.9687L162.531 49.25V58.9062L167.875 59.2812L169.188 49.6719L173.875 49.9531L175.047 41.0469L157.891 39.9219L157.938 48.9687Z" fill="white"/>
</g>
<defs>
<clipPath id="clip0">
<rect width="90" height="90" fill="white" transform="translate(85 5)"/>
</clipPath>
</defs>
</svg>
