<svg width="260" height="100" viewBox="0 0 260 100" fill="none" xmlns="http://www.w3.org/2000/svg">
<path fill-rule="evenodd" clip-rule="evenodd" d="M67.7762 48.1932L68.5882 45.5892L65.9002 45.6748C65.6746 45.6748 64.0226 45.6254 62.4233 44.4642C62.5435 44.4741 62.6605 44.4922 62.7856 44.4922C64.4327 44.4922 66.0287 43.4974 66.6661 42.0744L67.8224 39.5049C66.3729 39.5247 65.0471 39.3419 65.0471 39.3419C65.0355 39.3419 63.9913 39.2052 62.784 37.9682C61.9177 37.0838 60.8454 36.6144 59.6842 36.6144C59.2245 36.6161 58.7678 36.6889 58.3304 36.8301C58.3913 36.6226 58.4489 36.4101 58.4835 36.1927C58.8508 33.788 57.3075 31.9565 57.3075 31.9565L55.2866 29.4496L54.0332 32.3946C54.0282 32.4045 53.712 33.0962 53.1471 33.4322C52.9758 32.5659 52.5558 31.5925 51.6598 30.6619C49.9682 28.9094 47.9111 28.6459 46.8339 28.6459C46.3348 28.6459 45.9774 28.7019 45.8918 28.7151L43.4525 29.196C43.5925 28.6508 43.8939 27.6972 44.4407 26.8424L45.788 24.7424L42.4 25.1294L41.3212 22.8334L39.2311 23.9122L37.2991 22L35.372 23.9106L33.2786 22.8334L32.2014 25.1278L28.8151 24.7407L30.164 26.844C30.7125 27.6988 31.0106 28.6475 31.1506 29.1927L28.8233 28.7315L28.7426 28.72C28.4212 28.6694 28.0962 28.6446 27.7708 28.6459C26.6936 28.6459 24.6365 28.9094 22.9499 30.6619C22.0522 31.5908 21.6306 32.5659 21.4593 33.4322C20.8976 33.0979 20.5831 32.4193 20.5831 32.4193L19.328 29.4546L17.2741 31.9812C17.0238 32.3056 15.7868 34.0285 16.1212 36.1976C16.1574 36.4134 16.2134 36.6242 16.2744 36.8318C15.8381 36.6901 15.3824 36.6173 14.9238 36.616C13.7609 36.616 12.6887 37.0854 11.8207 37.9699C10.6184 39.2019 9.57906 39.3419 9.58729 39.3419C9.58729 39.3419 8.48871 39.5395 6.78729 39.5066L7.93859 42.076C8.57765 43.4991 10.1753 44.4939 11.8191 44.4939C11.9442 44.4939 12.0612 44.4758 12.1831 44.4659C10.5854 45.6287 8.93506 45.6765 8.73576 45.6765L6 45.5892L6.82847 48.1915C7.24682 49.5355 8.64024 51.7574 11.3085 51.9962C11.0186 53.2151 10.3746 54.5821 8.96141 55.1718L6.92235 56.0118L8.03412 57.952C8.66165 58.9979 10.1358 60.2216 12.2325 60.2216C12.6854 60.2216 13.1235 60.1739 13.5468 60.0849C13.6539 60.5626 13.7889 61.0402 13.9487 61.5179C14.5713 63.3791 14.0344 64.6769 14.0278 64.6918L13.0231 66.8033L15.268 67.3962C15.296 67.4061 15.9762 67.5939 16.8245 67.5939C17.2099 67.5939 17.5788 67.5527 17.9247 67.4704C18.1849 67.4094 18.4353 67.3271 18.6774 67.2299C18.9689 67.752 19.3214 68.2296 19.7332 68.6562C21.1727 70.1369 23.2151 70.8864 25.7976 70.8864H25.8059L27.6506 70.8616L23.8393 72.4494L26.7332 73.8511C27.7856 74.3649 29.0308 74.9711 30.3024 75.4355L29.94 76.4254L30.9365 76.8816C31.0254 76.9228 32.9459 77.7809 36.1329 77.9638C36.1329 77.9638 36.9021 78 37.3254 78C37.7504 78 38.5113 77.9621 38.5113 77.9621C41.6769 77.7744 43.5809 76.9228 43.6699 76.8816L44.6696 76.4254L44.3056 75.4339C45.6101 74.9562 46.9031 74.3238 47.9127 73.8313L50.7522 72.4478L46.9525 70.8616L48.8054 70.8864C51.3913 70.8864 53.4337 70.1353 54.8715 68.6546C55.2817 68.2296 55.6325 67.7536 55.9256 67.2299C56.5135 67.473 57.1441 67.5962 57.7802 67.5922C58.6153 67.5922 59.3021 67.4078 59.3202 67.4012L61.5767 66.8033L60.5934 64.7296C60.5704 64.6769 60.0334 63.3791 60.656 61.5146C60.8158 61.0402 60.9492 60.5609 61.0579 60.0849C61.4812 60.1739 61.9242 60.22 62.3805 60.2216C65.052 60.2216 66.3334 58.3391 66.5805 57.9306L67.6824 56.0101L65.6433 55.1718C64.2268 54.5838 63.5845 53.2167 63.2979 51.9995C65.9315 51.7689 67.3431 49.5454 67.7779 48.1948L67.7762 48.1932Z" fill="#FFFFFE"/>
<path fill-rule="evenodd" clip-rule="evenodd" d="M37.2999 29.9772C35.1423 29.9789 33.5232 30.6871 33.1707 31.5222L37.2999 33.1527L41.4307 31.5222C41.0816 30.6871 39.4625 29.9789 37.2999 29.9772ZM37.3444 73.1944H37.262C35.9543 73.2026 34.1507 72.9342 33.2844 72.6789L32.2401 75.5102C32.9286 75.7556 35.2608 76.2266 37.3048 76.2266C39.3456 76.2266 41.6794 75.7556 42.3663 75.5102L41.3237 72.6805C40.4524 72.9342 38.6521 73.2026 37.3444 73.1944ZM45.2453 70.3779C44.4679 70.8193 42.7336 71.4814 41.7239 71.7878L42.5705 74.1266C44.1319 73.6984 45.4216 73.1993 46.4855 72.664L44.7265 72.0793L45.2453 70.3779ZM29.3594 70.3779L29.8799 72.0793L28.1192 72.664C29.1816 73.1993 30.4761 73.6984 32.0326 74.125L32.8808 71.7862C31.8728 71.4798 30.1352 70.8193 29.3594 70.3779ZM37.2999 27.2711C38.9288 27.2711 40.5232 27.6614 41.7519 28.345C41.8639 27.9694 42.0204 27.5116 42.2328 27.0323L41.7684 27.0883L41.2825 27.1377L41.0766 26.6946L40.454 25.3819L39.3241 25.9716L38.8827 26.1956L38.5303 25.8497L37.2999 24.6309L36.0728 25.8497L35.722 26.1956L35.2823 25.9716L34.1458 25.3819L33.5314 26.6946L33.3223 27.1393L32.8347 27.0883L32.3735 27.0323C32.586 27.5116 32.7408 27.9694 32.8545 28.345C34.0865 27.6614 35.6808 27.2711 37.3015 27.2711H37.2999ZM62.1458 42.452C62.3583 42.5245 62.5724 42.5574 62.7849 42.5574C63.7072 42.5574 64.5966 41.9596 64.9013 41.2777C64.9013 41.2777 63.2131 41.1756 61.398 39.3292C60.8215 38.733 60.2089 38.5534 59.6851 38.5534C58.8698 38.5534 58.2571 38.9833 58.2571 38.9833C60.451 40.1527 60.8973 42.0304 62.1458 42.452ZM11.8199 42.5558C12.034 42.5558 12.2481 42.5245 12.454 42.4504C13.7058 42.0287 14.1571 40.1527 16.346 38.985C16.346 38.985 15.7333 38.5534 14.923 38.5534C14.3959 38.5534 13.7848 38.7313 13.2051 39.3309C11.3917 41.1756 9.70508 41.2793 9.70508 41.2793C10.0081 41.9596 10.8992 42.5574 11.8199 42.5574V42.5558Z" fill="#FFFFFE"/>
<path fill-rule="evenodd" clip-rule="evenodd" d="M61.4838 55.9204C59.7873 55.0804 58.7167 52.8569 58.4565 52.0564C58.1765 56.4672 56.0271 59.5274 53.5153 62.4724C52.2108 64.0009 51.7563 65.4865 51.7563 65.4865C51.7563 65.4865 52.0083 63.8032 53.1348 62.4328C55.4786 59.6131 57.7054 56.1016 57.8718 52.0399C57.9854 49.207 57.2591 46.9093 56.1226 45.0152C56.7584 46.9867 56.6678 49.403 54.5118 51.6578C54.5118 51.6578 58.8057 46.5058 52.8038 41.222C50.4024 39.2126 47.7737 37.9707 46.4214 37.0912C51.3083 38.6889 53.6965 36.9298 53.6965 36.9298C52.1351 38.2853 50.1141 38.2623 48.8607 38.0663C49.2017 38.2326 49.5558 38.4072 49.9346 38.6098C54.0572 40.8531 57.7598 44.5441 58.3923 49.6533V49.6138C59.3492 54.6324 61.4838 55.9204 61.4838 55.9204ZM62.7388 50.0733C62.7767 50.0766 62.8097 50.0766 62.8475 50.0766C65.1452 50.0766 65.9226 47.611 65.9226 47.611H65.8781C65.4565 47.611 62.0405 47.5121 59.6259 44.4371C58.0381 42.4161 56.7353 40.639 54.1626 39.9406L53.909 39.8945L53.8546 39.6359C53.7838 39.2423 54.0523 38.8733 54.665 38.4764C58.2144 36.1474 55.8014 33.1761 55.8014 33.1761C55.8014 33.1761 54.7901 35.5512 52.5221 35.5512L52.3525 35.5479C52.0955 35.5347 51.8468 35.5265 51.5965 35.4721L51.1781 35.3898C51.1781 35.3898 51.8254 33.6274 50.264 32.0117C49.0897 30.7896 47.6584 30.582 46.8332 30.582C46.4165 30.582 46.153 30.6364 46.153 30.6364C46.937 31.6625 47.5035 33.3672 46.5977 34.418C45.8153 35.3206 43.9047 35.3651 43.9047 36.7124C43.9047 37.2823 44.4367 37.9477 45.392 38.5456C48.2645 40.3573 51.1155 42.762 52.3014 45.9853C53.7838 50.0041 52.1137 52.6724 49.732 54.2025C49.732 54.2025 50.4798 54.891 51.5619 54.9799C51.7826 55.0013 51.9984 55.0112 52.1993 55.0112C54.4871 55.0112 55.6697 53.9357 55.6697 53.9357C55.6697 53.9357 55.4737 55.4213 54.2861 56.7999C53.1859 58.0714 51.7447 58.8225 49.5459 58.8538C49.5459 58.8538 49.4767 59.875 50.4501 60.7611C51.0744 61.3194 52.5123 61.5023 52.5123 61.5023C52.5123 61.5023 49.8177 62.0474 49.5195 66.035C49.3581 68.1959 48.808 68.9453 48.808 68.9453H48.8558C55.108 68.9453 54.9483 63.5726 54.9483 63.5726C54.9483 63.5726 55.3831 65.1637 57.1273 65.5787C57.3381 65.6347 57.5638 65.6561 57.7779 65.6561C58.3379 65.6561 58.8271 65.5244 58.8271 65.5244C58.8271 65.5244 57.913 63.594 58.8188 60.8945C59.5715 58.6528 59.4497 56.9926 59.4497 56.9926C59.4497 56.9926 60.2913 58.2691 62.3814 58.2806H62.4028C62.8966 58.2882 63.3842 58.1712 63.8207 57.9403C64.2571 57.7094 64.6283 57.3721 64.8998 56.9597C60.7311 55.2253 61.1428 49.6303 61.1428 49.6303C61.1428 49.6303 61.6831 50.0354 62.7388 50.075V50.0733ZM21.0864 62.4724C18.5746 59.5274 16.4252 56.4672 16.1419 52.0564C15.8833 52.8585 14.8144 55.082 13.1195 55.9204C13.1195 55.9204 15.2508 54.6324 16.2078 49.6138V49.6533C16.8419 44.5441 20.5445 40.8531 24.6671 38.6114C25.0459 38.4056 25.4017 38.2326 25.7393 38.0679C24.4875 38.2623 22.465 38.2853 20.9052 36.9314C20.9052 36.9314 23.2934 38.6889 28.1786 37.0912C26.828 37.9707 24.1993 39.2126 21.7995 41.222C15.796 46.5058 20.0899 51.6578 20.0899 51.6578C17.9323 49.4013 17.8433 46.9884 18.4791 45.0152C17.3426 46.9093 16.6146 49.207 16.7332 52.0416C16.8963 56.1016 19.1214 59.6131 21.4603 62.4345C22.5934 63.8016 22.8487 65.4849 22.8487 65.4849C22.8487 65.4849 22.3875 64.0009 21.0864 62.4724ZM22.0911 61.5006C22.0911 61.5006 23.529 61.3194 24.1532 60.7594C25.125 59.875 25.0574 58.8538 25.0574 58.8538C22.857 58.8225 21.4174 58.0714 20.3123 56.7999C19.1297 55.4213 18.932 53.9357 18.932 53.9357C18.932 53.9357 20.1146 55.0112 22.3991 55.0112C22.605 55.0112 22.8191 55.0013 23.0381 54.9799C23.7141 54.9115 24.3536 54.6405 24.873 54.2025C22.488 52.6724 20.8179 50.0041 22.2986 45.9837C23.4845 42.7637 26.3339 40.3573 29.2097 38.5439C30.1633 37.9477 30.6937 37.2823 30.6937 36.7124C30.6937 35.3651 28.7864 35.3206 28.004 34.418C27.0981 33.3672 27.6664 31.6625 28.4487 30.6364C28.4487 30.6364 28.1868 30.582 27.7685 30.582C26.945 30.582 25.5137 30.7896 24.3377 32.0117C22.773 33.6291 23.4235 35.3914 23.4235 35.3914L23.0052 35.4738C22.7565 35.5249 22.5045 35.5347 22.2475 35.5496L22.0828 35.5512C19.8099 35.5512 18.8003 33.1778 18.8003 33.1778C18.8003 33.1778 16.3906 36.1474 19.94 38.4764C20.5494 38.8733 20.8179 39.2439 20.7471 39.6359L20.6927 39.8929L20.4341 39.939C17.8664 40.639 16.5635 42.4161 14.9725 44.4371C12.5579 47.5121 9.14519 47.611 8.7219 47.611H8.67578C8.67578 47.611 9.45484 50.0766 11.7541 50.0766C11.7904 50.0766 11.8233 50.0766 11.8628 50.0733C12.9186 50.0354 13.4605 49.6303 13.4605 49.6303C13.4605 49.6303 13.869 55.2253 9.7019 56.9597C9.7019 56.9597 10.4612 58.2823 12.2005 58.2823H12.2203C14.312 58.2691 15.152 56.9926 15.152 56.9926C15.152 56.9926 15.0301 58.6545 15.7795 60.8945C16.6854 63.5957 15.7763 65.5227 15.7763 65.5227C15.7763 65.5227 16.2621 65.6545 16.8238 65.6545C17.0412 65.6545 17.2635 65.6347 17.4727 65.5787C19.2153 65.1637 19.6518 63.5726 19.6518 63.5726C19.6518 63.5726 19.492 68.9453 25.7459 68.9453H25.792C25.792 68.9453 25.2435 68.1959 25.0838 66.035C24.7873 62.0491 22.0894 61.5006 22.0894 61.5006H22.0911ZM35.8885 41.703H38.8367V42.7159C38.4908 42.291 37.8155 42.3783 37.8155 42.3783V43.8392C37.8155 43.8392 37.8386 44.5573 38.0923 44.8686H36.633C36.8883 44.5573 36.9097 43.8392 36.9097 43.8392V42.3783C36.9097 42.3783 36.2377 42.291 35.8885 42.7159V41.703ZM32.6767 41.8545C32.7788 41.9649 32.8793 42.0851 32.9765 42.2053C32.9995 42.2333 33.021 42.258 33.044 42.291C33.1346 42.4096 33.2252 42.538 33.3125 42.6665L33.3718 42.7538C33.4755 42.9119 33.5744 43.075 33.6732 43.2446C34.5758 44.8044 36.0186 45.7366 37.2984 45.7383C38.5814 45.7366 40.0226 44.8044 40.9268 43.2446C41.0273 43.0717 41.1278 42.9037 41.2332 42.7456C41.3534 42.5613 41.482 42.3827 41.6186 42.2103C41.7191 42.0851 41.8228 41.9632 41.9282 41.8512C41.9464 41.8347 41.9612 41.8166 41.9793 41.8018C42.4405 41.3307 42.9857 40.9717 43.7038 40.7724L43.3843 40.5863H43.3678L42.0963 39.8484L40.7934 39.099L37.3083 40.9997L37.2984 40.9914L37.2934 40.9997L33.8083 39.099L32.5038 39.8484L31.2323 40.5863H31.2174L30.8963 40.7724C31.6127 40.97 32.1595 41.3258 32.6207 41.7985C32.6405 41.815 32.6537 41.838 32.6767 41.8545Z" fill="#FFFFFE"/>
<path fill-rule="evenodd" clip-rule="evenodd" d="M36.19 35.2645V36.2197L36.0072 36.1341C35.9989 36.1275 35.7288 36.0682 35.2627 35.696C34.4902 35.0964 34.4754 34.543 34.4754 34.543L36.1883 35.2645H36.19ZM36.997 39.7395V33.8068L33.2286 32.5254L34.2234 38.2736L36.9987 39.7395H36.997ZM38.4135 35.2645L40.1265 34.543C40.1265 34.543 40.1133 35.0964 39.3375 35.696C38.8714 36.0666 38.6029 36.1275 38.5947 36.1341L38.4135 36.2181V35.2645ZM40.3785 38.2753L41.3683 32.527L37.6015 33.8068V39.7395L40.3785 38.2736V38.2753ZM31.6672 53.4924C32.0345 53.6242 32.4792 53.6522 32.7081 53.6522C32.7163 53.6242 32.7295 53.5896 32.741 53.5468C32.7592 53.4809 32.7789 53.4117 32.7937 53.3393C32.858 53.0099 32.8794 52.6393 32.886 52.3988C32.6753 52.2736 32.5037 52.0922 32.3902 51.875C32.2502 51.5802 32.0509 51.4419 31.7594 51.4419C31.3806 51.4419 30.9737 51.6724 30.7975 51.7779C30.6592 52.5981 31.2636 53.3426 31.6672 53.4908V53.4924ZM40.0046 50.3449C39.3062 51.1075 37.9342 52.4367 37.8683 52.5026L37.786 52.5849L33.4542 52.5174C33.4506 52.8758 33.4042 53.2324 33.3159 53.5797L33.2813 53.7164L38.4316 54.6454C38.9669 54.2699 40.441 53.191 41.0142 52.7677C40.5975 52.1583 40.558 51.4353 40.6519 50.928C40.4046 50.7718 40.1857 50.5746 40.0046 50.3449Z" fill="#FFFFFE"/>
<path fill-rule="evenodd" clip-rule="evenodd" d="M40.5939 45.1266C39.5958 46.1182 38.6388 46.4855 37.784 46.5711C37.6276 46.5881 37.4703 46.5969 37.3129 46.5975H37.2915C36.9771 46.5974 36.6635 46.5643 36.356 46.4986C36.3 46.721 36.2292 47.1871 36.4318 47.6285C36.6129 48.0288 36.9802 48.3269 37.5172 48.5262L37.6984 48.597L37.7 48.7914C37.7 48.849 37.7428 50.1106 39.1165 50.4615C39.3405 50.2309 39.5447 50.0217 39.6929 49.8455C39.4129 49.185 39.5612 48.5097 39.968 48.1786C39.9515 48.2495 39.7704 49.9048 41.0962 50.5208L41.3153 50.6245L41.2494 50.8568C41.228 50.9276 40.7866 52.5302 42.3925 53.1264L42.6758 53.2351L42.5489 53.5102C42.5209 53.5711 41.8918 55.0255 43.3741 55.8523H46.5875V53.2944C45.4445 53.1544 44.9619 52.2337 44.8367 51.5815C44.3047 51.4909 43.8946 51.2619 43.6129 50.8881C42.9377 49.9986 43.5174 49.1834 43.5257 49.1389C43.524 49.1455 43.5257 50.0118 44.0593 50.5488C44.3245 50.8057 44.6374 51.0066 45.1134 51.0511L45.3457 51.0725L45.3654 51.3114C45.3704 51.3624 45.4972 52.5368 46.5875 52.7212L46.5859 47.5001C46.5859 46.6897 46.8214 45.8761 47.1047 45.125H40.5939V45.1266ZM31.9419 47.5198L31.8562 50.8436L32.2351 50.9029L33.1574 47.7125L32.688 46.7309L31.9435 47.5198H31.9419ZM33.9414 59.8299C33.9161 59.8291 33.8912 59.8232 33.8682 59.8124C33.8453 59.8017 33.8248 59.7863 33.808 59.7674C33.7912 59.7484 33.7784 59.7262 33.7705 59.7021C33.7626 59.678 33.7596 59.6526 33.7619 59.6273C33.7633 59.6024 33.7698 59.5779 33.7808 59.5555C33.7918 59.533 33.8072 59.513 33.8261 59.4966C33.845 59.4802 33.8669 59.4677 33.8907 59.4599C33.9145 59.4521 33.9395 59.4491 33.9645 59.4511C34.0732 59.4561 34.1489 59.5499 34.1457 59.6521C34.1419 59.7026 34.1183 59.7496 34.0801 59.7829C34.0418 59.8162 33.992 59.8331 33.9414 59.8299ZM42.1141 62.7732C42.1421 62.7732 42.1751 62.7765 42.2047 62.7848C42.7812 62.9495 42.9245 65.0215 43.9308 65.2059C44.0297 65.2274 44.1219 65.2323 44.2009 65.2323C44.4925 65.2323 44.6654 65.1088 44.8532 64.8864C44.8532 64.8864 44.3459 64.0909 43.9671 63.5523C43.4647 62.8474 43.0744 61.9958 42.1372 61.9958C42.1141 61.9958 42.0878 61.9958 42.0631 61.9991C41.8846 62.0063 41.7119 62.0646 41.5657 62.1671C41.2528 61.9602 40.8866 61.8486 40.5115 61.8459C39.9268 61.8459 39.4689 62.1161 39.24 62.1161H39.2318L37.14 61.9085C36.8122 61.8756 36.5537 61.5462 36.4598 61.4177L36.4235 61.3617C36.4235 61.3041 36.4235 61.2464 36.4202 61.1954C36.3494 59.4808 35.0252 58.7478 34.5525 58.7346C34.5525 58.7346 34.6085 58.4085 34.4817 58.285L34.0205 58.845L32.5052 58.0841L33.5857 59.349L32.6715 60.3784C32.5562 60.4954 32.5711 60.6535 32.6188 60.721L33.0141 61.0702L33.5148 60.7655C33.5395 60.7473 33.5857 60.7408 33.6417 60.7408C33.78 60.7408 33.9875 60.777 34.1737 60.777C34.3795 60.777 34.5558 60.7342 34.5772 60.5415C34.5146 61.1772 33.9249 62.2824 34.312 63.1504L34.5986 63.8059L32.7489 63.5391L31.8826 65.0033C31.6158 65.4909 31.5729 66.0179 31.8299 66.3045L32.1544 66.7113C32.1544 66.7113 32.6089 66.2288 32.7094 65.9109L32.5628 65.7495C32.4393 65.6128 32.4459 65.4909 32.5217 65.3443L33.0652 64.4417L35.2475 64.9572L35.3628 64.7596C35.5111 64.5125 35.7252 64.4401 35.9591 64.4401C36.0562 64.4401 36.1551 64.4516 36.2572 64.4681C36.6624 64.5488 37.3294 64.6558 37.9965 64.6558C38.7294 64.6558 39.4558 64.5241 39.8428 64.0909C40.6334 65.2652 42.2377 65.4513 42.1108 66.0492L41.6892 68.0619C41.9692 68.0488 42.2377 68.0306 42.4929 67.9961L42.8948 65.9026C42.9274 65.7249 42.956 65.5464 42.9805 65.3673C42.8257 65.2092 42.4518 64.8782 42.2393 64.4746C41.9577 63.9295 42.1108 63.6445 41.8473 62.9363C41.8473 62.9363 41.9297 62.7716 42.1141 62.7716V62.7732Z" fill="#FFFFFE"/>
<path fill-rule="evenodd" clip-rule="evenodd" d="M30.9577 64.6757C30.9577 64.6757 31.6824 64.3792 31.7483 64.1651L31.6495 63.9246C31.5819 63.7665 31.5902 63.5952 31.7236 63.503L32.5043 62.9611L33.8104 63.2131C33.8104 63.2131 33.5732 62.9166 33.5963 62.5213L32.3511 62.2578L31.1751 62.9743C30.9699 63.1264 30.8216 63.3429 30.7538 63.5892C30.6861 63.8355 30.7028 64.0974 30.8012 64.3331L30.9577 64.6773V64.6757ZM40.1928 68.0884C40.425 68.0785 40.6852 68.0752 40.9669 68.0752C40.9669 68.0752 41.6389 66.107 41.6768 66.0444C41.1777 65.8116 40.6906 65.5538 40.2175 65.2719C40.4168 65.5717 40.901 65.9126 40.8055 66.1762L40.1928 68.0884Z" fill="#FFFFFE"/>
<path fill-rule="evenodd" clip-rule="evenodd" d="M46.5861 56.4159H28.0155V63.4142C28.0155 66.2768 30.0826 68.0672 33.1346 68.0672C35.6826 68.0672 36.3546 68.166 37.3016 69.1098C37.9555 68.4559 38.4958 68.2138 39.6075 68.1215L39.6322 68.0145L40.2169 66.2011C40.184 66.1599 39.2287 65.0712 39.2287 65.0712C38.8499 65.198 38.5304 65.2194 37.9934 65.2194C37.4449 65.2194 36.824 65.1535 36.1504 65.0284C36.0872 65.0134 36.0225 65.0057 35.9576 65.0053C35.8753 65.0053 35.8704 65.0119 35.8473 65.0531L35.732 65.2458L35.5179 65.5982L35.1176 65.5044L33.3355 65.0844L33.0901 65.4879L33.128 65.5324L33.3438 65.7712L33.2482 66.0841C33.1165 66.4909 32.6915 66.967 32.5614 67.0987L32.1167 67.5764L31.7099 67.0641L31.4052 66.6804C31.084 66.3213 31.0099 65.7712 31.1911 65.1947C31.1858 65.1986 31.1795 65.2009 31.1729 65.2013L30.6706 65.4105L30.4449 64.9164L30.2852 64.5688C30.1318 64.2133 30.1042 63.816 30.2069 63.4427C30.3096 63.0693 30.5365 62.7421 30.8501 62.515L32.2831 61.703L33.6501 61.9714C33.6831 61.8397 33.7325 61.3719 33.7704 61.2517C33.744 61.2484 33.7193 61.2434 33.6929 61.2434L32.9056 61.5366L32.148 61.0128C32.148 61.0128 31.8515 60.7262 32.12 60.4397L32.8529 59.3246L30.9918 56.9858L33.8527 58.1618L34.0438 57.9262L34.4292 57.4618L34.8673 57.8801C34.9825 57.9927 35.0626 58.1363 35.0979 58.2935C35.8852 58.6015 37.2984 59.5091 37.4235 60.9848L36.9821 61.1611V61.1726C37.0826 61.2928 37.1666 61.3422 37.1929 61.3472L39.2353 61.5481C39.288 61.5382 39.3506 61.5152 39.4231 61.4954C39.6784 61.4081 40.0588 61.2813 40.5101 61.2813C40.8791 61.2813 41.2348 61.367 41.5758 61.5284C41.7026 61.479 41.8558 61.4444 42.0369 61.4328L42.1358 61.4295C43.2278 61.4295 43.7713 62.2481 44.2078 62.902C44.2802 63.0157 44.3527 63.1211 44.4285 63.2265C44.8106 63.7667 45.3096 64.5557 45.3294 64.5902L45.5551 64.9411L45.2784 65.2639C45.0675 65.511 44.7464 65.7992 44.1995 65.7992C44.0756 65.7981 43.9521 65.7855 43.8306 65.7613C43.7185 65.7398 43.6092 65.7061 43.5045 65.6608C43.4877 65.7771 43.4685 65.8929 43.4468 66.0084L43.0894 67.8811C45.2306 67.354 46.5911 65.7333 46.5911 63.4142L46.5861 56.4159ZM28.0155 55.8526H42.4602C41.7388 55.1048 41.7504 54.1611 41.9332 53.5467C41.7383 53.4531 41.5571 53.3334 41.3946 53.191C40.8296 53.6077 39.1068 54.8644 38.6572 55.1806L38.56 55.2465L32.8908 54.2187H32.7755C32.6405 54.2187 32.4412 54.2138 32.2238 54.1858C32.2005 54.2899 32.1476 54.385 32.0713 54.4596C31.9951 54.5343 31.8989 54.5852 31.7944 54.6063C31.6898 54.6274 31.5814 54.6177 31.4822 54.5785C31.383 54.5392 31.2973 54.472 31.2355 54.3851C31.1921 54.3257 31.161 54.2583 31.144 54.1867C31.1271 54.1151 31.1246 54.0409 31.1367 53.9684L31.1581 53.8448C30.5751 53.4331 30.0332 52.5107 30.2736 51.539L30.2967 51.4368L30.3791 51.3775C30.4622 51.3208 30.5479 51.2681 30.636 51.2194L30.2242 51.1535C30.1511 51.141 30.0858 51.1004 30.0421 51.0404C29.9984 50.9805 29.9798 50.9058 29.9904 50.8324C30.0167 50.6775 30.16 50.5688 30.3132 50.5968L31.2932 50.7517L31.3838 47.2912L32.8431 45.743L33.7555 47.6651L32.7936 50.9954L33.66 51.1321C33.734 51.1443 33.8001 51.1852 33.844 51.246C33.8878 51.3069 33.9058 51.3826 33.8939 51.4566C33.8833 51.5222 33.8495 51.5818 33.7988 51.6247C33.748 51.6676 33.6836 51.6909 33.6172 51.6905L33.5727 51.6888L32.8661 51.5735C32.876 51.5966 32.8892 51.6081 32.8991 51.6312C32.9777 51.7676 33.0961 51.8767 33.2384 51.9441L37.5586 52.015C37.7414 51.8354 38.1944 51.3907 38.6621 50.9197C38.255 50.7702 37.8975 50.5103 37.6299 50.169C37.3622 49.8278 37.1949 49.4187 37.1468 48.9877C36.5539 48.734 36.1421 48.3552 35.9148 47.8611C35.6381 47.2484 35.7369 46.6357 35.8111 46.3375C35.2346 46.1284 34.6285 45.743 34.0092 45.127H27.5C27.78 45.878 28.0155 46.6917 28.0155 47.5004V55.851V55.8526Z" fill="white"/>
<path fill-rule="evenodd" clip-rule="evenodd" d="M33.9633 59.45C33.9382 59.448 33.913 59.451 33.8891 59.459C33.8652 59.4669 33.8432 59.4795 33.8243 59.4961C33.8054 59.5127 33.7901 59.5329 33.7791 59.5555C33.7682 59.5782 33.7619 59.6028 33.7607 59.6279C33.7586 59.653 33.7617 59.6783 33.7698 59.7022C33.7778 59.726 33.7906 59.748 33.8074 59.7668C33.8242 59.7856 33.8446 59.8008 33.8674 59.8115C33.8903 59.8221 33.915 59.828 33.9402 59.8288C33.9905 59.832 34.0401 59.8154 34.0783 59.7824C34.1165 59.7495 34.1402 59.7029 34.1444 59.6526C34.1471 59.6017 34.1296 59.5519 34.0956 59.5139C34.0617 59.476 34.0141 59.453 33.9633 59.45ZM42.5708 74.1253L41.7225 71.7865C42.7322 71.4785 44.4665 70.8164 45.2456 70.3766L44.7268 72.078L46.4842 72.6627C45.4202 73.1964 44.1322 73.6954 42.5708 74.1237V74.1253ZM37.3035 76.2253C35.2595 76.2253 32.9273 75.7542 32.2388 75.5088L33.283 72.6792C34.1494 72.9328 35.9513 73.2013 37.2607 73.1931H37.343C38.6508 73.2013 40.451 72.9312 41.3223 72.6792L42.3649 75.5088C41.6764 75.7559 39.3442 76.2253 37.3035 76.2253ZM28.1195 72.6627L29.8786 72.078L29.3581 70.3766C30.1338 70.8164 31.8731 71.4801 32.8795 71.7865L32.0313 74.1253C30.4748 73.6971 29.1818 73.1964 28.1195 72.6627ZM46.5633 72.1439L45.4927 71.7321L45.7891 70.6253L46.1136 69.418C46.1136 69.418 44.2195 70.4491 41.5463 71.2215C40.7887 71.439 40.2155 71.5394 40.2155 71.5394V72.3613C40.2155 72.3613 38.7858 72.6084 37.343 72.6084H37.2607C35.8145 72.6084 34.3882 72.3613 34.3882 72.3613V71.5378C34.3882 71.5378 33.8134 71.439 33.0557 71.2215C30.3858 70.4474 28.4917 69.418 28.4917 69.418L28.8113 70.6253L29.1143 71.7321L28.0404 72.1439L26.8496 72.5886C28.2134 73.2491 30.1042 74.2093 31.8336 74.6837L31.4268 75.8004C31.4268 75.8004 33.6207 76.8018 37.2755 76.8117V76.8133H37.3249V76.8117C40.9847 76.8018 43.1785 75.8004 43.1785 75.8004L42.7668 74.6837C44.4978 74.2093 46.392 73.2507 47.7491 72.5886L46.5633 72.1439ZM32.835 27.0853L33.3209 27.138L33.5301 26.6933L34.1428 25.3806L35.2793 25.9703L35.7207 26.1959L37.2985 24.6279L38.5289 25.8467L38.8814 26.1959L39.3228 25.9703L40.4527 25.3806L41.0753 26.6933L41.2811 27.138L41.767 27.0853L42.2315 27.031C42.019 27.5103 41.8625 27.9665 41.7489 28.3453C40.5218 27.6585 38.9275 27.2698 37.3002 27.2698C35.6795 27.2698 34.0851 27.6585 32.8531 28.3453C32.7203 27.8976 32.5596 27.4587 32.3722 27.031L32.8334 27.0853H32.835ZM37.2985 27.9533C39.4776 27.9533 41.2185 28.678 42.1821 29.4472C42.1821 29.4472 42.4687 27.7227 43.4437 26.2025L41.6896 26.4001L40.7722 24.4484L39.0098 25.3592L37.2985 23.666L35.5938 25.3592L33.8282 24.4484L32.9124 26.4018L31.1583 26.2008C32.135 27.7227 32.42 29.4455 32.42 29.4455C33.3884 28.6764 35.1244 27.9533 37.2985 27.9533ZM64.9 56.9597C64.9 56.9597 64.1423 58.2823 62.403 58.2823H62.3816C60.2931 58.2691 59.4498 56.9926 59.4498 56.9926C59.4498 56.9926 59.5717 58.6528 58.8207 60.8945C57.9148 63.5957 58.8273 65.5227 58.8273 65.5227C58.8273 65.5227 58.3397 65.6561 57.7781 65.6561C57.564 65.6561 57.34 65.6347 57.1275 65.5787C55.3833 65.1653 54.9484 63.5743 54.9484 63.5743C54.9484 63.5743 55.1098 68.9453 48.856 68.9453H48.8065C48.8065 68.9453 49.3583 68.1959 49.5214 66.035C49.8178 62.0491 52.5124 61.5006 52.5124 61.5006C52.5124 61.5006 51.0746 61.3194 50.4503 60.7611C49.4769 59.8766 49.5444 58.8538 49.5444 58.8538C51.7449 58.8225 53.1877 58.0731 54.2863 56.7999C54.9943 55.9853 55.4719 54.9966 55.6698 53.9357C55.6698 53.9357 54.4873 55.0112 52.1995 55.0112C51.9985 55.0112 51.7844 55.0013 51.5637 54.9799C50.48 54.8926 49.7322 54.2025 49.7322 54.2025C52.1138 52.6724 53.784 50.0025 52.3033 45.9837C51.1174 42.7637 48.2647 40.3573 45.3938 38.5455C44.4385 37.9477 43.9049 37.2823 43.9049 36.7107C43.9049 35.3651 45.8155 35.3223 46.5995 34.418C47.5054 33.3672 46.9371 31.6625 46.1531 30.6364C46.1531 30.6364 46.4167 30.582 46.8334 30.582C47.6602 30.582 49.0898 30.7895 50.2658 32.0117C51.8256 33.6291 51.1783 35.3914 51.1783 35.3914L51.5967 35.4738C51.847 35.5248 52.0957 35.5364 52.3543 35.5495L52.5223 35.5512C54.7903 35.5512 55.8033 33.1761 55.8033 33.1761C55.8033 33.1761 58.2146 36.1474 54.6651 38.4764C54.0541 38.8733 53.784 39.2439 53.8548 39.6359L53.9108 39.8945L54.1628 39.939C56.7355 40.639 58.0383 42.4178 59.6277 44.4371C62.0423 47.5121 65.4583 47.611 65.8783 47.611H65.9244C65.9244 47.611 65.1454 50.0766 62.8477 50.0766C62.8098 50.0766 62.7769 50.0766 62.739 50.0733C61.6849 50.0354 61.1414 49.6302 61.1414 49.6302C61.1414 49.6302 60.7313 55.2253 64.9 56.9597ZM62.8477 50.831C65.6642 50.831 66.6063 47.9601 66.6458 47.8383L66.9588 46.8253L65.9047 46.8583H65.9014C65.5275 46.8583 62.4211 46.7759 60.219 43.971L60.0098 43.7107C58.5703 41.8775 57.2049 40.1333 54.764 39.3378C54.8615 39.2524 54.9656 39.1747 55.0753 39.1055C56.3698 38.2524 57.1242 37.2164 57.312 36.0124C57.5903 34.2023 56.4357 32.7594 56.3863 32.7001L55.6023 31.7284L55.1115 32.8813C55.0786 32.9521 54.255 34.7968 52.5223 34.7968H52.3938C52.2753 34.7919 52.1616 34.787 52.0496 34.7771C52.1105 33.9535 51.9607 32.682 50.8077 31.4863C49.4225 30.0484 47.7228 29.8326 46.8334 29.8326C46.359 29.8326 46.0428 29.8919 46.0082 29.8952L44.824 30.1307L45.5536 31.0943C46.1268 31.8387 46.6473 33.2107 46.0313 33.9272C45.8336 34.1578 45.4284 34.3406 45.0414 34.5267C44.2442 34.894 43.1538 35.4079 43.1538 36.7107C43.1538 37.554 43.8077 38.4385 44.9936 39.1879C48.4985 41.3966 50.6628 43.7025 51.5967 46.2472C53.0428 50.1606 51.1569 52.394 49.3237 53.57L48.5035 54.0987L49.2233 54.7608C49.3204 54.8465 50.1983 55.6223 51.4978 55.7343C51.7449 55.7507 51.9804 55.7639 52.2011 55.7639C53.0329 55.7639 53.7428 55.6321 54.3193 55.4575C54.1469 55.7583 53.9462 56.0418 53.7197 56.3041C52.6738 57.5197 51.3858 58.0731 49.5329 58.1027L48.8444 58.1126L48.7917 58.8044C48.7851 58.9444 48.7341 60.2274 49.9447 61.3178C50.1308 61.4858 50.3548 61.6258 50.5903 61.7378C49.7668 62.479 48.9334 63.7703 48.772 65.9806C48.6353 67.8253 48.1955 68.5088 48.1905 68.5171L47.4296 69.6799L48.8049 69.698C51.0762 69.698 52.8155 69.0721 54.0195 67.827C54.6431 67.1729 55.1085 66.3847 55.38 65.5227C56.0488 66.093 56.8991 66.4061 57.7781 66.4055C58.4204 66.4055 58.9574 66.2688 59.0167 66.2557L59.8945 66.0218L59.5075 65.2015C59.4778 65.1357 58.7465 63.4886 59.5338 61.1383C59.8731 60.122 60.0461 59.2128 60.1301 58.503C60.6835 58.7928 61.423 59.03 62.38 59.0333C64.5541 59.0333 65.511 57.4077 65.5538 57.3401L65.9821 56.5924L65.1882 56.2663C62.599 55.1891 62.0258 52.2968 61.9105 50.7321C62.1461 50.7766 62.4129 50.8178 62.7143 50.826L62.8477 50.831Z" fill="#1A1919"/>
<path fill-rule="evenodd" clip-rule="evenodd" d="M59.6838 38.5535C60.2075 38.5535 60.8202 38.733 61.3967 39.3309C63.2118 41.1756 64.9 41.2794 64.9 41.2794C64.5937 41.9596 63.7043 42.5575 62.7835 42.5575C62.5711 42.5575 62.3553 42.5246 62.1461 42.4505C60.896 42.0288 60.4497 40.1528 58.2574 38.985C58.2574 38.985 58.8668 38.5535 59.6838 38.5535ZM57.9 39.6505C58.9492 40.2105 59.5619 40.9632 60.0988 41.6286C60.6259 42.2792 61.125 42.905 61.9106 43.1653C62.1873 43.2608 62.4821 43.3069 62.7835 43.3069C63.9579 43.3069 65.1388 42.5855 65.5868 41.5874L66.0365 40.5893L64.9478 40.5234C64.8967 40.5234 63.4951 40.3933 61.937 38.7989C61.2946 38.1434 60.5188 37.8008 59.6838 37.8008C58.6626 37.8008 57.905 38.3114 57.8226 38.3641L56.8212 39.0707L57.9 39.6505ZM58.3925 49.6168V49.6547C57.76 44.5455 54.0574 40.8561 49.9348 38.6128C49.556 38.4086 49.2019 38.234 48.861 38.0693C50.1144 38.2636 52.1353 38.2867 53.6967 36.9328C53.6967 36.9328 51.3085 38.6902 46.4217 37.0926C47.7722 37.9721 50.4026 39.214 52.804 41.2234C58.8042 46.5072 54.512 51.6592 54.512 51.6592C56.6697 49.4043 56.7586 46.9898 56.1228 45.0166C57.2593 46.9107 57.984 49.2083 57.872 52.0429C57.7073 56.1029 55.4788 59.6145 53.1351 62.4359C52.0085 63.8029 51.7581 65.4862 51.7581 65.4862C51.7581 65.4862 52.2127 64.0022 53.5155 62.4754C56.0273 59.5272 58.1767 56.4686 58.4567 52.0578C58.717 52.8599 59.7875 55.0834 61.484 55.9217C61.484 55.9217 59.3511 54.6338 58.3925 49.6168ZM25.7478 68.9467C19.4939 68.9467 19.6537 63.5756 19.6537 63.5756C19.6537 63.5756 19.2155 65.1667 17.4746 65.5801C17.2619 65.6336 17.0433 65.6596 16.824 65.6575C16.264 65.6575 15.7765 65.5258 15.7765 65.5258C15.7765 65.5258 16.6873 63.5954 15.7798 60.8959C15.032 58.6559 15.1539 56.994 15.1539 56.994C15.1539 56.994 14.3122 58.2705 12.2221 58.2836H12.2007C10.4631 58.2836 9.70378 56.961 9.70378 56.961C13.8708 55.2267 13.4624 49.6316 13.4624 49.6316C13.4624 49.6316 12.9188 50.0368 11.8647 50.0763H11.7544C9.45507 50.0763 8.67601 47.6123 8.67601 47.6123H8.72378C9.14872 47.6123 12.5598 47.5135 14.9727 44.4385C16.5621 42.4175 17.8666 40.6403 20.4344 39.942L20.693 39.8959L20.7473 39.6373C20.8198 39.2453 20.5497 38.8747 19.9402 38.4777C16.3908 36.1488 18.8005 33.1792 18.8005 33.1792C18.8005 33.1792 19.8085 35.5526 22.0831 35.5526L22.2478 35.5509C22.5047 35.5377 22.7567 35.5262 23.0054 35.4735L23.4238 35.3928C23.4238 35.3928 22.7748 33.6305 24.3395 32.013C25.5155 30.7909 26.9435 30.5834 27.7687 30.5834C28.1887 30.5834 28.4473 30.6377 28.4473 30.6377C27.6666 31.6639 27.1 33.3686 28.0026 34.4194C28.7866 35.3236 30.6955 35.3665 30.6955 36.7121C30.6955 37.2836 30.1635 37.949 29.2099 38.5469C26.3358 40.3587 23.4847 42.7634 22.2988 45.9867C20.8198 50.0055 22.4899 52.6737 24.8732 54.2055C24.8732 54.2055 24.1238 54.894 23.04 54.9813C22.8276 55.0018 22.6143 55.0122 22.401 55.0126C20.1148 55.0126 18.9322 53.9387 18.9322 53.9387C18.9322 53.9387 19.1299 55.4227 20.3125 56.8029C21.416 58.0745 22.8572 58.8239 25.056 58.8552C25.056 58.8552 25.1268 59.8763 24.1534 60.7625C23.5292 61.3225 22.0913 61.5036 22.0913 61.5036C22.0913 61.5036 24.7875 62.0505 25.084 66.0363C25.2454 68.1973 25.7922 68.9467 25.7922 68.9467H25.7478ZM26.4115 68.5185C26.4099 68.5102 25.9734 67.8267 25.8334 65.982C25.6687 63.7716 24.8353 62.4803 24.0101 61.7392C24.249 61.6272 24.4713 61.4872 24.6558 61.3192C25.8664 60.2288 25.8153 58.9474 25.8071 58.8058L25.761 58.114L25.0675 58.1041C23.2195 58.0745 21.9299 57.521 20.884 56.3055C20.6586 56.0424 20.4579 55.759 20.2845 55.4589C20.861 55.6352 21.5659 55.7653 22.401 55.7653C22.6233 55.7653 22.8572 55.7521 23.1026 55.7356C23.9432 55.6517 24.7381 55.3126 25.3805 54.7639L26.1002 54.1001L25.28 53.573C23.4419 52.3954 21.5626 50.1636 23.0071 46.2486C23.941 43.7039 26.1002 41.3996 29.6118 39.1893C30.7977 38.4399 31.4466 37.5554 31.4466 36.7121C31.4466 35.4093 30.3595 34.8954 29.5624 34.5281C29.1737 34.342 28.7685 34.1575 28.5725 33.9286C27.9548 33.2121 28.4737 31.8401 29.0485 31.0956L29.7831 30.1321L28.5922 29.8966C28.5593 29.8916 28.2464 29.834 27.7687 29.834C26.881 29.834 25.1828 30.0497 23.7993 31.4876C22.6447 32.6834 22.4932 33.9566 22.5525 34.7785C22.4405 34.7883 22.3285 34.7933 22.2099 34.7982H22.0831C20.3438 34.7982 19.5235 32.9535 19.4922 32.8827L19.0031 31.7297L18.2125 32.7015C18.168 32.7608 17.0101 34.2036 17.2934 36.0138C17.4795 37.2161 18.2339 38.2537 19.5285 39.1069C19.6701 39.1975 19.7673 39.2749 19.8381 39.3392C17.3939 40.1347 16.0318 41.8789 14.5922 43.7121L14.3847 43.9723C12.1842 46.7773 9.06966 46.8613 8.69742 46.8613L7.63672 46.8283L7.95954 47.8396C7.99742 47.9615 8.93625 50.8323 11.7544 50.8323L11.8894 50.8274C12.1875 50.8192 12.456 50.778 12.6932 50.7319C12.5779 52.2966 12.0014 55.1905 9.41225 56.266L8.62166 56.5954L9.0499 57.3415C9.08942 57.409 10.0513 59.0347 12.2287 59.0347C13.008 59.0425 13.7777 58.8616 14.472 58.5076C14.556 59.2159 14.7306 60.1234 15.0699 61.1396C15.8572 63.4883 15.1242 65.137 15.0962 65.2029L14.7075 66.0232L15.5854 66.2554C15.6447 66.2719 16.185 66.4069 16.824 66.4069C17.7033 66.4092 18.5542 66.0959 19.2221 65.5241C19.461 66.2603 19.8711 67.0921 20.581 67.8283C21.7899 69.0719 23.5275 69.6994 25.7972 69.6994L27.1725 69.6813L26.4115 68.5185Z" fill="#1A1919"/>
<path fill-rule="evenodd" clip-rule="evenodd" d="M13.2035 39.331C13.7833 38.7331 14.3943 38.5519 14.9214 38.5519C15.7317 38.5519 16.3461 38.9851 16.3461 38.9851C14.1555 40.1545 13.7042 42.0289 12.4524 42.4521C12.2486 42.5228 12.0341 42.5579 11.8183 42.5559C10.8976 42.5559 10.0065 41.9597 9.70349 41.2794C9.70349 41.2794 11.3901 41.1757 13.2035 39.331ZM11.8183 43.307C12.1197 43.307 12.4145 43.2609 12.6945 43.1653C13.4785 42.9051 13.9793 42.2808 14.5063 41.6286C15.0449 40.9649 15.651 40.2121 16.7018 39.6521L17.7823 39.0707L16.7776 38.3625C16.6953 38.3114 15.9425 37.8025 14.9214 37.8025C14.0847 37.8025 13.3073 38.1434 12.6665 38.799C11.1068 40.395 9.70843 40.5234 9.65737 40.5251L8.57031 40.5893L9.01502 41.5891C9.46631 42.5856 10.6456 43.307 11.8183 43.307ZM16.7315 52.043C16.6162 49.2084 17.3409 46.9107 18.4774 45.0166C17.8449 46.9898 17.9305 49.4044 20.0915 51.6608C20.0915 51.6608 15.796 46.5056 21.7995 41.2251C24.2009 39.214 26.828 37.9721 28.1785 37.0926C23.2934 38.6903 20.9068 36.9312 20.9068 36.9312C22.4665 38.2867 24.4875 38.2653 25.7409 38.0677C25.4016 38.234 25.0458 38.407 24.667 38.6129C20.5444 40.8545 16.8435 44.5456 16.2077 49.6547V49.6168C15.2508 54.6338 13.1195 55.9218 13.1195 55.9218C14.816 55.0818 15.8833 52.8583 16.1435 52.0578C16.4268 56.4686 18.5745 59.5288 21.0847 62.4754C22.3891 64.0023 22.847 65.4863 22.847 65.4863C22.847 65.4863 22.5934 63.8046 21.4618 62.4359C19.123 59.6145 16.8962 56.103 16.7315 52.043ZM35.8884 41.7044V42.719C36.2376 42.2924 36.9096 42.3797 36.9096 42.3797V43.8406C36.9096 43.8406 36.8882 44.5587 36.6329 44.87H38.0922C37.8385 44.5587 37.8138 43.8406 37.8138 43.8406V42.3797C37.8138 42.3797 38.4891 42.2924 38.835 42.719V41.7044H35.8868H35.8884ZM35.2625 35.6959C35.7287 36.0665 35.9988 36.1291 36.007 36.134L36.1882 36.218V35.2644L34.4753 34.543C34.4753 34.543 34.4901 35.0964 35.2625 35.6959ZM39.3374 35.6959C40.1115 35.0964 40.128 34.543 40.128 34.543L38.4134 35.2644V36.2197L38.5945 36.134C38.6028 36.1291 38.8713 36.0665 39.3374 35.6959Z" fill="#1A1919"/>
<path fill-rule="evenodd" clip-rule="evenodd" d="M37.3011 33.1532L33.1719 31.5193C33.5227 30.6859 35.1418 29.9777 37.3011 29.976C39.462 29.9777 41.0811 30.6859 41.4319 31.5193L37.3011 33.1532ZM40.3794 38.2739L37.6041 39.7398V33.8038L41.3709 32.5224L40.3794 38.2706V38.2739ZM42.0989 39.8485L43.3672 40.5864H43.3853L43.7048 40.7725C42.9883 40.9701 42.4399 41.3308 41.9803 41.8019L41.9309 41.8513C41.8226 41.9669 41.7187 42.0867 41.6196 42.2104L41.562 42.2861C41.4632 42.4129 41.3693 42.5431 41.282 42.6781L41.2342 42.7457C41.1274 42.9087 41.0258 43.0752 40.9295 43.2447C40.0236 44.8045 38.5825 45.7367 37.3011 45.74C36.0196 45.7367 34.5768 44.8045 33.6742 43.2447C33.5783 43.0784 33.4778 42.9147 33.3728 42.7539L33.3135 42.6666C33.2275 42.5394 33.1385 42.4142 33.0467 42.2911C33.0236 42.2581 33.0022 42.2334 32.9792 42.2054C32.8825 42.0853 32.7819 41.9683 32.6778 41.8546C32.6563 41.8381 32.6415 41.8167 32.6218 41.7986C32.1512 41.3058 31.5549 40.951 30.8973 40.7725L31.2201 40.5864H31.2333L32.5065 39.8485L33.8093 39.0991L37.2945 40.9998L37.3011 40.9932L37.3109 40.9998L40.7945 39.0991L42.0989 39.8485ZM47.106 45.1257C46.8211 45.8767 46.5855 46.6904 46.5855 47.4991L46.5888 52.7202C45.5001 52.5391 45.37 51.3631 45.3667 51.312L45.3469 51.0732L45.1114 51.0518C44.712 51.0166 44.3388 50.8382 44.0606 50.5494C43.5253 50.0141 43.5253 49.1478 43.5253 49.1395C43.5187 49.184 42.9389 49.996 43.6109 50.8854C43.8942 51.261 44.306 51.4932 44.8363 51.5838C44.9615 52.2344 45.4458 53.1551 46.5888 53.2967V55.8497H43.3754C41.8931 55.0245 42.5206 53.5718 42.5502 53.5092L42.6754 53.2325L42.3921 53.1254C40.7862 52.5292 41.2293 50.9249 41.2507 50.8558L41.3166 50.6219L41.0959 50.5198C39.7716 49.9038 39.9512 48.2468 39.9693 48.1777C39.5608 48.5087 39.4142 49.1824 39.6942 49.8461C39.5427 50.0207 39.3385 50.2299 39.1161 50.4605C38.7292 50.376 38.3809 50.1665 38.1249 49.8644C37.8689 49.5622 37.7195 49.1842 37.6996 48.7887L37.698 48.5944L37.5168 48.5252C36.9815 48.3275 36.6142 48.0278 36.4314 47.6275C36.2288 47.1845 36.2996 46.7217 36.3556 46.496C36.6634 46.5598 36.9768 46.5929 37.2912 46.5948H37.3126C37.4723 46.5948 37.6288 46.5849 37.7836 46.5701C38.6401 46.4845 39.5954 46.1172 40.5935 45.1257H47.106ZM43.0905 67.8798L43.4495 66.0071L43.5072 65.6612C43.7288 65.748 43.9642 65.7943 44.2022 65.7979C44.7491 65.7979 45.0686 65.508 45.2811 65.2626L45.5545 64.9414L45.3305 64.589C45.3107 64.5544 44.8116 63.7654 44.4295 63.2252C44.3536 63.1185 44.2806 63.0097 44.2105 62.8991C43.774 62.2468 43.2288 61.4282 42.1352 61.4282L42.038 61.4315C41.8805 61.44 41.7251 61.4716 41.5768 61.5254C41.244 61.3663 40.88 61.283 40.5112 61.2817C40.1401 61.2906 39.7732 61.3619 39.4258 61.4925C39.3533 61.5139 39.2874 61.5369 39.2364 61.5468L37.194 61.3459C37.1676 61.3393 37.0853 61.2899 36.9832 61.1713V61.1598L37.4246 60.9835C37.3011 59.5078 35.8862 58.6002 35.0989 58.2922C35.064 58.1344 34.9839 57.9902 34.8683 57.8772L34.4302 57.4605L34.0448 57.9233L33.8554 58.1605L30.9928 56.9828L32.854 59.3233L32.1211 60.4384C31.8509 60.7233 32.1491 61.0115 32.1491 61.0115L32.9067 61.5353L33.694 61.2405C33.7203 61.2405 33.7434 61.2471 33.7714 61.2504C33.7335 61.3706 33.6841 61.84 33.6512 61.9701L32.2858 61.7017L30.8528 62.5137C30.1133 63.0572 30.0128 63.9532 30.2879 64.5675L30.446 64.9167L30.6716 65.4092L31.174 65.2017C31.1822 65.1984 31.1888 65.1967 31.1938 65.1918C31.0126 65.7699 31.0867 66.3184 31.4079 66.6791L31.7126 67.0628L32.1178 67.5767L32.5625 67.0974C32.6942 66.9657 33.1192 66.4897 33.2493 66.0812L33.3448 65.7699L33.1291 65.5311L33.0928 65.4866L33.3366 65.0831L35.1187 65.5047L35.5206 65.597L35.7347 65.2428L35.85 65.0518C35.8714 65.0106 35.8763 65.004 35.9587 65.004C36.0229 65.004 36.0855 65.0106 36.1531 65.0271C36.7608 65.147 37.3783 65.2104 37.9978 65.2165C38.5298 65.2165 38.8509 65.1967 39.2298 65.0699C39.2298 65.0699 40.1867 66.157 40.2196 66.1998L39.6333 68.0115L39.6069 68.1202C38.4985 68.2108 37.9582 68.4546 37.3043 69.1085C36.3556 68.1664 35.6853 68.0659 33.1373 68.0659C30.0853 68.0659 28.0166 66.2755 28.0166 63.4113V56.4146H46.5888L46.5921 63.4113C46.5921 65.732 45.2316 67.3511 43.0905 67.8798ZM31.6516 63.9235L31.7488 64.1657C31.6829 64.3765 30.9582 64.6762 30.9582 64.6762L30.8034 64.332C30.7045 64.0961 30.6876 63.8339 30.7554 63.5872C30.8232 63.3406 30.9717 63.1238 31.1773 62.9715L32.3516 62.2551L33.5985 62.5186C33.5738 62.9155 33.8109 63.212 33.8109 63.212L32.5065 62.9617L31.7241 63.5019C31.5923 63.5941 31.5825 63.7654 31.6516 63.9235ZM42.8928 65.9L42.4926 67.9934C42.2356 68.0297 41.9655 68.0494 41.6888 68.0593L42.1105 66.0499C42.2356 65.4504 40.6347 65.2642 39.8425 64.0899C39.4554 64.5247 38.7291 64.6548 37.9978 64.6548C37.3291 64.6548 36.6636 64.5478 36.2568 64.4671C36.1589 64.45 36.0598 64.4407 35.9603 64.4391C35.7248 64.4391 35.5123 64.5115 35.3641 64.7602L35.2488 64.9579L33.0648 64.4424L32.5213 65.3433C32.4455 65.4899 32.4389 65.6118 32.5625 65.7485L32.7107 65.9099C32.6086 66.2278 32.154 66.7104 32.154 66.7104L31.8295 66.3035C31.5726 66.017 31.6154 65.4899 31.8822 65.0024L32.7486 63.5365L34.5982 63.805L34.3116 63.1478C33.9246 62.2798 34.5142 61.1762 34.5768 60.5405C34.5554 60.7332 34.3792 60.776 34.1749 60.776C33.9872 60.776 33.7796 60.7414 33.6413 60.7414C33.5869 60.7414 33.5392 60.7464 33.5145 60.7645L33.0138 61.0692L32.6185 60.72C32.5707 60.6541 32.5559 60.4944 32.6712 60.3758L33.5869 59.348L32.5065 58.0831L34.0185 58.8457L34.4813 58.284C34.6081 58.4092 34.5521 58.7337 34.5521 58.7337C35.0248 58.7468 36.3507 59.4798 36.4199 61.1927C36.4248 61.2454 36.4248 61.3031 36.4248 61.3607L36.4594 61.4167C36.5533 61.5468 36.8119 61.8779 37.1396 61.9075L39.2314 62.1151H39.2396C39.4702 62.1151 39.9265 61.8449 40.5112 61.8449C40.8323 61.8449 41.1865 61.9273 41.5653 62.1661C41.5653 62.1661 41.7563 62.0146 42.0643 61.9981C42.0874 61.9948 42.1138 61.9948 42.1352 61.9948C43.074 61.9948 43.4643 62.8447 43.9683 63.5513C44.3472 64.0882 44.8528 64.8854 44.8528 64.8854C44.6667 65.1078 44.4921 65.2313 44.2006 65.2313C44.1099 65.2316 44.0194 65.2228 43.9305 65.205C42.9258 65.0188 42.7792 62.9485 42.206 62.7838C42.1759 62.7758 42.1449 62.772 42.1138 62.7722C41.9293 62.7722 41.8486 62.937 41.8486 62.937C42.1121 63.6435 41.9573 63.9285 42.2406 64.4737C42.4514 64.8772 42.8253 65.2082 42.9801 65.3664C42.9801 65.3664 42.9389 65.6727 42.8928 65.9017V65.9ZM40.9674 68.0741C40.6874 68.0741 40.4272 68.0774 40.1933 68.0873L40.806 66.1751C40.9015 65.9099 40.4173 65.569 40.218 65.2692C40.5194 65.4602 41.3018 65.8786 41.6789 66.0433C41.4345 66.7177 41.1973 67.3947 40.9674 68.0741ZM31.8559 50.8426L31.9432 47.5188L32.6876 46.7299L33.1554 47.7115L32.2331 50.9019L31.8542 50.8442L31.8559 50.8426ZM32.3912 51.8737C32.5042 52.0902 32.6753 52.271 32.8853 52.3958C32.8795 52.7117 32.8492 53.0267 32.7947 53.3379C32.7782 53.4104 32.7618 53.4779 32.7403 53.5454C32.7305 53.5882 32.7173 53.6228 32.7091 53.6508C32.4801 53.6508 32.0338 53.6228 31.6698 53.4894C31.2646 53.3412 30.6601 52.5967 30.8001 51.7765C30.9747 51.6694 31.3799 51.4405 31.7603 51.4405C32.0519 51.4405 32.2512 51.5788 32.3912 51.8737ZM41.0152 52.7664C40.4436 53.1897 38.9679 54.2685 38.4326 54.644L33.2806 53.7151L33.3168 53.5784C33.3827 53.3099 33.4535 52.9442 33.4568 52.5144L37.7869 52.5835L37.8693 52.5012C37.9352 52.4353 39.3072 51.1061 40.0055 50.3435C40.1719 50.5527 40.3794 50.7504 40.6528 50.9249C40.5606 51.4355 40.5985 52.1569 41.0152 52.7664ZM34.0102 45.1257C34.6312 45.7417 35.2356 46.1254 35.8121 46.3362C35.738 46.6327 35.6392 47.2487 35.9159 47.8598C36.1432 48.3539 36.5549 48.7327 37.1495 48.9864C37.2154 49.5958 37.5992 50.5132 38.6648 50.9184C38.1971 51.3894 37.7425 51.8341 37.5613 52.012L33.2394 51.9445C33.0966 51.8762 32.9782 51.7659 32.9001 51.6282C32.8919 51.6068 32.8771 51.5953 32.8672 51.5722L33.5738 51.6875L33.6182 51.6892C33.6847 51.6896 33.7491 51.6663 33.7998 51.6234C33.8506 51.5805 33.8843 51.5209 33.8949 51.4553C33.9069 51.3815 33.8891 51.306 33.8456 51.2452C33.8021 51.1845 33.7364 51.1433 33.6627 51.1308L32.7947 50.9925L33.7566 47.6638L32.8458 45.7417L31.3848 47.2899L31.2959 50.7504L30.3142 50.5939C30.1627 50.5642 30.0178 50.6762 29.9898 50.8294C29.9788 50.9036 29.9973 50.979 30.0413 51.0397C30.0854 51.1004 30.1514 51.1413 30.2253 51.1539L30.6371 51.2165C30.4888 51.3005 30.3916 51.368 30.3801 51.3762L30.2978 51.4355L30.2747 51.5377C30.0359 52.5094 30.5761 53.4318 31.1592 53.8435L31.1378 53.9671C31.1147 54.1153 31.1476 54.2635 31.2366 54.3838C31.2872 54.4568 31.355 54.5163 31.4339 54.5571C31.5129 54.5979 31.6007 54.6187 31.6895 54.6177C31.8143 54.6166 31.9351 54.5734 32.0323 54.4951C32.1295 54.4168 32.1973 54.3079 32.2248 54.1861C32.4422 54.2108 32.6415 54.2174 32.7766 54.2174H32.8935L38.5611 55.2435L38.6582 55.1793C39.1095 54.8631 40.8323 53.6064 41.3956 53.1897C41.5521 53.3231 41.7251 53.445 41.9342 53.5454C41.7514 54.1598 41.7399 55.1035 42.4613 55.8513H28.0166V47.5007C28.0166 46.6904 27.7811 45.8767 27.5011 45.1257H34.0102ZM33.2295 32.5257L36.9996 33.8054V39.7381L34.2243 38.2722L33.2295 32.524V32.5257ZM42.4267 31.8092C42.4267 30.3614 39.994 29.0586 37.3093 29.0586H37.2928C34.6081 29.0586 32.1771 30.3614 32.1771 31.8092L32.2298 32.1649L33.302 38.3299L32.2248 38.9558L29.4396 40.5864H29.4495C29.4495 40.5864 28.8236 40.9092 28.5321 41.1068C27.4714 41.8447 27.2458 42.9219 27.8618 43.3666C28.0133 42.4887 28.7067 41.5713 30.0029 41.5713C30.9385 41.5713 31.65 42.0555 32.2265 42.7786C32.3747 42.9614 32.5147 43.1574 32.6448 43.3666C32.8062 43.6318 32.9693 43.8657 33.1291 44.0897H25.9512C26.4782 45.152 26.9806 46.277 26.9806 47.4991V63.4129C26.9806 67.2638 29.9371 69.1019 33.1356 69.1019C35.6079 69.1019 35.9406 68.9899 37.3043 70.3504C38.6615 68.9899 38.9959 69.1019 41.4698 69.1019C44.67 69.1019 47.6215 67.2638 47.6215 63.4129V47.4991C47.6215 46.277 48.1239 45.152 48.6542 44.0897H41.4731C41.6345 43.8657 41.7959 43.6318 41.9573 43.3666C42.0891 43.1574 42.2291 42.9614 42.374 42.7786C42.9538 42.0522 43.6653 41.5713 44.6008 41.5713C45.8971 41.5713 46.5888 42.4887 46.742 43.3666C47.358 42.9219 47.1356 41.8447 46.0667 41.1068C45.7834 40.9092 45.1542 40.5864 45.1542 40.5864H45.1658L42.374 38.9558L41.3034 38.3299L42.374 32.1649L42.4267 31.8092Z" fill="#1A1919"/>
<path d="M88.5515 58.3343H93.4927V46.8378H100.279V42.6543H81.7656V46.8378H88.5515V58.3343ZM115.267 42.6543L107.032 51.779V42.6543H102.255V58.3343H106.472L114.707 49.2096V58.3343H119.483V42.6543H115.267ZM127.878 52.5037H135.554V58.3343H140.33V42.6543H135.554V48.3861H127.878V42.6543H123.102V58.3343H127.878V52.5037ZM153.632 58.3343C154.719 58.3343 155.707 58.2355 156.629 57.9719C159.1 57.2802 160.714 55.2708 160.714 52.5367C160.714 49.9343 159.331 48.1225 157.123 47.299C156.069 46.9037 154.818 46.8708 153.632 46.8708H148.724V42.6543H143.947V58.3343H153.632ZM148.724 50.5602H152.808C153.467 50.5602 154.093 50.5602 154.653 50.7578C155.443 51.0214 155.905 51.6802 155.905 52.4708C155.905 53.2943 155.444 53.9861 154.686 54.3155C154.159 54.5461 153.632 54.5461 152.808 54.5461H148.724V50.5602ZM167.961 52.4049H169.279L174.978 58.3343H181.335L173.396 50.1649L181.039 42.6543H175.044L169.279 48.5508H167.961V42.6543H163.185V58.3343H167.961V52.4049Z" fill="white"/>
<path d="M191.162 42.2268C184.739 42.2268 180.885 45.8503 180.885 50.528C180.885 55.2056 184.739 58.8291 191.162 58.8291C197.553 58.8291 201.407 55.2056 201.407 50.528C201.407 45.8503 197.553 42.2268 191.162 42.2268ZM191.162 55.008C187.967 55.008 185.925 53.0974 185.925 50.528C185.925 47.9586 187.967 46.0809 191.162 46.0809C194.325 46.0809 196.4 47.9586 196.4 50.528C196.4 53.0974 194.325 55.008 191.162 55.008ZM217.314 43.3468V41.7656H212.538V43.3468C206.543 43.4786 202.952 46.015 202.952 50.495C202.952 54.975 206.543 57.3139 212.538 57.4456V59.0268H217.314V57.4456C223.343 57.3139 226.933 54.975 226.933 50.495C226.933 46.015 223.343 43.4786 217.314 43.3468ZM212.538 54.0856C209.244 53.9539 207.794 52.6033 207.794 50.495C207.794 48.3868 209.244 46.8715 212.538 46.7397V54.0856ZM217.314 54.0856V46.7397C220.641 46.8715 222.058 48.3868 222.058 50.495C222.058 52.6033 220.641 53.9539 217.314 54.0856ZM242.824 43.3468V41.7656H238.048V43.3468C232.052 43.4786 228.462 46.015 228.462 50.495C228.462 54.975 232.052 57.3139 238.048 57.4456V59.0268H242.824V57.4456C248.852 57.3139 252.443 54.975 252.443 50.495C252.443 46.015 248.852 43.4786 242.824 43.3468ZM238.048 54.0856C234.753 53.9539 233.304 52.6033 233.304 50.495C233.304 48.3868 234.753 46.8715 238.048 46.7397V54.0856ZM242.824 54.0856V46.7397C246.151 46.8715 247.568 48.3868 247.568 50.495C247.568 52.6033 246.151 53.9539 242.824 54.0856Z" fill="white"/>
</svg>
