<svg width="260" height="100" viewBox="0 0 260 100" fill="none" xmlns="http://www.w3.org/2000/svg">
<mask id="mask0" mask-type="alpha" maskUnits="userSpaceOnUse" x="30" y="28" width="44" height="44">
<path d="M59.3141 28.0004V71.8284H44.6574V28.0004H59.3141ZM43.1283 28.0005L30 41.0915V28.0005H43.1283ZM73.9716 28V41.072L60.8624 28H73.9716Z" fill="white"/>
</mask>
<g mask="url(#mask0)">
<path d="M59.3141 28.0004V71.8284H44.6574V28.0004H59.3141ZM43.1283 28.0005L30 41.0915V28.0005H43.1283ZM73.9716 28V41.072L60.8624 28H73.9716Z" fill="white"/>
<path d="M75.584 27H30V72.4545H75.584V27Z" fill="white"/>
</g>
<path d="M86.25 31.5H97.8496V34.4295H93.4232V46.5151H90.6764V34.4295H86.25V31.5Z" fill="white"/>
<path d="M104.41 46.8085C102.815 46.8085 101.599 46.2006 101.243 45.3855V50.9707H98.5801V35.7451H101.159V36.8742C101.515 36.0792 102.774 35.4512 104.366 35.4512C107.261 35.4512 109.863 37.7527 109.863 41.1299C109.863 44.507 107.285 46.8085 104.41 46.8085ZM104.043 38.2772C102.72 38.2772 101.569 38.9051 101.233 39.7002V42.5629C101.569 43.3779 102.72 43.9859 104.043 43.9859C105.888 43.9859 107.17 42.8134 107.17 41.1198C107.17 39.4263 105.901 38.2772 104.043 38.2772Z" fill="white"/>
<path d="M120.35 42.7939L121.168 44.8449C120.494 45.954 118.943 46.8124 116.95 46.8124C113.658 46.8124 111.16 44.6378 111.16 41.1338C111.16 38.0806 113.301 35.4551 116.697 35.4551C119.885 35.4551 121.962 38.1274 121.962 41.1338C121.964 41.4489 121.943 41.7637 121.898 42.0758H113.887C114.139 43.4754 115.398 44.1268 117.034 44.1268C118.377 44.1334 119.74 43.609 120.35 42.7939ZM119.239 39.9078C119.071 38.7788 118 38.1508 116.701 38.1508C115.401 38.1508 114.227 38.7587 114.008 39.9078H119.239Z" fill="white"/>
<path d="M132.242 38.5687H128.906V46.5156H126.244V38.5687H122.895V35.7461H132.229L132.242 38.5687Z" fill="white"/>
<path d="M136.402 35.7461V38.7157H138.018C140.408 38.7157 142.152 40.2022 142.152 42.6273C142.152 45.0525 140.347 46.5189 137.998 46.5189H133.736V35.7461H136.402ZM138.163 43.8399C138.337 43.8548 138.513 43.8333 138.679 43.7768C138.844 43.7203 138.996 43.6299 139.125 43.5116C139.253 43.3933 139.355 43.2497 139.424 43.0899C139.493 42.9301 139.528 42.7578 139.526 42.5839C139.526 41.8323 138.937 41.3914 138.163 41.3914H136.402V43.8399H138.163Z" fill="white"/>
<path d="M151.627 35.7461V46.5155H148.965V43.3321H148.083L145.902 46.5323H142.818L145.272 42.9346C144.65 42.6289 144.131 42.1505 143.777 41.5576C143.423 40.9647 143.25 40.2827 143.28 39.5942C143.28 37.2092 145.064 35.7661 147.369 35.7661L151.627 35.7461ZM147.161 38.4184C146.999 38.4064 146.836 38.4278 146.683 38.4815C146.53 38.5351 146.39 38.6197 146.271 38.73C146.153 38.8402 146.059 38.9737 145.995 39.1219C145.932 39.2701 145.9 39.4298 145.902 39.5909C145.902 40.259 146.447 40.6999 147.161 40.6999H148.965V38.4251L147.161 38.4184Z" fill="white"/>
<path d="M154.275 35.7461H156.938V39.8247L160.93 35.7461H164.35L159.463 40.8903L164.916 46.5156H161.324L156.948 42.0595V46.5156H154.285L154.275 35.7461Z" fill="white"/>
<path d="M170.232 46.8085C169.1 46.8085 167.994 46.4755 167.053 45.8515C166.112 45.2275 165.378 44.3406 164.945 43.303C164.512 42.2654 164.399 41.1236 164.62 40.022C164.841 38.9204 165.386 37.9086 166.186 37.1144C166.986 36.3202 168.006 35.7794 169.116 35.5603C170.226 35.3412 171.376 35.4536 172.422 35.8834C173.468 36.3132 174.361 37.0411 174.99 37.975C175.619 38.9088 175.955 40.0067 175.955 41.1299C175.96 41.8772 175.816 42.6182 175.531 43.3098C175.245 44.0014 174.824 44.6297 174.291 45.1582C173.759 45.6867 173.126 46.1047 172.429 46.3881C171.732 46.6714 170.985 46.8143 170.232 46.8085ZM170.232 43.9859C171.915 43.9859 173.262 42.8368 173.262 41.1432C173.262 39.4496 171.915 38.2772 170.232 38.2772C168.549 38.2772 167.203 39.4496 167.203 41.1432C167.203 42.8368 168.552 43.9993 170.232 43.9993V43.9859Z" fill="white"/>
<path d="M182.056 35.7461C184.237 35.7461 185.957 36.7482 185.957 38.8193C185.977 39.1757 185.916 39.532 185.778 39.8617C185.64 40.1913 185.428 40.4858 185.16 40.7233C185.596 40.9797 185.955 41.3479 186.198 41.7893C186.442 42.2307 186.561 42.729 186.543 43.2319C186.543 45.3431 184.699 46.5156 182.558 46.5156H177.902V35.7461H182.056ZM180.454 38.2147V40.0352H182.342C182.471 40.0471 182.601 40.0321 182.723 39.991C182.845 39.95 182.958 39.8839 183.053 39.7971C183.148 39.7102 183.223 39.6045 183.275 39.4868C183.326 39.3691 183.352 39.242 183.35 39.1138C183.349 38.9856 183.32 38.8591 183.266 38.7425C183.213 38.626 183.135 38.5219 183.038 38.4372C182.941 38.3524 182.827 38.2888 182.704 38.2505C182.58 38.2121 182.45 38.1999 182.322 38.2147H180.454ZM180.454 42.1897V44.0503H182.908C183.038 44.0611 183.169 44.0446 183.292 44.0019C183.416 43.9592 183.529 43.8913 183.624 43.8024C183.719 43.7136 183.795 43.6059 183.845 43.4864C183.896 43.3668 183.92 43.238 183.918 43.1083C183.913 42.9803 183.883 42.8545 183.829 42.7383C183.774 42.6222 183.697 42.5181 183.601 42.4323C183.505 42.3465 183.393 42.2809 183.271 42.2392C183.149 42.1975 183.02 42.1807 182.891 42.1897H180.454Z" fill="white"/>
<path d="M197.585 44.8847C196.955 45.9503 195.404 46.8087 193.475 46.8087C192.725 46.8128 191.982 46.6683 191.289 46.3837C190.596 46.099 189.967 45.68 189.439 45.1511C188.912 44.6222 188.496 43.9941 188.216 43.3036C187.936 42.6132 187.798 41.8742 187.81 41.1301C187.796 40.3853 187.932 39.6453 188.211 38.9538C188.49 38.2623 188.906 37.6333 189.434 37.1039C189.962 36.5746 190.592 36.1556 191.286 35.8718C191.98 35.588 192.724 35.445 193.475 35.4514C195.383 35.4514 196.895 36.3299 197.514 37.3554L196.76 39.5734C196.387 39.1573 195.927 38.826 195.413 38.6023C194.899 38.3786 194.342 38.2678 193.781 38.2774C191.829 38.2774 190.55 39.4265 190.55 41.12C190.55 42.8136 191.829 43.9861 193.781 43.9861C194.353 43.9887 194.918 43.871 195.44 43.6407C195.963 43.4103 196.43 43.0727 196.811 42.6499L197.585 44.8847Z" fill="white"/>
<path d="M199.58 35.7461H202.243V39.8247L206.228 35.7461H209.648L204.761 40.8903L210.214 46.5156H206.625L202.249 42.0595V46.5156H199.587L199.58 35.7461Z" fill="white"/>
<path d="M210.881 37.3552C211.679 36.1426 213.355 35.4512 215.035 35.4512C217.866 35.4512 219.798 37.0212 219.798 39.7603V46.5146H217.216V45.5759C216.691 46.3709 215.412 46.8085 214.258 46.8085C211.992 46.8085 210.312 45.449 210.312 43.2744C210.312 40.9962 212.332 39.7402 214.53 39.7402C215.914 39.7402 216.836 40.1378 217.132 40.4918V40.1979C217.132 38.9653 216.294 38.1268 214.699 38.1268C214.099 38.114 213.505 38.2329 212.957 38.4748C212.409 38.7168 211.922 39.0759 211.531 39.5265L210.881 37.3552ZM217.146 42.6631C216.937 42.2656 216.095 41.9316 215.126 41.9316C213.743 41.9316 213.029 42.4126 213.029 43.1441C213.029 43.8757 213.756 44.3333 215.079 44.3333C216.045 44.3333 216.883 43.9358 217.136 43.4347L217.146 42.6631Z" fill="white"/>
<path d="M230.174 35.7461V46.5155H227.512V43.3321H226.63L224.449 46.5323H221.365L223.819 42.9346C223.197 42.6285 222.678 42.1501 222.324 41.5573C221.971 40.9644 221.798 40.2826 221.826 39.5942C221.826 37.2092 223.61 35.7661 225.916 35.7661L230.174 35.7461ZM225.708 38.4184C225.546 38.4064 225.383 38.4278 225.23 38.4815C225.077 38.5351 224.937 38.6197 224.818 38.73C224.7 38.8402 224.606 38.9737 224.542 39.1219C224.479 39.2701 224.447 39.4298 224.449 39.5909C224.449 40.259 224.994 40.6999 225.708 40.6999H227.512V38.4251L225.708 38.4184Z" fill="white"/>
<path d="M94.5984 56.6562V59.4789H90.2427V67.4257H87.5801V56.6562H94.5984Z" fill="white"/>
<path d="M96.0158 58.2673C96.8136 57.0547 98.4899 56.3633 100.17 56.3633C103 56.3633 104.933 57.9333 104.933 60.6724V67.4267H102.361V66.4847C101.836 67.2797 100.557 67.7173 99.4021 67.7173C97.1367 67.7173 95.457 66.3578 95.457 64.1832C95.457 61.905 97.4767 60.649 99.6748 60.649C101.058 60.649 101.981 61.0465 102.277 61.4006V61.1067C102.277 59.874 101.439 59.0356 99.8431 59.0356C99.2437 59.0226 98.6489 59.1413 98.1013 59.3833C97.5537 59.6252 97.0668 59.9845 96.6756 60.4352L96.0158 58.2673ZM102.267 63.5585C102.058 63.161 101.216 62.827 100.247 62.827C98.8635 62.827 98.1499 63.308 98.1499 64.0395C98.1499 64.7711 98.9039 65.232 100.227 65.232C101.193 65.232 102.031 64.8345 102.284 64.3335L102.267 63.5585Z" fill="white"/>
<path d="M106.266 64.9171C108.05 64.8135 108.888 64.416 109.036 56.6562H117.195V67.4257H114.533V59.4789H111.449C111.281 64.8736 110.042 67.4958 107.652 67.4958C107.338 67.4924 107.026 67.4359 106.73 67.3288L106.266 64.9171Z" fill="white"/>
<path d="M128.373 63.7074L129.191 65.7584C128.518 66.8675 126.966 67.7226 124.973 67.7226C121.681 67.7226 119.184 65.548 119.184 62.0439C119.184 58.9908 121.324 56.3652 124.721 56.3652C127.909 56.3652 129.985 59.0376 129.985 62.0439C129.987 62.359 129.966 62.6739 129.922 62.9859H121.91C122.163 64.3855 123.422 65.0369 125.057 65.0369C126.401 65.0436 127.764 64.5192 128.373 63.7074ZM127.262 60.8213C127.094 59.6923 126.024 59.0643 124.724 59.0643C123.425 59.0643 122.25 59.6722 122.031 60.8213H127.262Z" fill="white"/>
<path d="M137.732 67.7173C136.137 67.7173 134.922 67.1093 134.565 66.2943V71.8794H131.902V56.6572H134.484V57.7863C134.841 56.9913 136.1 56.3633 137.692 56.3633C140.587 56.3633 143.189 58.6648 143.189 62.042C143.189 65.4191 140.607 67.7173 137.732 67.7173ZM137.369 59.1893C136.046 59.1893 134.895 59.8173 134.558 60.6123V63.4783C134.895 64.2934 136.046 64.9013 137.369 64.9013C139.214 64.9013 140.496 63.7289 140.496 62.0353C140.496 60.3417 139.22 59.1893 137.369 59.1893Z" fill="white"/>
<path d="M153.67 63.7074L154.488 65.7584C153.815 66.8675 152.263 67.7226 150.27 67.7226C146.978 67.7226 144.48 65.548 144.48 62.0439C144.48 58.9908 146.621 56.3652 150.018 56.3652C153.205 56.3652 155.282 59.0376 155.282 62.0439C155.284 62.359 155.263 62.6739 155.218 62.9859H147.21C147.463 64.3855 148.722 65.0369 150.358 65.0369C151.697 65.0436 153.061 64.5192 153.67 63.7074ZM152.559 60.8213C152.391 59.6923 151.32 59.0643 150.021 59.0643C148.722 59.0643 147.547 59.6722 147.328 60.8213H152.559Z" fill="white"/>
<path d="M165.018 56.6562V67.4257H162.355V64.2256H161.473L159.292 67.4257H156.219L158.673 63.8281C158.05 63.5223 157.531 63.044 157.177 62.4511C156.824 61.8581 156.651 61.1761 156.68 60.4877C156.68 58.1026 158.464 56.6596 160.77 56.6596L165.018 56.6562ZM160.551 59.3286C160.389 59.3165 160.226 59.338 160.073 59.3916C159.92 59.4453 159.78 59.5299 159.662 59.6401C159.543 59.7504 159.449 59.8838 159.386 60.0321C159.322 60.1803 159.29 60.34 159.292 60.5011C159.292 61.1691 159.837 61.6101 160.551 61.6101H162.355V59.3319L160.551 59.3286Z" fill="white"/>
</svg>
