<svg width="260" height="100" viewBox="0 0 260 100" fill="none" xmlns="http://www.w3.org/2000/svg">
<path d="M186.842 63.3336C189.286 63.3336 191.02 62.8883 192.308 61.9554V57.6446C190.975 58.5775 189.375 59.1558 187.152 59.1558C183.375 59.1558 181.82 56.2221 181.82 51.5999C181.82 46.7551 183.731 44.2667 187.198 44.2667C189.242 44.2667 191.242 44.978 192.308 45.645V41.1558C191.197 40.5331 189.242 40.0889 186.619 40.0889C179.865 40.0889 176.353 44.9337 176.353 51.7329C176.353 59.2001 179.775 63.3336 186.842 63.3336ZM153.776 61.3771V57.0663C152.132 58.1775 149.376 59.1558 146.798 59.1558C142.931 59.1558 141.465 57.3333 141.242 53.5997H153.997V50.8C153.997 43.0226 150.575 40.0889 145.287 40.0889C138.842 40.0889 135.775 45.0223 135.775 51.7772C135.775 59.5557 139.598 63.3326 146.353 63.3326C149.731 63.3326 152.22 62.444 153.776 61.3771ZM105.332 40.5331V49.3775H98.2646V40.5331H92.9766V62.8883H98.2646V53.5564H105.332V62.8894H110.621V40.5353H105.332V40.5331ZM134.487 58.7126H132.131V40.5331H116.71V42.4443C116.71 47.9106 116.355 54.9779 114.489 58.7115H112.843V68.0001H117.733V62.8883H129.599V68.0001H134.488V58.7115L134.487 58.7126ZM170.665 62.8894H176.664L168.175 50.8454L175.642 40.5342H170.309L162.842 50.8454V40.5342H157.554V62.8894H162.842V51.9112L170.665 62.8883V62.8894ZM145.197 44.2678C147.82 44.2678 148.62 46.4459 148.62 49.2456V49.6899H141.242C141.376 46.1335 142.665 44.2678 145.198 44.2678H145.197ZM126.843 58.7126H119.376C120.842 55.3346 121.242 49.2456 121.242 45.379V44.7121H126.842V58.7126H126.843Z" fill="white"/>
<path d="M88.5327 62.8882H83.1549V36.1779H80.7552C76.3558 36.1779 74.0447 38.3992 74.0447 41.6886C74.0447 45.4211 75.6445 47.1549 78.9327 49.3774L81.6438 51.1999L73.822 62.8882H68L75.0219 52.444C70.978 49.5546 68.7113 46.755 68.7113 41.9999C68.7113 36.0438 72.8448 32 80.7109 32H88.5327V62.8882Z" fill="white"/>
</svg>
