<svg width="260" height="100" viewBox="0 0 260 100" fill="none" xmlns="http://www.w3.org/2000/svg">
<g clip-path="url(#clip0_9623_115)">
<path fill-rule="evenodd" clip-rule="evenodd" d="M120.435 54.9343C116.785 54.9343 115.254 52.1198 115.254 49.379C115.254 46.6383 116.834 44.2454 120.477 44.2454C124.121 44.2454 125.425 47.354 125.425 49.5724C125.425 51.7909 124.086 54.9343 120.435 54.9343ZM120.928 39.5445C118.253 39.5445 116.341 40.7963 115.806 41.1794C115.953 40.5308 116.53 35.3965 123.748 35.3965H128.207L129.86 31.0728H123.825C115.868 31.0728 109.822 34.5909 109.822 46.9653C109.822 53.759 112.845 59.1707 120.278 59.1707C127.347 59.1707 130.814 54.2152 130.814 49.3949C130.814 42.4147 125.446 39.5445 120.928 39.5445ZM48.667 44.38H45.9131V35.7046H48.7469C50.7598 35.7046 54.0087 36.888 54.0087 40.0606C54.0087 43.2604 50.7598 44.38 48.667 44.38ZM49.1414 31.0728H40.1672V58.7167H45.9131V48.9702H49.023C54.8858 48.9702 59.7962 45.9682 59.7962 40.0426C59.7962 34.117 54.8858 31.0728 49.1414 31.0728ZM144.294 39.5445L151.623 58.7167H145.671L141.414 46.4893H141.34L137.096 58.7167H131.165L138.494 39.5445H144.294ZM219.14 31.0728L205.08 67.8458H199.351L213.408 31.0728H219.14ZM101.615 39.5445H106.354V58.7167H100.806V47.4846L95.4297 54.2351H93.926L93.8007 54.0836L88.5069 47.5776V58.7167H82.9569V39.5445H87.6992L87.821 39.6869L94.7114 47.6363L101.615 39.5445ZM73.2188 50.7238C73.2188 53.3461 71.695 55.1529 68.743 55.1529C65.8878 55.1529 65.6456 53.5417 65.6456 52.9276C65.6456 51.5095 66.9857 50.5643 70.1761 50.2851C71.0548 50.208 71.9524 50.1707 72.8407 50.1707H73.2188V50.7238ZM78.4134 48.6375C78.4134 48.251 78.4072 47.8804 78.3907 47.5216C78.1196 41.5506 75.4876 39.0906 69.8073 39.0906C65.9612 39.0906 63.4604 40.5967 62.5805 41.2104L64.0786 45.1275C64.0786 45.1275 66.4167 43.2178 69.3714 43.2178C73.5518 43.2178 73.1386 46.5328 73.1386 46.5328C71.709 46.5453 60.3329 45.9778 60.3329 53.0791C60.3329 57.0185 63.7198 59.1707 67.5211 59.1707C70.9027 59.1707 72.7219 57.5389 73.3217 56.9053C73.3248 56.9917 73.4402 58.7164 73.4402 58.7164H78.6087C78.6087 58.7164 78.4134 57.0533 78.4134 54.4484V48.6375ZM186.174 54.9356C182.508 54.9356 180.484 51.946 180.484 49.0921C180.484 46.2384 182.553 43.2482 186.174 43.2482C189.794 43.2482 191.778 45.8482 191.778 49.0921C191.778 52.3359 189.839 54.9356 186.174 54.9356ZM186.868 39.0903C183.327 39.0903 181.193 40.9446 180.564 41.6059V39.5442H175.213V67.8318H180.76V56.8375C181.388 57.4808 183.597 59.1707 186.868 59.1707C191.999 59.1707 196.718 55.4868 196.718 49.0921C196.718 42.4035 191.524 39.0903 186.868 39.0903ZM157.468 46.9871C157.624 45.6989 158.991 43.108 162.361 43.108C166.115 43.108 166.722 45.93 166.812 46.9871H157.468ZM162.361 39.0903C156.158 39.0903 151.944 43.4606 151.944 49.1695C151.944 54.8781 156.209 59.1707 162.557 59.1707C168.905 59.1707 171.612 54.8407 171.612 54.8407L167.569 52.2259C167.569 52.2259 166.188 54.9343 162.596 54.9343C158.896 54.9343 157.407 51.9006 157.407 50.7425H172.067C172.067 50.7425 172.147 49.9048 172.147 49.6607V49.0146C172.147 43.3599 168.565 39.0903 162.361 39.0903Z" fill="white"/>
</g>
<defs>
<clipPath id="clip0_9623_115">
<rect width="179.308" height="37" fill="white" transform="translate(40 31)"/>
</clipPath>
</defs>
</svg>
