<svg width="260" height="100" viewBox="0 0 260 100" fill="none" xmlns="http://www.w3.org/2000/svg">
<g clip-path="url(#clip0_9623_181)">
<path fill-rule="evenodd" clip-rule="evenodd" d="M141.368 14C142.898 14 144.136 15.2493 144.136 16.7963V19.5479C144.152 23.2089 142.73 26.7303 140.173 29.3555C138.386 31.2049 136.103 32.5018 133.597 33.0917L133.344 33.1501V40.2586L133.597 40.3131C136.106 40.9018 138.392 42.2004 140.181 44.0532C142.732 46.6772 144.152 50.1944 144.136 53.851V56.6065C144.139 56.9719 144.069 57.3343 143.931 57.6729C143.794 58.0115 143.59 58.3197 143.333 58.5799C143.076 58.8401 142.771 59.0472 142.433 59.1894C142.096 59.3316 141.734 59.4061 141.368 59.4086C140.628 59.404 139.921 59.1062 139.4 58.5808C138.88 58.0553 138.591 57.3452 138.595 56.6065V53.853C138.605 51.6599 137.754 49.5501 136.225 47.9762C135.493 47.2159 134.616 46.6099 133.646 46.1941C132.676 45.7783 131.632 45.5611 130.576 45.5555C129.52 45.562 128.475 45.7795 127.504 46.1952C126.533 46.611 125.655 47.2165 124.922 47.9762C123.396 49.5522 122.548 51.6611 122.558 53.853V56.6084C122.558 58.1496 121.314 59.4106 119.79 59.4106C119.05 59.4049 118.342 59.107 117.821 58.582C117.3 58.0569 117.009 57.3474 117.011 56.6084V53.853C117.011 50.1615 118.42 46.6744 120.973 44.0551C122.756 42.2025 125.038 40.9037 127.543 40.315L127.805 40.2605V33.1501L127.543 33.0917C125.038 32.5016 122.756 31.2039 120.969 29.3535C118.414 26.7276 116.992 23.2067 117.007 19.5459V16.7963C117.006 16.0574 117.298 15.3482 117.82 14.8241C118.341 14.2999 119.05 14.0036 119.79 14C121.316 14 122.558 15.2493 122.558 16.7963V19.5479C122.548 21.7426 123.396 23.8545 124.922 25.4344C125.655 26.1939 126.534 26.7988 127.506 27.2133C128.478 27.6278 129.523 27.8434 130.58 27.8474C131.635 27.8426 132.678 27.6267 133.647 27.2122C134.617 26.7977 135.493 26.1932 136.225 25.4344C137.754 23.8571 138.605 21.7451 138.595 19.5498V16.7963C138.595 15.2493 139.83 14 141.368 14ZM130.574 48.2486C127.612 48.2486 125.214 50.6733 125.214 53.6603C125.214 56.6532 127.612 59.0739 130.574 59.0739C133.535 59.0739 135.936 56.6532 135.936 53.6603C135.936 50.6733 133.533 48.2486 130.576 48.2486H130.574ZM154.636 82.8281C154.759 83.1332 154.759 83.4742 154.635 83.7791C154.512 84.0841 154.274 84.3292 153.973 84.4627C153.668 84.5859 153.326 84.5846 153.022 84.459C152.718 84.3335 152.475 84.0938 152.346 83.7914L151.371 81.3978H145.902L144.931 83.7914C144.8 84.0902 144.558 84.3269 144.257 84.452C143.955 84.5772 143.616 84.581 143.312 84.4627C143.008 84.3318 142.768 84.0874 142.642 83.7819C142.517 83.4764 142.517 83.134 142.641 82.8281L147.467 71.0571C147.759 70.3585 148.268 70.2009 148.636 70.2009C149.159 70.2009 149.586 70.4986 149.806 71.061L154.638 82.8301L154.636 82.8281ZM150.359 78.909L148.636 74.7135L146.923 78.909H150.359ZM131.214 77.5118C131.214 81.1254 129.253 84.7624 124.871 84.7624H124.844C122.772 84.7624 121.063 84.0268 119.913 82.6316C118.864 81.3511 118.305 79.5764 118.311 77.4612C118.324 72.9232 120.897 69.981 124.869 69.981C128.845 70.0004 131.214 72.8104 131.214 77.5118ZM128.6 77.5118C128.6 74.2698 127.352 72.6275 124.879 72.6158C121.445 72.6158 120.932 75.667 120.913 77.4709C120.909 78.9537 121.256 80.1563 121.912 80.9444C122.567 81.7228 123.556 82.1315 124.85 82.1354H124.871C127.616 82.1354 128.6 79.7477 128.6 77.5118ZM141.795 70.2184H133.414C133.247 70.2194 133.082 70.2533 132.929 70.318C132.775 70.3828 132.636 70.4771 132.519 70.5957C132.402 70.7143 132.31 70.8548 132.247 71.0091C132.185 71.1634 132.153 71.3285 132.155 71.4949C132.155 72.1955 132.716 72.7695 133.414 72.7695H136.322V83.2562C136.322 83.9568 136.889 84.5347 137.597 84.5347C137.942 84.5347 138.258 84.3985 138.489 84.1591C138.611 84.0424 138.708 83.9021 138.773 83.7469C138.838 83.5916 138.871 83.4246 138.87 83.2562L138.864 72.7695H141.795C142.132 72.7675 142.454 72.6324 142.691 72.3939C142.928 72.1554 143.061 71.8329 143.06 71.4969C143.061 71.3298 143.03 71.1642 142.967 71.0094C142.904 70.8546 142.811 70.7137 142.694 70.5948C142.576 70.4759 142.436 70.3812 142.282 70.3163C142.128 70.2514 141.962 70.2175 141.795 70.2164V70.2184ZM116.457 70.3799C116.312 70.297 116.153 70.2434 115.987 70.2223C115.822 70.2012 115.654 70.2129 115.493 70.2569C115.332 70.3008 115.182 70.3761 115.05 70.4784C114.918 70.5806 114.808 70.7079 114.726 70.8528L111.545 76.4065L108.368 70.8528C108.286 70.7072 108.176 70.5793 108.044 70.4765C107.912 70.3738 107.761 70.2982 107.6 70.2542C107.439 70.2102 107.27 70.1987 107.104 70.2202C106.938 70.2418 106.778 70.2961 106.634 70.3799C106.341 70.5524 106.129 70.833 106.042 71.1608C105.956 71.4887 106.002 71.8374 106.172 72.1312L110.276 79.2923V83.2971C110.276 83.9996 110.847 84.5756 111.541 84.5756C112.243 84.5756 112.814 83.9996 112.814 83.2971V79.2943L116.911 72.1293C116.997 71.9847 117.053 71.8247 117.076 71.6585C117.099 71.4923 117.09 71.323 117.047 71.1606C117.005 70.9981 116.931 70.8455 116.83 70.7115C116.729 70.5775 116.602 70.4649 116.457 70.3799Z" fill="white"/>
</g>
<defs>
<clipPath id="clip0_9623_181">
<rect width="48.7273" height="72" fill="white" transform="translate(106 14)"/>
</clipPath>
</defs>
</svg>
