<svg width="260" height="100" viewBox="0 0 260 100" fill="none" xmlns="http://www.w3.org/2000/svg">
<path fill-rule="evenodd" clip-rule="evenodd" d="M85.9979 55.6613H90.4161C92.1399 55.6613 92.7954 56.2558 92.7954 57.712C92.7954 59.1141 92.1396 59.708 90.4161 59.708H85.9979V55.6613ZM79.1534 70.3896H85.9983V64.4005H93.3299C98.1841 64.4005 99.9318 61.5426 99.9318 57.8475C99.9318 53.5582 98.1347 51.1311 93.2805 51.1311H79.1534V70.3896ZM102.189 51.1311H120.611V55.8233H109.034V58.4129H119.787V63.1071H109.034V65.6963H120.611V70.3896H102.189V51.1311ZM130.321 55.6613H134.739C136.463 55.6613 137.118 56.2558 137.118 57.712C137.118 59.1141 136.463 59.708 134.739 59.708H130.321V55.6613ZM123.476 70.3896H130.321V64.4005H137.652C142.507 64.4005 144.255 61.5426 144.255 57.8475C144.255 53.5582 142.458 51.1311 137.603 51.1311H123.476V70.3896ZM150.881 62.2166C147.531 61.6493 146.149 59.4916 146.149 56.795C146.149 51.8041 150.542 50.4567 156.172 50.4567C163.89 50.4567 167.071 52.6946 167.314 56.7681H159.352C159.352 55.9857 158.939 55.4992 158.309 55.2298C157.702 54.9339 156.926 54.8261 156.172 54.8261C154.134 54.8261 153.43 55.3918 153.43 56.2018C153.43 56.7403 153.648 57.0922 154.328 57.1996L162.507 58.5477C165.955 59.1141 168.091 60.8944 168.091 64.1573C168.091 68.8522 164.644 71.0639 156.949 71.0639C151.682 71.0639 145.929 70.255 145.905 64.5904H154.158C154.181 65.237 154.4 65.6685 154.887 65.9654C155.395 66.2355 156.148 66.3707 157.215 66.3707C159.351 66.3707 159.935 65.7228 159.935 64.8055C159.935 64.2392 159.618 63.6731 158.698 63.5121L150.881 62.2166ZM170.323 51.1311H177.168V70.3896H170.323V51.1311ZM202.535 62.891C202.098 65.4265 201.32 67.4766 199.621 68.8787C197.947 70.2815 195.325 71.0639 191.151 71.0639C187 71.0639 179.305 70.7395 179.305 60.7608C179.305 50.7801 187 50.4563 191.151 50.4563C195.276 50.4563 201.636 51.0492 202.535 58.6836H194.816C194.622 57.3067 193.795 55.311 191.151 55.311C188.358 55.311 186.586 56.8483 186.586 60.7605C186.586 64.6716 188.31 66.208 190.81 66.208C192.971 66.208 194.257 65.2101 194.816 62.8907H202.535V62.891ZM211.491 60.7611C211.491 56.8487 213.263 55.3116 216.055 55.3116C218.846 55.3116 220.619 56.849 220.619 60.7611C220.619 64.6723 218.846 66.2086 216.055 66.2086C213.263 66.2083 211.491 64.672 211.491 60.7611ZM204.208 60.7611C204.208 70.7395 211.903 71.0643 216.055 71.0643C220.206 71.0643 227.901 70.7398 227.901 60.7611C227.901 50.7805 220.206 50.4567 216.055 50.4567C211.903 50.4567 204.208 50.7801 204.208 60.7611ZM68.8104 51.322C69.2524 42.0823 61.2802 31.6771 50.4117 30.3909L50.4303 30.2646C61.1449 30.2646 69.3588 40.1787 69.3588 48C69.3486 49.6282 69.2199 50.637 68.9905 51.3693L68.8104 51.322ZM68.1612 52.4964C67.4484 53.367 66.5518 54.2436 65.5014 55.0757C63.569 43.9676 55.4021 34.2543 49.6282 31.4192L49.5045 31.5054C55.3113 36.2686 62.2371 45.5195 64.9304 55.5115C63.5566 56.5201 62.0726 57.3695 60.507 58.0434C55.0275 51.7978 49.919 39.7529 48.2728 32.1095L48.1053 32.1599C48.1425 39.5792 53.4127 52.1743 59.8399 58.3201C58.3658 58.9031 56.8333 59.3263 55.2688 59.5824C49.108 57.1429 44.7227 49.3299 44.7227 41.3264C44.7227 36.1015 46.3165 32.8694 46.6249 32.208L46.4936 32.1559C46.1205 32.72 43.7856 35.9504 43.7856 41.5911C43.7856 50.638 48.2495 57.5529 54.176 59.7305C52.0567 59.9635 49.914 59.863 47.8258 59.4326L47.7817 59.5704C48.4157 59.8037 50.5665 60.7061 53.8477 60.7061C61.2692 60.7061 66.2862 56.0974 68.3058 52.5942L68.1612 52.4964Z" fill="white"/>
<path fill-rule="evenodd" clip-rule="evenodd" d="M53.1057 27C47.4797 27 40.8828 31.0583 40.8828 34.7679C40.8828 36.2029 42.1962 37.4151 44.9143 37.4151C51.2244 37.4151 57.0869 33.0821 57.0869 29.7128C57.0869 27.9398 55.3833 27 53.1057 27ZM55.3518 29.6081C55.3518 32.4482 49.8952 35.9199 45.3338 35.9199C43.3185 35.9199 42.2296 35.1272 42.2296 33.8192C42.2296 30.9383 47.7483 27.5256 52.0268 27.5256C54.8163 27.5256 55.3518 28.9443 55.3518 29.6081Z" fill="white"/>
<path fill-rule="evenodd" clip-rule="evenodd" d="M38.6411 36.4855C38.4829 36.7589 37.8496 37.9983 37.8496 39.2683C37.8496 41.6235 40.2306 43.8101 44.61 43.8101C53.0348 43.8101 62.7683 37.6119 62.7683 31.8586C62.7683 29.276 60.3223 27.8718 58.624 27.5815L58.5922 27.6823C59.1204 27.8493 61.0554 28.7484 61.0554 31.0489C61.0554 35.6332 52.4615 41.8793 43.9011 41.8793C40.6238 41.8793 38.5592 40.2625 38.5592 37.9072C38.5592 37.1622 38.7143 36.6714 38.7555 36.5293L38.6411 36.4855Z" fill="white"/>
<path fill-rule="evenodd" clip-rule="evenodd" d="M66.242 32.2886C66.4731 32.4639 67.8607 33.6198 67.8607 35.8057C67.8607 43.2588 56.1769 50.5877 45.8475 50.5877C39.6877 50.5877 36.8796 47.5478 37.004 44.8485H37.1144C37.3557 46.2503 39.3558 48.7587 44.7471 48.7587C55.0893 48.7587 66.6369 41.1753 66.6369 34.5311C66.6369 33.3915 66.3272 32.6813 66.1521 32.3655L66.242 32.2886Z" fill="white"/>
<path fill-rule="evenodd" clip-rule="evenodd" d="M70.1471 39.2466C70.1955 39.4053 70.4472 40.1188 70.4472 41.2363C70.4472 49.5272 58.6231 56.6251 48.3396 56.6251C43.0467 56.6251 40.2828 54.0554 39.6992 53.0118L39.7934 52.9423C41.2579 54.2224 44.1426 55.1951 47.509 55.1951C56.5913 55.1951 70.1435 48.2888 70.0225 39.2767L70.1471 39.2466Z" fill="white"/>
</svg>
