<svg width="260" height="100" viewBox="0 0 260 100" fill="none" xmlns="http://www.w3.org/2000/svg">
<path fill-rule="evenodd" clip-rule="evenodd" d="M131.868 39.698C131.868 42.119 131.182 44.378 130 46.274C128.821 44.378 128.135 42.119 128.135 39.698V39.149C128.135 36.731 128.821 34.475 130 32.576C131.185 34.475 131.868 36.731 131.868 39.149V39.698ZM131.868 60.425C131.868 62.843 131.182 65.099 130 67.001C128.821 65.099 128.135 62.843 128.135 60.425V59.876C128.135 57.461 128.821 55.199 130 53.297C131.185 55.199 131.868 57.461 131.868 59.876V60.425ZM155.5 26.96V23H139.853C136.123 23.018 132.694 24.395 130 26.666C127.306 24.395 123.871 23.018 120.144 23H104.5V26.96H120.129C122.839 26.96 125.336 27.923 127.33 29.537C125.348 32.258 124.173 35.633 124.173 39.272V40.01C124.173 41.552 124.384 43.055 124.784 44.483C123.295 43.994 121.711 43.73 120.076 43.73H104.5V47.684H120.129C122.564 47.684 124.829 48.461 126.706 49.784C124.829 51.116 122.561 51.89 120.129 51.89H104.5V56.27H120.076C121.711 56.27 123.295 56.009 124.778 55.526C124.384 56.948 124.173 58.454 124.173 59.996V60.731C124.173 64.253 125.271 67.517 127.133 70.19C125.175 71.711 122.752 72.614 120.129 72.614H104.5V77H120.076C123.832 77 127.288 75.626 130 73.34C132.712 75.626 136.171 77 139.927 77H155.5V72.614H139.871C137.251 72.614 134.822 71.711 132.867 70.19C134.73 67.517 135.828 64.253 135.828 60.731V59.996C135.828 58.454 135.616 56.948 135.213 55.526C136.705 56.009 138.289 56.27 139.927 56.27H155.5V51.89H139.871C137.436 51.89 135.177 51.116 133.297 49.784C135.177 48.461 137.436 47.684 139.871 47.684H155.5V43.73H139.927C138.289 43.73 136.705 43.994 135.213 44.483C135.616 43.055 135.828 41.552 135.828 40.01V39.272C135.828 35.633 134.652 32.258 132.674 29.537C134.664 27.923 137.161 26.96 139.871 26.96H155.5Z" fill="white"/>
</svg>
