<svg width="260" height="100" viewBox="0 0 260 100" fill="none" xmlns="http://www.w3.org/2000/svg">
<mask id="mask0_9623_136" style="mask-type:alpha" maskUnits="userSpaceOnUse" x="30" y="28" width="44" height="44">
<path d="M59.3143 28.0004V71.8284H44.6577V28.0004H59.3143ZM43.1285 28.0005L30.0002 41.0915V28.0005H43.1285ZM73.9719 28V41.072L60.8626 28H73.9719Z" fill="white"/>
</mask>
<g mask="url(#mask0_9623_136)">
<path d="M59.3143 28.0004V71.8284H44.6577V28.0004H59.3143ZM43.1285 28.0005L30.0002 41.0915V28.0005H43.1285ZM73.9719 28V41.072L60.8626 28H73.9719Z" fill="white"/>
<path d="M75.584 27H30V72.4545H75.584V27Z" fill="white"/>
</g>
<path d="M86.25 31.5H97.8496V34.4295H93.4232V46.5151H90.6764V34.4295H86.25V31.5Z" fill="white"/>
<path d="M104.41 46.8085C102.815 46.8085 101.599 46.2006 101.243 45.3855V50.9707H98.5801V35.7451H101.159V36.8742C101.515 36.0792 102.774 35.4512 104.366 35.4512C107.261 35.4512 109.863 37.7527 109.863 41.1299C109.863 44.507 107.285 46.8085 104.41 46.8085ZM104.043 38.2772C102.72 38.2772 101.569 38.9051 101.233 39.7002V42.5629C101.569 43.3779 102.72 43.9859 104.043 43.9859C105.888 43.9859 107.17 42.8134 107.17 41.1198C107.17 39.4263 105.901 38.2772 104.043 38.2772Z" fill="white"/>
<path d="M120.349 42.7939L121.167 44.8449C120.493 45.954 118.942 46.8124 116.949 46.8124C113.657 46.8124 111.159 44.6378 111.159 41.1338C111.159 38.0806 113.3 35.4551 116.696 35.4551C119.884 35.4551 121.961 38.1274 121.961 41.1338C121.963 41.4489 121.942 41.7637 121.897 42.0758H113.886C114.138 43.4754 115.397 44.1268 117.033 44.1268C118.376 44.1334 119.739 43.609 120.349 42.7939ZM119.238 39.9078C119.07 38.7788 117.999 38.1508 116.7 38.1508C115.4 38.1508 114.226 38.7587 114.007 39.9078H119.238Z" fill="white"/>
<path d="M132.242 38.5678H128.906V46.5146H126.243V38.5678H122.894V35.7451H132.228L132.242 38.5678Z" fill="white"/>
<path d="M136.402 35.7451V38.7147H138.017C140.407 38.7147 142.151 40.2012 142.151 42.6263C142.151 45.0515 140.347 46.5179 137.997 46.5179H133.736V35.7451H136.402ZM138.162 43.8389C138.337 43.8538 138.512 43.8323 138.678 43.7758C138.844 43.7193 138.996 43.629 139.124 43.5107C139.252 43.3924 139.355 43.2487 139.424 43.0889C139.493 42.9291 139.527 42.7568 139.525 42.5829C139.525 41.8313 138.936 41.3904 138.162 41.3904H136.402V43.8389H138.162Z" fill="white"/>
<path d="M151.627 35.7451V46.5146H148.964V43.3312H148.082L145.901 46.5313H142.817L145.271 42.9337C144.649 42.6279 144.13 42.1495 143.776 41.5566C143.422 40.9637 143.249 40.2817 143.279 39.5933C143.279 37.2082 145.063 35.7652 147.368 35.7652L151.627 35.7451ZM147.16 38.4174C146.998 38.4054 146.835 38.4269 146.682 38.4805C146.529 38.5341 146.389 38.6188 146.27 38.729C146.152 38.8393 146.058 38.9727 145.994 39.1209C145.931 39.2691 145.899 39.4288 145.901 39.5899C145.901 40.258 146.446 40.6989 147.16 40.6989H148.964V38.4241L147.16 38.4174Z" fill="white"/>
<path d="M154.276 35.7451H156.938V39.8237L160.93 35.7451H164.35L159.463 40.8893L164.916 46.5146H161.324L156.948 42.0585V46.5146H154.286L154.276 35.7451Z" fill="white"/>
<path d="M170.231 46.8085C169.099 46.8085 167.993 46.4755 167.052 45.8515C166.111 45.2275 165.377 44.3406 164.944 43.303C164.511 42.2654 164.398 41.1236 164.619 40.022C164.84 38.9204 165.385 37.9086 166.185 37.1144C166.985 36.3202 168.005 35.7794 169.115 35.5603C170.225 35.3412 171.375 35.4536 172.421 35.8834C173.467 36.3132 174.36 37.0411 174.989 37.975C175.618 38.9088 175.954 40.0067 175.954 41.1299C175.959 41.8772 175.815 42.6182 175.53 43.3098C175.244 44.0014 174.823 44.6297 174.291 45.1582C173.758 45.6867 173.125 46.1047 172.428 46.3881C171.731 46.6714 170.984 46.8143 170.231 46.8085ZM170.231 43.9859C171.914 43.9859 173.261 42.8368 173.261 41.1432C173.261 39.4496 171.914 38.2772 170.231 38.2772C168.548 38.2772 167.202 39.4496 167.202 41.1432C167.202 42.8368 168.551 43.9993 170.231 43.9993V43.9859Z" fill="white"/>
<path d="M182.057 35.7451C184.238 35.7451 185.958 36.7472 185.958 38.8183C185.978 39.1748 185.916 39.5311 185.778 39.8607C185.64 40.1903 185.429 40.4849 185.16 40.7223C185.596 40.9787 185.955 41.3469 186.199 41.7884C186.442 42.2298 186.561 42.7281 186.544 43.231C186.544 45.3421 184.699 46.5146 182.558 46.5146H177.903V35.7451H182.057ZM180.454 38.2137V40.0342H182.343C182.471 40.0461 182.601 40.0311 182.724 39.9901C182.846 39.949 182.958 39.883 183.053 39.7961C183.148 39.7092 183.224 39.6035 183.275 39.4858C183.326 39.3681 183.352 39.241 183.351 39.1128C183.349 38.9846 183.321 38.8581 183.267 38.7416C183.213 38.625 183.135 38.521 183.038 38.4362C182.941 38.3514 182.828 38.2878 182.704 38.2495C182.581 38.2111 182.451 38.1989 182.323 38.2137H180.454ZM180.454 42.1888V44.0494H182.908C183.038 44.0602 183.17 44.0437 183.293 44.001C183.416 43.9583 183.529 43.8903 183.625 43.8015C183.72 43.7127 183.795 43.605 183.846 43.4854C183.896 43.3658 183.921 43.237 183.918 43.1074C183.914 42.9794 183.884 42.8535 183.829 42.7373C183.775 42.6212 183.698 42.5171 183.602 42.4313C183.506 42.3456 183.394 42.2799 183.271 42.2382C183.149 42.1965 183.02 42.1797 182.891 42.1888H180.454Z" fill="white"/>
<path d="M197.584 44.8847C196.955 45.9503 195.403 46.8087 193.474 46.8087C192.724 46.8128 191.981 46.6683 191.288 46.3837C190.595 46.099 189.966 45.68 189.439 45.1511C188.911 44.6222 188.495 43.9941 188.215 43.3036C187.936 42.6132 187.797 41.8742 187.809 41.1301C187.795 40.3853 187.932 39.6453 188.211 38.9538C188.49 38.2623 188.906 37.6333 189.434 37.1039C189.962 36.5746 190.591 36.1556 191.285 35.8718C191.979 35.588 192.724 35.445 193.474 35.4514C195.383 35.4514 196.894 36.3299 197.514 37.3554L196.76 39.5734C196.386 39.1573 195.927 38.826 195.413 38.6023C194.899 38.3786 194.342 38.2678 193.781 38.2774C191.828 38.2774 190.549 39.4265 190.549 41.12C190.549 42.8136 191.828 43.9861 193.781 43.9861C194.352 43.9887 194.918 43.871 195.44 43.6407C195.962 43.4103 196.429 43.0727 196.81 42.6499L197.584 44.8847Z" fill="white"/>
<path d="M199.581 35.7451H202.243V39.8237L206.229 35.7451H209.649L204.761 40.8893L210.214 46.5146H206.626L202.25 42.0585V46.5146H199.587L199.581 35.7451Z" fill="white"/>
<path d="M210.881 37.3552C211.679 36.1426 213.355 35.4512 215.035 35.4512C217.866 35.4512 219.798 37.0212 219.798 39.7603V46.5146H217.216V45.5759C216.691 46.3709 215.412 46.8085 214.257 46.8085C211.992 46.8085 210.312 45.449 210.312 43.2744C210.312 40.9962 212.332 39.7402 214.53 39.7402C215.913 39.7402 216.836 40.1378 217.132 40.4918V40.1979C217.132 38.9653 216.294 38.1268 214.698 38.1268C214.099 38.114 213.504 38.2329 212.956 38.4748C212.409 38.7168 211.922 39.0759 211.531 39.5265L210.881 37.3552ZM217.145 42.6631C216.937 42.2656 216.095 41.9316 215.126 41.9316C213.742 41.9316 213.028 42.4126 213.028 43.1441C213.028 43.8757 213.756 44.3333 215.078 44.3333C216.045 44.3333 216.883 43.9358 217.135 43.4347L217.145 42.6631Z" fill="white"/>
<path d="M230.175 35.7451V46.5146H227.513V43.3312H226.631L224.449 46.5313H221.366L223.82 42.9337C223.198 42.6276 222.679 42.1491 222.325 41.5563C221.971 40.9635 221.798 40.2816 221.827 39.5933C221.827 37.2082 223.611 35.7652 225.917 35.7652L230.175 35.7451ZM225.708 38.4174C225.546 38.4054 225.384 38.4269 225.231 38.4805C225.078 38.5341 224.937 38.6188 224.819 38.729C224.701 38.8393 224.607 38.9727 224.543 39.1209C224.479 39.2691 224.447 39.4288 224.449 39.5899C224.449 40.258 224.995 40.6989 225.708 40.6989H227.513V38.4241L225.708 38.4174Z" fill="white"/>
<path d="M94.5977 56.6562V59.4789H90.2419V67.4257H87.5793V56.6562H94.5977Z" fill="white"/>
<path d="M96.0153 58.2663C96.8131 57.0538 98.4894 56.3623 100.169 56.3623C103 56.3623 104.932 57.9323 104.932 60.6714V67.4257H102.36V66.4837C101.835 67.2787 100.556 67.7163 99.4016 67.7163C97.1362 67.7163 95.4565 66.3568 95.4565 64.1822C95.4565 61.904 97.4762 60.648 99.6743 60.648C101.058 60.648 101.98 61.0455 102.276 61.3996V61.1057C102.276 59.8731 101.438 59.0346 99.8426 59.0346C99.2433 59.0216 98.6485 59.1403 98.1008 59.3823C97.5532 59.6243 97.0663 59.9835 96.6751 60.4343L96.0153 58.2663ZM102.266 63.5575C102.057 63.16 101.216 62.826 100.247 62.826C98.863 62.826 98.1494 63.307 98.1494 64.0385C98.1494 64.7701 98.9034 65.2311 100.226 65.2311C101.192 65.2311 102.031 64.8336 102.283 64.3325L102.266 63.5575Z" fill="white"/>
<path d="M106.265 64.9171C108.049 64.8135 108.887 64.416 109.035 56.6562H117.195V67.4257H114.532V59.4789H111.449C111.28 64.8736 110.042 67.4958 107.652 67.4958C107.337 67.4924 107.025 67.4359 106.729 67.3288L106.265 64.9171Z" fill="white"/>
<path d="M128.373 63.7084L129.191 65.7594C128.518 66.8684 126.966 67.7236 124.973 67.7236C121.681 67.7236 119.184 65.549 119.184 62.0449C119.184 58.9918 121.324 56.3662 124.721 56.3662C127.909 56.3662 129.985 59.0385 129.985 62.0449C129.987 62.36 129.966 62.6748 129.922 62.9869H121.91C122.163 64.3865 123.422 65.0379 125.057 65.0379C126.401 65.0446 127.764 64.5201 128.373 63.7084ZM127.262 60.8223C127.094 59.6933 126.024 59.0653 124.724 59.0653C123.425 59.0653 122.25 59.6732 122.031 60.8223H127.262Z" fill="white"/>
<path d="M137.731 67.7163C136.136 67.7163 134.921 67.1084 134.564 66.2933V71.8785H131.901V56.6563H134.483V57.7853C134.84 56.9903 136.099 56.3623 137.691 56.3623C140.586 56.3623 143.188 58.6638 143.188 62.041C143.188 65.4181 140.606 67.7163 137.731 67.7163ZM137.368 59.1883C136.045 59.1883 134.894 59.8163 134.557 60.6113V63.4774C134.894 64.2924 136.045 64.9004 137.368 64.9004C139.213 64.9004 140.495 63.7279 140.495 62.0343C140.495 60.3407 139.219 59.1883 137.368 59.1883Z" fill="white"/>
<path d="M153.67 63.7084L154.488 65.7594C153.815 66.8684 152.263 67.7236 150.271 67.7236C146.979 67.7236 144.481 65.549 144.481 62.0449C144.481 58.9918 146.622 56.3662 150.018 56.3662C153.206 56.3662 155.283 59.0385 155.283 62.0449C155.285 62.36 155.263 62.6748 155.219 62.9869H147.211C147.463 64.3865 148.722 65.0379 150.358 65.0379C151.698 65.0446 153.061 64.5201 153.67 63.7084ZM152.56 60.8223C152.391 59.6933 151.321 59.0653 150.022 59.0653C148.722 59.0653 147.547 59.6732 147.329 60.8223H152.56Z" fill="white"/>
<path d="M165.017 56.6562V67.4257H162.354V64.2256H161.473L159.291 67.4257H156.218L158.672 63.8281C158.05 63.5223 157.53 63.044 157.177 62.4511C156.823 61.8581 156.65 61.1761 156.679 60.4877C156.679 58.1026 158.463 56.6596 160.769 56.6596L165.017 56.6562ZM160.55 59.3286C160.388 59.3165 160.226 59.338 160.073 59.3916C159.92 59.4453 159.779 59.5299 159.661 59.6401C159.543 59.7504 159.449 59.8838 159.385 60.0321C159.321 60.1803 159.289 60.34 159.291 60.5011C159.291 61.1691 159.837 61.6101 160.55 61.6101H162.354V59.3319L160.55 59.3286Z" fill="white"/>
</svg>
