<svg width="260" height="100" viewBox="0 0 260 100" fill="none" xmlns="http://www.w3.org/2000/svg">
<path d="M186.843 63.3336C189.287 63.3336 191.021 62.8883 192.309 61.9554V57.6446C190.976 58.5775 189.376 59.1558 187.153 59.1558C183.376 59.1558 181.821 56.2221 181.821 51.5999C181.821 46.7551 183.732 44.2667 187.199 44.2667C189.243 44.2667 191.243 44.978 192.309 45.645V41.1558C191.198 40.5331 189.243 40.0889 186.62 40.0889C179.865 40.0889 176.353 44.9337 176.353 51.7329C176.353 59.2001 179.776 63.3336 186.843 63.3336ZM153.777 61.3771V57.0663C152.133 58.1775 149.377 59.1558 146.799 59.1558C142.932 59.1558 141.466 57.3333 141.243 53.5997H153.998V50.8C153.998 43.0226 150.576 40.0889 145.288 40.0889C138.843 40.0889 135.776 45.0223 135.776 51.7772C135.776 59.5557 139.599 63.3326 146.354 63.3326C149.732 63.3326 152.221 62.444 153.777 61.3771ZM105.333 40.5331V49.3775H98.2656V40.5331H92.9775V62.8883H98.2656V53.5564H105.333V62.8894H110.622V40.5353H105.333V40.5331ZM134.488 58.7126H132.132V40.5331H116.711V42.4443C116.711 47.9106 116.356 54.9779 114.49 58.7115H112.844V68.0001H117.733V62.8883H129.6V68.0001H134.489V58.7115L134.488 58.7126ZM170.666 62.8894H176.665L168.176 50.8454L175.643 40.5342H170.31L162.843 50.8454V40.5342H157.555V62.8894H162.843V51.9112L170.666 62.8883V62.8894ZM145.198 44.2678C147.821 44.2678 148.621 46.4459 148.621 49.2456V49.6899H141.243C141.377 46.1335 142.666 44.2678 145.199 44.2678H145.198ZM126.844 58.7126H119.377C120.843 55.3346 121.243 49.2456 121.243 45.379V44.7121H126.843V58.7126H126.844Z" fill="white"/>
<path d="M88.5327 62.8882H83.1549V36.1779H80.7552C76.3558 36.1779 74.0447 38.3992 74.0447 41.6886C74.0447 45.4211 75.6445 47.1549 78.9327 49.3774L81.6438 51.1999L73.822 62.8882H68L75.0219 52.444C70.978 49.5546 68.7113 46.755 68.7113 41.9999C68.7113 36.0438 72.8448 32 80.7109 32H88.5327V62.8882Z" fill="white"/>
</svg>
