<svg width="260" height="100" viewBox="0 0 260 100" fill="none" xmlns="http://www.w3.org/2000/svg">
<path d="M170.883 42.3812L176.058 38.5625H158.734V61.4373H176.058V57.6186H163.684V51.7782H174.258V47.9595H163.684V42.3812H170.883Z" fill="white"/>
<path d="M145.646 47.4728H139.646V42.3812H149.246L154.42 38.5625H134.696V61.4373H145.008C150.783 61.4373 154.12 58.8166 154.12 54.2492C154.12 49.8689 151.121 47.4728 145.646 47.4728ZM144.821 57.6186H139.646V51.2915H144.821C147.971 51.2915 149.433 52.3398 149.433 54.4738C149.433 56.6078 147.858 57.6186 144.821 57.6186Z" fill="white"/>
<path d="M190.082 38.5625H180.67V61.4373H185.619V54.9605H190.119C196.119 54.9605 199.869 51.8157 199.869 46.7615C199.869 41.7073 196.119 38.5625 190.082 38.5625ZM189.969 51.1418H185.582V42.3812H189.969C193.157 42.3812 194.882 43.9536 194.882 46.7615C194.882 49.5694 193.157 51.1418 189.969 51.1418Z" fill="white"/>
<path d="M126.222 56.4952C124.91 57.2065 123.448 57.5809 121.948 57.5809C117.485 57.5809 114.261 54.3986 114.261 50.0183C114.261 45.638 117.485 42.4558 121.948 42.4558C123.56 42.4183 125.135 42.9425 126.447 43.8784L130.01 41.2578L129.785 41.0331C127.722 39.1987 124.948 38.2627 121.798 38.2627C118.385 38.2627 115.273 39.4233 113.023 41.5198C110.773 43.6912 109.498 46.7238 109.573 49.8686C109.536 53.0508 110.773 56.1208 113.023 58.3671C115.385 60.5759 118.535 61.8114 121.76 61.7365C125.323 61.7365 128.435 60.501 130.535 58.2548L127.347 55.8961L126.222 56.4952Z" fill="white"/>
<path d="M94.0862 38.4131C94.9862 39.5737 95.7361 40.8466 96.3736 42.1944L79.0493 54.9608L71.7747 50.3933V44.9274L79.0118 49.4574L94.0862 38.4131Z" fill="white"/>
<path d="M64.3873 50.0183C64.3873 49.7562 64.3873 49.5316 64.4248 49.2696L60.0375 49.0449C60.0375 49.3444 60 49.6814 60 49.9809C60 55.2222 62.1374 59.9769 65.5873 63.4212L68.6996 60.3139C66.0372 57.6932 64.3873 54.0617 64.3873 50.0183Z" fill="white"/>
<path d="M79.0121 35.4174C79.2746 35.4174 79.4996 35.4174 79.762 35.4548L79.987 31.0745C79.687 31.0745 79.3496 31.0371 79.0496 31.0371C73.7998 31.0371 69.0375 33.1711 65.5876 36.6154L68.7 39.7228C71.3249 37.0647 74.9997 35.4174 79.0121 35.4174Z" fill="white"/>
<path d="M79.0121 64.6199C78.7496 64.6199 78.5246 64.6199 78.2621 64.5824L78.0371 68.9627C78.3371 68.9627 78.6746 69.0001 78.9746 69.0001C84.2243 69.0001 88.9866 66.8662 92.4365 63.4218L89.3241 60.3145C86.6992 63.01 83.0619 64.6199 79.0121 64.6199Z" fill="white"/>
<path d="M87.2619 37.9635L90.9742 35.2305C87.7118 32.6098 83.5495 31 79.0122 31V35.3803C82.0871 35.4177 84.937 36.3537 87.2619 37.9635Z" fill="white"/>
<path d="M98.0613 50.0182C98.0613 48.8576 97.9488 47.7345 97.7613 46.6113L93.674 49.6438C93.674 49.7561 93.674 49.9059 93.674 50.0182C93.674 54.3236 91.799 58.1798 88.8367 60.8379L91.799 64.095C95.6239 60.6507 98.0613 55.5965 98.0613 50.0182Z" fill="white"/>
<path d="M79.0118 64.6196C74.6994 64.6196 70.8371 62.7477 68.1747 59.79L64.9124 62.7477C68.3997 66.6038 73.4245 68.9999 79.0118 68.9999V64.6196Z" fill="white"/>
<path d="M69.2246 39.1995L66.2622 35.9424C62.3999 39.4241 60 44.4409 60 50.0192H64.3873C64.3873 45.7512 66.2622 41.8576 69.2246 39.1995Z" fill="white"/>
</svg>
