<svg width="260" height="100" viewBox="0 0 260 100" fill="none" xmlns="http://www.w3.org/2000/svg">
<path fill-rule="evenodd" clip-rule="evenodd" d="M144.806 38.0596V38.9959H145.327C145.766 38.9959 146.085 39.2954 146.085 39.6974C146.085 39.8398 146.049 39.9673 146.015 40.0681L138.734 61.9215C138.713 61.9927 138.728 62.0685 138.774 62.1295C138.814 62.1803 138.865 62.2062 138.931 62.2062H144.604C144.771 62.2062 144.958 62.0583 145.023 61.8809L149.862 46.5734C149.903 46.4153 150.054 46.1565 150.363 46.1565C150.671 46.1565 150.818 46.4153 150.859 46.5632L155.743 61.8651C155.819 62.0583 156.005 62.2062 156.172 62.2062H161.846C161.917 62.2062 161.962 62.1859 161.998 62.135C162.048 62.0685 162.058 61.9668 162.043 61.9308L154.155 38.2324C154.115 38.1465 154.039 38.0596 153.72 38.0596H144.806Z" fill="white"/>
<path fill-rule="evenodd" clip-rule="evenodd" d="M128.286 61.9752C128.15 61.9752 128.045 61.868 128.045 61.7312V39.5321C128.045 39.1051 127.708 38.7649 127.292 38.7649H126.719V37.8286H134.026C134.161 37.8286 134.267 37.9405 134.267 38.0782V61.7312C134.267 61.868 134.161 61.9752 134.026 61.9752H128.286Z" fill="white"/>
<path fill-rule="evenodd" clip-rule="evenodd" d="M82.8 49.9972C82.8 36.7461 103.934 26 130.003 26C156.07 26 177.2 36.7461 177.2 49.9972C177.2 63.2539 156.07 74 130.003 74C103.934 74 82.8 63.2539 82.8 49.9972ZM129.997 28.5106C106.707 28.5106 87.8274 38.1279 87.8274 49.9972C87.8274 61.8721 106.707 71.4894 129.997 71.4894C153.292 71.4894 172.173 61.8721 172.173 49.9972C172.173 38.1279 153.292 28.5106 129.997 28.5106Z" fill="white"/>
<path fill-rule="evenodd" clip-rule="evenodd" d="M115.21 61.9752C115.029 61.9752 114.723 61.807 114.542 61.5279L107.939 52.1498C107.859 52.0278 107.698 51.7986 107.366 51.7986C107.105 51.7986 106.839 51.9816 106.839 52.3939V61.7312C106.839 61.868 106.734 61.9752 106.599 61.9752H101.019C100.889 61.9752 100.779 61.868 100.779 61.7312V39.5321C100.779 39.1051 100.442 38.7649 100.025 38.7649H99.3977V37.8286H106.599C106.729 37.8286 106.839 37.9405 106.839 38.0782V45.9607C106.839 46.2712 107.065 46.4996 107.366 46.4996C107.452 46.4996 107.728 46.469 107.969 46.103L113.432 38.2815C113.618 38.0015 113.93 37.8286 114.111 37.8286H120.402C120.497 37.8286 120.553 37.9155 120.568 37.9405C120.598 37.9968 120.618 38.0883 120.573 38.1641L113.558 48.6818L113.548 48.6966C113.483 48.8288 113.412 48.9767 113.412 49.144C113.412 49.2614 113.453 49.4287 113.598 49.6219C114.141 50.4001 121.938 61.5686 121.964 61.5991C122.029 61.6952 122.039 61.7765 122.004 61.8532C121.964 61.929 121.884 61.9752 121.838 61.9752H115.21Z" fill="white"/>
</svg>
