<svg width="260" height="100" viewBox="0 0 260 100" fill="none" xmlns="http://www.w3.org/2000/svg">
<g clip-path="url(#clip0_9623_108)">
<path d="M51.6353 32.458V50.6544C51.6353 51.5053 50.9872 52.0944 50.2096 52.0944H48.0711C47.9415 52.0944 47.8767 52.2253 47.8767 52.2907V67.5416C48.3951 67.5416 48.9136 67.6726 49.4968 67.6726C59.1524 67.6726 66.9935 59.7526 66.9935 49.9998C66.9935 41.0326 60.3188 33.5053 51.6353 32.458ZM51.2464 59.6871C50.0152 59.6871 49.108 58.6398 49.108 57.5271C49.108 56.2835 50.1448 55.3671 51.2464 55.3671C52.4777 55.3671 53.3849 56.4144 53.3849 57.5271C53.5145 58.7053 52.4777 59.6871 51.2464 59.6871ZM56.3659 59.6871C55.1346 59.6871 54.2274 58.6398 54.2274 57.5271C54.2274 56.2835 55.2642 55.3671 56.3659 55.3671C57.5971 55.3671 58.5043 56.4144 58.5043 57.5271C58.5043 58.6398 57.6619 59.6871 56.3659 59.6871ZM61.5501 59.6871C60.3188 59.6871 59.4116 58.6398 59.4116 57.5271C59.4116 56.2835 60.4484 55.3671 61.5501 55.3671C62.7813 55.3671 63.6886 56.4144 63.6886 57.5271C63.6886 58.6398 62.7813 59.6871 61.5501 59.6871Z" fill="white"/>
<path d="M49.4967 32.3926C39.8411 32.3926 32 40.3126 32 50.0653C32 58.6399 37.897 65.6435 45.803 67.2799V51.3744C45.803 50.6544 46.451 50.0653 47.099 49.9344H49.2375C49.3671 49.9344 49.4319 49.8035 49.4319 49.738L49.4967 32.3926ZM46.127 46.9235C44.8957 46.9235 43.9885 45.8762 43.9885 44.7635C43.9885 43.5198 45.0253 42.6035 46.127 42.6035C47.3582 42.6035 48.2655 43.6508 48.2655 44.7635C48.2655 45.8762 47.2934 46.9235 46.127 46.9235Z" fill="white"/>
<path d="M224.658 42.0144V48.6908H215.845V42.0144H211.374V59.6871H215.845V52.5526H224.658V59.6871H229V42.0144H224.658ZM151.82 44.0435C151.107 42.4726 149.682 41.6217 148.256 41.6217C146.83 41.6217 145.34 42.4726 144.692 44.0435L137.628 59.7526H142.294L143.849 56.0217H152.922L154.477 59.7526H159.143L151.82 44.0435ZM145.081 52.4871L147.738 46.0071C147.867 45.8108 147.932 45.8108 148.062 45.8108C148.191 45.8108 148.386 45.8108 148.386 46.0071L151.042 52.4871H145.081ZM99.7188 38.8726C97.6451 38.8726 96.3491 39.9853 95.377 42.2108L89.7392 55.498L84.0366 42.1453C83.1293 39.9853 81.7685 38.8071 79.6948 38.8071C77.7507 38.8071 75.8066 40.1162 75.8066 43.1926V59.6217H80.1484V43.7817L85.9159 56.938C86.6287 58.8362 87.9895 59.949 89.7392 59.949C91.6185 59.949 92.8497 58.8362 93.5626 56.938L99.33 43.7817V59.818H103.672V43.3889C103.607 40.3126 101.663 38.8726 99.7188 38.8726ZM111.318 55.9562C111.124 55.9562 110.865 55.7599 110.865 55.498V52.3562H121.752V48.7562H110.865V46.0726C110.865 45.8762 111.059 45.6144 111.318 45.6144H122.141V41.8835H109.18C107.625 41.8835 106.588 43.1271 106.588 44.5017V56.8726C106.588 58.1817 107.69 59.4908 109.18 59.4908H122.141V55.7599H111.318V55.9562ZM129.463 59.6871V46.2035C129.463 46.0071 129.658 45.7453 129.917 45.7453H140.739V42.0144H127.778C126.223 42.0144 125.186 43.258 125.186 44.6326V59.6217L129.463 59.6871ZM208.522 50.9162C208.522 44.7635 205.866 41.8835 199.256 41.8835H197.7C191.091 41.8835 188.434 44.8289 188.434 50.9162C188.434 56.938 191.091 59.949 197.7 59.949H199.126C205.866 59.818 208.522 56.938 208.522 50.9162ZM199.126 56.218H197.7C194.136 56.218 192.646 54.5817 192.646 50.9162C192.646 47.3817 193.877 45.6144 197.7 45.6144H199.126C202.82 45.6144 204.181 47.3817 204.181 50.9162C204.181 54.5162 202.82 56.218 199.126 56.218ZM176.316 39.2653H167.632C161.152 39.2653 158.56 42.6035 158.56 48.298C158.56 49.2144 158.689 50.0653 158.754 50.7853C159.467 54.8435 161.865 57.3308 167.891 57.3308H169.835V59.6217H174.177V57.3308H176.056C182.148 57.3308 184.545 54.8435 185.193 50.7853C185.323 50.0653 185.388 49.2144 185.388 48.298C185.323 42.6035 182.666 39.2653 176.316 39.2653ZM169.706 53.6653H167.762C164.781 53.6653 163.744 52.5526 163.096 50.7199C162.901 50.0653 162.901 49.1489 162.901 48.2326C162.901 44.5017 164.651 42.9308 167.114 42.9308H169.77V53.6653H169.706ZM180.852 50.9162C180.204 52.6835 179.102 53.8617 176.186 53.8617H174.242V43.0617H176.899C179.361 43.0617 181.111 44.6326 181.111 48.3635C181.046 49.3453 181.046 50.1308 180.852 50.9162Z" fill="white"/>
</g>
<defs>
<clipPath id="clip0_9623_108">
<rect width="197" height="36" fill="white" transform="translate(32 32)"/>
</clipPath>
</defs>
</svg>
