<svg width="260" height="100" viewBox="0 0 260 100" fill="none" xmlns="http://www.w3.org/2000/svg">
<path d="M81.0549 49.5549C81.0549 57.2927 77.4329 60.9146 72.878 60.9146C70.2439 60.9146 67.939 59.5427 66.6219 57.4573C64.5366 59.5427 61.7378 60.8598 58.5549 60.8598C52.2988 60.8598 47.25 55.811 47.25 49.5549C47.25 43.2988 52.2988 38.25 58.5549 38.25C64.811 38.25 69.8598 43.2988 69.8598 49.5549V53.2317C69.8598 55.0976 71.1768 56.4146 72.878 56.4146C74.9085 56.4146 76.5549 54.7134 76.5549 49.5549C76.5549 39.622 68.4878 31.5549 58.5549 31.5549C48.6219 31.5549 40.5 39.622 40.5 49.5549C40.5 59.4878 48.5671 67.5549 58.5 67.5549C64.2622 67.5549 68.2134 64.7012 68.2134 64.7012L71.1768 68.1037C71.1768 68.1037 66.128 72 58.5 72C46.0976 72 36 61.9024 36 49.5C36 37.0976 46.0976 27 58.5 27C70.9573 27.0549 81.0549 37.1524 81.0549 49.5549ZM58.5549 56.4146C62.3415 56.4146 65.4146 53.3415 65.4146 49.5549C65.4146 45.7683 62.3415 42.6951 58.5549 42.6951C54.7683 42.6951 51.6951 45.7683 51.6951 49.5549C51.6951 53.3415 54.7683 56.4146 58.5549 56.4146Z" fill="white"/>
<path d="M103.61 48.3477V60.0367H99.4395V39.8416H103.61V41.7074C104.982 40.2257 107.068 39.3477 109.318 39.3477C111.897 39.3477 114.092 40.4452 115.574 42.4757C117.22 40.5001 119.799 39.3477 122.598 39.3477C127.702 39.3477 131.104 43.1342 131.104 48.5123V60.0916H126.933V48.5672C126.933 45.494 125.122 43.4086 122.324 43.4086C119.525 43.4086 117.33 45.5489 117.33 48.4025V60.0916H113.159V48.5672C113.159 45.494 111.348 43.4086 108.549 43.4086C105.805 43.3538 103.61 45.494 103.61 48.3477Z" fill="white"/>
<path d="M151.736 42.0371V39.8419H155.907V60.0371H151.736V57.8419C150.035 59.5432 147.675 60.5858 144.931 60.5858C139.005 60.5858 134.45 55.9761 134.45 49.9944C134.45 43.9578 139.005 39.4029 144.931 39.4029C147.73 39.2932 150.035 40.3358 151.736 42.0371ZM138.84 49.8846C138.84 53.7261 141.584 56.47 145.316 56.47C149.102 56.47 151.791 53.6712 151.791 49.8846C151.791 46.098 149.102 43.2993 145.316 43.2993C141.584 43.3541 138.84 46.0432 138.84 49.8846Z" fill="white"/>
<path d="M165.622 33.6952C165.622 35.1769 164.415 36.3842 162.933 36.3842C161.451 36.3842 160.299 35.1769 160.299 33.6952C160.299 32.2135 161.451 31.061 162.933 31.061C164.415 31.061 165.622 32.2135 165.622 33.6952ZM165.018 60.0366H160.848V39.8415H165.018V60.0366Z" fill="white"/>
<path d="M174.347 60.0366H170.176V31.5H174.347V60.0366Z" fill="white"/>
<path d="M182.086 60.5852C180.604 60.5852 179.287 59.3779 179.287 57.7316C179.287 56.0852 180.659 54.8779 182.086 54.8779C183.568 54.8779 184.885 56.0852 184.885 57.7316C184.885 59.3779 183.568 60.5852 182.086 60.5852Z" fill="white"/>
<path d="M193.83 49.4995V59.9813H189.659V39.7861H193.83V42.53C195.312 40.6093 197.287 39.7861 200.141 39.7861H201.787V43.6825H200.141C196.409 43.6825 193.83 46.0422 193.83 49.4995Z" fill="white"/>
<path d="M219.018 51.3105V39.841H223.189V60.0361H219.018V58.0056C217.537 59.5971 215.287 60.53 212.817 60.53C207.768 60.53 204.421 56.7434 204.421 51.2556V39.7861H208.592V51.1459C208.592 54.4386 210.567 56.4691 213.531 56.4691C216.604 56.4691 219.018 54.1642 219.018 51.3105Z" fill="white"/>
</svg>
