<svg width="260" height="100" viewBox="0 0 260 100" fill="none" xmlns="http://www.w3.org/2000/svg">
<path fill-rule="evenodd" clip-rule="evenodd" d="M67.7762 48.1932L68.5882 45.5892L65.9002 45.6748C65.6746 45.6748 64.0226 45.6254 62.4233 44.4642C62.5435 44.4741 62.6605 44.4922 62.7856 44.4922C64.4327 44.4922 66.0287 43.4974 66.6661 42.0744L67.8224 39.5049C66.3729 39.5247 65.0471 39.3419 65.0471 39.3419C65.0355 39.3419 63.9913 39.2052 62.784 37.9682C61.9177 37.0838 60.8454 36.6144 59.6842 36.6144C59.2245 36.6161 58.7678 36.6889 58.3304 36.8301C58.3913 36.6226 58.4489 36.4101 58.4835 36.1927C58.8508 33.788 57.3075 31.9565 57.3075 31.9565L55.2866 29.4496L54.0332 32.3946C54.0282 32.4045 53.712 33.0962 53.1471 33.4322C52.9758 32.5659 52.5558 31.5925 51.6598 30.6619C49.9682 28.9094 47.9111 28.6459 46.8339 28.6459C46.3348 28.6459 45.9774 28.7019 45.8918 28.7151L43.4525 29.196C43.5925 28.6508 43.8939 27.6972 44.4407 26.8424L45.788 24.7424L42.4 25.1294L41.3212 22.8334L39.2311 23.9122L37.2991 22L35.372 23.9106L33.2786 22.8334L32.2014 25.1278L28.8151 24.7407L30.164 26.844C30.7125 27.6988 31.0106 28.6475 31.1506 29.1927L28.8233 28.7315L28.7426 28.72C28.4212 28.6694 28.0962 28.6446 27.7708 28.6459C26.6936 28.6459 24.6365 28.9094 22.9499 30.6619C22.0522 31.5908 21.6306 32.5659 21.4593 33.4322C20.8976 33.0979 20.5831 32.4193 20.5831 32.4193L19.328 29.4546L17.2741 31.9812C17.0238 32.3056 15.7868 34.0285 16.1212 36.1976C16.1574 36.4134 16.2134 36.6242 16.2744 36.8318C15.8381 36.6901 15.3824 36.6173 14.9238 36.616C13.7609 36.616 12.6887 37.0854 11.8207 37.9699C10.6184 39.2019 9.57906 39.3419 9.58729 39.3419C9.58729 39.3419 8.48871 39.5395 6.78729 39.5066L7.93859 42.076C8.57765 43.4991 10.1753 44.4939 11.8191 44.4939C11.9442 44.4939 12.0612 44.4758 12.1831 44.4659C10.5854 45.6287 8.93506 45.6765 8.73576 45.6765L6 45.5892L6.82847 48.1915C7.24682 49.5355 8.64024 51.7574 11.3085 51.9962C11.0186 53.2151 10.3746 54.5821 8.96141 55.1718L6.92235 56.0118L8.03412 57.952C8.66165 58.9979 10.1358 60.2216 12.2325 60.2216C12.6854 60.2216 13.1235 60.1739 13.5468 60.0849C13.6539 60.5626 13.7889 61.0402 13.9487 61.5179C14.5713 63.3791 14.0344 64.6769 14.0278 64.6918L13.0231 66.8033L15.268 67.3962C15.296 67.4061 15.9762 67.5939 16.8245 67.5939C17.2099 67.5939 17.5788 67.5527 17.9247 67.4704C18.1849 67.4094 18.4353 67.3271 18.6774 67.2299C18.9689 67.752 19.3214 68.2296 19.7332 68.6562C21.1727 70.1369 23.2151 70.8864 25.7976 70.8864H25.8059L27.6506 70.8616L23.8393 72.4494L26.7332 73.8511C27.7856 74.3649 29.0308 74.9711 30.3024 75.4355L29.94 76.4254L30.9365 76.8816C31.0254 76.9228 32.9459 77.7809 36.1329 77.9638C36.1329 77.9638 36.9021 78 37.3254 78C37.7504 78 38.5113 77.9621 38.5113 77.9621C41.6769 77.7744 43.5809 76.9228 43.6699 76.8816L44.6696 76.4254L44.3056 75.4339C45.6101 74.9562 46.9031 74.3238 47.9127 73.8313L50.7522 72.4478L46.9525 70.8616L48.8054 70.8864C51.3913 70.8864 53.4337 70.1353 54.8715 68.6546C55.2817 68.2296 55.6325 67.7536 55.9256 67.2299C56.5135 67.473 57.1441 67.5962 57.7802 67.5922C58.6153 67.5922 59.3021 67.4078 59.3202 67.4012L61.5767 66.8033L60.5934 64.7296C60.5704 64.6769 60.0334 63.3791 60.656 61.5146C60.8158 61.0402 60.9492 60.5609 61.0579 60.0849C61.4812 60.1739 61.9242 60.22 62.3805 60.2216C65.052 60.2216 66.3334 58.3391 66.5805 57.9306L67.6824 56.0101L65.6433 55.1718C64.2268 54.5838 63.5845 53.2167 63.2979 51.9995C65.9315 51.7689 67.3431 49.5454 67.7779 48.1948L67.7762 48.1932Z" fill="#FFFFFE"/>
<path fill-rule="evenodd" clip-rule="evenodd" d="M37.2992 29.9767C35.1415 29.9784 33.5225 30.6866 33.17 31.5217L37.2992 33.1523L41.43 31.5217C41.0808 30.6866 39.4618 29.9784 37.2992 29.9767ZM37.3436 73.1939H37.2613C35.9535 73.2021 34.15 72.9337 33.2836 72.6784L32.2394 75.5097C32.9279 75.7551 35.2601 76.2261 37.3041 76.2261C39.3448 76.2261 41.6787 75.7551 42.3655 75.5097L41.3229 72.68C40.4516 72.9337 38.6514 73.2021 37.3436 73.1939ZM45.2446 70.3774C44.4672 70.8188 42.7328 71.481 41.7232 71.7873L42.5698 74.1261C44.1312 73.6979 45.4208 73.1988 46.4848 72.6635L44.7258 72.0788L45.2446 70.3774ZM29.3587 70.3774L29.8792 72.0788L28.1185 72.6635C29.1808 73.1988 30.4754 73.6979 32.0319 74.1245L32.8801 71.7857C31.8721 71.4793 30.1345 70.8188 29.3587 70.3774ZM37.2992 27.2706C38.9281 27.2706 40.5225 27.661 41.7512 28.3445C41.8632 27.969 42.0196 27.5111 42.2321 27.0318L41.7676 27.0878L41.2818 27.1372L41.0759 26.6941L40.4533 25.3814L39.3234 25.9711L38.882 26.1951L38.5295 25.8492L37.2992 24.6304L36.0721 25.8492L35.7213 26.1951L35.2815 25.9711L34.1451 25.3814L33.5307 26.6941L33.3215 27.1388L32.834 27.0878L32.3728 27.0318C32.5853 27.5111 32.7401 27.969 32.8538 28.3445C34.0858 27.661 35.6801 27.2706 37.3008 27.2706H37.2992ZM62.1451 42.4515C62.3575 42.524 62.5716 42.557 62.7841 42.557C63.7065 42.557 64.5959 41.9591 64.9006 41.2772C64.9006 41.2772 63.2123 41.1751 61.3973 39.3287C60.8208 38.7325 60.2081 38.553 59.6844 38.553C58.8691 38.553 58.2563 38.9828 58.2563 38.9828C60.4502 40.1523 60.8966 42.0299 62.1451 42.4515ZM11.8192 42.5553C12.0333 42.5553 12.2474 42.524 12.4533 42.4499C13.7051 42.0283 14.1563 40.1523 16.3453 38.9845C16.3453 38.9845 15.7326 38.553 14.9222 38.553C14.3952 38.553 13.7841 38.7308 13.2043 39.3304C11.3909 41.1751 9.70435 41.2788 9.70435 41.2788C10.0074 41.9591 10.8985 42.557 11.8192 42.557V42.5553Z" fill="#FFFFFE"/>
<path fill-rule="evenodd" clip-rule="evenodd" d="M61.4845 55.9214C59.788 55.0814 58.7175 52.8578 58.4572 52.0574C58.1772 56.4682 56.0278 59.5284 53.516 62.4734C52.2116 64.0018 51.757 65.4875 51.757 65.4875C51.757 65.4875 52.009 63.8042 53.1356 62.4338C55.4793 59.6141 57.7062 56.1025 57.8725 52.0409C57.9862 49.2079 57.2598 46.9103 56.1233 45.0162C56.7591 46.9877 56.6685 49.4039 54.5125 51.6588C54.5125 51.6588 58.8064 46.5068 52.8045 41.223C50.4031 39.2136 47.7744 37.9717 46.4222 37.0922C51.309 38.6898 53.6972 36.9308 53.6972 36.9308C52.1358 38.2863 50.1149 38.2632 48.8615 38.0672C49.2024 38.2336 49.5565 38.4082 49.9353 38.6108C54.0579 40.8541 57.7605 44.5451 58.393 49.6543V49.6148C59.3499 54.6334 61.4845 55.9214 61.4845 55.9214ZM62.7396 50.0743C62.7775 50.0776 62.8104 50.0776 62.8483 50.0776C65.1459 50.0776 65.9233 47.6119 65.9233 47.6119H65.8789C65.4572 47.6119 62.0412 47.5131 59.6266 44.4381C58.0389 42.4171 56.736 40.6399 54.1633 39.9416L53.9097 39.8955L53.8553 39.6369C53.7845 39.2432 54.053 38.8743 54.6657 38.4774C58.2151 36.1484 55.8022 33.1771 55.8022 33.1771C55.8022 33.1771 54.7909 35.5522 52.5229 35.5522L52.3532 35.5489C52.0963 35.5357 51.8476 35.5275 51.5972 35.4731L51.1789 35.3908C51.1789 35.3908 51.8262 33.6284 50.2647 32.0127C49.0904 30.7905 47.6591 30.583 46.8339 30.583C46.4172 30.583 46.1537 30.6374 46.1537 30.6374C46.9377 31.6635 47.5043 33.3682 46.5984 34.419C45.816 35.3216 43.9055 35.3661 43.9055 36.7134C43.9055 37.2832 44.4375 37.9487 45.3927 38.5465C48.2652 40.3583 51.1163 42.763 52.3022 45.9863C53.7845 50.0051 52.1144 52.6734 49.7327 54.2035C49.7327 54.2035 50.4805 54.8919 51.5626 54.9809C51.7833 55.0023 51.9991 55.0122 52.2 55.0122C54.4878 55.0122 55.6704 53.9366 55.6704 53.9366C55.6704 53.9366 55.4744 55.4223 54.2869 56.8009C53.1866 58.0724 51.7455 58.8235 49.5466 58.8548C49.5466 58.8548 49.4775 59.8759 50.4509 60.7621C51.0751 61.3204 52.513 61.5032 52.513 61.5032C52.513 61.5032 49.8184 62.0484 49.5203 66.0359C49.3589 68.1969 48.8087 68.9463 48.8087 68.9463H48.8565C55.1087 68.9463 54.949 63.5736 54.949 63.5736C54.949 63.5736 55.3838 65.1646 57.128 65.5797C57.3389 65.6357 57.5645 65.6571 57.7786 65.6571C58.3386 65.6571 58.8278 65.5254 58.8278 65.5254C58.8278 65.5254 57.9137 63.595 58.8196 60.8955C59.5723 58.6538 59.4504 56.9936 59.4504 56.9936C59.4504 56.9936 60.292 58.2701 62.3822 58.2816H62.4036C62.8973 58.2892 63.3849 58.1722 63.8214 57.9413C64.2579 57.7104 64.629 57.3731 64.9005 56.9606C60.7318 55.2263 61.1436 49.6312 61.1436 49.6312C61.1436 49.6312 61.6838 50.0364 62.7396 50.0759V50.0743ZM21.0871 62.4734C18.5753 59.5284 16.4259 56.4682 16.1426 52.0574C15.884 52.8595 14.8151 55.083 13.1203 55.9214C13.1203 55.9214 15.2516 54.6334 16.2085 49.6148V49.6543C16.8426 44.5451 20.5452 40.8541 24.6678 38.6124C25.0466 38.4065 25.4024 38.2336 25.74 38.0689C24.4883 38.2632 22.4657 38.2863 20.9059 36.9324C20.9059 36.9324 23.2942 38.6898 28.1793 37.0922C26.8287 37.9717 24.2 39.2136 21.8003 41.223C15.7967 46.5068 20.0906 51.6588 20.0906 51.6588C17.933 49.4023 17.844 46.9894 18.4798 45.0162C17.3433 46.9103 16.6153 49.2079 16.7339 52.0425C16.897 56.1025 19.1222 59.6141 21.461 62.4355C22.5942 63.8025 22.8495 65.4858 22.8495 65.4858C22.8495 65.4858 22.3883 64.0018 21.0871 62.4734ZM22.0918 61.5016C22.0918 61.5016 23.5297 61.3204 24.1539 60.7604C25.1257 59.8759 25.0582 58.8548 25.0582 58.8548C22.8577 58.8235 21.4182 58.0724 20.313 56.8009C19.1304 55.4223 18.9327 53.9366 18.9327 53.9366C18.9327 53.9366 20.1153 55.0122 22.3998 55.0122C22.6057 55.0122 22.8198 55.0023 23.0389 54.9809C23.7148 54.9124 24.3543 54.6415 24.8737 54.2035C22.4887 52.6734 20.8186 50.0051 22.2993 45.9847C23.4852 42.7647 26.3346 40.3583 29.2104 38.5449C30.164 37.9487 30.6944 37.2832 30.6944 36.7134C30.6944 35.3661 28.7871 35.3216 28.0047 34.419C27.0989 33.3682 27.6671 31.6635 28.4495 30.6374C28.4495 30.6374 28.1876 30.583 27.7692 30.583C26.9457 30.583 25.5144 30.7905 24.3384 32.0127C22.7737 33.6301 23.4243 35.3924 23.4243 35.3924L23.0059 35.4748C22.7572 35.5258 22.5052 35.5357 22.2483 35.5505L22.0836 35.5522C19.8106 35.5522 18.801 33.1788 18.801 33.1788C18.801 33.1788 16.3913 36.1484 19.9407 38.4774C20.5502 38.8743 20.8186 39.2449 20.7478 39.6369L20.6935 39.8938L20.4349 39.9399C17.8671 40.6399 16.5643 42.4171 14.9732 44.4381C12.5586 47.5131 9.14593 47.6119 8.72263 47.6119H8.67651C8.67651 47.6119 9.45557 50.0776 11.7549 50.0776C11.7911 50.0776 11.824 50.0776 11.8636 50.0743C12.9193 50.0364 13.4612 49.6312 13.4612 49.6312C13.4612 49.6312 13.8697 55.2263 9.70263 56.9606C9.70263 56.9606 10.4619 58.2832 12.2012 58.2832H12.221C14.3127 58.2701 15.1527 56.9936 15.1527 56.9936C15.1527 56.9936 15.0309 58.6555 15.7803 60.8955C16.6862 63.5966 15.777 65.5237 15.777 65.5237C15.777 65.5237 16.2629 65.6555 16.8245 65.6555C17.0419 65.6555 17.2643 65.6357 17.4735 65.5797C19.216 65.1646 19.6525 63.5736 19.6525 63.5736C19.6525 63.5736 19.4928 68.9463 25.7466 68.9463H25.7927C25.7927 68.9463 25.2443 68.1969 25.0845 66.0359C24.788 62.0501 22.0902 61.5016 22.0902 61.5016H22.0918ZM35.8892 41.7039H38.8375V42.7169C38.4916 42.2919 37.8163 42.3792 37.8163 42.3792V43.8402C37.8163 43.8402 37.8393 44.5583 38.093 44.8696H36.6337C36.889 44.5583 36.9104 43.8402 36.9104 43.8402V42.3792C36.9104 42.3792 36.2384 42.2919 35.8892 42.7169V41.7039ZM32.6775 41.8555C32.7796 41.9658 32.88 42.0861 32.9772 42.2063C33.0003 42.2343 33.0217 42.259 33.0448 42.2919C33.1353 42.4105 33.2259 42.539 33.3132 42.6675L33.3725 42.7548C33.4763 42.9129 33.5751 43.0759 33.6739 43.2456C34.5765 44.8054 36.0193 45.7376 37.2991 45.7392C38.5822 45.7376 40.0233 44.8054 40.9276 43.2456C41.028 43.0727 41.1285 42.9047 41.2339 42.7465C41.3542 42.5623 41.4828 42.3837 41.6193 42.2112C41.7198 42.0861 41.8236 41.9642 41.929 41.8522C41.9471 41.8357 41.9619 41.8176 41.98 41.8028C42.4412 41.3317 42.9864 40.9727 43.7045 40.7734L43.385 40.5872H43.3685L42.097 39.8494L40.7942 39.0999L37.309 41.0007L37.2991 40.9924L37.2942 41.0007L33.809 39.0999L32.5045 39.8494L31.233 40.5872H31.2182L30.897 40.7734C31.6135 40.971 32.1603 41.3268 32.6215 41.7995C32.6412 41.8159 32.6544 41.839 32.6775 41.8555Z" fill="#FFFFFE"/>
<path fill-rule="evenodd" clip-rule="evenodd" d="M36.1905 35.264V36.2193L36.0076 36.1336C35.9994 36.127 35.7293 36.0677 35.2632 35.6955C34.4907 35.096 34.4759 34.5425 34.4759 34.5425L36.1888 35.264H36.1905ZM36.9975 39.739V33.8063L33.2291 32.5249L34.2239 38.2731L36.9992 39.739H36.9975ZM38.414 35.264L40.1269 34.5425C40.1269 34.5425 40.1138 35.096 39.338 35.6955C38.8719 36.0661 38.6034 36.127 38.5952 36.1336L38.414 36.2176V35.264ZM40.3789 38.2748L41.3688 32.5265L37.602 33.8063V39.739L40.3789 38.2731V38.2748ZM31.6676 53.492C32.0349 53.6237 32.4796 53.6517 32.7086 53.6517C32.7168 53.6237 32.73 53.5891 32.7415 53.5463C32.7596 53.4804 32.7794 53.4113 32.7942 53.3388C32.8585 53.0094 32.8799 52.6388 32.8865 52.3983C32.6758 52.2731 32.5042 52.0917 32.3907 51.8745C32.2507 51.5797 32.0514 51.4414 31.7599 51.4414C31.3811 51.4414 30.9742 51.672 30.798 51.7774C30.6596 52.5976 31.2641 53.3421 31.6676 53.4903V53.492ZM40.0051 50.3444C39.3067 51.107 37.9347 52.4362 37.8688 52.5021L37.7865 52.5844L33.4547 52.5169C33.4511 52.8753 33.4046 53.2319 33.3164 53.5793L33.2818 53.716L38.4321 54.6449C38.9674 54.2694 40.4415 53.1905 41.0147 52.7673C40.598 52.1578 40.5585 51.4348 40.6524 50.9275C40.4051 50.7713 40.1862 50.5741 40.0051 50.3444Z" fill="#FFFFFE"/>
<path fill-rule="evenodd" clip-rule="evenodd" d="M40.5932 45.1262C39.595 46.1177 38.6381 46.485 37.7833 46.5706C37.6268 46.5876 37.4696 46.5964 37.3122 46.597H37.2908C36.9764 46.5969 36.6628 46.5638 36.3553 46.4982C36.2993 46.7205 36.2284 47.1866 36.431 47.628C36.6122 48.0283 36.9795 48.3264 37.5164 48.5257L37.6976 48.5965L37.6993 48.7909C37.6993 48.8485 37.7421 50.1102 39.1157 50.461C39.3397 50.2304 39.544 50.0212 39.6922 49.845C39.4122 49.1845 39.5604 48.5092 39.9673 48.1782C39.9508 48.249 39.7696 49.9043 41.0955 50.5203L41.3146 50.624L41.2487 50.8563C41.2273 50.9271 40.7859 52.5297 42.3917 53.1259L42.675 53.2346L42.5482 53.5097C42.5202 53.5706 41.891 55.025 43.3734 55.8518H46.5868V53.2939C45.4437 53.1539 44.9612 52.2332 44.836 51.581C44.304 51.4904 43.8939 51.2615 43.6122 50.8876C42.9369 49.9982 43.5167 49.1829 43.5249 49.1384C43.5233 49.145 43.5249 50.0113 44.0586 50.5483C44.3237 50.8052 44.6367 51.0062 45.1127 51.0506L45.3449 51.072L45.3647 51.3109C45.3696 51.3619 45.4964 52.5363 46.5868 52.7207L46.5852 47.4996C46.5852 46.6892 46.8207 45.8756 47.104 45.1245H40.5932V45.1262ZM31.9412 47.5193L31.8555 50.8431L32.2343 50.9024L33.1567 47.712L32.6873 46.7304L31.9428 47.5193H31.9412ZM33.9407 59.8295C33.9154 59.8287 33.8905 59.8227 33.8675 59.8119C33.8446 59.8012 33.8241 59.7858 33.8072 59.7669C33.7904 59.7479 33.7777 59.7257 33.7698 59.7016C33.7618 59.6775 33.7589 59.6521 33.7612 59.6269C33.7626 59.6019 33.769 59.5775 33.7801 59.555C33.7911 59.5326 33.8065 59.5125 33.8254 59.4961C33.8442 59.4797 33.8662 59.4672 33.89 59.4594C33.9137 59.4516 33.9388 59.4486 33.9637 59.4506C34.0725 59.4556 34.1482 59.5495 34.1449 59.6516C34.1411 59.7021 34.1176 59.7491 34.0793 59.7824C34.0411 59.8157 33.9913 59.8326 33.9407 59.8295ZM42.1134 62.7727C42.1414 62.7727 42.1743 62.776 42.204 62.7843C42.7805 62.949 42.9237 65.021 43.9301 65.2055C44.0289 65.2269 44.1212 65.2318 44.2002 65.2318C44.4917 65.2318 44.6647 65.1083 44.8525 64.8859C44.8525 64.8859 44.3452 64.0904 43.9663 63.5518C43.464 62.8469 43.0736 61.9953 42.1364 61.9953C42.1134 61.9953 42.087 61.9953 42.0623 61.9986C41.8839 62.0058 41.7112 62.0641 41.5649 62.1666C41.2521 61.9597 40.8859 61.8481 40.5108 61.8454C39.9261 61.8454 39.4682 62.1156 39.2393 62.1156H39.231L37.1393 61.908C36.8115 61.8751 36.5529 61.5457 36.459 61.4172L36.4228 61.3612C36.4228 61.3036 36.4228 61.2459 36.4195 61.1949C36.3487 59.4803 35.0244 58.7473 34.5517 58.7342C34.5517 58.7342 34.6077 58.408 34.4809 58.2845L34.0197 58.8445L32.5044 58.0836L33.5849 59.3485L32.6708 60.3779C32.5555 60.4949 32.5703 60.653 32.6181 60.7205L33.0134 61.0697L33.5141 60.765C33.5388 60.7469 33.5849 60.7403 33.6409 60.7403C33.7793 60.7403 33.9868 60.7765 34.1729 60.7765C34.3788 60.7765 34.555 60.7337 34.5765 60.541C34.5139 61.1767 33.9242 62.2819 34.3113 63.1499L34.5979 63.8054L32.7482 63.5386L31.8819 65.0029C31.615 65.4904 31.5722 66.0174 31.8292 66.304L32.1536 66.7109C32.1536 66.7109 32.6082 66.2283 32.7087 65.9104L32.5621 65.749C32.4386 65.6123 32.4452 65.4904 32.5209 65.3438L33.0644 64.4412L35.2468 64.9567L35.3621 64.7591C35.5103 64.512 35.7244 64.4396 35.9583 64.4396C36.0555 64.4396 36.1543 64.4511 36.2565 64.4676C36.6616 64.5483 37.3287 64.6553 37.9957 64.6553C38.7287 64.6553 39.455 64.5236 39.8421 64.0904C40.6327 65.2647 42.2369 65.4509 42.1101 66.0487L41.6884 68.0614C41.9684 68.0483 42.2369 68.0302 42.4922 67.9956L42.8941 65.9022C42.9267 65.7244 42.9552 65.5459 42.9797 65.3669C42.8249 65.2087 42.451 64.8777 42.2386 64.4742C41.9569 63.929 42.1101 63.644 41.8466 62.9358C41.8466 62.9358 41.9289 62.7711 42.1134 62.7711V62.7727Z" fill="#FFFFFE"/>
<path fill-rule="evenodd" clip-rule="evenodd" d="M30.958 64.6752C30.958 64.6752 31.6827 64.3787 31.7485 64.1646L31.6497 63.9241C31.5822 63.766 31.5904 63.5947 31.7238 63.5025L32.5045 62.9606L33.8107 63.2126C33.8107 63.2126 33.5735 62.9161 33.5965 62.5209L32.3514 62.2573L31.1754 62.9738C30.9702 63.1259 30.8219 63.3424 30.7541 63.5887C30.6863 63.835 30.703 64.0969 30.8015 64.3326L30.958 64.6769V64.6752ZM40.193 68.0879C40.4252 68.078 40.6855 68.0747 40.9671 68.0747C40.9671 68.0747 41.6391 66.1065 41.677 66.0439C41.1779 65.8111 40.6909 65.5533 40.2177 65.2714C40.417 65.5712 40.9012 65.9121 40.8057 66.1757L40.193 68.0879Z" fill="#FFFFFE"/>
<path fill-rule="evenodd" clip-rule="evenodd" d="M46.5869 56.4154H28.0163V63.4138C28.0163 66.2763 30.0833 68.0667 33.1353 68.0667C35.6833 68.0667 36.3553 68.1655 37.3024 69.1093C37.9563 68.4554 38.4965 68.2133 39.6083 68.1211L39.633 68.014L40.2177 66.2006C40.1847 66.1594 39.2294 65.0707 39.2294 65.0707C38.8506 65.1975 38.5311 65.2189 37.9941 65.2189C37.4457 65.2189 36.8247 65.1531 36.1511 65.0279C36.0879 65.0129 36.0233 65.0052 35.9584 65.0048C35.876 65.0048 35.8711 65.0114 35.848 65.0526L35.7327 65.2453L35.5186 65.5978L35.1184 65.5039L33.3363 65.0839L33.0909 65.4874L33.1287 65.5319L33.3445 65.7707L33.249 66.0836C33.1172 66.4905 32.6923 66.9665 32.5621 67.0982L32.1174 67.5759L31.7106 67.0636L31.4059 66.6799C31.0847 66.3208 31.0106 65.7707 31.1918 65.1942C31.1865 65.1981 31.1802 65.2004 31.1737 65.2008L30.6713 65.41L30.4457 64.9159L30.2859 64.5683C30.1325 64.2128 30.1049 63.8155 30.2076 63.4422C30.3103 63.0688 30.5372 62.7416 30.8509 62.5145L32.2838 61.7025L33.6509 61.9709C33.6838 61.8392 33.7332 61.3714 33.7711 61.2512C33.7447 61.2479 33.72 61.2429 33.6937 61.2429L32.9064 61.5361L32.1487 61.0123C32.1487 61.0123 31.8523 60.7258 32.1207 60.4392L32.8537 59.3241L30.9925 56.9853L33.8534 58.1613L34.0445 57.9258L34.4299 57.4613L34.868 57.8796C34.9832 57.9923 35.0633 58.1359 35.0986 58.2931C35.8859 58.6011 37.2991 59.5086 37.4243 60.9843L36.9829 61.1606V61.1721C37.0833 61.2923 37.1673 61.3418 37.1937 61.3467L39.236 61.5476C39.2887 61.5378 39.3513 61.5147 39.4238 61.4949C39.6791 61.4076 40.0596 61.2808 40.5108 61.2808C40.8798 61.2808 41.2356 61.3665 41.5765 61.5279C41.7033 61.4785 41.8565 61.4439 42.0377 61.4323L42.1365 61.4291C43.2285 61.4291 43.772 62.2476 44.2085 62.9015C44.281 63.0152 44.3534 63.1206 44.4292 63.226C44.8113 63.7662 45.3104 64.5552 45.3301 64.5898L45.5558 64.9406L45.2791 65.2634C45.0683 65.5105 44.7471 65.7987 44.2003 65.7987C44.0764 65.7977 43.9528 65.785 43.8313 65.7608C43.7193 65.7393 43.6099 65.7056 43.5052 65.6603C43.4884 65.7766 43.4692 65.8925 43.4476 66.0079L43.0901 67.8806C45.2313 67.3535 46.5918 65.7328 46.5918 63.4138L46.5869 56.4154ZM28.0163 55.8521H42.461C41.7396 55.1043 41.7511 54.1606 41.9339 53.5462C41.7391 53.4526 41.5579 53.3329 41.3953 53.1905C40.8304 53.6072 39.1076 54.8639 38.6579 55.1801L38.5607 55.246L32.8916 54.2182H32.7763C32.6412 54.2182 32.4419 54.2133 32.2245 54.1853C32.2012 54.2894 32.1483 54.3845 32.0721 54.4592C31.9959 54.5338 31.8997 54.5847 31.7951 54.6058C31.6905 54.6269 31.5821 54.6172 31.4829 54.578C31.3837 54.5387 31.2981 54.4715 31.2363 54.3846C31.1928 54.3252 31.1617 54.2578 31.1448 54.1862C31.1278 54.1146 31.1253 54.0404 31.1374 53.9679L31.1588 53.8443C30.5758 53.4326 30.0339 52.5102 30.2744 51.5385L30.2974 51.4363L30.3798 51.3771C30.4629 51.3203 30.5486 51.2676 30.6367 51.2189L30.225 51.1531C30.1518 51.1405 30.0865 51.0999 30.0428 51.0399C29.9991 50.98 29.9806 50.9053 29.9911 50.8319C30.0174 50.6771 30.1607 50.5683 30.3139 50.5963L31.2939 50.7512L31.3845 47.2907L32.8438 45.7425L33.7563 47.6646L32.7944 50.9949L33.6607 51.1316C33.7347 51.1438 33.8009 51.1847 33.8447 51.2455C33.8886 51.3064 33.9065 51.3821 33.8946 51.4561C33.884 51.5217 33.8503 51.5813 33.7995 51.6242C33.7488 51.6671 33.6844 51.6905 33.6179 51.69L33.5734 51.6883L32.8669 51.5731C32.8767 51.5961 32.8899 51.6076 32.8998 51.6307C32.9784 51.7671 33.0968 51.8763 33.2391 51.9436L37.5593 52.0145C37.7421 51.8349 38.1951 51.3902 38.6628 50.9192C38.2557 50.7697 37.8983 50.5098 37.6306 50.1685C37.3629 49.8273 37.1957 49.4182 37.1476 48.9872C36.5546 48.7335 36.1429 48.3547 35.9156 47.8606C35.6389 47.2479 35.7377 46.6352 35.8118 46.3371C35.2353 46.1279 34.6292 45.7425 34.0099 45.1265H27.5007C27.7807 45.8775 28.0163 46.6912 28.0163 47.4999V55.8505V55.8521Z" fill="white"/>
<path fill-rule="evenodd" clip-rule="evenodd" d="M33.9637 59.451C33.9387 59.449 33.9135 59.452 33.8896 59.4599C33.8657 59.4678 33.8437 59.4805 33.8248 59.4971C33.8059 59.5136 33.7905 59.5339 33.7796 59.5565C33.7687 59.5792 33.7624 59.6038 33.7612 59.6289C33.7591 59.654 33.7622 59.6793 33.7703 59.7031C33.7783 59.727 33.7911 59.749 33.8079 59.7678C33.8247 59.7866 33.8451 59.8018 33.8679 59.8124C33.8907 59.8231 33.9155 59.829 33.9407 59.8298C33.991 59.833 34.0406 59.8163 34.0788 59.7834C34.117 59.7504 34.1407 59.7038 34.1449 59.6536C34.1476 59.6027 34.1301 59.5529 34.0961 59.5149C34.0622 59.4769 34.0146 59.454 33.9637 59.451ZM42.5713 74.1263L41.723 71.7875C42.7327 71.4795 44.467 70.8173 45.2461 70.3776L44.7273 72.079L46.4847 72.6637C45.4207 73.1973 44.1327 73.6964 42.5713 74.1246V74.1263ZM37.304 76.2263C35.26 76.2263 32.9277 75.7552 32.2393 75.5098L33.2835 72.6802C34.1499 72.9338 35.9517 73.2023 37.2612 73.1941H37.3435C38.6513 73.2023 40.4515 72.9322 41.3228 72.6802L42.3654 75.5098C41.6769 75.7569 39.3447 76.2263 37.304 76.2263ZM28.12 72.6637L29.879 72.079L29.3586 70.3776C30.1343 70.8173 31.8736 71.4811 32.88 71.7875L32.0317 74.1263C30.4753 73.6981 29.1823 73.1973 28.12 72.6637ZM46.5637 72.1449L45.4932 71.7331L45.7896 70.6263L46.1141 69.419C46.1141 69.419 44.22 70.4501 41.5468 71.2225C40.7892 71.4399 40.216 71.5404 40.216 71.5404V72.3623C40.216 72.3623 38.7863 72.6093 37.3435 72.6093H37.2612C35.815 72.6093 34.3887 72.3623 34.3887 72.3623V71.5388C34.3887 71.5388 33.8139 71.4399 33.0562 71.2225C30.3863 70.4484 28.4922 69.419 28.4922 69.419L28.8117 70.6263L29.1148 71.7331L28.0409 72.1449L26.8501 72.5896C28.2139 73.2501 30.1047 74.2103 31.8341 74.6846L31.4273 75.8013C31.4273 75.8013 33.6212 76.8028 37.276 76.8126V76.8143H37.3254V76.8126C40.9852 76.8028 43.179 75.8013 43.179 75.8013L42.7673 74.6846C44.4983 74.2103 46.3924 73.2517 47.7496 72.5896L46.5637 72.1449ZM32.8355 27.0863L33.3214 27.139L33.5306 26.6943L34.1433 25.3816L35.2797 25.9712L35.7212 26.1969L37.299 24.6289L38.5294 25.8477L38.8819 26.1969L39.3233 25.9712L40.4532 25.3816L41.0757 26.6943L41.2816 27.139L41.7675 27.0863L42.232 27.0319C42.0195 27.5112 41.863 27.9675 41.7494 28.3463C40.5223 27.6595 38.928 27.2708 37.3007 27.2708C35.68 27.2708 34.0856 27.6595 32.8536 28.3463C32.7207 27.8986 32.5601 27.4596 32.3727 27.0319L32.8339 27.0863H32.8355ZM37.299 27.9543C39.4781 27.9543 41.219 28.679 42.1826 29.4482C42.1826 29.4482 42.4692 27.7237 43.4442 26.2035L41.6901 26.4011L40.7727 24.4493L39.0103 25.3602L37.299 23.667L35.5943 25.3602L33.8287 24.4493L32.9129 26.4028L31.1588 26.2018C32.1355 27.7237 32.4205 29.4465 32.4205 29.4465C33.3889 28.6773 35.1249 27.9543 37.299 27.9543ZM64.9005 56.9606C64.9005 56.9606 64.1428 58.2832 62.4035 58.2832H62.3821C60.2936 58.2701 59.4503 56.9936 59.4503 56.9936C59.4503 56.9936 59.5722 58.6538 58.8212 60.8955C57.9153 63.5966 58.8277 65.5237 58.8277 65.5237C58.8277 65.5237 58.3402 65.6571 57.7786 65.6571C57.5644 65.6571 57.3404 65.6357 57.128 65.5797C55.3837 65.1663 54.9489 63.5752 54.9489 63.5752C54.9489 63.5752 55.1103 68.9463 48.8564 68.9463H48.807C48.807 68.9463 49.3588 68.1969 49.5219 66.0359C49.8183 62.0501 52.5129 61.5016 52.5129 61.5016C52.5129 61.5016 51.075 61.3204 50.4508 60.7621C49.4774 59.8776 49.5449 58.8548 49.5449 58.8548C51.7454 58.8235 53.1882 58.0741 54.2868 56.8009C54.9947 55.9863 55.4724 54.9975 55.6703 53.9366C55.6703 53.9366 54.4877 55.0122 52.2 55.0122C51.999 55.0122 51.7849 55.0023 51.5642 54.9809C50.4804 54.8936 49.7327 54.2035 49.7327 54.2035C52.1143 52.6733 53.7845 50.0035 52.3037 45.9846C51.1179 42.7646 48.2652 40.3583 45.3943 38.5465C44.439 37.9486 43.9054 37.2832 43.9054 36.7117C43.9054 35.3661 45.816 35.3232 46.6 34.419C47.5059 33.3682 46.9376 31.6635 46.1536 30.6373C46.1536 30.6373 46.4172 30.583 46.8339 30.583C47.6607 30.583 49.0903 30.7905 50.2663 32.0126C51.8261 33.6301 51.1788 35.3924 51.1788 35.3924L51.5972 35.4748C51.8475 35.5258 52.0962 35.5373 52.3548 35.5505L52.5228 35.5522C54.7908 35.5522 55.8037 33.1771 55.8037 33.1771C55.8037 33.1771 58.215 36.1484 54.6656 38.4773C54.0546 38.8743 53.7844 39.2449 53.8553 39.6369L53.9113 39.8955L54.1633 39.9399C56.736 40.6399 58.0388 42.4188 59.6282 44.4381C62.0428 47.5131 65.4588 47.6119 65.8788 47.6119H65.9249C65.9249 47.6119 65.1459 50.0776 62.8482 50.0776C62.8103 50.0776 62.7774 50.0776 62.7395 50.0743C61.6854 50.0364 61.1419 49.6312 61.1419 49.6312C61.1419 49.6312 60.7317 55.2263 64.9005 56.9606ZM62.8482 50.8319C65.6647 50.8319 66.6068 47.9611 66.6463 47.8392L66.9593 46.8263L65.9052 46.8592H65.9019C65.528 46.8592 62.4216 46.7769 60.2195 43.9719L60.0103 43.7117C58.5708 41.8785 57.2054 40.1343 54.7644 39.3388C54.862 39.2534 54.9661 39.1757 55.0757 39.1065C56.3703 38.2533 57.1247 37.2173 57.3124 36.0133C57.5908 34.2032 56.4362 32.7604 56.3868 32.7011L55.6028 31.7293L55.112 32.8823C55.079 32.9531 54.2555 34.7978 52.5228 34.7978H52.3943C52.2757 34.7929 52.1621 34.7879 52.0501 34.7781C52.111 33.9545 51.9612 32.683 50.8082 31.4872C49.423 30.0493 47.7233 29.8336 46.8339 29.8336C46.3595 29.8336 46.0433 29.8929 46.0087 29.8962L44.8244 30.1317L45.5541 31.0952C46.1273 31.8397 46.6477 33.2117 46.0317 33.9282C45.8341 34.1588 45.4289 34.3416 45.0419 34.5277C44.2447 34.895 43.1543 35.4089 43.1543 36.7117C43.1543 37.555 43.8082 38.4395 44.9941 39.1889C48.499 41.3976 50.6633 43.7035 51.5972 46.2482C53.0433 50.1616 51.1574 52.395 49.3242 53.571L48.504 54.0997L49.2237 54.7618C49.3209 54.8475 50.1988 55.6232 51.4983 55.7352C51.7454 55.7517 51.9809 55.7649 52.2016 55.7649C53.0334 55.7649 53.7433 55.6331 54.3197 55.4585C54.1474 55.7592 53.9467 56.0427 53.7202 56.3051C52.6743 57.5206 51.3863 58.0741 49.5334 58.1037L48.8449 58.1136L48.7922 58.8053C48.7856 58.9453 48.7346 60.2284 49.9452 61.3188C50.1313 61.4868 50.3553 61.6268 50.5908 61.7388C49.7673 62.4799 48.9339 63.7712 48.7724 65.9816C48.6357 67.8263 48.196 68.5098 48.191 68.5181L47.4301 69.6809L48.8054 69.699C51.0767 69.699 52.816 69.0731 54.02 67.8279C54.6436 67.1739 55.109 66.3856 55.3804 65.5237C56.0493 66.094 56.8996 66.407 57.7786 66.4065C58.4209 66.4065 58.9579 66.2698 59.0172 66.2566L59.895 66.0228L59.508 65.2025C59.4783 65.1366 58.747 63.4896 59.5343 61.1392C59.8736 60.123 60.0466 59.2138 60.1306 58.5039C60.684 58.7938 61.4235 59.031 62.3804 59.0343C64.5546 59.0343 65.5115 57.4086 65.5543 57.3411L65.9826 56.5933L65.1887 56.2672C62.5995 55.1901 62.0263 52.2978 61.911 50.7331C62.1466 50.7776 62.4134 50.8188 62.7148 50.827L62.8482 50.8319Z" fill="#1A1919"/>
<path fill-rule="evenodd" clip-rule="evenodd" d="M59.6843 38.553C60.208 38.553 60.8207 38.7326 61.3972 39.3304C63.2123 41.1751 64.9005 41.2789 64.9005 41.2789C64.5942 41.9591 63.7047 42.557 62.784 42.557C62.5716 42.557 62.3558 42.5241 62.1466 42.45C60.8965 42.0283 60.4501 40.1523 58.2579 38.9846C58.2579 38.9846 58.8673 38.553 59.6843 38.553ZM57.9005 39.65C58.9497 40.21 59.5624 40.9627 60.0993 41.6281C60.6264 42.2787 61.1254 42.9046 61.9111 43.1648C62.1878 43.2603 62.4826 43.3064 62.784 43.3064C63.9584 43.3064 65.1393 42.585 65.5873 41.5869L66.037 40.5888L64.9483 40.5229C64.8972 40.5229 63.4956 40.3928 61.9374 38.7984C61.2951 38.1429 60.5193 37.8003 59.6843 37.8003C58.6631 37.8003 57.9054 38.3109 57.8231 38.3636L56.8217 39.0702L57.9005 39.65ZM58.393 49.6163V49.6542C57.7605 44.545 54.0579 40.8556 49.9353 38.6123C49.5565 38.4081 49.2024 38.2335 48.8614 38.0688C50.1149 38.2631 52.1358 38.2862 53.6972 36.9323C53.6972 36.9323 51.309 38.6897 46.4221 37.0921C47.7727 37.9716 50.4031 39.2135 52.8045 41.2229C58.8047 46.5067 54.5125 51.6587 54.5125 51.6587C56.6702 49.4039 56.7591 46.9893 56.1233 45.0161C57.2598 46.9102 57.9845 49.2078 57.8725 52.0424C57.7078 56.1024 55.4793 59.614 53.1356 62.4354C52.009 63.8024 51.7586 65.4857 51.7586 65.4857C51.7586 65.4857 52.2132 64.0017 53.516 62.4749C56.0278 59.5267 58.1772 56.4681 58.4572 52.0573C58.7174 52.8594 59.788 55.0829 61.4845 55.9213C61.4845 55.9213 59.3516 54.6333 58.393 49.6163ZM25.7483 68.9462C19.4944 68.9462 19.6541 63.5751 19.6541 63.5751C19.6541 63.5751 19.216 65.1662 17.4751 65.5796C17.2624 65.6331 17.0438 65.6591 16.8245 65.657C16.2645 65.657 15.777 65.5253 15.777 65.5253C15.777 65.5253 16.6878 63.5949 15.7803 60.8954C15.0325 58.6554 15.1544 56.9935 15.1544 56.9935C15.1544 56.9935 14.3127 58.27 12.2226 58.2831H12.2012C10.4636 58.2831 9.70427 56.9606 9.70427 56.9606C13.8713 55.2262 13.4629 49.6311 13.4629 49.6311C13.4629 49.6311 12.9193 50.0363 11.8652 50.0758H11.7549C9.45556 50.0758 8.6765 47.6119 8.6765 47.6119H8.72427C9.14921 47.6119 12.5603 47.513 14.9732 44.438C16.5626 42.417 17.8671 40.6398 20.4349 39.9415L20.6934 39.8954L20.7478 39.6368C20.8203 39.2448 20.5501 38.8742 19.9407 38.4773C16.3913 36.1483 18.801 33.1787 18.801 33.1787C18.801 33.1787 19.809 35.5521 22.0836 35.5521L22.2483 35.5504C22.5052 35.5373 22.7572 35.5257 23.0059 35.473L23.4243 35.3923C23.4243 35.3923 22.7753 33.63 24.34 32.0126C25.516 30.7904 26.944 30.5829 27.7692 30.5829C28.1892 30.5829 28.4478 30.6373 28.4478 30.6373C27.6671 31.6634 27.1005 33.3681 28.0031 34.4189C28.7871 35.3231 30.696 35.366 30.696 36.7116C30.696 37.2831 30.164 37.9486 29.2104 38.5464C26.3363 40.3582 23.4852 42.7629 22.2993 45.9862C20.8203 50.005 22.4904 52.6733 24.8737 54.205C24.8737 54.205 24.1243 54.8935 23.0405 54.9808C22.8281 55.0013 22.6148 55.0117 22.4014 55.0121C20.1153 55.0121 18.9327 53.9382 18.9327 53.9382C18.9327 53.9382 19.1304 55.4222 20.313 56.8024C21.4165 58.074 22.8577 58.8234 25.0565 58.8547C25.0565 58.8547 25.1273 59.8759 24.1539 60.762C23.5297 61.322 22.0918 61.5031 22.0918 61.5031C22.0918 61.5031 24.788 62.05 25.0845 66.0359C25.2459 68.1968 25.7927 68.9462 25.7927 68.9462H25.7483ZM26.412 68.518C26.4104 68.5097 25.9739 67.8262 25.8339 65.9815C25.6692 63.7711 24.8358 62.4799 24.0106 61.7387C24.2494 61.6267 24.4718 61.4867 24.6563 61.3187C25.8669 60.2283 25.8158 58.9469 25.8076 58.8053L25.7614 58.1135L25.068 58.1036C23.22 58.074 21.9304 57.5206 20.8845 56.305C20.659 56.0419 20.4584 55.7585 20.285 55.4584C20.8614 55.6347 21.5664 55.7648 22.4014 55.7648C22.6238 55.7648 22.8577 55.7516 23.1031 55.7351C23.9437 55.6512 24.7386 55.3121 25.381 54.7634L26.1007 54.0996L25.2805 53.5726C23.4424 52.3949 21.5631 50.1631 23.0076 46.2481C23.9414 43.7034 26.1007 41.3991 29.6123 39.1888C30.7981 38.4394 31.4471 37.5549 31.4471 36.7116C31.4471 35.4088 30.36 34.8949 29.5629 34.5276C29.1741 34.3415 28.769 34.157 28.573 33.9281C27.9553 33.2116 28.4741 31.8396 29.049 31.0951L29.7836 30.1316L28.5927 29.8961C28.5598 29.8911 28.2469 29.8335 27.7692 29.8335C26.8814 29.8335 25.1833 30.0493 23.7998 31.4871C22.6452 32.6829 22.4937 33.9561 22.553 34.778C22.441 34.7878 22.329 34.7928 22.2104 34.7977H22.0836C20.3443 34.7977 19.524 32.953 19.4927 32.8822L19.0036 31.7293L18.213 32.701C18.1685 32.7603 17.0106 34.2031 17.2939 36.0133C17.48 37.2156 18.2344 38.2533 19.529 39.1064C19.6706 39.197 19.7678 39.2744 19.8386 39.3387C17.3944 40.1342 16.0323 41.8784 14.5927 43.7116L14.3852 43.9718C12.1847 46.7768 9.07015 46.8608 8.69791 46.8608L7.63721 46.8279L7.96003 47.8391C7.99791 47.961 8.93674 50.8318 11.7549 50.8318L11.8899 50.8269C12.188 50.8187 12.4565 50.7775 12.6937 50.7314C12.5784 52.2961 12.0019 55.19 9.41274 56.2655L8.62215 56.5949L9.05038 57.341C9.08991 57.4086 10.0518 59.0342 12.2292 59.0342C13.0085 59.042 13.7782 58.8612 14.4725 58.5071C14.5565 59.2154 14.7311 60.1229 15.0704 61.1391C15.8577 63.4879 15.1247 65.1366 15.0967 65.2024L14.708 66.0227L15.5859 66.2549C15.6452 66.2714 16.1854 66.4064 16.8245 66.4064C17.7038 66.4087 18.5547 66.0955 19.2226 65.5236C19.4614 66.2598 19.8716 67.0916 20.5814 67.8279C21.7904 69.0714 23.528 69.6989 25.7977 69.6989L27.173 69.6808L26.412 68.518Z" fill="#1A1919"/>
<path fill-rule="evenodd" clip-rule="evenodd" d="M13.2042 39.3305C13.784 38.7326 14.395 38.5514 14.9221 38.5514C15.7325 38.5514 16.3468 38.9846 16.3468 38.9846C14.1562 40.154 13.7049 42.0284 12.4532 42.4517C12.2493 42.5223 12.0348 42.5574 11.819 42.5554C10.8983 42.5554 10.0073 41.9592 9.70422 41.279C9.70422 41.279 11.3908 41.1752 13.2042 39.3305ZM11.819 43.3065C12.1205 43.3065 12.4153 43.2604 12.6953 43.1648C13.4793 42.9046 13.98 42.2804 14.507 41.6281C15.0456 40.9644 15.6518 40.2117 16.7026 39.6517L17.783 39.0702L16.7783 38.362C16.696 38.311 15.9433 37.802 14.9221 37.802C14.0854 37.802 13.308 38.143 12.6673 38.7985C11.1075 40.3945 9.70916 40.523 9.6581 40.5246L8.57104 40.5888L9.01575 41.5886C9.46704 42.5851 10.6463 43.3065 11.819 43.3065ZM16.7322 52.0425C16.6169 49.2079 17.3416 46.9102 18.4781 45.0161C17.8456 46.9893 17.9313 49.4039 20.0922 51.6604C20.0922 51.6604 15.7967 46.5051 21.8002 41.2246C24.2016 39.2135 26.8287 37.9717 28.1793 37.0921C23.2941 38.6898 20.9075 36.9307 20.9075 36.9307C22.4673 38.2862 24.4882 38.2648 25.7416 38.0672C25.4023 38.2335 25.0466 38.4065 24.6678 38.6124C20.5452 40.854 16.8442 44.5451 16.2085 49.6542V49.6164C15.2515 54.6333 13.1202 55.9213 13.1202 55.9213C14.8167 55.0813 15.884 52.8578 16.1442 52.0573C16.4275 56.4681 18.5753 59.5284 21.0854 62.4749C22.3899 64.0018 22.8478 65.4858 22.8478 65.4858C22.8478 65.4858 22.5941 63.8041 21.4626 62.4354C19.1238 59.614 16.8969 56.1025 16.7322 52.0425ZM35.8892 41.7039V42.7185C36.2383 42.2919 36.9103 42.3792 36.9103 42.3792V43.8401C36.9103 43.8401 36.8889 44.5582 36.6336 44.8695H38.0929C37.8393 44.5582 37.8146 43.8401 37.8146 43.8401V42.3792C37.8146 42.3792 38.4899 42.2919 38.8358 42.7185V41.7039H35.8875H35.8892ZM35.2633 35.6954C35.7294 36.066 35.9995 36.1286 36.0077 36.1335L36.1889 36.2175V35.2639L34.476 34.5425C34.476 34.5425 34.4908 35.0959 35.2633 35.6954ZM39.3381 35.6954C40.1122 35.0959 40.1287 34.5425 40.1287 34.5425L38.4141 35.2639V36.2192L38.5953 36.1335C38.6035 36.1286 38.872 36.066 39.3381 35.6954Z" fill="#1A1919"/>
<path fill-rule="evenodd" clip-rule="evenodd" d="M37.3008 33.1537L33.1716 31.5198C33.5225 30.6864 35.1415 29.9781 37.3008 29.9765C39.4618 29.9781 41.0808 30.6864 41.4316 31.5198L37.3008 33.1537ZM40.3792 38.2744L37.6039 39.7403V33.8043L41.3707 32.5228L40.3792 38.2711V38.2744ZM42.0987 39.849L43.3669 40.5868H43.385L43.7046 40.773C42.9881 40.9706 42.4396 41.3313 41.9801 41.8024L41.9307 41.8518C41.8223 41.9674 41.7185 42.0872 41.6194 42.2108L41.5618 42.2866C41.4629 42.4134 41.369 42.5436 41.2818 42.6786L41.234 42.7461C41.1272 42.9092 41.0255 43.0757 40.9293 43.2452C40.0234 44.805 38.5822 45.7372 37.3008 45.7405C36.0194 45.7372 34.5766 44.805 33.674 43.2452C33.578 43.0789 33.4775 42.9152 33.3726 42.7544L33.3133 42.6671C33.2272 42.5399 33.1382 42.4147 33.0465 42.2916C33.0234 42.2586 33.002 42.2339 32.9789 42.2059C32.8822 42.0858 32.7817 41.9688 32.6775 41.8551C32.6561 41.8386 32.6413 41.8172 32.6215 41.7991C32.1509 41.3063 31.5546 40.9515 30.897 40.773L31.2199 40.5868H31.233L32.5062 39.849L33.809 39.0996L37.2942 41.0003L37.3008 40.9937L37.3107 41.0003L40.7942 39.0996L42.0987 39.849ZM47.1058 45.1261C46.8208 45.8772 46.5853 46.6908 46.5853 47.4996L46.5886 52.7207C45.4999 52.5396 45.3698 51.3636 45.3665 51.3125L45.3467 51.0737L45.1112 51.0523C44.7118 51.0171 44.3385 50.8386 44.0603 50.5499C43.525 50.0146 43.525 49.1483 43.525 49.14C43.5185 49.1845 42.9387 49.9965 43.6107 50.8859C43.894 51.2614 44.3058 51.4937 44.8361 51.5843C44.9613 52.2348 45.4455 53.1556 46.5886 53.2972V55.8501H43.3752C41.8928 55.025 42.5203 53.5723 42.55 53.5097L42.6752 53.233L42.3919 53.1259C40.786 52.5297 41.229 50.9254 41.2505 50.8563L41.3163 50.6224L41.0956 50.5203C39.7714 49.9043 39.9509 48.2473 39.969 48.1781C39.5606 48.5092 39.414 49.1828 39.694 49.8466C39.5425 50.0212 39.3382 50.2304 39.1159 50.461C38.729 50.3765 38.3806 50.167 38.1247 49.8649C37.8687 49.5627 37.7192 49.1847 37.6994 48.7892L37.6978 48.5948L37.5166 48.5257C36.9813 48.328 36.614 48.0283 36.4312 47.628C36.2286 47.185 36.2994 46.7221 36.3554 46.4965C36.6632 46.5603 36.9766 46.5934 37.2909 46.5953H37.3123C37.4721 46.5953 37.6286 46.5854 37.7834 46.5706C38.6399 46.485 39.5952 46.1177 40.5933 45.1261H47.1058ZM43.0902 67.8803L43.4493 66.0076L43.5069 65.6617C43.7286 65.7485 43.964 65.7948 44.202 65.7984C44.7488 65.7984 45.0683 65.5085 45.2808 65.2631L45.5542 64.9419L45.3302 64.5894C45.3105 64.5549 44.8114 63.7659 44.4293 63.2257C44.3534 63.1189 44.2803 63.0102 44.2102 62.8996C43.7738 62.2473 43.2286 61.4287 42.1349 61.4287L42.0378 61.432C41.8802 61.4405 41.7249 61.4721 41.5766 61.5259C41.2438 61.3668 40.8798 61.2835 40.5109 61.2821C40.1399 61.2911 39.7729 61.3623 39.4255 61.493C39.353 61.5144 39.2872 61.5374 39.2361 61.5473L37.1938 61.3464C37.1674 61.3398 37.085 61.2904 36.9829 61.1718V61.1603L37.4243 60.984C37.3008 59.5083 35.886 58.6007 35.0987 58.2927C35.0638 58.1349 34.9837 57.9907 34.8681 57.8777L34.43 57.461L34.0446 57.9238L33.8552 58.161L30.9926 56.9833L32.8538 59.3238L32.1208 60.4389C31.8507 60.7238 32.1488 61.012 32.1488 61.012L32.9065 61.5358L33.6938 61.241C33.7201 61.241 33.7432 61.2476 33.7712 61.2509C33.7333 61.3711 33.6839 61.8405 33.6509 61.9706L32.2855 61.7021L30.8526 62.5141C30.113 63.0577 30.0126 63.9537 30.2876 64.568L30.4458 64.9172L30.6714 65.4097L31.1738 65.2021C31.182 65.1988 31.1886 65.1972 31.1935 65.1923C31.0123 65.7704 31.0865 66.3189 31.4076 66.6796L31.7123 67.0633L32.1175 67.5772L32.5622 67.0979C32.694 66.9661 33.1189 66.4901 33.249 66.0817L33.3446 65.7704L33.1288 65.5316L33.0926 65.4871L33.3363 65.0836L35.1185 65.5052L35.5203 65.5974L35.7345 65.2433L35.8498 65.0523C35.8712 65.0111 35.8761 65.0045 35.9585 65.0045C36.0227 65.0045 36.0853 65.0111 36.1528 65.0276C36.7605 65.1475 37.3781 65.2109 37.9975 65.217C38.5295 65.217 38.8507 65.1972 39.2295 65.0704C39.2295 65.0704 40.1865 66.1574 40.2194 66.2003L39.633 68.012L39.6067 68.1207C38.4982 68.2113 37.958 68.4551 37.3041 69.109C36.3554 68.1669 35.685 68.0664 33.137 68.0664C30.085 68.0664 28.0163 66.276 28.0163 63.4118V56.4151H46.5886L46.5919 63.4118C46.5919 65.7325 45.2314 67.3516 43.0902 67.8803ZM31.6514 63.924L31.7486 64.1661C31.6827 64.377 30.958 64.6767 30.958 64.6767L30.8032 64.3325C30.7043 64.0966 30.6874 63.8343 30.7552 63.5877C30.8229 63.341 30.9715 63.1243 31.177 62.972L32.3514 62.2556L33.5982 62.5191C33.5735 62.916 33.8107 63.2125 33.8107 63.2125L32.5062 62.9621L31.7239 63.5024C31.5921 63.5946 31.5822 63.7659 31.6514 63.924ZM42.8926 65.9005L42.4923 67.9939C42.2354 68.0301 41.9653 68.0499 41.6886 68.0598L42.1102 66.0504C42.2354 65.4509 40.6345 65.2647 39.8422 64.0904C39.4552 64.5252 38.7288 64.6553 37.9975 64.6553C37.3288 64.6553 36.6634 64.5483 36.2566 64.4676C36.1586 64.4505 36.0595 64.4412 35.9601 64.4396C35.7246 64.4396 35.5121 64.512 35.3639 64.7607L35.2486 64.9584L33.0646 64.4428L32.521 65.3438C32.4453 65.4904 32.4387 65.6123 32.5622 65.749L32.7105 65.9104C32.6083 66.2283 32.1538 66.7108 32.1538 66.7108L31.8293 66.304C31.5723 66.0174 31.6152 65.4904 31.882 65.0028L32.7483 63.537L34.598 63.8054L34.3114 63.1483C33.9243 62.2803 34.514 61.1767 34.5766 60.541C34.5552 60.7337 34.3789 60.7765 34.1747 60.7765C33.9869 60.7765 33.7794 60.7419 33.641 60.7419C33.5867 60.7419 33.5389 60.7468 33.5142 60.765L33.0135 61.0697L32.6182 60.7205C32.5705 60.6546 32.5556 60.4949 32.6709 60.3763L33.5867 59.3485L32.5062 58.0836L34.0182 58.8461L34.481 58.2845C34.6079 58.4097 34.5519 58.7341 34.5519 58.7341C35.0246 58.7473 36.3505 59.4803 36.4196 61.1932C36.4246 61.2459 36.4246 61.3036 36.4246 61.3612L36.4592 61.4172C36.553 61.5473 36.8116 61.8784 37.1394 61.908L39.2312 62.1156H39.2394C39.47 62.1156 39.9262 61.8454 40.5109 61.8454C40.8321 61.8454 41.1862 61.9278 41.565 62.1666C41.565 62.1666 41.7561 62.0151 42.0641 61.9986C42.0872 61.9953 42.1135 61.9953 42.1349 61.9953C43.0737 61.9953 43.4641 62.8452 43.9681 63.5518C44.3469 64.0887 44.8526 64.8859 44.8526 64.8859C44.6665 65.1083 44.4919 65.2318 44.2003 65.2318C44.1096 65.2321 44.0191 65.2233 43.9302 65.2054C42.9255 65.0193 42.7789 62.949 42.2058 62.7843C42.1757 62.7763 42.1446 62.7724 42.1135 62.7727C41.929 62.7727 41.8483 62.9374 41.8483 62.9374C42.1119 63.644 41.957 63.929 42.2403 64.4741C42.4512 64.8777 42.825 65.2087 42.9799 65.3669C42.9799 65.3669 42.9387 65.6732 42.8926 65.9021V65.9005ZM40.9672 68.0746C40.6872 68.0746 40.4269 68.0779 40.193 68.0878L40.8058 66.1756C40.9013 65.9104 40.417 65.5694 40.2178 65.2697C40.5192 65.4607 41.3015 65.8791 41.6787 66.0438C41.4342 66.7182 41.1971 67.3951 40.9672 68.0746ZM31.8556 50.8431L31.9429 47.5193L32.6874 46.7304L33.1552 47.712L32.2328 50.9024L31.854 50.8447L31.8556 50.8431ZM32.3909 51.8741C32.504 52.0907 32.6751 52.2715 32.885 52.3963C32.8793 52.7122 32.849 53.0272 32.7945 53.3384C32.778 53.4109 32.7615 53.4784 32.7401 53.5459C32.7302 53.5887 32.717 53.6233 32.7088 53.6513C32.4799 53.6513 32.0335 53.6233 31.6695 53.4899C31.2643 53.3417 30.6599 52.5972 30.7999 51.777C30.9745 51.6699 31.3796 51.441 31.7601 51.441C32.0516 51.441 32.2509 51.5793 32.3909 51.8741ZM41.0149 52.7668C40.4434 53.1901 38.9676 54.269 38.4323 54.6445L33.2803 53.7156L33.3166 53.5788C33.3825 53.3104 33.4533 52.9447 33.4566 52.5149L37.7867 52.584L37.869 52.5017C37.9349 52.4358 39.3069 51.1066 40.0053 50.344C40.1716 50.5532 40.3792 50.7509 40.6526 50.9254C40.5603 51.436 40.5982 52.1574 41.0149 52.7668ZM34.01 45.1261C34.6309 45.7421 35.2354 46.1259 35.8119 46.3367C35.7378 46.6332 35.6389 47.2492 35.9156 47.8603C36.1429 48.3544 36.5547 48.7332 37.1493 48.9869C37.2152 49.5963 37.5989 50.5137 38.6646 50.9188C38.1968 51.3899 37.7422 51.8346 37.561 52.0125L33.2392 51.945C33.0964 51.8767 32.978 51.7663 32.8999 51.6287C32.8916 51.6073 32.8768 51.5958 32.8669 51.5727L33.5735 51.688L33.618 51.6897C33.6844 51.6901 33.7489 51.6668 33.7996 51.6239C33.8503 51.581 33.8841 51.5214 33.8947 51.4558C33.9066 51.382 33.8889 51.3065 33.8454 51.2457C33.8019 51.185 33.7361 51.1438 33.6625 51.1313L32.7945 50.993L33.7563 47.6643L32.8455 45.7421L31.3846 47.2904L31.2956 50.7508L30.314 50.5944C30.1625 50.5647 30.0175 50.6767 29.9895 50.8299C29.9786 50.904 29.9971 50.9795 30.0411 51.0402C30.0851 51.1008 30.1512 51.1418 30.225 51.1544L30.6368 51.217C30.4886 51.301 30.3914 51.3685 30.3799 51.3767L30.2975 51.436L30.2745 51.5381C30.0356 52.5099 30.5759 53.4323 31.1589 53.844L31.1375 53.9676C31.1145 54.1158 31.1474 54.264 31.2363 54.3843C31.287 54.4573 31.3547 54.5168 31.4337 54.5576C31.5127 54.5984 31.6004 54.6192 31.6893 54.6181C31.8141 54.6171 31.9349 54.5739 32.0321 54.4956C32.1293 54.4173 32.1971 54.3084 32.2246 54.1866C32.442 54.2113 32.6413 54.2179 32.7763 54.2179H32.8933L38.5608 55.244L38.658 55.1798C39.1093 54.8636 40.8321 53.6068 41.3954 53.1901C41.5519 53.3236 41.7248 53.4454 41.934 53.5459C41.7512 54.1603 41.7396 55.104 42.461 55.8518H28.0163V47.5012C28.0163 46.6908 27.7808 45.8772 27.5008 45.1261H34.01ZM33.2293 32.5261L36.9994 33.8059V39.7386L34.2241 38.2727L33.2293 32.5245V32.5261ZM42.4265 31.8097C42.4265 30.3619 39.9938 29.0591 37.309 29.0591H37.2926C34.6079 29.0591 32.1768 30.3619 32.1768 31.8097L32.2295 32.1654L33.3018 38.3304L32.2246 38.9563L29.4394 40.5868H29.4493C29.4493 40.5868 28.8234 40.9097 28.5319 41.1073C27.4712 41.8452 27.2455 42.9224 27.8615 43.3671C28.013 42.4892 28.7065 41.5718 30.0027 41.5718C30.9382 41.5718 31.6498 42.056 32.2262 42.7791C32.3745 42.9619 32.5145 43.1579 32.6446 43.3671C32.806 43.6323 32.969 43.8661 33.1288 44.0901H25.9509C26.478 45.1525 26.9803 46.2774 26.9803 47.4996V63.4134C26.9803 67.2643 29.9368 69.1024 33.1354 69.1024C35.6076 69.1024 35.9403 68.9904 37.3041 70.3509C38.6613 68.9904 38.9956 69.1024 41.4695 69.1024C44.6698 69.1024 47.6213 67.2643 47.6213 63.4134V47.4996C47.6213 46.2774 48.1236 45.1525 48.654 44.0901H41.4728C41.6342 43.8661 41.7956 43.6323 41.957 43.3671C42.0888 43.1579 42.2288 42.9619 42.3738 42.7791C42.9535 42.0527 43.665 41.5718 44.6006 41.5718C45.8968 41.5718 46.5886 42.4892 46.7418 43.3671C47.3578 42.9224 47.1354 41.8452 46.0665 41.1073C45.7832 40.9097 45.154 40.5868 45.154 40.5868H45.1655L42.3738 38.9563L41.3032 38.3304L42.3738 32.1654L42.4265 31.8097Z" fill="#1A1919"/>
<path d="M88.5505 58.3343H93.4917V46.8378H100.278V42.6543H81.7646V46.8378H88.5505V58.3343ZM115.266 42.6543L107.031 51.779V42.6543H102.254V58.3343H106.471L114.706 49.2096V58.3343H119.482V42.6543H115.266ZM127.877 52.5037H135.553V58.3343H140.329V42.6543H135.553V48.3861H127.877V42.6543H123.101V58.3343H127.877V52.5037ZM153.631 58.3343C154.718 58.3343 155.706 58.2355 156.628 57.9719C159.099 57.2802 160.713 55.2708 160.713 52.5367C160.713 49.9343 159.33 48.1225 157.123 47.299C156.068 46.9037 154.817 46.8708 153.631 46.8708H148.723V42.6543H143.946V58.3343H153.631ZM148.723 50.5602H152.807C153.466 50.5602 154.092 50.5602 154.652 50.7578C155.443 51.0214 155.904 51.6802 155.904 52.4708C155.904 53.2943 155.443 53.9861 154.685 54.3155C154.158 54.5461 153.631 54.5461 152.807 54.5461H148.723V50.5602ZM167.96 52.4049H169.278L174.977 58.3343H181.334L173.395 50.1649L181.038 42.6543H175.043L169.278 48.5508H167.96V42.6543H163.184V58.3343H167.96V52.4049Z" fill="white"/>
<path d="M191.162 42.2258C184.739 42.2258 180.885 45.8494 180.885 50.527C180.885 55.2046 184.739 58.8282 191.162 58.8282C197.553 58.8282 201.407 55.2046 201.407 50.527C201.407 45.8494 197.553 42.2258 191.162 42.2258ZM191.162 55.007C187.967 55.007 185.925 53.0964 185.925 50.527C185.925 47.9576 187.967 46.0799 191.162 46.0799C194.325 46.0799 196.4 47.9576 196.4 50.527C196.4 53.0964 194.325 55.007 191.162 55.007ZM217.314 43.3458V41.7646H212.538V43.3458C206.542 43.4776 202.952 46.0141 202.952 50.4941C202.952 54.9741 206.542 57.3129 212.538 57.4446V59.0258H217.314V57.4446C223.342 57.3129 226.933 54.9741 226.933 50.4941C226.933 46.0141 223.342 43.4776 217.314 43.3458ZM212.538 54.0846C209.244 53.9529 207.794 52.6023 207.794 50.4941C207.794 48.3858 209.244 46.8705 212.538 46.7388V54.0846ZM217.314 54.0846V46.7388C220.641 46.8705 222.058 48.3858 222.058 50.4941C222.058 52.6023 220.641 53.9529 217.314 54.0846ZM242.824 43.3458V41.7646H238.047V43.3458C232.052 43.4776 228.461 46.0141 228.461 50.4941C228.461 54.9741 232.052 57.3129 238.047 57.4446V59.0258H242.824V57.4446C248.852 57.3129 252.443 54.9741 252.443 50.4941C252.443 46.0141 248.852 43.4776 242.824 43.3458ZM238.047 54.0846C234.753 53.9529 233.304 52.6023 233.304 50.4941C233.304 48.3858 234.753 46.8705 238.047 46.7388V54.0846ZM242.824 54.0846V46.7388C246.151 46.8705 247.567 48.3858 247.567 50.4941C247.567 52.6023 246.151 53.9529 242.824 54.0846Z" fill="white"/>
</svg>
