<svg width="200" height="200" viewBox="0 0 200 200" fill="none" xmlns="http://www.w3.org/2000/svg">
<rect width="200" height="200" fill="black"/>
<path d="M127.192 38.3527V49.3383L126.949 49.7125C126.818 49.9205 126.707 50.1145 126.707 50.1353C126.707 50.163 126.651 50.267 126.575 50.364C126.506 50.468 126.374 50.6898 126.277 50.8631C125.944 51.4591 125.813 51.6878 125.639 51.9651C125.535 52.1176 125.459 52.2631 125.459 52.2908C125.459 52.3116 125.404 52.4156 125.327 52.5126C125.258 52.6166 125.113 52.8522 125.009 53.0463C124.905 53.2334 124.738 53.5315 124.641 53.7047C124.544 53.878 124.413 54.0998 124.343 54.2038C124.267 54.3008 124.212 54.4048 124.212 54.4325C124.212 54.4602 124.156 54.5642 124.08 54.6612C124.011 54.7652 123.872 54.9939 123.768 55.1741C123.671 55.3612 123.505 55.6523 123.408 55.8326C123.304 56.0197 123.165 56.2484 123.096 56.3524C123.019 56.4494 122.964 56.5534 122.964 56.5811C122.964 56.6019 122.853 56.796 122.721 57.0039C122.59 57.2118 122.479 57.392 122.479 57.4128C122.479 57.4267 122.306 57.7247 122.098 58.0782C121.89 58.4247 121.716 58.7228 121.716 58.7435C121.716 58.7574 121.606 58.9445 121.474 59.1525C121.342 59.3604 121.231 59.5406 121.231 59.5545C121.231 59.5683 120.975 60.0119 120.67 60.5387C120.358 61.0723 120.032 61.6338 119.935 61.8001C119.845 61.9595 119.568 62.4447 119.318 62.8675C119.076 63.2902 118.875 63.6437 118.875 63.6576C118.875 63.6715 118.736 63.9002 118.563 64.1705C118.39 64.4408 118.251 64.6695 118.251 64.6903C118.251 64.7042 118.001 65.1408 117.697 65.6676C117.392 66.1874 117.142 66.624 117.142 66.6379C117.142 66.6518 117.031 66.832 116.899 67.0399C116.768 67.2478 116.657 67.435 116.657 67.4488C116.657 67.4696 116.484 67.7676 116.276 68.1142C116.068 68.4677 115.894 68.7657 115.894 68.7865C115.894 68.8073 115.839 68.9112 115.763 69.0083C115.693 69.1122 115.548 69.3479 115.444 69.542C115.34 69.7291 115.174 70.0271 115.077 70.2004C114.98 70.3737 114.848 70.5955 114.779 70.6994C114.702 70.7965 114.647 70.9004 114.647 70.9282C114.647 70.9559 114.591 71.0598 114.515 71.1569C114.446 71.2608 114.314 71.4826 114.217 71.6559C114.12 71.8292 113.926 72.1688 113.781 72.4183C113.635 72.6678 113.441 73.0074 113.344 73.1807C113.247 73.354 113.115 73.5758 113.046 73.6797C112.97 73.7768 112.914 73.8807 112.914 73.9085C112.914 73.9362 112.859 74.0401 112.782 74.1372C112.713 74.2411 112.575 74.4699 112.471 74.6501C112.374 74.8372 112.207 75.1283 112.11 75.3085C112.006 75.4956 111.868 75.7244 111.798 75.8283C111.722 75.9254 111.667 76.0293 111.667 76.0501C111.667 76.0709 111.493 76.3689 111.285 76.7224C111.077 77.069 110.904 77.367 110.904 77.3878C110.904 77.4017 110.793 77.5888 110.662 77.7967C110.53 78.0046 110.419 78.1849 110.419 78.1987C110.419 78.2126 110.163 78.6562 109.858 79.1829C109.546 79.7166 109.22 80.278 109.13 80.4374C109.04 80.5968 108.763 81.0751 108.513 81.4978C108.263 81.9206 108.062 82.288 108.062 82.3088C108.062 82.3226 108.007 82.4266 107.931 82.5236C107.861 82.6276 107.723 82.8494 107.633 83.0227C107.536 83.1959 107.203 83.7643 106.891 84.2979C106.586 84.8247 106.33 85.2683 106.33 85.2821C106.33 85.296 106.219 85.4762 106.087 85.6841C105.955 85.8921 105.845 86.0792 105.845 86.0931C105.845 86.1139 105.671 86.4119 105.463 86.7584C105.255 87.1119 105.082 87.4099 105.082 87.4307C105.082 87.4515 105.027 87.5555 104.95 87.6525C104.881 87.7565 104.75 87.9783 104.652 88.1516C104.555 88.3248 104.361 88.6644 104.216 88.914C104.07 89.1635 103.897 89.4615 103.828 89.5863C103.758 89.7041 103.627 89.9328 103.53 90.0853C103.426 90.2378 103.349 90.3833 103.349 90.3972C103.349 90.418 103.259 90.5843 103.142 90.7645C103.031 90.9447 102.934 91.118 102.934 91.1457C102.934 91.1734 106.115 91.1942 110.01 91.1873L117.087 91.1665L117.26 90.8546C117.35 90.6814 117.509 90.4249 117.599 90.2863C117.69 90.1407 117.766 90.009 117.766 89.9883C117.766 89.9675 117.877 89.7734 118.008 89.5655C118.14 89.3575 118.251 89.1773 118.251 89.1565C118.251 89.1357 118.362 88.9555 118.494 88.7476C118.625 88.5397 118.736 88.3526 118.736 88.3387C118.736 88.3179 118.909 88.0199 119.117 87.6733C119.325 87.3198 119.499 87.0218 119.499 87.0079C119.499 86.9872 119.609 86.807 119.741 86.599C119.873 86.3911 119.984 86.204 119.984 86.1832C119.984 86.1624 120.122 85.9267 120.296 85.6564C120.469 85.3861 120.608 85.1574 120.608 85.1366C120.608 85.1227 120.864 84.6792 121.169 84.1524C121.481 83.6256 121.793 83.085 121.869 82.9533C121.945 82.8217 122.035 82.6761 122.063 82.6415C122.091 82.5999 122.195 82.4266 122.299 82.2395C122.777 81.3731 122.853 81.2414 122.971 81.0681C123.047 80.9711 123.103 80.8671 123.103 80.8394C123.103 80.8117 123.158 80.7077 123.234 80.6107C123.304 80.5067 123.435 80.2849 123.532 80.1117C123.629 79.9384 124.073 79.176 124.523 78.4136C124.967 77.6512 125.411 76.8957 125.508 76.7294C125.598 76.5699 125.882 76.0848 126.131 75.6551C126.381 75.2253 126.665 74.7402 126.762 74.5669C126.852 74.3936 126.991 74.1718 127.06 74.0679C127.136 73.9708 127.192 73.8669 127.192 73.8392C127.192 73.8114 127.247 73.7075 127.324 73.6104C127.393 73.5065 127.525 73.2847 127.622 73.1114C127.809 72.7787 128.238 72.0302 128.439 71.6906C129.23 70.3529 130.228 68.6479 130.366 68.3984C130.463 68.2251 130.595 68.0033 130.664 67.8993C130.741 67.8023 130.796 67.6983 130.796 67.6775C130.796 67.6498 130.872 67.5043 130.976 67.3518C131.149 67.0745 131.281 66.8458 131.614 66.2498C131.711 66.0765 131.843 65.8547 131.912 65.7507C131.988 65.6537 132.044 65.5497 132.044 65.5289C132.044 65.5082 132.148 65.3279 132.272 65.1269C132.404 64.926 132.529 64.7111 132.55 64.6556C132.688 64.3507 134.241 61.7862 134.303 61.7654C134.359 61.7446 134.781 62.4239 135.634 63.921C135.724 64.0804 135.842 64.2744 135.897 64.3576C135.946 64.4408 136.05 64.6141 136.126 64.7388C136.195 64.8636 136.368 65.1685 136.514 65.418C136.66 65.6676 136.833 65.9656 136.902 66.0904C136.971 66.2082 137.103 66.4369 137.2 66.5894C137.304 66.7419 137.38 66.8874 137.38 66.9151C137.38 66.9359 137.436 67.0399 137.512 67.1369C137.581 67.2409 137.72 67.4627 137.81 67.636C137.907 67.8092 138.247 68.3845 138.559 68.9182C138.871 69.4519 139.21 70.0271 139.307 70.2004C139.397 70.3737 139.536 70.5955 139.605 70.6994C139.681 70.7965 139.737 70.9004 139.737 70.9282C139.737 70.9559 139.792 71.0598 139.869 71.1569C139.938 71.2608 140.077 71.4896 140.181 71.6698C140.278 71.8569 140.444 72.148 140.541 72.3282C140.645 72.5153 140.783 72.7441 140.853 72.848C140.929 72.9451 140.984 73.049 140.984 73.0698C140.984 73.0906 141.123 73.3263 141.296 73.5966C141.47 73.8669 141.608 74.0956 141.608 74.1095C141.608 74.1233 141.865 74.5669 142.17 75.0937C142.482 75.6273 142.814 76.1957 142.911 76.3689C143.001 76.5422 143.14 76.764 143.209 76.868C143.286 76.965 143.341 77.069 143.341 77.0967C143.341 77.1244 143.396 77.2284 143.473 77.3254C143.542 77.4294 143.674 77.6512 143.771 77.8244C143.868 77.9977 144.311 78.7601 144.762 79.5225C145.205 80.2849 145.635 81.0196 145.711 81.1513C145.788 81.283 145.878 81.4216 145.905 81.4632C145.933 81.4978 146.037 81.6781 146.141 81.8583C146.619 82.7316 146.696 82.8632 146.813 83.0365C146.89 83.1335 146.945 83.2375 146.945 83.2652C146.945 83.293 147.001 83.3969 147.077 83.494C147.146 83.5979 147.285 83.8197 147.375 83.993C147.472 84.1663 147.811 84.7415 148.123 85.2752C148.435 85.8089 148.775 86.3842 148.872 86.5574C148.962 86.7307 149.101 86.9525 149.17 87.0565C149.246 87.1535 149.302 87.2575 149.302 87.2852C149.302 87.3129 149.357 87.4169 149.433 87.5139C149.503 87.6179 149.641 87.8466 149.745 88.0268C149.842 88.2139 150.009 88.505 150.106 88.6852C150.21 88.8724 150.348 89.0942 150.411 89.1912C150.473 89.2882 150.542 89.3922 150.556 89.4338C150.57 89.4684 150.813 89.8843 151.09 90.3487L151.596 91.2012H158.631C165.596 91.2012 165.666 91.2012 165.624 91.0626C165.603 90.9932 165.409 90.6467 165.201 90.3001C164.993 89.9536 164.827 89.6556 164.827 89.6417C164.827 89.6209 164.716 89.4407 164.584 89.2328C164.453 89.0249 164.342 88.8377 164.342 88.8169C164.342 88.7961 164.231 88.609 164.099 88.4011C163.968 88.1931 163.857 88.006 163.857 87.9921C163.857 87.9714 163.683 87.6733 163.475 87.3268C163.267 86.9733 163.094 86.6753 163.094 86.6545C163.094 86.6337 163.039 86.5297 162.963 86.4327C162.893 86.3287 162.762 86.1069 162.664 85.9337C162.567 85.7604 162.373 85.4208 162.228 85.1712C162.082 84.9217 161.909 84.6098 161.833 84.4782C161.757 84.3465 161.666 84.2009 161.639 84.1663C161.611 84.1247 161.507 83.9514 161.403 83.7643C160.925 82.8979 160.849 82.7662 160.731 82.5929C160.655 82.4959 160.599 82.3919 160.599 82.3711C160.599 82.3434 160.523 82.1979 160.419 82.0454C160.322 81.8929 160.19 81.6642 160.121 81.5464C160.052 81.4216 159.878 81.1236 159.733 80.8741C159.587 80.6245 159.393 80.2849 159.296 80.1117C159.206 79.9384 159.102 79.7651 159.074 79.7305C159.047 79.6889 158.936 79.5017 158.825 79.3146C158.721 79.1205 157.931 77.7482 157.064 76.265C156.198 74.7748 155.415 73.4233 155.318 73.25C155.221 73.0767 154.777 72.3213 154.333 71.5589C153.89 70.8034 153.53 70.1727 153.53 70.1588C153.53 70.145 153.419 69.9648 153.287 69.7568C153.155 69.5489 153.044 69.3618 153.044 69.3479C153.044 69.3271 152.871 69.0291 152.663 68.6825C152.455 68.329 152.282 68.031 152.282 68.0102C152.282 67.9894 152.226 67.8855 152.15 67.7884C152.081 67.6845 151.949 67.4627 151.852 67.2894C151.755 67.1161 151.561 66.7765 151.416 66.527C151.27 66.2775 151.097 65.9795 151.027 65.8547C150.958 65.7369 150.826 65.5082 150.729 65.3557C150.625 65.2032 150.549 65.0576 150.549 65.0299C150.549 65.0091 150.494 64.9052 150.418 64.8081C150.348 64.7042 150.21 64.4754 150.106 64.2883C150.009 64.1081 149.842 63.817 149.745 63.6299C149.641 63.4497 149.503 63.2209 149.433 63.117C149.357 63.0199 149.302 62.916 149.302 62.8883C149.302 62.8605 149.246 62.7566 149.17 62.6595C149.101 62.5556 148.962 62.3268 148.858 62.1397C148.761 61.9595 148.595 61.6684 148.498 61.4813C148.394 61.3011 148.255 61.0723 148.186 60.9684C148.11 60.8713 148.054 60.7674 148.054 60.7466C148.054 60.7189 147.971 60.5733 147.874 60.4208C147.777 60.2614 147.624 59.998 147.527 59.8317C147.437 59.6654 146.64 58.3 145.767 56.789C144.894 55.2781 144.096 53.9127 144.006 53.7533C143.916 53.5939 143.591 53.0324 143.279 52.5057C142.974 51.9789 142.717 51.5354 142.717 51.5146C142.717 51.4938 142.662 51.3898 142.586 51.2928C142.516 51.1888 142.398 50.9947 142.322 50.8631C142.253 50.7314 142.01 50.3086 141.782 49.9274L141.366 49.2343L141.345 38.2973L141.331 27.3672H134.261H127.192V38.3527Z" fill="white"/>
<path d="M57.0857 101.679C55.7896 101.776 54.6391 101.929 53.447 102.164C53.045 102.24 52.643 102.317 52.5459 102.337C52.3034 102.379 51.8529 102.49 51.1251 102.677C50.2171 102.92 49.9607 102.989 49.8082 103.051C49.732 103.086 49.6072 103.121 49.531 103.141C49.3716 103.183 48.221 103.585 48.0062 103.675C47.9299 103.71 47.5418 103.862 47.1398 104.022C46.7378 104.181 45.8507 104.59 45.1645 104.93C43.9308 105.54 43.7367 105.644 42.9604 106.101C42.7387 106.233 42.503 106.371 42.4406 106.413C42.2466 106.524 41.1515 107.231 41.0752 107.293C41.0406 107.321 40.8049 107.494 40.5554 107.674C38.1642 109.407 35.9671 111.493 34.1027 113.836C33.5205 114.564 32.3076 116.248 32.3076 116.324C32.3076 116.338 32.1343 116.622 31.9264 116.948C31.7185 117.267 31.5452 117.551 31.5452 117.572C31.5452 117.586 31.4412 117.766 31.3095 117.967C31.1848 118.168 30.7897 118.923 30.4432 119.651C30.0897 120.372 29.7709 121.023 29.7362 121.086C29.7015 121.155 29.6738 121.238 29.6738 121.28C29.6738 121.314 29.5976 121.508 29.5075 121.709C29.4174 121.91 29.2788 122.25 29.2025 122.458C28.8421 123.428 28.752 123.685 28.7035 123.879C28.6688 123.99 28.551 124.413 28.4332 124.815C28.1282 125.84 27.9757 126.416 27.9203 126.755C27.8995 126.852 27.8233 127.24 27.747 127.622C27.5183 128.793 27.345 130.006 27.2757 130.928C27.2549 131.267 27.2064 131.551 27.1718 131.579C27.0886 131.628 27.0886 136.022 27.1718 136.07C27.2064 136.098 27.2549 136.382 27.2757 136.722C27.352 137.796 27.6015 139.46 27.8718 140.666C27.9134 140.832 27.9757 141.109 28.0173 141.289C28.1975 142.121 28.8698 144.353 29.1193 144.949C29.1471 145.025 29.2926 145.386 29.4312 145.746C29.9233 146.966 30.7481 148.706 31.2471 149.544C31.4066 149.828 31.5452 150.064 31.5452 150.078C31.5452 150.147 32.8551 152.136 33.2848 152.725C33.7769 153.391 34.4562 154.257 34.6641 154.493C34.7196 154.555 34.9413 154.812 35.1493 155.054C35.6344 155.623 37.5127 157.494 38.1989 158.083C38.4831 158.333 38.7326 158.547 38.7534 158.568C38.8712 158.693 40.1326 159.649 40.6247 159.989C40.9505 160.218 41.2277 160.419 41.2485 160.44C41.304 160.502 42.8357 161.479 42.8842 161.479C42.905 161.479 43.009 161.535 43.106 161.604C43.4733 161.86 45.2199 162.768 46.0655 163.143C46.2596 163.226 46.5784 163.371 46.7794 163.462C46.9804 163.552 47.1606 163.628 47.1814 163.628C47.2022 163.628 47.32 163.669 47.4378 163.725C47.8329 163.898 49.1844 164.39 49.4617 164.46C49.5795 164.494 49.9954 164.612 50.3974 164.73C51.2568 164.986 51.4924 165.049 51.9568 165.153C52.1509 165.194 52.4143 165.257 52.5459 165.291C53.0796 165.423 54.5629 165.672 55.3876 165.77C56.8916 165.95 57.564 165.984 59.4076 165.984C62.1176 165.984 64.086 165.79 66.3039 165.291C67.3782 165.056 67.4683 165.028 68.4871 164.73C68.8891 164.612 69.3119 164.494 69.4228 164.46C69.6169 164.411 70.303 164.168 70.6011 164.044C70.6773 164.016 70.8506 163.954 70.9823 163.905C71.114 163.857 71.3912 163.746 71.5922 163.656C71.7932 163.565 71.9872 163.489 72.0219 163.489C72.0635 163.489 72.1467 163.462 72.216 163.42C72.2783 163.385 72.5556 163.254 72.819 163.136C73.8032 162.699 75.0091 162.068 76.1458 161.389C77.0676 160.842 79.2024 159.358 79.5073 159.053C79.5281 159.033 79.7014 158.894 79.8885 158.748C81.0807 157.806 83.0698 155.851 84.158 154.548C84.7125 153.883 85.4402 152.933 86.0709 152.053C86.3066 151.727 87.2007 150.32 87.2007 150.279C87.2007 150.258 87.2561 150.154 87.3324 150.057C87.7344 149.482 88.878 147.174 89.377 145.919C89.4879 145.649 89.5988 145.372 89.6265 145.295C89.8344 144.783 90.2364 143.577 90.4236 142.939C90.4859 142.71 90.5622 142.447 90.5968 142.35C90.6246 142.253 90.6869 142.017 90.7355 141.83C90.777 141.636 90.8394 141.373 90.8741 141.241C90.9988 140.742 91.1375 140.083 91.2206 139.612C91.2622 139.342 91.3246 138.968 91.3592 138.78C91.588 137.47 91.7266 135.613 91.7266 133.825C91.7266 131.101 91.4771 129.008 90.8048 126.062C90.5067 124.766 89.6958 122.375 89.0651 120.954C88.7601 120.254 87.9215 118.591 87.6373 118.105C87.471 117.821 87.3393 117.579 87.3393 117.565C87.3393 117.489 85.9254 115.347 85.461 114.723C83.7005 112.346 81.545 110.149 79.1331 108.284C78.8905 108.09 78.7934 108.021 78.3221 107.681C77.5389 107.113 76.2775 106.295 75.3141 105.741C74.9676 105.547 72.8259 104.479 72.3685 104.278C72.2368 104.223 71.8764 104.077 71.5714 103.952C71.2664 103.835 70.9545 103.703 70.8783 103.675C70.6565 103.578 69.5129 103.183 69.2842 103.121C69.1733 103.086 68.6881 102.947 68.2099 102.809C67.1633 102.511 66.9623 102.462 65.4375 102.164C62.8453 101.658 59.6779 101.471 57.0857 101.679ZM61.0987 115.458C62.5542 115.624 63.3652 115.777 64.7098 116.151C65.8048 116.456 67.4405 117.156 68.6188 117.821C70.4486 118.854 72.5071 120.601 73.7893 122.215C73.9418 122.403 74.1081 122.604 74.1566 122.659C74.2052 122.708 74.517 123.158 74.8428 123.657C75.723 124.988 76.3052 126.173 76.9429 127.899C77.026 128.134 77.1369 128.495 77.3102 129.146C77.4627 129.701 77.5112 129.943 77.6706 130.81C78.0934 133.201 77.9201 136.486 77.2478 138.746C77.0607 139.363 76.728 140.354 76.6171 140.617C76.5617 140.749 76.4854 140.922 76.4577 140.998C76.0488 141.989 74.9953 143.875 74.4893 144.505C74.4061 144.609 74.2814 144.776 74.2121 144.873C74.1358 144.977 74.018 145.129 73.9487 145.205C73.8794 145.289 73.72 145.49 73.5952 145.649C73.221 146.155 71.3981 147.902 70.705 148.421C68.7436 149.891 66.9069 150.813 64.4325 151.561C63.3305 151.894 62.0413 152.102 60.5165 152.192C58.1392 152.33 55.9282 152.053 53.6896 151.325C53.3084 151.201 52.9064 151.062 52.7885 151.014C52.6776 150.965 52.5182 150.903 52.442 150.875C51.9499 150.702 50.1617 149.766 49.4825 149.329C47.0151 147.749 44.8318 145.483 43.4525 143.05C43.203 142.613 42.607 141.428 42.4753 141.102C42.2743 140.617 42.2396 140.527 42.1287 140.271C42.0733 140.139 41.9555 139.792 41.8723 139.508C41.7891 139.224 41.6921 138.912 41.6574 138.815C41.5673 138.566 41.3109 137.457 41.2416 137.013C40.902 134.941 40.8881 132.889 41.1792 130.983C41.304 130.193 41.3871 129.833 41.7337 128.523C41.9832 127.566 42.6832 125.958 43.4456 124.572C43.6328 124.239 44.6863 122.666 44.7764 122.597C44.7971 122.576 44.9981 122.34 45.213 122.07C45.719 121.432 47.0151 120.136 47.6527 119.63C47.923 119.415 48.1795 119.2 48.228 119.159C48.3666 119.027 49.8637 118.043 50.2587 117.821C50.834 117.495 51.9152 116.983 52.5806 116.705C52.9687 116.539 53.8004 116.255 54.1747 116.151C55.4639 115.797 56.4827 115.596 57.6402 115.465C58.4373 115.382 60.371 115.375 61.0987 115.458Z" fill="white"/>
<path d="M102.802 102.179C102.747 102.248 102.733 110.496 102.74 133.59L102.761 164.911H109.796H116.831L116.851 143.404C116.858 131.483 116.893 121.904 116.928 121.904C116.976 121.904 117.378 122.382 118.494 123.775C118.847 124.212 119.527 125.051 119.645 125.196C119.714 125.273 120.566 126.319 121.544 127.518C122.521 128.717 123.373 129.764 123.436 129.84C123.505 129.916 123.678 130.131 123.831 130.325C123.983 130.512 124.122 130.686 124.15 130.706C124.17 130.727 124.371 130.977 124.593 131.261C124.822 131.545 125.058 131.843 125.127 131.919C125.189 131.996 126.042 133.042 127.019 134.241C129.057 136.736 128.877 136.528 129.514 137.291C129.951 137.811 130.284 138.227 131.039 139.162C131.836 140.153 132.079 140.451 132.106 140.479C132.134 140.5 132.273 140.666 132.425 140.86C132.578 141.047 132.751 141.269 132.82 141.345C132.883 141.422 133.597 142.295 134.4 143.286C135.204 144.277 135.918 145.151 135.981 145.227C136.05 145.303 136.223 145.518 136.376 145.712C136.528 145.899 136.674 146.072 136.695 146.093C136.715 146.114 136.868 146.301 137.041 146.516C137.45 147.036 140.812 151.174 141.456 151.95C141.526 152.026 141.699 152.241 141.851 152.435C142.004 152.622 142.142 152.795 142.17 152.816C142.191 152.837 142.378 153.066 142.593 153.336C143.39 154.327 144.582 155.796 144.658 155.866C144.679 155.887 144.818 156.053 144.97 156.247C145.123 156.434 145.296 156.656 145.365 156.732C145.428 156.808 146.28 157.855 147.257 159.054C148.235 160.253 149.15 161.376 149.288 161.542C149.434 161.709 149.621 161.951 149.718 162.069C150.016 162.457 150.716 163.317 150.758 163.351C150.778 163.372 151.076 163.739 151.416 164.162L152.04 164.945H158.888H165.728V133.513V102.082L158.714 102.095L151.693 102.116L151.672 123.443C151.665 135.662 151.631 144.776 151.596 144.776C151.562 144.776 151.451 144.658 151.34 144.513C151.236 144.374 151.125 144.243 151.104 144.222C151.083 144.201 150.938 144.028 150.792 143.841C150.64 143.647 150.501 143.48 150.473 143.459C150.453 143.439 150.252 143.196 150.023 142.912C149.801 142.628 149.538 142.302 149.441 142.184C149.226 141.914 145.864 137.79 145.705 137.603C145.642 137.526 145.414 137.242 145.199 136.979C144.36 135.939 144.076 135.593 144.035 135.558C144.014 135.537 143.944 135.461 143.889 135.378C143.834 135.302 143.674 135.094 143.535 134.927C143.39 134.761 142.96 134.234 142.572 133.756C142.191 133.278 141.824 132.827 141.761 132.751C140.728 131.497 140.34 131.025 139.613 130.117C139.398 129.847 139.211 129.618 139.19 129.597C139.162 129.577 139.023 129.403 138.871 129.216C138.725 129.022 138.58 128.856 138.559 128.835C138.538 128.814 138.15 128.329 137.693 127.761C137.235 127.186 136.847 126.707 136.826 126.686C136.806 126.666 136.66 126.492 136.514 126.305C136.362 126.111 136.223 125.945 136.203 125.924C136.154 125.882 134.456 123.803 134.061 123.297C133.888 123.082 133.735 122.895 133.714 122.874C133.694 122.854 133.548 122.68 133.396 122.493C133.243 122.299 133.07 122.084 133 122.008C132.82 121.786 130.984 119.534 130.796 119.298C130.089 118.418 129.791 118.051 129.757 118.023C129.736 118.002 129.535 117.752 129.306 117.468C129.078 117.184 128.842 116.886 128.779 116.81C128.627 116.63 126.167 113.615 125.945 113.337C125.189 112.395 124.94 112.09 124.912 112.062C124.884 112.041 124.746 111.868 124.593 111.681C124.441 111.487 124.267 111.272 124.205 111.196C124.004 110.953 121.273 107.606 121.093 107.377C120.996 107.259 120.733 106.933 120.511 106.649C120.282 106.365 120.081 106.122 120.06 106.102C120.033 106.081 119.894 105.908 119.742 105.72C119.589 105.526 119.437 105.339 119.395 105.298C119.36 105.249 118.75 104.514 118.05 103.648L116.775 102.082H109.83C104.071 102.082 102.872 102.095 102.802 102.179Z" fill="white"/>
</svg>
