<?xml version="1.0" standalone="no"?>
<!DOCTYPE svg PUBLIC "-//W3C//DTD SVG 20010904//EN"
 "http://www.w3.org/TR/2001/REC-SVG-20010904/DTD/svg10.dtd">
<svg version="1.0" xmlns="http://www.w3.org/2000/svg"
 width="256.000000pt" height="256.000000pt" viewBox="0 0 256.000000 256.000000"
 preserveAspectRatio="xMidYMid meet">
<metadata>
Created by potrace 1.14, written by Peter Selinger 2001-2017
</metadata>
<g transform="translate(0.000000,256.000000) scale(0.100000,-0.100000)"
fill="#000000" stroke="none">
<path d="M0 1280 l0 -1280 1280 0 1280 0 0 1280 0 1280 -1280 0 -1280 0 0
-1280z m1900 826 l0 -134 165 -277 c91 -152 165 -279 165 -281 0 -2 -42 -4
-92 -4 l-93 0 -115 196 c-93 159 -116 193 -125 180 -6 -8 -58 -96 -116 -195
l-104 -180 -97 -1 -97 0 165 276 164 276 0 139 0 139 90 0 90 0 0 -134z m-971
-855 c82 -26 138 -60 194 -120 136 -146 155 -366 46 -530 -155 -233 -517 -265
-717 -64 -161 161 -171 400 -26 579 104 128 330 189 503 135z m881 -276 l225
-274 3 274 2 275 90 0 90 0 0 -410 0 -410 -87 0 -88 1 -225 274 c-124 151
-228 275 -232 275 -5 0 -8 -124 -8 -275 l0 -275 -85 0 -85 0 0 410 0 410 88
-1 87 0 225 -274z"/>
<path d="M703 1096 c-123 -39 -193 -133 -193 -258 0 -248 312 -362 477 -174
48 54 67 114 61 196 -5 59 -11 79 -38 118 -42 61 -81 92 -144 114 -60 20 -105
22 -163 4z"/>
</g>
</svg>
